<?xml version="1.0" encoding="UTF-8" standalone="no"?>
<svg width="14px" height="20px" viewBox="0 0 14 20" version="1.1" xmlns="http://www.w3.org/2000/svg" xmlns:xlink="http://www.w3.org/1999/xlink">
    <!-- Generator: Sketch 3.6.1 (26313) - http://www.bohemiancoding.com/sketch -->
    <title>Shape</title>
    <desc>Created with Sketch.</desc>
    <defs></defs>
    <g id="Page-1" stroke="none" stroke-width="1" fill="none" fill-rule="evenodd">
        <path d="M7,9.5 C5.61928813,9.5 4.5,8.38071187 4.5,7 C4.5,6.33695878 4.7633921,5.70107399 5.23223305,5.23223305 C5.70107399,4.7633921 6.33695878,4.5 7,4.5 C8.38071187,4.5 9.5,5.61928813 9.5,7 C9.5,7.66304122 9.2366079,8.29892601 8.76776695,8.76776695 C8.29892601,9.2366079 7.66304122,9.5 7,9.5 L7,9.5 Z M7,0 C3.13400675,-1.33226763e-15 8.8817842e-16,3.13400675 0,7 C8.8817842e-16,12.25 7,20 7,20 C7,20 14,12.25 14,7 C14,3.13400675 10.8659932,4.4408921e-16 7,-8.8817842e-16 L7,0 Z" id="Shape" fill="#000000"></path>
    </g>
</svg>