<?xml version="1.0" encoding="UTF-8" standalone="no"?>
<svg width="32px" height="32px" viewBox="0 0 32 32" version="1.1" xmlns="http://www.w3.org/2000/svg" xmlns:xlink="http://www.w3.org/1999/xlink" xmlns:sketch="http://www.bohemiancoding.com/sketch/ns">
    <!-- Generator: Sketch 3.3.3 (12072) - http://www.bohemiancoding.com/sketch -->
    <title>whatsup</title>
    <desc>Created with Sketch.</desc>
    <defs></defs>
    <g id="Page-1" stroke="none" stroke-width="1" fill="none" fill-rule="evenodd" sketch:type="MSPage">
        <path d="M16.1717356,0.0001125236 C7.57912571,0.0001125236 0.613633177,6.96532685 0.613633177,15.5579368 C0.613633177,18.4970125 1.42934767,21.2458244 2.84603445,23.5908819 L0.0382519515,31.9377344 L8.65186327,29.1797431 C10.8806484,30.4124247 13.4439252,31.1149267 16.1717356,31.1149267 C24.7637893,31.1149267 31.7292818,24.1499905 31.7292818,15.5580759 C31.7294209,6.96532685 24.7639284,0.0001125236 16.1717356,0.0001125236 L16.1717356,0.0001125236 L16.1717356,0.0001125236 Z M16.1717356,28.6371852 C13.5147178,28.6371852 11.0408706,27.8402468 8.97536742,26.4740466 L3.94881369,28.0837789 L5.582468,23.2262095 C4.01668559,21.0698859 3.09151374,18.4202394 3.09151374,15.5575196 C3.09151374,8.34515699 8.95923393,2.47757585 16.1717356,2.47757585 C23.3838202,2.47757585 29.2516794,8.34515699 29.2516794,15.5575196 C29.2516794,22.7696041 23.3839592,28.6371852 16.1717356,28.6371852 L16.1717356,28.6371852 Z M12.5227867,9.122624 C12.2707706,8.51525396 12.0777251,8.49466985 11.6884353,8.47617198 C11.5549167,8.46977422 11.4101326,8.46365461 11.2517185,8.46365461 C10.7501897,8.46365461 10.230163,8.61135944 9.91681185,8.93194292 C9.5354497,9.32206721 8.58190515,10.2358344 8.58190515,12.1120473 C8.58190515,13.9885383 9.94852248,15.8017472 10.1389254,16.0562668 C10.3298846,16.3105082 12.8042882,20.2174538 16.6540712,21.8125825 C19.6589325,23.0572252 20.551142,22.946377 21.236676,22.7964469 C22.2341703,22.5786448 23.4867406,21.844015 23.8045424,20.9538917 C24.1223442,20.0632122 24.1223442,19.2997924 24.0270732,19.1412392 C23.9316632,18.9819906 23.6774217,18.8869978 23.2960596,18.6957603 C22.9146974,18.5050793 21.0394581,17.58255 20.6899456,17.4555683 C20.3402941,17.3284476 20.017068,17.3672514 19.748223,17.7390169 C19.3771529,18.2526459 19.0202691,18.7804612 18.7247204,19.0933951 C18.492732,19.3390135 18.1194366,19.3732276 17.7984359,19.2367884 C17.3763227,19.0569557 16.1881473,18.6429093 14.7312659,17.3441639 C13.5977496,16.3335958 12.8322436,15.085198 12.6097128,14.7032795 C12.387182,14.3219173 12.5901023,14.0942404 12.7615901,13.8867305 C12.957139,13.6498742 13.1375281,13.4797772 13.3282092,13.2573855 C13.5188902,13.0345765 13.6254269,12.9159398 13.7525476,12.661142 C13.8796683,12.4069006 13.794133,12.1444533 13.6987229,11.9534941 C13.6031738,11.7625348 12.8396149,9.88660011 12.5227867,9.122624 L12.5227867,9.122624 Z" id="whatsup" fill="#000000" sketch:type="MSShapeGroup"></path>
    </g>
</svg>