<?xml version="1.0" encoding="UTF-8" standalone="no"?>
<svg width="24px" height="21px" viewBox="0 0 24 21" version="1.1" xmlns="http://www.w3.org/2000/svg" xmlns:xlink="http://www.w3.org/1999/xlink" xmlns:sketch="http://www.bohemiancoding.com/sketch/ns">
    <!-- Generator: Sketch 3.4.2 (15855) - http://www.bohemiancoding.com/sketch -->
    <title>Shape</title>
    <desc>Created with Sketch.</desc>
    <defs></defs>
    <g id="Page-1" stroke="none" stroke-width="1" fill="none" fill-rule="evenodd" sketch:type="MSPage">
        <path d="M23.244,16.009 L0.75,16.009 C0.337,16.009 0,16.369 0,16.81 L0,20.231 C0,20.654 0.337,21 0.75,21 L23.244,21 C23.658,21 23.994,20.654 23.994,20.23 L23.994,16.81 C23.994,16.369 23.658,16.009 23.244,16.009 L23.244,16.009 Z M23.244,8.009 L0.75,8.009 C0.337,8.009 0,8.369 0,8.81 L0,12.231 C0,12.655 0.337,13 0.75,13 L23.244,13 C23.658,13 23.994,12.655 23.994,12.231 L23.994,8.81 C23.994,8.369 23.658,8.009 23.244,8.009 L23.244,8.009 Z M23.244,0.009 L0.75,0.009 C0.337,0.009 0,0.369 0,0.81 L0,4.23 C0,4.653 0.337,4.999 0.75,4.999 L23.244,4.999 C23.658,4.999 23.994,4.653 23.994,4.23 L23.994,0.81 C23.994,0.369 23.658,0.009 23.244,0.009 L23.244,0.009 Z" id="Shape" fill="#000000" sketch:type="MSShapeGroup"></path>
    </g>
</svg>