<?xml version="1.0" encoding="UTF-8" standalone="no"?>
<svg width="32px" height="21px" viewBox="0 0 32 21" version="1.1" xmlns="http://www.w3.org/2000/svg" xmlns:xlink="http://www.w3.org/1999/xlink" xmlns:sketch="http://www.bohemiancoding.com/sketch/ns">
    <!-- Generator: Sketch 3.3.3 (12072) - http://www.bohemiancoding.com/sketch -->
    <title>vkontakte</title>
    <desc>Created with Sketch.</desc>
    <defs></defs>
    <g id="Page-1" stroke="none" stroke-width="1" fill="none" fill-rule="evenodd" sketch:type="MSPage">
        <path d="M0.0054438677,1.52695383 C-0.213527289,0.190760493 6.24612006,1.01805207 6.24612006,1.01805207 C6.24612006,1.01805207 9.99600007,10.4350338 11.4740549,10.4350337 C12.9521098,10.4350335 12.2404538,2.44968778 12.2404538,2.44968778 C12.2404538,2.44968778 10.4065708,1.97247588 10.4065709,1.24075096 C10.4065709,0.509026033 12.2404538,0 12.2404538,0 C12.2404538,0 16.986418,6.3958816e-08 17.632617,0 C18.2788159,-6.48236808e-08 18.535979,1.04986625 18.5359797,1.74977699 C18.5359803,2.44968773 18.5359797,10.3077772 18.5359797,10.3077772 L20.0140346,10.3077772 C20.0140346,10.3077772 21.3297427,8.19306598 22.3678669,6.04468412 C23.4059912,3.89630234 24.6670634,1.01805207 24.6670634,1.01805207 L30.935111,1.01805207 C30.935111,1.01805207 32.0847093,1.04961765 31.9478523,2.00416573 C31.7616698,3.30274945 27.5915791,9.46950121 26.7199174,11.580218 C26.0630041,13.1709243 29.4795482,15.3239543 30.935111,17.6249021 C31.8797907,19.118248 31.9478523,20.8700673 31.9478523,20.8700673 L24.502942,20.8700673 L20.7803265,16.5432218 C20.7803265,16.5432218 20.0140346,16.2252048 19.4117571,16.6704783 C18.8094797,17.1157518 18.7822152,18.0066716 18.7822152,18.0066716 L18.7822152,20.8700673 L12.9521098,20.8700673 C12.9521098,20.8700673 8.49057378,19.3429892 4.7133224,12.6620226 C0.936070612,5.98105597 0.224414962,2.86314716 0.0054438677,1.52695383 L0.0054438677,1.52695383 Z" id="vkontakte" fill="#000000" sketch:type="MSShapeGroup"></path>
    </g>
</svg>