<?xml version="1.0" encoding="UTF-8" standalone="no"?>
<svg width="99px" height="40px" viewBox="0 0 99 40" version="1.1" xmlns="http://www.w3.org/2000/svg" xmlns:xlink="http://www.w3.org/1999/xlink">
    <!-- Generator: Sketch 3.6.1 (26313) - http://www.bohemiancoding.com/sketch -->
    <title>Group 4</title>
    <desc>Created with Sketch.</desc>
    <defs></defs>
    <g id="Page-1" stroke="none" stroke-width="1" fill="none" fill-rule="evenodd">
        <g id="Artboard-11" transform="translate(-419.000000, -324.000000)" fill="#000000">
            <g id="Group-4" transform="translate(419.000000, 324.000000)">
                <path d="M10.8947571,20.2447753 C10.0551926,20.0074165 9.44,19.2355512 9.44,18.32 C9.44,18.1584583 9.45915204,18.0013898 9.49530937,17.8509412 L8.10147835,17.0462125 C7.74242639,17.3892907 7.25582009,17.6 6.72,17.6 C6.1643194,17.6 5.6615685,17.373381 5.29912591,17.0075217 L3.93103022,17.7973921 C3.97600667,17.963984 4,18.13919 4,18.32 C4,19.4245695 3.1045695,20.32 2,20.32 C0.8954305,20.32 0,19.4245695 0,18.32 C0,17.2154305 0.8954305,16.32 2,16.32 C2.51876395,16.32 2.99139736,16.5175083 3.34680528,16.84143 L4.76476788,16.0227689 C4.73544064,15.8864883 4.72,15.7450473 4.72,15.6 C4.72,14.4954305 5.6154305,13.6 6.72,13.6 C7.25287827,13.6 7.73708166,13.808402 8.09555291,14.1481487 L10.88,12.5405474 L10.88,9.28054151 C10.564862,9.1888079 10.2818621,9.02161346 10.0518661,8.79982381 L8.65950417,9.66986811 C8.69901392,9.82670225 8.72,9.99090034 8.72,10.16 C8.72,11.2645695 7.8245695,12.16 6.72,12.16 C5.6154305,12.16 4.72,11.2645695 4.72,10.16 C4.72,10.0004036 4.73869355,9.84517337 4.77401052,9.69637935 L3.32387941,8.85914577 C3.10623481,9.05149138 2.8463883,9.19717667 2.56,9.28054151 L2.56,10.9594585 C3.39200649,11.2016475 4,11.9698215 4,12.88 C4,13.9845695 3.1045695,14.88 2,14.88 C0.8954305,14.88 0,13.9845695 0,12.88 C0,11.9698215 0.607993513,11.2016475 1.44,10.9594585 L1.44,9.28054151 C0.607993513,9.03835253 0,8.27017851 0,7.36 C0,6.2554305 0.8954305,5.36 2,5.36 C2.55950335,5.36 3.06534625,5.5897477 3.4283343,5.9600487 L4.76144695,5.12702747 C4.73427618,4.99560709 4.72,4.85947073 4.72,4.72 C4.72,3.6154305 5.6154305,2.72 6.72,2.72 C7.8245695,2.72 8.72,3.6154305 8.72,4.72 C8.72,5.8245695 7.8245695,6.72 6.72,6.72 C6.15938448,6.72 5.65264295,6.48933801 5.28950276,6.11774139 L3.95789862,6.94982001 C3.98549454,7.0822154 4,7.21941373 4,7.36 C4,7.551382 3.97311884,7.73648558 3.92292623,7.91174101 L5.32861665,8.72331675 C5.68859913,8.3746152 6.17923653,8.16 6.72,8.16 C7.25080916,8.16 7.7333207,8.3667867 8.0913715,8.70419699 L9.49486314,7.82719807 C9.45899449,7.67731533 9.44,7.52087587 9.44,7.36 C9.44,6.4208924 10.0872566,5.63295968 10.96,5.41797171 L10.96,3.94202829 C10.0872566,3.72704032 9.44,2.9391076 9.44,2 C9.44,0.8954305 10.3354305,0 11.44,0 C12.5445695,0 13.44,0.8954305 13.44,2 C13.44,2.91017851 12.8320065,3.67835253 12,3.92054151 L12,5.43945849 C12.8320065,5.68164747 13.44,6.44982149 13.44,7.36 C13.44,8.27017851 12.8320065,9.03835253 12,9.28054151 L12,12.5867354 L14.6531524,14.1185336 C14.9085726,13.8585168 15.2345139,13.668004 15.6,13.5779717 L15.6,12.1020283 C14.7272566,11.8870403 14.08,11.0991076 14.08,10.16 C14.08,9.0554305 14.9754305,8.16 16.08,8.16 C16.6102255,8.16 17.0922595,8.36633217 17.4501899,8.70308437 L18.8390453,7.83523117 C18.8134356,7.70746641 18.8,7.57530222 18.8,7.44 C18.8,7.26978459 18.8212639,7.10453564 18.8612803,6.9467646 L17.4268053,6.11857004 C17.0713974,6.44249169 16.598764,6.64 16.08,6.64 C14.9754305,6.64 14.08,5.7445695 14.08,4.64 C14.08,3.5354305 14.9754305,2.64 16.08,2.64 C17.1845695,2.64 18.08,3.5354305 18.08,4.64 C18.08,4.82080997 18.0560067,4.99601599 18.0110302,5.16260787 L19.4306954,5.98225196 C19.7885352,5.64599218 20.2702116,5.44 20.8,5.44 C21.9045695,5.44 22.8,6.3354305 22.8,7.44 C22.8,8.35017851 22.1920065,9.11835253 21.36,9.36054151 L21.36,10.8794585 C22.1920065,11.1216475 22.8,11.8898215 22.8,12.8 C22.8,13.9045695 21.9045695,14.8 20.8,14.8 C19.6954305,14.8 18.8,13.9045695 18.8,12.8 C18.8,11.8608924 19.4472566,11.0729597 20.32,10.8579717 L20.32,9.38202829 C19.9489149,9.29061674 19.6185956,9.09562266 19.3614636,8.82946777 L18.0191007,9.66826925 C18.058871,9.82558617 18.08,9.99032562 18.08,10.16 C18.08,11.0701785 17.4720065,11.8383525 16.64,12.0805415 L16.64,13.5994585 C17.4720065,13.8416475 18.08,14.6098215 18.08,15.52 C18.08,15.7075149 18.0541942,15.8890025 18.0059403,16.0611051 L19.4166496,16.8755785 C19.7758813,16.5314428 20.2632481,16.32 20.8,16.32 C21.9045695,16.32 22.8,17.2154305 22.8,18.32 C22.8,19.4245695 21.9045695,20.32 20.8,20.32 C19.6954305,20.32 18.8,19.4245695 18.8,18.32 C18.8,18.1565138 18.8196159,17.9976092 18.8566224,17.8455113 L17.4123208,17.0116433 C17.0586045,17.3277981 16.5917478,17.52 16.08,17.52 C14.9754305,17.52 14.08,16.6245695 14.08,15.52 C14.08,15.3779531 14.0948084,15.2393648 14.1229658,15.1056949 L11.4,13.5335898 L8.66080576,15.1150644 C8.69947467,15.2703278 8.72,15.4327669 8.72,15.6 C8.72,15.7643883 8.70016703,15.9241444 8.66276336,16.077006 L10.0526262,16.8794436 C10.4122381,16.5330267 10.9012415,16.32 11.44,16.32 C12.5445695,16.32 13.44,17.2154305 13.44,18.32 C13.44,19.2488077 12.8068634,20.0297385 11.9486341,20.2547483 L11.9486341,22.8741813 L14.2275674,21.5573852 C14.1834948,21.3923555 14.16,21.2189215 14.16,21.04 C14.16,19.9354305 15.0554305,19.04 16.16,19.04 C17.2645695,19.04 18.16,19.9354305 18.16,21.04 C18.16,22.1445695 17.2645695,23.04 16.16,23.04 C15.6148464,23.04 15.1206361,22.821886 14.7598751,22.4681641 L11.9486341,24.0922003 L11.9486341,28.874693 L22.2886037,28.874693 C22.4826724,28.874693 22.64,29.0324854 22.64,29.2264254 C22.64,29.4213085 22.4826724,29.5784722 22.2886037,29.5784722 L11.9847473,29.5784722 C12.1665689,30.9115351 13.4320981,31.0903874 15.4054442,31.2516374 C17.328546,31.4094298 19.508208,31.5882822 20.0941825,33.7539985 C20.1324938,33.8954459 20.0492766,34.0400365 19.9092205,34.0783845 C19.8856685,34.0843567 19.8627445,34.0875 19.8398206,34.0875 C19.7236305,34.0875 19.6174894,34.0101754 19.5857727,33.8923026 C19.1439366,32.2603143 17.5552736,31.974905 15.9009789,31.8240278 C15.9455708,31.8736915 15.9879644,31.9252412 16.0272178,31.9786769 C16.3431291,32.405848 16.8377217,32.6048173 17.3612048,32.8154167 C18.0172074,33.0788231 18.6951919,33.3519737 19.0023103,34.1010161 C19.0575791,34.2358626 18.9932036,34.3901974 18.8581719,34.445519 C18.8255131,34.4587208 18.7915982,34.4650073 18.7586253,34.4650073 C18.6546824,34.4650073 18.5563919,34.4037135 18.5146263,34.3009284 C18.2919811,33.7583991 17.7697541,33.5484284 17.1649379,33.3054532 C16.9360122,33.2133553 16.7042602,33.1187427 16.4825571,33.0036988 C16.5481887,33.2495029 16.6000032,33.5000219 16.6486774,33.7442544 C16.736919,34.1849415 16.8204502,34.6020541 16.979976,34.9519006 C17.0405832,35.0845468 16.9824882,35.2410819 16.8499688,35.3017471 C16.8144837,35.3177778 16.7774285,35.325636 16.7406873,35.325636 C16.6405127,35.325636 16.5450485,35.268114 16.5007706,35.1716155 C16.3151806,34.7658187 16.2219146,34.2987281 16.1317888,33.8479825 C15.9157382,32.7685819 15.7292061,31.8362865 14.4385548,31.6935819 C14.4351005,31.6932675 14.4325883,31.6926389 14.4297621,31.6920102 C13.5143731,31.5889108 12.6614756,31.4066009 12.1015653,30.9159357 C12.364092,31.5291886 12.7541136,31.9774196 13.1372266,32.4149635 C13.2954963,32.5963304 13.454708,32.779269 13.6044989,32.9725804 C13.6070111,32.975095 13.6101514,32.9776096 13.6126636,32.9804386 C13.7699912,33.1844371 13.953383,33.3573173 14.1477658,33.5418275 C14.4074662,33.7866886 14.6797276,34.0463231 14.9017448,34.3942836 C14.9067692,34.4005702 14.9117936,34.4062281 14.91619,34.4134576 C15.2088633,34.8799196 16.0718097,35.8323319 16.6191589,36.1410015 C16.7460258,36.2120395 16.7909317,36.3729751 16.7196475,36.5002778 C16.6712874,36.5860892 16.5817896,36.6344956 16.4897797,36.6344956 C16.4458159,36.6344956 16.4015381,36.6234942 16.3607146,36.6008626 C16.052654,36.4270395 15.6839862,36.1042251 15.3460931,35.7572076 C15.3778098,36.0822222 15.3778098,36.4509284 15.3316478,36.884386 C15.3172026,37.0201754 15.2032108,37.1201316 15.0700633,37.1201316 C15.0606425,37.1201316 15.0515357,37.1195029 15.0421149,37.1188743 C14.8976624,37.1037865 14.7924634,36.9733406 14.8078507,36.82875 C14.9362878,35.6185892 14.6991973,34.9776754 14.3368101,34.5049269 C14.4969639,35.3268933 14.3933349,36.4147807 13.7844364,37.9980482 C13.7439269,38.1030336 13.6440663,38.1674708 13.5382392,38.1674708 C13.5065225,38.1674708 13.4744917,38.1614985 13.4437171,38.1498684 C13.3077433,38.0970614 13.2399135,37.9446126 13.292356,37.8085088 C14.4721557,34.7425585 13.6698166,33.8253509 12.7406104,32.7626096 C12.3725707,32.3414108 11.9797228,31.8897222 11.6905039,31.2862135 C11.7737211,32.3194079 11.9074966,33.1671491 12.0233726,33.9020468 C12.3728847,36.1139693 12.5832829,37.4498611 10.8492253,39.8896711 C10.7980389,39.9619664 10.7167059,40 10.6344308,40 C10.5813602,40 10.5282897,39.9849123 10.4818137,39.9515936 C10.3631114,39.8667251 10.335477,39.7023319 10.4199503,39.5838304 C11.6939582,37.7912208 11.8418649,36.6750439 11.680141,35.2212792 C11.5727437,35.4067325 11.4471329,35.5620102 11.3234062,35.7147734 C10.9939918,36.1224561 10.682791,36.5075073 10.7484227,37.5891082 C10.7572154,37.7346418 10.6466779,37.8600585 10.5012833,37.8685453 C10.4959449,37.869174 10.4906064,37.869174 10.485268,37.869174 C10.346782,37.869174 10.230592,37.7610453 10.2221133,37.6211696 C10.1442346,36.3349415 10.5530978,35.8298173 10.9136009,35.3834722 C11.2731619,34.9383845 11.5834207,34.553962 11.3968886,33.300424 C11.3149275,32.7541228 11.2348506,32.1462135 11.1754995,31.455636 C10.8922471,32.0327412 10.4237187,32.6620249 9.64681567,33.3180263 L9.64650164,33.3180263 C8.71949371,34.1003874 8.9710294,34.9537865 9.26181847,35.9407749 C9.45243291,36.5879751 9.64964191,37.2565497 9.52717135,37.9521564 C9.50487543,38.080402 9.39339582,38.1699854 9.26809901,38.1699854 C9.25271169,38.1699854 9.23732436,38.1687281 9.22193703,38.1662135 C9.07842666,38.1410673 8.98296243,38.0043348 9.0080846,37.8606871 C9.10888729,37.2873538 8.92989185,36.6788158 8.75654891,36.0907091 C8.67804214,35.8241594 8.59733718,35.5484942 8.54144036,35.2687427 C8.51788833,35.3718421 8.49590643,35.4749415 8.47361051,35.5799269 C8.27891372,36.4914766 8.07762237,37.4350877 6.85542898,38.2369371 C6.81115117,38.2658553 6.76059281,38.28 6.71129056,38.28 C6.62556116,38.28 6.54108788,38.2381944 6.49052952,38.1608699 C6.41076664,38.0385965 6.44499559,37.8754605 6.56652407,37.7956213 C7.60720981,37.112902 7.7695618,36.3516009 7.95797805,35.4692836 C8.03993912,35.0858041 8.1278667,34.6781213 8.30120965,34.2666667 C8.22458704,34.3128728 8.14890651,34.3575073 8.07825042,34.3993129 C7.30574381,34.8566594 6.8799231,35.107807 6.70909237,36.0797076 C6.68679644,36.2079532 6.57563086,36.2981652 6.45002003,36.2981652 C6.4346327,36.2981652 6.41987343,36.2969079 6.40417207,36.2937646 C6.26097573,36.2686184 6.16488344,36.131886 6.19000561,35.9882383 C6.40322999,34.7774488 6.99328687,34.428231 7.8100713,33.9451096 C8.24091645,33.6901901 8.72954258,33.4016374 9.30609629,32.9153728 C9.30641032,32.9153728 9.30672435,32.9147442 9.30672435,32.9147442 C10.2170888,32.1462135 10.659867,31.4339474 10.8759176,30.8065497 C10.8055756,30.8926754 10.7317792,30.9759722 10.6495041,31.0532968 C9.86600657,31.7881944 8.5894865,32.1044079 6.8544869,31.9975365 C6.08386446,32.1399269 5.99719298,32.5598684 5.87943283,33.4858772 C5.7723496,34.3279605 5.63888809,35.3759284 4.71878875,36.4657018 C4.66666026,36.5279386 4.59254987,36.5596857 4.5174974,36.5596857 C4.4572042,36.5596857 4.396911,36.5389401 4.34760875,36.4971345 C4.23644316,36.4031506 4.22231194,36.2368713 4.31620604,36.1255994 C5.13581671,35.1543275 5.25797324,34.1924854 5.35657775,33.4195541 C5.42503565,32.8829971 5.49223744,32.3652997 5.79684371,31.9909357 C5.51013699,32.009481 5.24949451,32.0443713 5.0127181,32.0927778 C4.33944404,32.3728436 4.31023953,32.7270906 4.25873909,33.3661184 C4.22388208,33.7939181 4.18148842,34.3260746 3.8947817,34.9151243 C3.8495618,35.0087939 3.75566771,35.0634868 3.65800529,35.0634868 C3.61937996,35.0634868 3.58012657,35.055 3.54275735,35.0370833 C3.41180806,34.9732749 3.35748137,34.8154825 3.42122887,34.6840936 C3.6639718,34.1843129 3.70071297,33.727595 3.73337179,33.3236842 C3.75598174,33.0420468 3.77921974,32.7663816 3.8680894,32.511462 C2.85441,33.0976827 2.69457022,33.9620833 2.6851494,34.0199196 C2.66379556,34.1487939 2.5516879,34.2402632 2.42544901,34.2402632 C2.41100377,34.2402632 2.39624449,34.2390058 2.38148522,34.2364912 C2.23828887,34.2126023 2.14125451,34.0771272 2.16512056,33.9331652 C2.29449972,33.1580336 3.01048145,32.009481 4.82084755,31.6017982 C4.8236738,31.6005409 4.82555796,31.5992836 4.8283842,31.5980263 C4.85978691,31.5851389 4.89150364,31.579481 4.92322038,31.5788523 C5.46648722,31.4678947 6.10459024,31.4210599 6.85197469,31.469152 C8.43247296,31.5728801 9.62043739,31.2959576 10.289001,30.6685599 C10.6614372,30.3196564 10.8175086,29.9214035 10.8752896,29.5784722 L0.55416166,29.5784722 C0.360092926,29.5784722 0.202765361,29.4213085 0.202765361,29.2264254 C0.202765361,29.0324854 0.360092926,28.874693 0.55416166,28.874693 L10.8944452,28.874693 L10.8944452,24.0922003 L8.0757382,22.4630409 C7.85485794,22.6787978 7.58323074,22.8430141 7.28051042,22.9352364 C7.07942539,23.0031706 6.86401368,23.04 6.64,23.04 C5.5354305,23.04 4.64,22.1445695 4.64,21.04 C4.64,19.9354305 5.5354305,19.04 6.64,19.04 C7.41888859,19.04 8.09378526,19.4852424 8.42405682,20.1350939 C8.57622719,20.4127368 8.66422495,20.7302382 8.66422495,21.0686842 C8.66422495,21.2346491 8.64130097,21.3946418 8.60236161,21.548348 L10.8944452,22.8735526 L10.8947571,20.2447753 Z M17.1079685,21.6367267 C17.2169435,21.4639708 17.28,21.2593492 17.28,21.04 C17.28,20.4214411 16.7785589,19.92 16.16,19.92 C15.7304873,19.92 15.3574439,20.1617742 15.1695412,20.5166512 L15.2006986,20.5346418 C15.1096307,20.6918056 15.0568741,20.8741155 15.0568741,21.0686842 C15.0568741,21.2638816 15.1102588,21.4468202 15.2016406,21.6046126 C15.3872306,21.924598 15.7317183,22.1402266 16.1273925,22.1402266 C16.5224385,22.1402266 16.8672402,21.924598 17.0525162,21.6046126 L17.1079685,21.6367267 Z M6.98581184,22.1055944 C7.43513308,21.9598814 7.76,21.5378791 7.76,21.04 C7.76,20.4214411 7.25855892,19.92 6.64,19.92 C6.02144108,19.92 5.52,20.4214411 5.52,21.04 C5.52,21.2675865 5.58788139,21.4793184 5.70450192,21.6560536 L5.79119122,21.6058699 C5.9764672,21.9252266 6.32064087,22.1402266 6.71537291,22.1402266 C6.80882819,22.1402266 6.899454,22.1281943 6.98581184,22.1055944 Z M12.3911961,18.9115792 C12.4981876,18.7399122 12.56,18.5371746 12.56,18.32 C12.56,17.7014411 12.0585589,17.2 11.44,17.2 C10.8214411,17.2 10.32,17.7014411 10.32,18.32 C10.32,18.5305108 10.3780773,18.727457 10.4790832,18.8956897 L10.4953168,18.8863085 C10.6805928,19.2059795 11.0257086,19.4222368 11.4213827,19.4222368 C11.8176849,19.4222368 12.1624866,19.2059795 12.3474485,18.8863085 L12.3911961,18.9115792 Z M2,8.48 C2.61855892,8.48 3.12,7.97855892 3.12,7.36 C3.12,6.74144108 2.61855892,6.24 2,6.24 C1.38144108,6.24 0.88,6.74144108 0.88,7.36 C0.88,7.97855892 1.38144108,8.48 2,8.48 Z M2,14 C2.61855892,14 3.12,13.4985589 3.12,12.88 C3.12,12.2614411 2.61855892,11.76 2,11.76 C1.38144108,11.76 0.88,12.2614411 0.88,12.88 C0.88,13.4985589 1.38144108,14 2,14 Z M6.72,5.84 C7.33855892,5.84 7.84,5.33855892 7.84,4.72 C7.84,4.10144108 7.33855892,3.6 6.72,3.6 C6.10144108,3.6 5.6,4.10144108 5.6,4.72 C5.6,5.33855892 6.10144108,5.84 6.72,5.84 Z M11.44,3.12 C12.0585589,3.12 12.56,2.61855892 12.56,2 C12.56,1.38144108 12.0585589,0.88 11.44,0.88 C10.8214411,0.88 10.32,1.38144108 10.32,2 C10.32,2.61855892 10.8214411,3.12 11.44,3.12 Z M11.44,8.48 C12.0585589,8.48 12.56,7.97855892 12.56,7.36 C12.56,6.74144108 12.0585589,6.24 11.44,6.24 C10.8214411,6.24 10.32,6.74144108 10.32,7.36 C10.32,7.97855892 10.8214411,8.48 11.44,8.48 Z M6.72,11.28 C7.33855892,11.28 7.84,10.7785589 7.84,10.16 C7.84,9.54144108 7.33855892,9.04 6.72,9.04 C6.10144108,9.04 5.6,9.54144108 5.6,10.16 C5.6,10.7785589 6.10144108,11.28 6.72,11.28 Z M16.08,5.76 C16.6985589,5.76 17.2,5.25855892 17.2,4.64 C17.2,4.02144108 16.6985589,3.52 16.08,3.52 C15.4614411,3.52 14.96,4.02144108 14.96,4.64 C14.96,5.25855892 15.4614411,5.76 16.08,5.76 Z M20.8,8.56 C21.4185589,8.56 21.92,8.05855892 21.92,7.44 C21.92,6.82144108 21.4185589,6.32 20.8,6.32 C20.1814411,6.32 19.68,6.82144108 19.68,7.44 C19.68,8.05855892 20.1814411,8.56 20.8,8.56 Z M20.8,13.92 C21.4185589,13.92 21.92,13.4185589 21.92,12.8 C21.92,12.1814411 21.4185589,11.68 20.8,11.68 C20.1814411,11.68 19.68,12.1814411 19.68,12.8 C19.68,13.4185589 20.1814411,13.92 20.8,13.92 Z M16.08,11.28 C16.6985589,11.28 17.2,10.7785589 17.2,10.16 C17.2,9.54144108 16.6985589,9.04 16.08,9.04 C15.4614411,9.04 14.96,9.54144108 14.96,10.16 C14.96,10.7785589 15.4614411,11.28 16.08,11.28 Z M16.08,16.64 C16.6985589,16.64 17.2,16.1385589 17.2,15.52 C17.2,14.9014411 16.6985589,14.4 16.08,14.4 C15.4614411,14.4 14.96,14.9014411 14.96,15.52 C14.96,16.1385589 15.4614411,16.64 16.08,16.64 Z M20.8,19.44 C21.4185589,19.44 21.92,18.9385589 21.92,18.32 C21.92,17.7014411 21.4185589,17.2 20.8,17.2 C20.1814411,17.2 19.68,17.7014411 19.68,18.32 C19.68,18.9385589 20.1814411,19.44 20.8,19.44 Z M6.72,16.72 C7.33855892,16.72 7.84,16.2185589 7.84,15.6 C7.84,14.9814411 7.33855892,14.48 6.72,14.48 C6.10144108,14.48 5.6,14.9814411 5.6,15.6 C5.6,16.2185589 6.10144108,16.72 6.72,16.72 Z M2,19.44 C2.61855892,19.44 3.12,18.9385589 3.12,18.32 C3.12,17.7014411 2.61855892,17.2 2,17.2 C1.38144108,17.2 0.88,17.7014411 0.88,18.32 C0.88,18.9385589 1.38144108,19.44 2,19.44 Z" id="Oval-1"></path>
                <path d="M36.18,4.56 L36.18,3.88 L31.3,3.88 L31.3,4.56 L33.36,4.56 L33.36,11 L34.12,11 L34.12,4.56 L36.18,4.56 Z M41.93,11 L41.93,10.32 L38.27,10.32 L38.27,7.75 L41.39,7.75 L41.39,7.07 L38.27,7.07 L38.27,4.56 L41.93,4.56 L41.93,3.88 L37.51,3.88 L37.51,11 L41.93,11 Z M48.4,11 L48.4,3.88 L43.51,3.88 L43.51,11 L44.27,11 L44.27,4.56 L47.64,4.56 L47.64,11 L48.4,11 Z M55.18,11 L55.18,3.88 L51.26,3.88 L51.26,6.77 C51.26,9.73 50.63,10.32 49.75,10.32 L49.56,10.32 L49.56,11 L49.92,11 C51.28,11 52,10 52,7 L52,4.56 L54.42,4.56 L54.42,11 L55.18,11 Z M62.34,11 L62.34,3.88 L61.62,3.88 L58,9.68 L58,3.88 L57.24,3.88 L57.24,11 L57.96,11 L61.58,5.19 L61.58,11 L62.34,11 Z M70.14,12.72 L70.14,10.32 L69.29,10.32 L69.29,3.88 L68.53,3.88 L68.53,10.32 L65.16,10.32 L65.16,3.88 L64.4,3.88 L64.4,11 L69.39,11 L69.39,12.72 L70.14,12.72 Z M76.54,11 L73.93,3.88 L73.29,3.88 L70.67,11 L71.48,11 L72.05,9.39 L75.16,9.39 L75.73,11 L76.54,11 Z M74.94,8.73 L72.28,8.73 L73.62,4.97 L74.94,8.73 Z" id="Теплица"></path>
                <path d="M36.72,20.0400002 L35.96,20.0400002 C35.77,20.9100002 35.14,21.4800002 34.25,21.4800002 C33.78,21.4800002 33.33,21.3000002 33.02,20.9800002 C32.57,20.5200002 32.52,20.0300002 32.52,18.5400002 C32.52,17.0500002 32.57,16.5600002 33.02,16.1000002 C33.33,15.7800002 33.78,15.6000002 34.25,15.6000002 C35.14,15.6000002 35.75,16.1700002 35.94,17.0400002 L36.72,17.0400002 C36.48,15.7000002 35.53,14.9200002 34.25,14.9200002 C33.55,14.9200002 32.91,15.1800002 32.43,15.6600002 C31.76,16.3300002 31.76,17.0300002 31.76,18.5400002 C31.76,20.0500002 31.76,20.7500002 32.43,21.4200002 C32.91,21.9000002 33.55,22.1600002 34.25,22.1600002 C35.52,22.1600002 36.49,21.3800002 36.72,20.0400002 L36.72,20.0400002 Z M42.91,18.0500002 C42.91,17.1800002 42.86,16.2800002 42.24,15.6600002 C41.76,15.1800002 41.12,14.9200002 40.42,14.9200002 C39.72,14.9200002 39.08,15.1800002 38.6,15.6600002 C37.99,16.2700002 37.93,17.1400002 37.93,17.9900002 L37.93,18.5400002 C37.93,19.9600002 37.95,20.7700002 38.6,21.4200002 C39.08,21.9000002 39.71,22.1600002 40.42,22.1600002 C41.13,22.1600002 41.76,21.9000002 42.24,21.4200002 C42.89,20.7700002 42.91,19.9600002 42.91,18.5400002 L42.91,18.0500002 Z M42.15,18.8900002 C42.15,19.7100002 42.14,20.4800002 41.65,20.9700002 C41.32,21.3000002 40.89,21.4800002 40.42,21.4800002 C39.95,21.4800002 39.52,21.3000002 39.19,20.9700002 C38.73,20.5100002 38.69,19.8100002 38.69,19.0400002 L38.69,18.3300002 C38.69,17.3500002 38.69,16.6100002 39.19,16.1100002 C39.52,15.7800002 39.96,15.6000002 40.42,15.6000002 C40.88,15.6000002 41.32,15.7800002 41.65,16.1100002 C42.12,16.5800002 42.15,17.3200002 42.15,18.1600002 L42.15,18.8900002 Z M50.44,23.8200002 L50.44,21.4200002 L49.59,21.4200002 L49.59,14.9800002 L48.83,14.9800002 L48.83,21.4200002 L45.46,21.4200002 L45.46,14.9800002 L44.7,14.9800002 L44.7,22.1000002 L49.69,22.1000002 L49.69,23.8200002 L50.44,23.8200002 Z M56.98,22.1000002 L56.98,14.9800002 L56.26,14.9800002 L52.64,20.7800002 L52.64,14.9800002 L51.88,14.9800002 L51.88,22.1000002 L52.6,22.1000002 L56.22,16.2900002 L56.22,22.1000002 L56.98,22.1000002 Z M64,22.1000002 L61.39,14.9800002 L60.75,14.9800002 L58.13,22.1000002 L58.94,22.1000002 L59.51,20.4900002 L62.62,20.4900002 L63.19,22.1000002 L64,22.1000002 Z M62.4,19.8300002 L59.74,19.8300002 L61.08,16.0700002 L62.4,19.8300002 Z M69.86,22.1000002 L69.86,14.9800002 L65.94,14.9800002 L65.94,17.8700002 C65.94,20.8300002 65.31,21.4200002 64.43,21.4200002 L64.24,21.4200002 L64.24,22.1000002 L64.6,22.1000002 C65.96,22.1000002 66.68,21.1000002 66.68,18.1000002 L66.68,15.6600002 L69.1,15.6600002 L69.1,22.1000002 L69.86,22.1000002 Z M76.79,20.0100002 C76.79,18.7500002 75.92,17.9100002 74.59,17.9100002 L72.68,17.9100002 L72.68,14.9800002 L71.92,14.9800002 L71.92,22.1000002 L74.59,22.1000002 C75.91,22.1000002 76.79,21.2600002 76.79,20.0100002 L76.79,20.0100002 Z M76.02,20.0100002 C76.02,20.9000002 75.47,21.4200002 74.52,21.4200002 L72.68,21.4200002 L72.68,18.5900002 L74.52,18.5900002 C75.47,18.5900002 76.02,19.1100002 76.02,20.0100002 L76.02,20.0100002 Z M83.12,22.1000002 L83.12,14.9800002 L82.36,14.9800002 L82.36,18.1700002 L78.98,18.1700002 L78.98,14.9800002 L78.22,14.9800002 L78.22,22.1000002 L78.98,22.1000002 L78.98,18.8500002 L82.36,18.8500002 L82.36,22.1000002 L83.12,22.1000002 Z M91.76,22.1000002 L91.76,14.9800002 L91,14.9800002 L91,22.1000002 L91.76,22.1000002 Z M90.05,20.0100002 C90.05,18.7500002 89.18,17.9100002 87.85,17.9100002 L85.94,17.9100002 L85.94,14.9800002 L85.18,14.9800002 L85.18,22.1000002 L87.85,22.1000002 C89.17,22.1000002 90.05,21.2600002 90.05,20.0100002 L90.05,20.0100002 Z M89.28,20.0100002 C89.28,20.9000002 88.73,21.4200002 87.78,21.4200002 L85.94,21.4200002 L85.94,18.5900002 L87.78,18.5900002 C88.73,18.5900002 89.28,19.1100002 89.28,20.0100002 L89.28,20.0100002 Z M98.15,22.1000002 L95.95,18.4500002 L98,14.9800002 L97.12,14.9800002 L95.54,17.7900002 L93.96,14.9800002 L93.08,14.9800002 L95.12,18.4500002 L92.94,22.1000002 L93.8,22.1000002 L95.54,19.1100002 L97.27,22.1000002 L98.15,22.1000002 Z" id="социальных"></path>
                <path d="M36.18,27.56 L36.18,26.88 L31.3,26.88 L31.3,27.56 L33.36,27.56 L33.36,34 L34.12,34 L34.12,27.56 L36.18,27.56 Z M41.93,34 L41.93,33.32 L38.27,33.32 L38.27,30.75 L41.39,30.75 L41.39,30.07 L38.27,30.07 L38.27,27.56 L41.93,27.56 L41.93,26.88 L37.51,26.88 L37.51,34 L41.93,34 Z M47.84,34 L45.64,30.35 L47.69,26.88 L46.81,26.88 L45.23,29.69 L43.65,26.88 L42.77,26.88 L44.81,30.35 L42.63,34 L43.49,34 L45.23,31.01 L46.96,34 L47.84,34 Z M53.92,34 L53.92,26.88 L53.16,26.88 L53.16,30.07 L49.78,30.07 L49.78,26.88 L49.02,26.88 L49.02,34 L49.78,34 L49.78,30.75 L53.16,30.75 L53.16,34 L53.92,34 Z M60.69,29.95 C60.69,29.08 60.64,28.18 60.02,27.56 C59.54,27.08 58.9,26.82 58.2,26.82 C57.5,26.82 56.86,27.08 56.38,27.56 C55.77,28.17 55.71,29.04 55.71,29.89 L55.71,30.44 C55.71,31.86 55.73,32.67 56.38,33.32 C56.86,33.8 57.49,34.06 58.2,34.06 C58.91,34.06 59.54,33.8 60.02,33.32 C60.67,32.67 60.69,31.86 60.69,30.44 L60.69,29.95 Z M59.93,30.79 C59.93,31.61 59.92,32.38 59.43,32.87 C59.1,33.2 58.67,33.38 58.2,33.38 C57.73,33.38 57.3,33.2 56.97,32.87 C56.51,32.41 56.47,31.71 56.47,30.94 L56.47,30.23 C56.47,29.25 56.47,28.51 56.97,28.01 C57.3,27.68 57.74,27.5 58.2,27.5 C58.66,27.5 59.1,27.68 59.43,28.01 C59.9,28.48 59.93,29.22 59.93,30.06 L59.93,30.79 Z M66.99,34 L66.99,26.88 L63.07,26.88 L63.07,29.77 C63.07,32.73 62.44,33.32 61.56,33.32 L61.37,33.32 L61.37,34 L61.73,34 C63.09,34 63.81,33 63.81,30 L63.81,27.56 L66.23,27.56 L66.23,34 L66.99,34 Z M73.76,29.95 C73.76,29.08 73.71,28.18 73.09,27.56 C72.61,27.08 71.97,26.82 71.27,26.82 C70.57,26.82 69.93,27.08 69.45,27.56 C68.84,28.17 68.78,29.04 68.78,29.89 L68.78,30.44 C68.78,31.86 68.8,32.67 69.45,33.32 C69.93,33.8 70.56,34.06 71.27,34.06 C71.98,34.06 72.61,33.8 73.09,33.32 C73.74,32.67 73.76,31.86 73.76,30.44 L73.76,29.95 Z M73,30.79 C73,31.61 72.99,32.38 72.5,32.87 C72.17,33.2 71.74,33.38 71.27,33.38 C70.8,33.38 70.37,33.2 70.04,32.87 C69.58,32.41 69.54,31.71 69.54,30.94 L69.54,30.23 C69.54,29.25 69.54,28.51 70.04,28.01 C70.37,27.68 70.81,27.5 71.27,27.5 C71.73,27.5 72.17,27.68 72.5,28.01 C72.97,28.48 73,29.22 73,30.06 L73,30.79 Z M79.9,27.56 L79.9,26.88 L75.62,26.88 L75.62,34 L76.38,34 L76.38,27.56 L79.9,27.56 Z M86.34,34 L86.34,26.88 L85.62,26.88 L82,32.68 L82,26.88 L81.24,26.88 L81.24,34 L81.96,34 L85.58,28.19 L85.58,34 L86.34,34 Z M93.5,34 L93.5,26.88 L92.78,26.88 L89.16,32.68 L89.16,26.88 L88.4,26.88 L88.4,34 L89.12,34 L92.74,28.19 L92.74,34 L93.5,34 Z M92.41,25.17 L91.77,25.17 C91.73,25.66 91.44,25.91 90.95,25.91 C90.46,25.91 90.17,25.66 90.13,25.17 L89.49,25.17 C89.55,26.06 90.12,26.43 90.95,26.43 C91.78,26.43 92.35,26.06 92.41,25.17 L92.41,25.17 Z" id="технологий"></path>
            </g>
        </g>
    </g>
</svg>