<?xml version="1.0" encoding="UTF-8"?>
<svg width="311px" height="66px" viewBox="0 0 311 66" version="1.1" xmlns="http://www.w3.org/2000/svg" xmlns:xlink="http://www.w3.org/1999/xlink">
    <!-- Generator: Sketch 45 (43475) - http://www.bohemiancoding.com/sketch -->
    <title>Group</title>
    <desc>Created with Sketch.</desc>
    <defs>
        <rect id="path-1" x="0" y="0" width="65.229572" height="65.229572"></rect>
        <linearGradient x1="28.3680167%" y1="81.2238228%" x2="83.5653862%" y2="1.5311652%" id="linearGradient-3">
            <stop stop-color="#75CAB7" offset="0%"></stop>
            <stop stop-color="#6CBCD5" offset="100%"></stop>
        </linearGradient>
        <linearGradient x1="23.942714%" y1="84.8822027%" x2="82.3445094%" y2="7.30367119%" id="linearGradient-4">
            <stop stop-color="#CE460C" offset="0%"></stop>
            <stop stop-color="#AA141D" offset="40.35%"></stop>
            <stop stop-color="#8E0D34" offset="100%"></stop>
        </linearGradient>
        <linearGradient x1="22.6105637%" y1="87.4245411%" x2="80.2102714%" y2="9.30015962%" id="linearGradient-5">
            <stop stop-color="#752560" offset="0%"></stop>
            <stop stop-color="#4A0B28" offset="100%"></stop>
        </linearGradient>
        <linearGradient x1="19.2068211%" y1="92.5988428%" x2="76.5761684%" y2="14.3889864%" id="linearGradient-6">
            <stop stop-color="#DDAE03" offset="0%"></stop>
            <stop stop-color="#E5870B" offset="100%"></stop>
        </linearGradient>
        <linearGradient x1="1.18862857%" y1="49.0705108%" x2="58.4835429%" y2="4.64660814%" id="linearGradient-7">
            <stop stop-color="#F4DC3E" offset="0%"></stop>
            <stop stop-color="#DAAF25" offset="100%"></stop>
        </linearGradient>
        <linearGradient x1="61.6752%" y1="87.0254988%" x2="114.928171%" y2="27.9185555%" id="linearGradient-8">
            <stop stop-color="#91BE7D" offset="0%"></stop>
            <stop stop-color="#95D888" offset="100%"></stop>
        </linearGradient>
    </defs>
    <g id="Page-1" stroke="none" stroke-width="1" fill="none" fill-rule="evenodd">
        <g id="Custom-Preset-Copy" transform="translate(-504.000000, -182.000000)">
            <g id="Group" transform="translate(504.000000, 182.000000)">
                <g id="color-line" transform="translate(0.000000, 0.770428)">
                    <mask id="mask-2" fill="white">
                        <use xlink:href="#path-1"></use>
                    </mask>
                    <use id="Mask" fill="#D8D8D8" xlink:href="#path-1"></use>
                    <g mask="url(#mask-2)" id="Shape" fill-rule="nonzero">
                        <g transform="translate(-31.844358, 0.513619)">
                            <polygon fill="url(#linearGradient-3)" points="0 64.3564202 44.9416342 0 61.5058366 0 16.8210117 64.3564202"></polygon>
                            <polygon fill="url(#linearGradient-4)" points="16.5642023 64.3564202 61.5058366 0 78.0700389 0 33.385214 64.3564202"></polygon>
                            <polygon fill="url(#linearGradient-5)" points="33.2568093 64.3564202 78.1984436 0 94.7626459 0 50.077821 64.3564202"></polygon>
                            <polygon fill="url(#linearGradient-6)" points="49.9494163 64.3564202 94.8910506 0 110.941634 0 66.770428 64.3564202"></polygon>
                            <polygon fill="url(#linearGradient-7)" points="0 0 44.9416342 0 0 64.3564202"></polygon>
                            <polygon fill="url(#linearGradient-8)" points="110.941634 64.3564202 66 64.3564202 110.941634 0"></polygon>
                        </g>
                    </g>
                </g>
                <path d="M86.0311284,45.3735971 C86.2399827,45.5302378 86.3444099,45.6346649 86.448837,45.6346649 C86.7621185,45.5302378 86.9709728,45.3735971 87.2320406,45.2169563 C93.0799611,40.2566667 97.4659014,34.1476783 100.80757,27.3599135 C102.321764,24.227099 103.783744,21.0942845 105.350151,18.0136835 C105.611219,17.5959749 106.237782,17.2826935 106.603277,17.0216256 C106.707704,17.4915478 106.968772,18.0136835 107.020986,18.5880329 C107.177626,19.7889451 107.125413,21.0942845 107.282054,22.3474103 C107.96083,27.8820493 108.639607,33.4166883 109.109529,39.0557544 C109.266169,40.831016 110.467082,40.831016 111.824635,40.831016 C113.07776,40.831016 113.129974,39.6823173 113.129974,38.7946866 C113.129974,34.7742412 112.503411,30.8060095 112.242343,26.8377778 C111.876848,21.4597795 111.929062,7.57096844 109.057315,7.57096844 C108.117471,7.57096844 106.707704,8.98073498 106.133355,10.4427151 C103.835958,15.246364 101.590774,20.1022265 99.3455901,25.0103026 C96.3694163,31.3281453 92.2967575,36.9149978 87.9630307,42.2929961 C87.2320406,43.2328405 86.6576913,44.3815391 86.0311284,45.3735971 Z M115.740653,35.7140856 L115.897294,35.7140856 C116.210575,38.1681236 116.523856,40.2044531 118.299118,40.2044531 C119.708885,40.2044531 120.439875,38.6902594 121.53636,37.6982015 C121.901855,37.4371336 122.476204,37.2282793 122.893913,37.019425 L123.363835,38.4814051 C123.833757,39.8911716 124.408106,42.5018504 125.713446,42.5018504 C126.601077,42.5018504 128.010843,41.5097925 128.010843,40.7265888 C128.010843,40.1000259 127.38428,38.8991137 127.38428,37.6459879 C127.38428,37.3327064 127.436494,37.019425 127.488707,36.7061435 C128.271911,32.9989797 129.159542,29.3440294 130.099386,25.6368655 C130.1516,25.4280112 130.1516,25.2713705 130.1516,25.0625162 C130.1516,24.1226719 129.525037,23.0261868 128.271911,23.0261868 C127.593134,23.0261868 127.175426,23.7049633 126.809931,24.3315262 C124.773601,27.9864764 122.841699,31.5892131 120.700942,35.2441634 C120.439875,35.7140856 119.865525,36.0273671 119.34339,36.3406485 C119.186749,35.7140856 118.716827,35.1919498 118.716827,34.5131734 C119.186749,31.2237181 119.708885,27.9864764 120.126593,24.7492348 C120.23102,24.3315262 120.387661,23.9138176 120.387661,23.4961089 C120.387661,23.0784003 120.126593,22.6084782 119.238962,22.6084782 C118.299118,22.6084782 117.829196,23.2350411 117.672555,24.1226719 C116.941565,27.9864764 116.367216,31.7980674 115.740653,35.7140856 Z M147.38208,26.3678556 C147.173225,26.4200692 146.964371,26.4722827 146.80773,26.4722827 C146.285594,26.4722827 146.024527,26.1067877 146.024527,25.4280112 C146.024527,23.0261868 146.859944,20.5199351 146.859944,18.0136835 C146.859944,17.1260527 146.285594,16.4994898 145.554604,16.4994898 C143.413848,16.4994898 143.15278,22.9739732 142.735071,26.3678556 C142.526217,27.9342629 141.377518,28.3519715 139.288975,28.3519715 C138.03585,28.3519715 137.4615,28.1953307 137.4615,27.3599135 C137.4615,27.1510592 137.513714,26.8899914 137.565927,26.6289235 C137.931422,24.7492348 138.140277,22.8173325 138.349131,20.8332166 C138.349131,20.3110808 137.722568,19.5278772 137.200432,19.5278772 C136.939364,19.5278772 136.678297,19.5800908 136.469442,19.6845179 C135.790666,20.9376438 134.955249,22.1907696 134.172045,23.7049633 C134.746394,23.7571768 134.955249,24.1226719 134.955249,24.8014483 C134.955249,25.8457198 134.955249,28.1431172 133.127773,28.1431172 C133.07556,28.1431172 133.023346,28.1953307 133.023346,28.2997579 C133.023346,28.7174665 133.545482,30.127233 133.545482,31.9024946 C133.545482,32.3202032 133.493268,32.7901254 133.441055,33.207834 C132.971133,36.1317942 132.240143,39.2646087 132.240143,42.1363554 C132.240143,43.9638305 132.501211,46.0523735 134.067618,46.0523735 C134.903035,46.0523735 135.216316,45.4258106 135.216316,44.4337527 C135.216316,43.5461219 134.955249,42.3974233 134.955249,41.5620061 C134.955249,39.107968 135.529598,36.3928621 135.99952,33.938824 C136.678297,30.5449416 136.782724,30.5449416 140.281033,30.4927281 L140.542101,30.4927281 C141.377518,30.4927281 141.795227,30.7537959 141.795227,31.4325724 C141.795227,32.4768439 141.377518,33.7821833 141.220878,35.0353091 C140.855383,37.8548422 140.124393,40.831016 140.124393,43.6505491 C140.124393,44.7992477 140.907596,46.73115 142.056295,46.73115 C142.891712,46.73115 144.092624,45.7390921 144.092624,44.6948206 C144.092624,44.0682577 143.309421,42.9717726 143.309421,41.9275011 C143.309421,41.7708604 143.361634,41.6664332 143.361634,41.5097925 C143.88377,38.0114829 144.458119,34.5131734 145.084682,30.9626502 C145.397964,29.1351751 147.956429,28.8741072 147.956429,27.1510592 C147.956429,26.6811371 147.799788,26.3678556 147.486507,26.3678556 L147.38208,26.3678556 Z M150.044972,35.7140856 C150.671535,31.7980674 151.245884,27.9864764 151.976874,24.1226719 C152.133515,23.2350411 152.603437,22.6084782 153.543281,22.6084782 C154.430912,22.6084782 154.69198,23.0784003 154.69198,23.4961089 C154.69198,23.9138176 154.535339,24.3315262 154.430912,24.7492348 C154.013204,27.9864764 153.491068,31.2237181 153.021146,34.5131734 C153.021146,35.1919498 153.491068,35.7140856 153.647709,36.3406485 C154.169844,36.0273671 154.744194,35.7140856 155.005262,35.2441634 C157.146018,31.5892131 159.07792,27.9864764 161.11425,24.3315262 C161.479745,23.7049633 161.897454,23.0261868 162.57623,23.0261868 C163.829356,23.0261868 164.455919,24.1226719 164.455919,25.0625162 C164.455919,25.2713705 164.455919,25.4280112 164.403705,25.6368655 C163.463861,29.3440294 162.57623,32.9989797 161.793026,36.7061435 C161.740813,37.019425 161.688599,37.3327064 161.688599,37.6459879 C161.688599,38.8991137 162.315162,40.1000259 162.315162,40.7265888 C162.315162,41.5097925 160.905396,42.5018504 160.017765,42.5018504 C158.712425,42.5018504 158.138076,39.8911716 157.668154,38.4814051 L157.198232,37.019425 C156.780523,37.2282793 156.206174,37.4371336 155.840679,37.6982015 C154.744194,38.6902594 154.013204,40.2044531 152.603437,40.2044531 C150.828176,40.2044531 150.514894,38.1681236 150.201613,35.7140856 L150.044972,35.7140856 Z M177.143818,19.8411587 C179.702283,20.1544401 180.642127,20.5199351 180.642127,22.0341288 C180.642127,22.6084782 180.5377,23.3916818 180.276632,24.3315262 C178.971293,29.5006701 176.934963,34.8786684 175.681837,39.7345309 C176.15176,40.1522395 176.256187,40.7265888 176.256187,41.0920839 C176.256187,41.5620061 174.11543,46.8355772 172.183528,46.8355772 C171.452538,46.8355772 170.825975,44.9036749 170.825975,44.4859663 C170.825975,44.1726848 170.878188,43.9116169 170.878188,43.5983355 C170.773761,43.5983355 170.669334,43.4939083 170.46048,43.4939083 C171.295897,39.0557544 172.183528,38.8469001 173.123372,34.4087462 C173.38444,33.2600476 173.906576,33.3644747 173.906576,31.9547082 C173.906576,31.4325724 173.645508,30.9626502 173.280013,30.9626502 C173.018945,30.9626502 172.810091,31.0670774 172.705664,31.3803588 C171.713606,32.7379118 170.46048,34.4087462 168.26751,37.5415607 C166.96217,39.4212495 165.447977,43.2328405 162.680657,43.2328405 C161.740813,43.2328405 160.278833,42.3974233 160.278833,41.4575789 C160.278833,40.6221617 160.435473,39.8911716 160.487687,39.1601816 L160.800968,39.1601816 C161.062036,39.7345309 161.636386,40.9876567 162.106308,40.9876567 C162.367376,40.9876567 162.785084,40.9354431 162.889511,40.7265888 C165.030268,38.0114829 167.588733,34.1476783 169.468422,30.8060095 C169.363995,30.4405145 169.259568,30.0750195 169.259568,29.6050973 C169.259568,25.8979334 170.408266,22.504051 173.541081,20.2588673 C174.272071,19.7367315 175.734051,19.7367315 176.830536,19.7367315 C176.934963,19.7367315 177.03939,19.7889451 177.143818,19.8411587 Z M175.995119,23.3394682 C176.047332,23.2350411 176.099546,23.0784003 176.099546,22.869546 C176.099546,22.5562646 175.995119,22.0863424 175.995119,21.7208474 C175.472983,21.8252745 174.533139,21.6686338 174.272071,22.0341288 C173.123372,23.6527497 172.235741,25.3757977 171.243684,26.9422049 C171.661392,27.8298357 171.504751,28.2997579 171.974674,28.2997579 C172.914518,28.2997579 175.003061,24.9580891 175.995119,23.3394682 Z M175.472983,40.831016 C175.472983,40.465521 175.57741,40.1522395 175.681837,39.7345309 C175.472983,39.9433852 175.42077,40.9354431 175.42077,40.9354431 C175.42077,40.9354431 175.472983,40.8832296 175.472983,40.831016 Z M208.315322,39.6301038 C207.323264,38.376978 205.600216,37.6982015 203.929382,37.1760657 L206.174565,26.9422049 C206.174565,26.7855642 206.226779,26.6289235 206.226779,26.4722827 C206.226779,25.584652 205.756857,24.7492348 204.242663,24.7492348 C203.407246,24.7492348 202.676256,25.2191569 202.15412,26.2112149 C200.587713,29.1873887 198.760238,31.9547082 196.984976,34.7220277 C196.723908,35.1919498 195.992918,35.5052313 195.522996,35.5052313 C195.053074,35.5052313 194.583152,34.8264548 194.583152,33.938824 C194.583152,32.2679896 195.105288,25.7935063 195.209715,24.0704583 C195.209715,23.3916818 194.948647,22.7129053 194.84422,21.9297017 C194.165443,22.4518374 193.173385,22.8173325 192.912317,23.5483225 C192.285754,25.2191569 192.0769,31.850281 191.606978,33.6777562 C192.337968,36.8627843 192.912317,39.7345309 195.105288,39.7345309 C196.410627,39.7345309 197.872607,38.2203372 199.856723,37.019425 C200.274431,38.6380458 201.42313,41.3531518 202.049693,41.3531518 L202.101907,41.3009382 C202.101907,41.4575789 204.033809,41.9275011 204.451518,42.0841418 L205.965711,42.7629183 C206.174565,42.8151319 206.435633,43.0239862 206.644488,43.1806269 C206.592274,43.4416948 206.592274,43.7027626 206.592274,43.9638305 C206.592274,45.2169563 206.957769,46.6267229 207.427691,46.6267229 C207.479905,46.6267229 207.532118,46.5745093 207.636546,46.5222957 C208.733031,45.5302378 209.359594,44.1204712 209.359594,42.6584911 C209.359594,41.6142196 208.994099,40.5699481 208.315322,39.6301038 Z M221.473143,22.0341288 C222.987337,21.5642067 224.449317,21.2509252 225.963511,20.8332166 C226.015724,20.8332166 226.120151,20.781003 226.172365,20.781003 C226.485646,20.781003 226.798928,20.8854302 226.798928,21.1987116 C226.798928,21.3553524 226.694501,21.6164202 226.590073,21.6686338 C224.814812,23.1306139 223.03955,23.8093904 222.88291,25.7935063 C222.465201,31.5892131 220.794367,37.1238521 218.966891,42.5018504 C218.235901,44.642607 216.356213,46.2090143 214.633165,46.2090143 C213.745534,46.2090143 212.0747,45.6346649 211.604777,44.7470342 C210.926001,42.8151319 210.403865,40.6743753 210.403865,38.6902594 C210.717147,29.1351751 213.484466,19.5800908 215.72965,10.3382879 C216.042931,9.08516213 217.661552,3.34166883 217.870406,3.34166883 C218.65361,1.20091224 219.906736,0 221.368716,0 C223.300618,0 224.867026,1.93190229 224.867026,4.07265888 C224.867026,4.75143537 224.710385,5.37799827 224.397103,6.00456118 C222.726269,9.34623 220.220017,12.426831 218.340329,15.7162862 L218.340329,15.8729269 C218.340329,16.603917 219.123532,20.050013 219.332387,20.7287895 C219.436814,21.1464981 220.428872,21.3553524 221.055435,21.6686338 C221.107648,21.6686338 221.264289,21.5642067 221.316502,21.5642067 C221.42093,21.7208474 221.42093,21.9297017 221.473143,22.0341288 Z M214.372097,38.376978 L214.685378,38.376978 C214.685378,38.8991137 214.633165,39.4212495 214.633165,39.9433852 C214.633165,41.0398703 214.99866,41.3531518 215.520796,42.1363554 C215.938504,41.8230739 216.617281,41.6142196 216.826135,41.1442974 C218.862464,36.5495028 220.063377,30.9626502 220.84658,25.6890791 C220.84658,25.584652 220.898794,25.4280112 220.898794,25.3235841 C220.898794,23.861604 219.332387,22.4518374 217.870406,22.4518374 C216.773921,22.4518374 216.617281,22.9217596 216.617281,23.5483225 C216.617281,23.7571768 216.669494,24.0182447 216.669494,24.2793126 C216.669494,24.6448076 216.408426,24.9580891 216.408426,25.2713705 L214.372097,38.376978 Z M220.167804,7.36211414 C220.324444,7.72760917 220.481085,8.66745352 220.794367,8.66745352 C221.838638,8.66745352 222.987337,5.43021185 223.457259,4.12487246 L223.457259,4.07265888 C223.457259,3.65495028 222.830696,2.9761738 222.517415,2.45403805 C221.995279,2.81953307 221.316502,3.13281453 221.159862,3.55052313 C220.742153,4.69922179 220.481085,6.00456118 220.167804,7.36211414 Z M226.798928,37.3327064 C226.955569,32.0069217 229.305179,22.3996239 234.526537,22.3996239 C236.301799,22.3996239 237.659351,23.4961089 237.659351,25.4802248 C237.659351,27.1510592 235.831876,29.9183787 234.839818,31.3803588 C233.586693,33.6255426 230.9238,34.3043191 230.9238,36.8627843 C230.9238,37.8548422 230.819373,39.4212495 232.751275,39.4212495 C233.69112,39.3168223 234.630964,38.6902594 235.518595,38.6902594 C236.092944,38.6902594 236.354012,39.0035409 236.354012,39.473463 C236.354012,41.6664332 233.221198,43.3372676 231.184868,43.3372676 C227.425491,43.3372676 227.007782,40.5177345 226.798928,37.3327064 Z M235.623022,26.6289235 C235.309741,26.0023606 235.048673,25.3235841 234.630964,25.3235841 C233.743333,25.3235841 232.803489,28.4563986 232.38578,29.6050973 C232.38578,29.761738 232.803489,30.3360873 232.907916,30.3360873 C233.795547,30.3360873 234.944246,27.8820493 235.623022,26.6289235 Z M260.163403,30.3883009 C260.006762,30.3883009 259.902335,30.3360873 259.850121,30.3360873 L259.850121,29.8661652 C259.850121,28.4563986 258.858063,27.3599135 258.388141,27.3599135 C256.195171,27.3599135 255.411967,29.1873887 254.054414,30.8060095 C253.532278,31.4325724 252.853502,31.7458539 252.279153,32.4768439 C252.174725,31.1715045 251.704803,28.7174665 251.026027,28.7174665 C249.564047,28.7174665 247.997639,31.0148638 246.483446,32.1635625 C246.117951,32.5290575 245.491388,32.5290575 244.917038,32.7901254 C244.864825,32.2679896 244.708184,31.7458539 244.708184,31.2759317 C244.708184,30.3360873 245.021466,29.5006701 245.021466,28.6652529 C245.021466,27.5687678 244.708184,26.3678556 243.507272,26.3678556 C242.358573,26.3678556 241.262088,26.7855642 241.00102,28.1431172 C240.165603,32.3724168 239.382399,36.4972892 238.703623,40.6221617 L238.703623,40.9876567 C238.703623,42.5018504 239.486827,43.4416948 240.11339,43.4416948 C240.948807,43.4416948 242.097505,41.9797147 242.567428,40.465521 C243.716126,36.6017164 246.326805,32.9989797 249.668474,30.8582231 C249.772901,31.2759317 249.981755,31.6936403 249.981755,32.1635625 C249.981755,33.7821833 249.250765,35.4530177 249.250765,37.0716386 C249.250765,37.5415607 249.564047,38.0114829 249.772901,38.4814051 C250.295037,38.2725508 251.026027,38.1159101 251.339308,37.6459879 C253.166783,35.2441634 254.628764,32.5812711 256.560666,30.4405145 C256.76952,30.2316602 257.239442,30.2316602 257.552724,30.127233 C257.604937,30.4405145 257.709364,30.8060095 257.709364,31.119291 L256.560666,36.2362214 C256.03853,38.4814051 255.411967,40.7788024 254.942045,43.1284133 C254.942045,43.5461219 255.411967,44.0682577 255.620821,44.5903934 C256.03853,44.2248984 256.717307,43.9116169 256.821734,43.4416948 C258.492568,39.6301038 259.066917,34.7220277 260.163403,30.3883009 Z M270.710545,24.8536619 C272.955728,25.0625162 274,26.1067877 274,27.9342629 C274,28.1953307 274,28.5086122 273.947786,28.8218936 C273.060156,33.4689019 272.955728,41.9797147 270.919399,41.9797147 C268.88307,41.9797147 268.622002,37.6982015 268.15208,37.6982015 C267.786585,37.6982015 266.011323,39.2646087 264.288275,39.2646087 C262.774081,39.2646087 261.72981,38.0636965 261.72981,36.6017164 C261.72981,32.7379118 263.818353,28.8218936 266.84674,26.6289235 C267.891012,25.7412927 269.405205,25.3757977 270.710545,24.8536619 Z M270.710545,29.2918158 C270.083982,28.2475443 270.031768,27.9864764 269.352992,27.9864764 C268.830856,27.9864764 268.256507,28.0909036 268.099866,28.3519715 C266.637886,30.2838738 264.444916,33.4166883 264.444916,34.8786684 C264.444916,35.1397363 264.65377,35.9751535 265.280333,35.9751535 C267.107808,35.9751535 269.144137,31.6414267 270.710545,29.2918158 Z" id="Линия-цвета" fill="#4594BB"></path>
                <path d="M90.3085938,63 L89.4785156,63 L89.4785156,56.5986328 L85.8115234,56.5986328 L85.8115234,63 L84.9814453,63 L84.9814453,55.8613281 L90.3085938,55.8613281 L90.3085938,63 Z M96.8685547,60.3193359 C96.8685547,61.1917361 96.6488303,61.8728817 96.209375,62.362793 C95.7699197,62.8527043 95.1628294,63.0976562 94.3880859,63.0976562 C93.9095679,63.0976562 93.4847675,62.9853527 93.1136719,62.7607422 C92.7425763,62.5361317 92.4561208,62.2138693 92.2542969,61.7939453 C92.052473,61.3740213 91.9515625,60.8824898 91.9515625,60.3193359 C91.9515625,59.4469357 92.1696593,58.7674178 92.6058594,58.2807617 C93.0420595,57.7941056 93.6475222,57.5507812 94.4222656,57.5507812 C95.1709673,57.5507812 95.7658507,57.7998022 96.2069336,58.2978516 C96.6480165,58.7959009 96.8685547,59.4697223 96.8685547,60.3193359 Z M92.7914063,60.3193359 C92.7914063,61.0029331 92.9281236,61.5237612 93.2015625,61.8818359 C93.4750014,62.2399106 93.8770156,62.4189453 94.4076172,62.4189453 C94.9382188,62.4189453 95.3410468,62.2407244 95.6161133,61.8842773 C95.8911798,61.5278302 96.0287109,61.0061883 96.0287109,60.3193359 C96.0287109,59.638994 95.8911798,59.1222348 95.6161133,58.769043 C95.3410468,58.4158511 94.9349636,58.2392578 94.3978516,58.2392578 C93.86725,58.2392578 93.4668633,58.4134097 93.1966797,58.7617188 C92.926496,59.1100278 92.7914063,59.6292283 92.7914063,60.3193359 Z M101.167773,62.21875 L101.319141,61.7646484 L101.529102,61.1884766 L102.979297,57.6582031 L104.00957,57.6582031 L104.00957,63 L103.291797,63 L103.291797,58.5810547 L103.194141,58.8642578 L102.910938,59.6113281 L101.529102,63 L100.850391,63 L99.4685547,59.6015625 C99.2960278,59.1653624 99.1772139,58.8251965 99.1121094,58.5810547 L99.1121094,63 L98.3894531,63 L98.3894531,57.6582031 L99.3806641,57.6582031 L100.782031,61.0517578 C100.922006,61.4098325 101.050585,61.798826 101.167773,62.21875 Z M110.457227,60.3193359 C110.457227,61.1917361 110.237502,61.8728817 109.798047,62.362793 C109.358592,62.8527043 108.751501,63.0976562 107.976758,63.0976562 C107.49824,63.0976562 107.073439,62.9853527 106.702344,62.7607422 C106.331248,62.5361317 106.044793,62.2138693 105.842969,61.7939453 C105.641145,61.3740213 105.540234,60.8824898 105.540234,60.3193359 C105.540234,59.4469357 105.758331,58.7674178 106.194531,58.2807617 C106.630731,57.7941056 107.236194,57.5507812 108.010938,57.5507812 C108.759639,57.5507812 109.354523,57.7998022 109.795605,58.2978516 C110.236688,58.7959009 110.457227,59.4697223 110.457227,60.3193359 Z M106.380078,60.3193359 C106.380078,61.0029331 106.516796,61.5237612 106.790234,61.8818359 C107.063673,62.2399106 107.465687,62.4189453 107.996289,62.4189453 C108.526891,62.4189453 108.929719,62.2407244 109.204785,61.8842773 C109.479852,61.5278302 109.617383,61.0061883 109.617383,60.3193359 C109.617383,59.638994 109.479852,59.1222348 109.204785,58.769043 C108.929719,58.4158511 108.523636,58.2392578 107.986523,58.2392578 C107.455922,58.2392578 107.055535,58.4134097 106.785352,58.7617188 C106.515168,59.1100278 106.380078,59.6292283 106.380078,60.3193359 Z M115.967383,62.3017578 L118.34043,62.3017578 L118.34043,57.6582031 L119.150977,57.6582031 L119.150977,62.3017578 L119.917578,62.3017578 L119.917578,64.8408203 L119.097266,64.8408203 L119.097266,63 L111.978125,63 L111.978125,57.6582031 L112.788672,57.6582031 L112.788672,62.3017578 L115.156836,62.3017578 L115.156836,57.6582031 L115.967383,57.6582031 L115.967383,62.3017578 Z M121.858398,59.8603516 L123.508789,59.8603516 C124.875983,59.8603516 125.55957,60.3632762 125.55957,61.3691406 C125.55957,61.896487 125.381349,62.3001288 125.024902,62.5800781 C124.668455,62.8600274 124.146813,63 123.459961,63 L121.047852,63 L121.047852,57.6484375 L121.858398,57.6484375 L121.858398,59.8603516 Z M121.858398,60.5585938 L121.858398,62.3212891 L123.420898,62.3212891 C123.850588,62.3212891 124.179361,62.24642 124.407227,62.0966797 C124.635092,61.9469394 124.749023,61.7207046 124.749023,61.4179688 C124.749023,61.1217433 124.644044,60.9044603 124.434082,60.7661133 C124.22412,60.6277662 123.878258,60.5585938 123.396484,60.5585938 L121.858398,60.5585938 Z M133.752734,63 L132.932422,63 L132.932422,58.3417969 L131.325977,58.3417969 C131.238086,59.5006568 131.116016,60.420244 130.959766,61.1005859 C130.803515,61.7809279 130.60088,62.2789698 130.351855,62.5947266 C130.102831,62.9104833 129.786265,63.0683594 129.402148,63.0683594 C129.226366,63.0683594 129.086394,63.0488283 128.982227,63.0097656 L128.982227,62.4091797 C129.053842,62.428711 129.135221,62.4384766 129.226367,62.4384766 C129.600718,62.4384766 129.898567,62.0429727 130.119922,61.2519531 C130.341277,60.4609335 130.508919,59.2597737 130.622852,57.6484375 L133.752734,57.6484375 L133.752734,63 Z M142.461133,60.3193359 C142.461133,61.1949914 142.251988,61.8769507 141.833691,62.3652344 C141.415395,62.8535181 140.84167,63.0976562 140.1125,63.0976562 C139.419137,63.0976562 138.869012,62.8803733 138.462109,62.4458008 C138.055206,62.0112283 137.828972,61.3919311 137.783398,60.5878906 L136.382031,60.5878906 L136.382031,63 L135.571484,63 L135.571484,57.6484375 L136.382031,57.6484375 L136.382031,59.8896484 L137.793164,59.8896484 C137.858269,59.1474572 138.095896,58.5721049 138.506055,58.1635742 C138.916213,57.7550435 139.4582,57.5507812 140.132031,57.5507812 C140.848181,57.5507812 141.415395,57.7989884 141.833691,58.2954102 C142.251988,58.7918319 142.461133,59.4664671 142.461133,60.3193359 Z M138.623242,60.3193359 C138.623242,61.0061883 138.742056,61.5278302 138.979688,61.8842773 C139.217319,62.2407244 139.598174,62.4189453 140.122266,62.4189453 C140.636591,62.4189453 141.015005,62.2456072 141.25752,61.8989258 C141.500034,61.5522444 141.621289,61.0257197 141.621289,60.3193359 C141.621289,59.6357388 141.502475,59.1181658 141.264844,58.7666016 C141.027212,58.4150373 140.646357,58.2392578 140.122266,58.2392578 C139.598174,58.2392578 139.217319,58.4150373 138.979688,58.7666016 C138.742056,59.1181658 138.623242,59.6357388 138.623242,60.3193359 Z M148.630469,64.8505859 L147.844336,64.8505859 L147.844336,63 L144.104102,63 L144.104102,64.8505859 L143.322852,64.8505859 L143.322852,62.3017578 L143.742773,62.3017578 C144.178974,61.7093069 144.520767,61.0143269 144.768164,60.2167969 C145.015561,59.4192668 145.144141,58.5631556 145.153906,57.6484375 L147.863867,57.6484375 L147.863867,62.3017578 L148.630469,62.3017578 L148.630469,64.8505859 Z M147.082617,62.3017578 L147.082617,58.2880859 L145.881445,58.2880859 C145.839127,59.0107458 145.699969,59.7423466 145.463965,60.4829102 C145.227961,61.2234738 144.934181,61.8297502 144.582617,62.3017578 L147.082617,62.3017578 Z M150.068359,63 L149.121094,63 L150.65918,60.7392578 C150.245766,60.6481115 149.9292,60.4715182 149.709473,60.2094727 C149.489745,59.9474271 149.379883,59.6178405 149.379883,59.2207031 C149.379883,58.7324194 149.544269,58.3483087 149.873047,58.0683594 C150.201825,57.7884101 150.660804,57.6484375 151.25,57.6484375 L153.632813,57.6484375 L153.632813,63 L152.822266,63 L152.822266,60.8613281 L151.469727,60.8613281 L150.068359,63 Z M150.170898,59.2304688 C150.170898,59.8489614 150.620113,60.1582031 151.518555,60.1582031 L152.822266,60.1582031 L152.822266,58.3515625 L151.352539,58.3515625 C150.564775,58.3515625 150.170898,58.6445283 150.170898,59.2304688 Z M158.229883,62.21875 L158.38125,61.7646484 L158.591211,61.1884766 L160.041406,57.6582031 L161.07168,57.6582031 L161.07168,63 L160.353906,63 L160.353906,58.5810547 L160.25625,58.8642578 L159.973047,59.6113281 L158.591211,63 L157.9125,63 L156.530664,59.6015625 C156.358137,59.1653624 156.239323,58.8251965 156.174219,58.5810547 L156.174219,63 L155.451563,63 L155.451563,57.6582031 L156.442773,57.6582031 L157.844141,61.0517578 C157.984115,61.4098325 158.112695,61.798826 158.229883,62.21875 Z M167.736523,63.0976562 C166.96178,63.0976562 166.362014,62.8592146 165.937207,62.3823242 C165.5124,61.9054338 165.3,61.2307986 165.3,60.3583984 C165.3,59.4632117 165.515655,58.7714868 165.946973,58.2832031 C166.37829,57.7949194 166.992704,57.5507812 167.790234,57.5507812 C168.047397,57.5507812 168.304556,57.5784502 168.561719,57.6337891 C168.818882,57.6891279 169.020702,57.7542314 169.167188,57.8291016 L168.918164,58.5175781 C168.739127,58.4459632 168.543816,58.3865562 168.332227,58.3393555 C168.120637,58.2921547 167.933464,58.2685547 167.770703,58.2685547 C166.683458,58.2685547 166.139844,58.9619071 166.139844,60.3486328 C166.139844,61.0061882 166.272492,61.5107404 166.537793,61.8623047 C166.803094,62.2138689 167.196156,62.3896484 167.716992,62.3896484 C168.162958,62.3896484 168.62031,62.2936208 169.089063,62.1015625 L169.089063,62.8193359 C168.730988,63.0048837 168.280146,63.0976562 167.736523,63.0976562 Z M176.447266,63 L176.286133,62.2382812 L176.24707,62.2382812 C175.980142,62.5735694 175.714031,62.8006179 175.44873,62.9194336 C175.18343,63.0382493 174.852216,63.0976562 174.455078,63.0976562 C173.924477,63.0976562 173.508628,62.9609389 173.20752,62.6875 C172.906411,62.4140611 172.755859,62.0250676 172.755859,61.5205078 C172.755859,60.4397732 173.620109,59.8733727 175.348633,59.8212891 L176.256836,59.7919922 L176.256836,59.4599609 C176.256836,59.040037 176.166505,58.7299815 175.98584,58.5297852 C175.805175,58.3295888 175.516278,58.2294922 175.119141,58.2294922 C174.673175,58.2294922 174.168623,58.3662096 173.605469,58.6396484 L173.356445,58.0195312 C173.620119,57.8763014 173.909015,57.7639978 174.223145,57.6826172 C174.537274,57.6012366 174.852212,57.5605469 175.167969,57.5605469 C175.805993,57.5605469 176.278807,57.702147 176.586426,57.9853516 C176.894045,58.2685561 177.047852,58.7226531 177.047852,59.3476562 L177.047852,63 L176.447266,63 Z M174.616211,62.4287109 C175.120771,62.4287109 175.517088,62.290366 175.805176,62.0136719 C176.093263,61.7369778 176.237305,61.3496119 176.237305,60.8515625 L176.237305,60.3681641 L175.426758,60.4023438 C174.782223,60.4251303 174.317547,60.525227 174.032715,60.7026367 C173.747883,60.8800465 173.605469,61.1559226 173.605469,61.5302734 C173.605469,61.8232437 173.694172,62.0462232 173.871582,62.1992188 C174.048992,62.3522143 174.297199,62.4287109 174.616211,62.4287109 Z M182.807031,63 L181.986719,63 L181.986719,58.3417969 L180.380273,58.3417969 C180.292382,59.5006568 180.170313,60.420244 180.014063,61.1005859 C179.857812,61.7809279 179.655177,62.2789698 179.406152,62.5947266 C179.157128,62.9104833 178.840562,63.0683594 178.456445,63.0683594 C178.280663,63.0683594 178.140691,63.0488283 178.036523,63.0097656 L178.036523,62.4091797 C178.108138,62.428711 178.189518,62.4384766 178.280664,62.4384766 C178.655015,62.4384766 178.952864,62.0429727 179.174219,61.2519531 C179.395574,60.4609335 179.563216,59.2597737 179.677148,57.6484375 L182.807031,57.6484375 L182.807031,63 Z M187.745898,57.6484375 L188.63457,57.6484375 L186.325,60.2314453 L188.825,63 L187.877734,63 L185.436328,60.2900391 L185.436328,63 L184.625781,63 L184.625781,57.6484375 L185.436328,57.6484375 L185.436328,60.2509766 L187.745898,57.6484375 Z M194.335156,60.3193359 C194.335156,61.1917361 194.115432,61.8728817 193.675977,62.362793 C193.236521,62.8527043 192.629431,63.0976562 191.854688,63.0976562 C191.37617,63.0976562 190.951369,62.9853527 190.580273,62.7607422 C190.209178,62.5361317 189.922722,62.2138693 189.720898,61.7939453 C189.519075,61.3740213 189.418164,60.8824898 189.418164,60.3193359 C189.418164,59.4469357 189.636261,58.7674178 190.072461,58.2807617 C190.508661,57.7941056 191.114124,57.5507812 191.888867,57.5507812 C192.637569,57.5507812 193.232452,57.7998022 193.673535,58.2978516 C194.114618,58.7959009 194.335156,59.4697223 194.335156,60.3193359 Z M190.258008,60.3193359 C190.258008,61.0029331 190.394725,61.5237612 190.668164,61.8818359 C190.941603,62.2399106 191.343617,62.4189453 191.874219,62.4189453 C192.40482,62.4189453 192.807648,62.2407244 193.082715,61.8842773 C193.357781,61.5278302 193.495313,61.0061883 193.495313,60.3193359 C193.495313,59.638994 193.357781,59.1222348 193.082715,58.769043 C192.807648,58.4158511 192.401565,58.2392578 191.864453,58.2392578 C191.333852,58.2392578 190.933465,58.4134097 190.663281,58.7617188 C190.393098,59.1100278 190.258008,59.6292283 190.258008,60.3193359 Z M199.078711,58.3417969 L196.666602,58.3417969 L196.666602,63 L195.856055,63 L195.856055,57.6484375 L199.078711,57.6484375 L199.078711,58.3417969 Z M204.759766,60.3193359 C204.759766,61.1917361 204.540041,61.8728817 204.100586,62.362793 C203.661131,62.8527043 203.05404,63.0976562 202.279297,63.0976562 C201.800779,63.0976562 201.375978,62.9853527 201.004883,62.7607422 C200.633787,62.5361317 200.347332,62.2138693 200.145508,61.7939453 C199.943684,61.3740213 199.842773,60.8824898 199.842773,60.3193359 C199.842773,59.4469357 200.06087,58.7674178 200.49707,58.2807617 C200.93327,57.7941056 201.538733,57.5507812 202.313477,57.5507812 C203.062178,57.5507812 203.657062,57.7998022 204.098145,58.2978516 C204.539227,58.7959009 204.759766,59.4697223 204.759766,60.3193359 Z M200.682617,60.3193359 C200.682617,61.0029331 200.819335,61.5237612 201.092773,61.8818359 C201.366212,62.2399106 201.768227,62.4189453 202.298828,62.4189453 C202.82943,62.4189453 203.232258,62.2407244 203.507324,61.8842773 C203.782391,61.5278302 203.919922,61.0061883 203.919922,60.3193359 C203.919922,59.638994 203.782391,59.1222348 203.507324,58.769043 C203.232258,58.4158511 202.826175,58.2392578 202.289063,58.2392578 C201.758461,58.2392578 201.358074,58.4134097 201.087891,58.7617188 C200.817707,59.1100278 200.682617,59.6292283 200.682617,60.3193359 Z M210.269922,63 L209.449609,63 L209.449609,58.3417969 L207.843164,58.3417969 C207.755273,59.5006568 207.633204,60.420244 207.476953,61.1005859 C207.320702,61.7809279 207.118068,62.2789698 206.869043,62.5947266 C206.620018,62.9104833 206.303452,63.0683594 205.919336,63.0683594 C205.743554,63.0683594 205.603581,63.0488283 205.499414,63.0097656 L205.499414,62.4091797 C205.571029,62.428711 205.652408,62.4384766 205.743555,62.4384766 C206.117906,62.4384766 206.415754,62.0429727 206.637109,61.2519531 C206.858465,60.4609335 207.026106,59.2597737 207.140039,57.6484375 L210.269922,57.6484375 L210.269922,63 Z M212.899219,59.8603516 L214.549609,59.8603516 C215.916804,59.8603516 216.600391,60.3632762 216.600391,61.3691406 C216.600391,61.896487 216.42217,62.3001288 216.065723,62.5800781 C215.709276,62.8600274 215.187634,63 214.500781,63 L212.088672,63 L212.088672,57.6484375 L212.899219,57.6484375 L212.899219,59.8603516 Z M212.899219,60.5585938 L212.899219,62.3212891 L214.461719,62.3212891 C214.891408,62.3212891 215.220181,62.24642 215.448047,62.0966797 C215.675913,61.9469394 215.789844,61.7207046 215.789844,61.4179688 C215.789844,61.1217433 215.684864,60.9044603 215.474902,60.7661133 C215.26494,60.6277662 214.919078,60.5585938 214.437305,60.5585938 L212.899219,60.5585938 Z M218.917188,57.6484375 L218.917188,59.8896484 L221.915234,59.8896484 L221.915234,57.6484375 L222.725781,57.6484375 L222.725781,63 L221.915234,63 L221.915234,60.5878906 L218.917188,60.5878906 L218.917188,63 L218.106641,63 L218.106641,57.6484375 L218.917188,57.6484375 Z M229.163672,60.3193359 C229.163672,61.1917361 228.943948,61.8728817 228.504492,62.362793 C228.065037,62.8527043 227.457947,63.0976562 226.683203,63.0976562 C226.204685,63.0976562 225.779885,62.9853527 225.408789,62.7607422 C225.037693,62.5361317 224.751238,62.2138693 224.549414,61.7939453 C224.34759,61.3740213 224.24668,60.8824898 224.24668,60.3193359 C224.24668,59.4469357 224.464777,58.7674178 224.900977,58.2807617 C225.337177,57.7941056 225.942639,57.5507812 226.717383,57.5507812 C227.466085,57.5507812 228.060968,57.7998022 228.502051,58.2978516 C228.943134,58.7959009 229.163672,59.4697223 229.163672,60.3193359 Z M225.086523,60.3193359 C225.086523,61.0029331 225.223241,61.5237612 225.49668,61.8818359 C225.770119,62.2399106 226.172133,62.4189453 226.702734,62.4189453 C227.233336,62.4189453 227.636164,62.2407244 227.911231,61.8842773 C228.186297,61.5278302 228.323828,61.0061883 228.323828,60.3193359 C228.323828,59.638994 228.186297,59.1222348 227.911231,58.769043 C227.636164,58.4158511 227.230081,58.2392578 226.692969,58.2392578 C226.162367,58.2392578 225.761981,58.4134097 225.491797,58.7617188 C225.221613,59.1100278 225.086523,59.6292283 225.086523,60.3193359 Z M231.446289,57.6484375 L231.446289,61.0419922 L231.412109,61.9306641 L231.397461,62.2089844 L234.292969,57.6484375 L235.303711,57.6484375 L235.303711,63 L234.546875,63 L234.546875,59.7285156 L234.561523,59.0839844 L234.585938,58.4492188 L231.695313,63 L230.68457,63 L230.68457,57.6484375 L231.446289,57.6484375 Z M232.974609,56.9404297 C232.372393,56.9404297 231.932944,56.8240572 231.65625,56.5913086 C231.379556,56.35856 231.224935,55.9752631 231.192383,55.4414062 L231.954102,55.4414062 C231.983399,55.7799496 232.072102,56.0159499 232.220215,56.1494141 C232.368328,56.2828783 232.6263,56.3496094 232.994141,56.3496094 C233.329429,56.3496094 233.577636,56.2779955 233.73877,56.1347656 C233.899903,55.9915357 233.998372,55.7604183 234.03418,55.4414062 L234.800781,55.4414062 C234.761719,55.9557317 234.597332,56.3341459 234.307617,56.5766602 C234.017902,56.8191744 233.573571,56.9404297 232.974609,56.9404297 Z M240.840625,59.8701172 C241.853,59.8701172 242.35918,59.5901721 242.35918,59.0302734 C242.35918,58.5029271 241.949028,58.2392578 241.128711,58.2392578 C240.878059,58.2392578 240.650196,58.262044 240.445117,58.3076172 C240.240038,58.3531903 239.971486,58.4443353 239.639453,58.5810547 L239.351367,57.921875 C239.904755,57.6744779 240.508591,57.5507812 241.162891,57.5507812 C241.778128,57.5507812 242.263149,57.6769193 242.617969,57.9291992 C242.972788,58.1814791 243.150195,58.525714 243.150195,58.9619141 C243.150195,59.5608754 242.81654,59.9531241 242.149219,60.1386719 L242.149219,60.1777344 C242.559377,60.2981777 242.858853,60.4698882 243.047656,60.6928711 C243.236459,60.915854 243.330859,61.1949853 243.330859,61.5302734 C243.330859,62.0250676 243.13148,62.4099921 242.732715,62.6850586 C242.33395,62.9601251 241.783011,63.0976562 241.079883,63.0976562 C240.308395,63.0976562 239.712697,62.9820975 239.292773,62.7509766 L239.292773,62.0087891 C239.88848,62.2887384 240.490687,62.4287109 241.099414,62.4287109 C241.568166,62.4287109 241.922167,62.3481453 242.161426,62.1870117 C242.400685,62.0258781 242.520313,61.7939468 242.520313,61.4912109 C242.520313,60.869463 242.014133,60.5585938 241.001758,60.5585938 L240.25957,60.5585938 L240.25957,59.8701172 L240.840625,59.8701172 Z M248.040234,63 L247.879102,62.2382812 L247.840039,62.2382812 C247.573111,62.5735694 247.307,62.8006179 247.041699,62.9194336 C246.776398,63.0382493 246.445184,63.0976562 246.048047,63.0976562 C245.517445,63.0976562 245.101597,62.9609389 244.800488,62.6875 C244.49938,62.4140611 244.348828,62.0250676 244.348828,61.5205078 C244.348828,60.4397732 245.213077,59.8733727 246.941602,59.8212891 L247.849805,59.7919922 L247.849805,59.4599609 C247.849805,59.040037 247.759474,58.7299815 247.578809,58.5297852 C247.398144,58.3295888 247.109247,58.2294922 246.712109,58.2294922 C246.266144,58.2294922 245.761591,58.3662096 245.198438,58.6396484 L244.949414,58.0195312 C245.213087,57.8763014 245.501984,57.7639978 245.816113,57.6826172 C246.130242,57.6012366 246.445181,57.5605469 246.760938,57.5605469 C247.398962,57.5605469 247.871776,57.702147 248.179395,57.9853516 C248.487013,58.2685561 248.64082,58.7226531 248.64082,59.3476562 L248.64082,63 L248.040234,63 Z M246.20918,62.4287109 C246.71374,62.4287109 247.110057,62.290366 247.398145,62.0136719 C247.686232,61.7369778 247.830273,61.3496119 247.830273,60.8515625 L247.830273,60.3681641 L247.019727,60.4023438 C246.375192,60.4251303 245.910516,60.525227 245.625684,60.7026367 C245.340851,60.8800465 245.198438,61.1559226 245.198438,61.5302734 C245.198438,61.8232437 245.287141,62.0462232 245.464551,62.1992188 C245.641961,62.3522143 245.890168,62.4287109 246.20918,62.4287109 Z M254.751563,58.9912109 C254.751563,59.33952 254.651466,59.604003 254.45127,59.784668 C254.251073,59.9653329 253.970314,60.0865882 253.608984,60.1484375 L253.608984,60.1923828 C254.064716,60.2542321 254.397558,60.3876943 254.60752,60.5927734 C254.817482,60.7978526 254.922461,61.0810529 254.922461,61.4423828 C254.922461,61.9404322 254.739357,62.3245429 254.373145,62.5947266 C254.006932,62.8649102 253.472269,63 252.769141,63 L250.410742,63 L250.410742,57.6484375 L252.759375,57.6484375 C254.087507,57.6484375 254.751563,58.0960242 254.751563,58.9912109 Z M254.111914,61.3886719 C254.111914,61.0989569 254.002052,60.8881843 253.782324,60.7563477 C253.562597,60.6245111 253.198831,60.5585938 252.691016,60.5585938 L251.221289,60.5585938 L251.221289,62.3212891 L252.710547,62.3212891 C253.644796,62.3212891 254.111914,62.0104198 254.111914,61.3886719 Z M253.960547,59.0693359 C253.960547,58.808918 253.86045,58.6241867 253.660254,58.5151367 C253.460058,58.4060867 253.156512,58.3515625 252.749609,58.3515625 L251.221289,58.3515625 L251.221289,59.8603516 L252.593359,59.8603516 C253.094664,59.8603516 253.447851,59.7985032 253.65293,59.6748047 C253.858009,59.5511062 253.960547,59.3492853 253.960547,59.0693359 Z M256.960938,57.6484375 L256.960938,61.0419922 L256.926758,61.9306641 L256.912109,62.2089844 L259.807617,57.6484375 L260.818359,57.6484375 L260.818359,63 L260.061523,63 L260.061523,59.7285156 L260.076172,59.0839844 L260.100586,58.4492188 L257.209961,63 L256.199219,63 L256.199219,57.6484375 L256.960938,57.6484375 Z M264.775781,63.0976562 C264.001038,63.0976562 263.401272,62.8592146 262.976465,62.3823242 C262.551658,61.9054338 262.339258,61.2307986 262.339258,60.3583984 C262.339258,59.4632117 262.554913,58.7714868 262.986231,58.2832031 C263.417548,57.7949194 264.031962,57.5507812 264.829492,57.5507812 C265.086655,57.5507812 265.343814,57.5784502 265.600977,57.6337891 C265.858139,57.6891279 266.05996,57.7542314 266.206445,57.8291016 L265.957422,58.5175781 C265.778385,58.4459632 265.583074,58.3865562 265.371484,58.3393555 C265.159895,58.2921547 264.972722,58.2685547 264.809961,58.2685547 C263.722716,58.2685547 263.179102,58.9619071 263.179102,60.3486328 C263.179102,61.0061882 263.31175,61.5107404 263.577051,61.8623047 C263.842352,62.2138689 264.235414,62.3896484 264.75625,62.3896484 C265.202216,62.3896484 265.659568,62.2936208 266.12832,62.1015625 L266.12832,62.8193359 C265.770246,63.0048837 265.319404,63.0976562 264.775781,63.0976562 Z M268.25957,57.6484375 L268.25957,61.0419922 L268.225391,61.9306641 L268.210742,62.2089844 L271.10625,57.6484375 L272.116992,57.6484375 L272.116992,63 L271.360156,63 L271.360156,59.7285156 L271.374805,59.0839844 L271.399219,58.4492188 L268.508594,63 L267.497852,63 L267.497852,57.6484375 L268.25957,57.6484375 Z M276.714063,62.21875 L276.86543,61.7646484 L277.075391,61.1884766 L278.525586,57.6582031 L279.555859,57.6582031 L279.555859,63 L278.838086,63 L278.838086,58.5810547 L278.74043,58.8642578 L278.457227,59.6113281 L277.075391,63 L276.39668,63 L275.014844,59.6015625 C274.842317,59.1653624 274.723503,58.8251965 274.658398,58.5810547 L274.658398,63 L273.935742,63 L273.935742,57.6582031 L274.926953,57.6582031 L276.32832,61.0517578 C276.468295,61.4098325 276.596874,61.798826 276.714063,62.21875 Z M286.003516,60.3193359 C286.003516,61.1917361 285.783791,61.8728817 285.344336,62.362793 C284.904881,62.8527043 284.29779,63.0976562 283.523047,63.0976562 C283.044529,63.0976562 282.619728,62.9853527 282.248633,62.7607422 C281.877537,62.5361317 281.591082,62.2138693 281.389258,61.7939453 C281.187434,61.3740213 281.086523,60.8824898 281.086523,60.3193359 C281.086523,59.4469357 281.30462,58.7674178 281.74082,58.2807617 C282.17702,57.7941056 282.782483,57.5507812 283.557227,57.5507812 C284.305928,57.5507812 284.900812,57.7998022 285.341895,58.2978516 C285.782978,58.7959009 286.003516,59.4697223 286.003516,60.3193359 Z M281.926367,60.3193359 C281.926367,61.0029331 282.063085,61.5237612 282.336523,61.8818359 C282.609962,62.2399106 283.011977,62.4189453 283.542578,62.4189453 C284.07318,62.4189453 284.476008,62.2407244 284.751074,61.8842773 C285.026141,61.5278302 285.163672,61.0061883 285.163672,60.3193359 C285.163672,59.638994 285.026141,59.1222348 284.751074,58.769043 C284.476008,58.4158511 284.069925,58.2392578 283.532813,58.2392578 C283.002211,58.2392578 282.601824,58.4134097 282.331641,58.7617188 C282.061457,59.1100278 281.926367,59.6292283 281.926367,60.3193359 Z M289.663086,63.0976562 C288.888343,63.0976562 288.288576,62.8592146 287.86377,62.3823242 C287.438963,61.9054338 287.226563,61.2307986 287.226563,60.3583984 C287.226563,59.4632117 287.442218,58.7714868 287.873535,58.2832031 C288.304852,57.7949194 288.919267,57.5507812 289.716797,57.5507812 C289.97396,57.5507812 290.231119,57.5784502 290.488281,57.6337891 C290.745444,57.6891279 290.947265,57.7542314 291.09375,57.8291016 L290.844727,58.5175781 C290.665689,58.4459632 290.470379,58.3865562 290.258789,58.3393555 C290.0472,58.2921547 289.860027,58.2685547 289.697266,58.2685547 C288.610021,58.2685547 288.066406,58.9619071 288.066406,60.3486328 C288.066406,61.0061882 288.199055,61.5107404 288.464356,61.8623047 C288.729656,62.2138689 289.122719,62.3896484 289.643555,62.3896484 C290.089521,62.3896484 290.546873,62.2936208 291.015625,62.1015625 L291.015625,62.8193359 C290.65755,63.0048837 290.206708,63.0976562 289.663086,63.0976562 Z M295.993555,58.3417969 L294.255273,58.3417969 L294.255273,63 L293.444727,63 L293.444727,58.3417969 L291.725977,58.3417969 L291.725977,57.6484375 L295.993555,57.6484375 L295.993555,58.3417969 Z M297.963672,59.8603516 L299.614063,59.8603516 C300.981257,59.8603516 301.664844,60.3632762 301.664844,61.3691406 C301.664844,61.896487 301.486623,62.3001288 301.130176,62.5800781 C300.773729,62.8600274 300.252087,63 299.565234,63 L297.153125,63 L297.153125,57.6484375 L297.963672,57.6484375 L297.963672,59.8603516 Z M297.963672,60.5585938 L297.963672,62.3212891 L299.526172,62.3212891 C299.955862,62.3212891 300.284634,62.24642 300.5125,62.0966797 C300.740366,61.9469394 300.854297,61.7207046 300.854297,61.4179688 C300.854297,61.1217433 300.749318,60.9044603 300.539356,60.7661133 C300.329394,60.6277662 299.983531,60.5585938 299.501758,60.5585938 L297.963672,60.5585938 Z M310.060742,60.3193359 C310.060742,61.1949914 309.851597,61.8769507 309.433301,62.3652344 C309.015004,62.8535181 308.44128,63.0976562 307.712109,63.0976562 C307.018747,63.0976562 306.468622,62.8803733 306.061719,62.4458008 C305.654816,62.0112283 305.428581,61.3919311 305.383008,60.5878906 L303.981641,60.5878906 L303.981641,63 L303.171094,63 L303.171094,57.6484375 L303.981641,57.6484375 L303.981641,59.8896484 L305.392773,59.8896484 C305.457878,59.1474572 305.695506,58.5721049 306.105664,58.1635742 C306.515822,57.7550435 307.057809,57.5507812 307.731641,57.5507812 C308.44779,57.5507812 309.015004,57.7989884 309.433301,58.2954102 C309.851597,58.7918319 310.060742,59.4664671 310.060742,60.3193359 Z M306.222852,60.3193359 C306.222852,61.0061883 306.341666,61.5278302 306.579297,61.8842773 C306.816928,62.2407244 307.197784,62.4189453 307.721875,62.4189453 C308.236201,62.4189453 308.614615,62.2456072 308.857129,61.8989258 C309.099643,61.5522444 309.220898,61.0257197 309.220898,60.3193359 C309.220898,59.6357388 309.102085,59.1181658 308.864453,58.7666016 C308.626822,58.4150373 308.245966,58.2392578 307.721875,58.2392578 C307.197784,58.2392578 306.816928,58.4150373 306.579297,58.7666016 C306.341666,59.1181658 306.222852,59.6357388 306.222852,60.3193359 Z" id="Помощь-людям-с-алког" fill="#4A4A4A"></path>
            </g>
        </g>
    </g>
</svg>