<?xml version="1.0" encoding="UTF-8" standalone="no"?>
<svg width="48px" height="84px" viewBox="0 0 48 84" version="1.1" xmlns="http://www.w3.org/2000/svg" xmlns:xlink="http://www.w3.org/1999/xlink" xmlns:sketch="http://www.bohemiancoding.com/sketch/ns">
    <!-- Generator: Sketch 3.4 (15575) - http://www.bohemiancoding.com/sketch -->
    <title>Oval 1</title>
    <desc>Created with Sketch.</desc>
    <defs></defs>
    <g id="Page-1" stroke="none" stroke-width="1" fill="none" fill-rule="evenodd" sketch:type="MSPage">
        <path d="M22.8789899,42.5140282 C21.1159044,42.0155747 19.824,40.3946575 19.824,38.472 C19.824,38.1327624 19.8642193,37.8029185 19.9401497,37.4869766 L17.0131045,35.7970463 C16.2590954,36.5175104 15.2372222,36.96 14.112,36.96 C12.9450707,36.96 11.8892938,36.4841002 11.1281644,35.7157956 L8.25516346,37.3745235 C8.34961401,37.7243664 8.4,38.0922991 8.4,38.472 C8.4,40.7915959 6.51959595,42.672 4.2,42.672 C1.88040405,42.672 0,40.7915959 0,38.472 C0,36.1524041 1.88040405,34.272 4.2,34.272 C5.2894043,34.272 6.28193446,34.6867674 7.02829108,35.3670029 L10.0060126,33.6478146 C9.94442534,33.3616254 9.912,33.0645994 9.912,32.76 C9.912,30.4404041 11.7924041,28.56 14.112,28.56 C15.2310444,28.56 16.2478715,28.9976441 17.0006611,29.7111122 L22.848,26.3351495 L22.848,19.4891372 C22.1862101,19.2964966 21.5919105,18.9453883 21.1089188,18.47963 L18.1849587,20.306723 C18.2679292,20.6360747 18.312,20.9808907 18.312,21.336 C18.312,23.6555959 16.4315959,25.536 14.112,25.536 C11.7924041,25.536 9.912,23.6555959 9.912,21.336 C9.912,21.0008476 9.95125646,20.6748641 10.0254221,20.3623966 L6.98014676,18.6042061 C6.52309311,19.0081319 5.97741544,19.314071 5.376,19.4891372 L5.376,23.0148628 C7.12321362,23.5234597 8.4,25.1366251 8.4,27.048 C8.4,29.3675959 6.51959595,31.248 4.2,31.248 C1.88040405,31.248 0,29.3675959 0,27.048 C0,25.1366251 1.27678638,23.5234597 3.024,23.0148628 L3.024,19.4891372 C1.27678638,18.9805403 0,17.3673749 0,15.456 C0,13.1364041 1.88040405,11.256 4.2,11.256 C5.37495703,11.256 6.43722712,11.7384702 7.19950204,12.5161023 L9.99903859,10.7667577 C9.94197997,10.4907749 9.912,10.2048885 9.912,9.912 C9.912,7.59240405 11.7924041,5.712 14.112,5.712 C16.4315959,5.712 18.312,7.59240405 18.312,9.912 C18.312,12.2315959 16.4315959,14.112 14.112,14.112 C12.9347074,14.112 11.8705502,13.6276098 11.1079558,12.8472569 L8.3115871,14.594622 C8.36953853,14.8726523 8.4,15.1607688 8.4,15.456 C8.4,15.8579022 8.34354957,16.2466197 8.23814509,16.6146561 L11.190095,18.3189652 C11.9460582,17.5866919 12.9763967,17.136 14.112,17.136 C15.2266992,17.136 16.2399735,17.5702521 16.9918801,18.2788137 L19.9392126,16.437116 C19.8638884,16.1223622 19.824,15.7938393 19.824,15.456 C19.824,13.483874 21.1832389,11.8292153 23.016,11.3777406 L23.016,8.27825941 C21.1832389,7.82678468 19.824,6.17212597 19.824,4.2 C19.824,1.88040405 21.7044041,0 24.024,0 C26.3435959,0 28.224,1.88040405 28.224,4.2 C28.224,6.11137487 26.9472136,7.72454031 25.2,8.23313718 L25.2,11.4228628 C26.9472136,11.9314597 28.224,13.5446251 28.224,15.456 C28.224,17.3673749 26.9472136,18.9805403 25.2,19.4891372 L25.2,26.4321443 L30.77162,29.6489207 C31.3080025,29.1028852 31.9924792,28.7028085 32.76,28.5137406 L32.76,25.4142594 C30.9272389,24.9627847 29.568,23.308126 29.568,21.336 C29.568,19.0164041 31.4484041,17.136 33.768,17.136 C34.8814735,17.136 35.8937449,17.5692976 36.6453987,18.2764772 L39.5619951,16.4539855 C39.5082147,16.1856795 39.48,15.9081347 39.48,15.624 C39.48,15.2665476 39.5246543,14.9195248 39.6086887,14.5882057 L36.5962911,12.8489971 C35.8499345,13.5292326 34.8574043,13.944 33.768,13.944 C31.4484041,13.944 29.568,12.0635959 29.568,9.744 C29.568,7.42440405 31.4484041,5.544 33.768,5.544 C36.0875959,5.544 37.968,7.42440405 37.968,9.744 C37.968,10.1237009 37.917614,10.4916336 37.8231635,10.8414765 L40.8044604,12.5627291 C41.5559239,11.8565836 42.5674443,11.424 43.68,11.424 C45.9995959,11.424 47.88,13.3044041 47.88,15.624 C47.88,17.5353749 46.6032136,19.1485403 44.856,19.6571372 L44.856,22.8468628 C46.6032136,23.3554597 47.88,24.9686251 47.88,26.88 C47.88,29.1995959 45.9995959,31.08 43.68,31.08 C41.3604041,31.08 39.48,29.1995959 39.48,26.88 C39.48,24.907874 40.8392389,23.2532153 42.672,22.8017406 L42.672,19.7022594 C41.8927214,19.5102952 41.1990507,19.1008076 40.6590737,18.5418823 L37.8401114,20.3033654 C37.9236292,20.633731 37.968,20.9796838 37.968,21.336 C37.968,23.2473749 36.6912136,24.8605403 34.944,25.3691372 L34.944,28.5588628 C36.6912136,29.0674597 37.968,30.6806251 37.968,32.592 C37.968,32.9857812 37.9138078,33.3669052 37.8124746,33.7283208 L40.7749642,35.4387149 C41.5293508,34.7160299 42.552821,34.272 43.68,34.272 C45.9995959,34.272 47.88,36.1524041 47.88,38.472 C47.88,40.7915959 45.9995959,42.672 43.68,42.672 C41.3604041,42.672 39.48,40.7915959 39.48,38.472 C39.48,38.128679 39.5211934,37.7949793 39.5989071,37.4755737 L36.5658736,35.724451 C35.8230694,36.3883759 34.8426704,36.792 33.768,36.792 C31.4484041,36.792 29.568,34.9115959 29.568,32.592 C29.568,32.2937014 29.5990977,32.0026661 29.6582281,31.7219592 L23.94,28.4205387 L18.1876921,31.7416352 C18.2688968,32.0676884 18.312,32.4088105 18.312,32.76 C18.312,33.1052155 18.2703508,33.4407032 18.1918031,33.7617125 L21.110515,35.4468316 C21.8657,34.719356 22.8926072,34.272 24.024,34.272 C26.3435959,34.272 28.224,36.1524041 28.224,38.472 C28.224,40.4224962 26.8944131,42.0624507 25.0921317,42.5349714 L25.0921317,48.0357807 L29.8778915,45.2705089 C29.785339,44.9239466 29.736,44.5597352 29.736,44.184 C29.736,41.8644041 31.6164041,39.984 33.936,39.984 C36.2555959,39.984 38.136,41.8644041 38.136,44.184 C38.136,46.5035959 36.2555959,48.384 33.936,48.384 C32.7911775,48.384 31.7533358,47.9259606 30.9957377,47.1831446 L25.0921317,50.5936206 L25.0921317,60.6368553 L46.8060678,60.6368553 C47.2136121,60.6368553 47.544,60.9682193 47.544,61.3754934 C47.544,61.7847478 47.2136121,62.1147917 46.8060678,62.1147917 L25.1679692,62.1147917 C25.5497948,64.9142237 28.2074059,65.2898136 32.3514328,65.6284386 C36.3899466,65.9598026 40.9672367,66.3353925 42.1977832,70.8833969 C42.278237,71.1804364 42.1034809,71.4840768 41.8093631,71.5646075 C41.7599039,71.5771491 41.7117635,71.58375 41.6636232,71.58375 C41.4196241,71.58375 41.1967277,71.4213684 41.1301226,71.1738355 C40.2022668,67.7466601 36.8660745,67.1473004 33.3920558,66.8304583 C33.4856986,66.9347522 33.5747253,67.0430066 33.6571574,67.1552215 C34.320571,68.0522807 35.3592156,68.4701162 36.4585302,68.912375 C37.8361355,69.4655285 39.2599029,70.0391447 39.9048517,71.6121338 C40.0209161,71.8953114 39.8857275,72.2194145 39.602161,72.3355899 C39.5335775,72.3633136 39.4623562,72.3765154 39.3931132,72.3765154 C39.174833,72.3765154 38.968423,72.2477982 38.8807152,72.0319496 C38.4131603,70.8926382 37.3164835,70.4516996 36.0463696,69.9414518 C35.5656256,69.7480461 35.0789464,69.5493596 34.6133699,69.3077675 C34.7511963,69.8239561 34.8600067,70.3500461 34.9622225,70.8629342 C35.1475299,71.7883772 35.3229454,72.6643136 35.6579495,73.3989912 C35.7852247,73.6775482 35.6632252,74.0062719 35.3849344,74.1336689 C35.3104158,74.1673333 35.2325999,74.1838355 35.1554434,74.1838355 C34.9450767,74.1838355 34.7446018,74.0630395 34.6516184,73.8603925 C34.2618794,73.0082193 34.0660207,72.0273289 33.8767565,71.0807632 C33.4230502,68.8140219 33.0313329,66.8562018 30.3209652,66.5565219 C30.3137111,66.5558618 30.3084355,66.5545417 30.3025004,66.5532215 C28.3801836,66.3367127 26.5890988,65.9538618 25.4132872,64.9234649 C25.9645931,66.2112961 26.7836385,67.1525811 27.5881759,68.0714232 C27.9205422,68.4522939 28.2548868,68.8364649 28.5694477,69.2424189 C28.5747234,69.2476996 28.581318,69.2529803 28.5865936,69.2589211 C28.9169815,69.687318 29.3021043,70.0503662 29.7103081,70.4378377 C30.2556789,70.9520461 30.827428,71.4972785 31.293664,72.2279956 C31.3042153,72.2411974 31.3147666,72.2530789 31.323999,72.268261 C31.9386128,73.2478311 33.7508003,75.2478969 34.9002336,75.8961031 C35.1666542,76.0452829 35.2609565,76.3832478 35.1112598,76.6505833 C35.0097034,76.8307873 34.8217582,76.9324408 34.6285374,76.9324408 C34.5362134,76.9324408 34.44323,76.9093377 34.3575006,76.8618114 C33.7105734,76.4967829 32.9363711,75.8188728 32.2267955,75.090136 C32.2934006,75.7726667 32.2934006,76.5469496 32.1964605,77.4572105 C32.1661255,77.7423684 31.9267426,77.9522763 31.6471329,77.9522763 C31.6273492,77.9522763 31.6082249,77.9509561 31.5884412,77.949636 C31.2850911,77.9179518 31.064173,77.6440154 31.0964864,77.340375 C31.3662043,74.7990373 30.8683143,73.4531184 30.1073011,72.4603465 C30.4436241,74.1864759 30.2260034,76.4710395 28.9473165,79.7959013 C28.8622466,80.0163706 28.6525393,80.1516886 28.4303023,80.1516886 C28.3636972,80.1516886 28.2964326,80.1391469 28.2318058,80.1147237 C27.946261,80.0038289 27.8038183,79.6836864 27.9139476,79.3978684 C30.391527,72.9593728 28.7066148,71.0332368 26.7552819,68.8014803 C25.9823985,67.9169627 25.1574179,66.9684167 24.5500582,65.7010482 C24.7248142,67.8707566 25.0057429,69.6510132 25.2490824,71.1942982 C25.9830579,75.8393355 26.424894,78.6447083 22.7833732,83.7683092 C22.6758818,83.9201294 22.5050824,84 22.3323047,84 C22.2208565,84 22.1094083,83.9683158 22.0118087,83.8983465 C21.762534,83.7201228 21.7045018,83.3748969 21.8818957,83.1260439 C24.5573122,79.3615636 24.8679164,77.0175921 24.5282961,73.9646864 C24.3027618,74.3541382 24.0389791,74.6802215 23.7791531,75.0010241 C23.0873828,75.8571579 22.4338611,76.6657654 22.5716876,78.9371272 C22.5901524,79.2427478 22.3580236,79.5061228 22.052695,79.5239452 C22.0414843,79.5252654 22.0302735,79.5252654 22.0190627,79.5252654 C21.7282422,79.5252654 21.4842432,79.2981952 21.4664379,79.0044561 C21.3028926,76.3033772 22.1615054,75.2426162 22.9185619,74.3052917 C23.67364,73.3706075 24.3251834,72.5633202 23.933466,69.9308904 C23.7613478,68.7836579 23.5931863,67.5070482 23.4685489,66.0568355 C22.8737188,67.2687566 21.8898092,68.5902522 20.2583129,69.9678553 L20.2576534,69.9678553 C18.3109368,71.6108136 18.8391617,73.4029518 19.4498188,75.4756272 C19.8501091,76.8347478 20.264248,78.2387544 20.0070598,79.6995285 C19.9602384,79.9688443 19.7261312,80.1569693 19.4630079,80.1569693 C19.4306945,80.1569693 19.3983812,80.1543289 19.3660678,80.1490482 C19.064696,80.0962412 18.8642211,79.8091031 18.9169776,79.507443 C19.1286633,78.303443 18.7527729,77.0255132 18.3887527,75.790489 C18.2238885,75.2307346 18.0544081,74.6518377 17.9370248,74.0643596 C17.8875655,74.2808684 17.8414035,74.4973772 17.7945821,74.7178465 C17.3857188,76.6321009 16.963007,78.6136842 14.3964009,80.297568 C14.3034174,80.3582961 14.1972449,80.388 14.0937102,80.388 C13.9136784,80.388 13.7362845,80.3002083 13.630112,80.1378268 C13.4626099,79.8810526 13.5344907,79.5384671 13.7897006,79.3708048 C15.9751406,77.9370943 16.3160798,76.3383618 16.7117539,74.4854956 C16.8838721,73.6801886 17.0685201,72.8240548 17.4325403,71.96 C17.2716328,72.0570329 17.1127037,72.1507654 16.9643259,72.238557 C15.342062,73.1989846 14.4478385,73.7263947 14.089094,75.767386 C14.0422725,76.0367018 13.8088248,76.2261469 13.5450421,76.2261469 C13.5127287,76.2261469 13.4817342,76.2235066 13.4487614,76.2169057 C13.148049,76.1640987 12.9462552,75.8769605 12.9990118,75.5753004 C13.446783,73.0326425 14.6859024,72.2992851 16.4011497,71.2847303 C17.3059245,70.7493991 18.3320394,70.1434386 19.5428022,69.1222829 C19.5434617,69.1222829 19.5441211,69.1209627 19.5441211,69.1209627 C21.4558866,67.5070482 22.3857207,66.0112895 22.8394271,64.6937544 C22.6917087,64.8746184 22.5367364,65.0495417 22.3639587,65.2119232 C20.7186138,66.7552083 18.0379217,67.4192566 14.3944225,67.1948268 C12.7761154,67.4938465 12.5941053,68.3757237 12.3468089,70.3203421 C12.1219342,72.0887171 11.841665,74.2894496 9.90945638,76.5779737 C9.79998654,76.7086711 9.64435472,76.7753399 9.48674453,76.7753399 C9.36012882,76.7753399 9.2335131,76.7317741 9.12997837,76.6439825 C8.89653064,76.4466162 8.86685508,76.0974298 9.06403268,75.8637588 C10.7852151,73.8240877 11.0417438,71.8042193 11.2488133,70.1810636 C11.3925749,69.0542939 11.5336986,67.9671294 12.1733718,67.1809649 C11.5712877,67.2199101 11.0239385,67.2931798 10.526708,67.3948333 C9.11283249,67.9829715 9.051503,68.7268904 8.94335208,70.0688487 C8.87015237,70.9672281 8.78112569,72.0847566 8.17904158,73.321761 C8.08407979,73.5184671 7.88690219,73.6333224 7.6818111,73.6333224 C7.60069791,73.6333224 7.5182658,73.6155 7.43979043,73.577875 C7.16479692,73.4438772 7.05071089,73.1125132 7.18458063,72.8365965 C7.69434078,71.787057 7.77149724,70.8279496 7.84008075,69.9797368 C7.88756164,69.3882982 7.93636145,68.8094013 8.12298774,68.2740702 C5.99426099,69.5051338 5.65859745,71.320375 5.63881375,71.4418311 C5.59397068,71.7124671 5.35854458,71.9045526 5.09344292,71.9045526 C5.06310791,71.9045526 5.03211343,71.9019123 5.00111896,71.8966316 C4.70040663,71.8464649 4.49663446,71.5619671 4.54675318,71.2596469 C4.81844941,69.6318706 6.32201106,67.2199101 10.1237799,66.3637763 C10.129715,66.361136 10.1336717,66.3584956 10.1396068,66.3558553 C10.2055525,66.3287917 10.2721577,66.3169101 10.3387628,66.3155899 C11.4796232,66.0825789 12.8196395,65.9842259 14.3891468,66.0852193 C17.7081932,66.3030482 20.2029185,65.721511 21.6069022,64.4039759 C22.389018,63.6712785 22.7167681,62.8349474 22.8381081,62.1147917 L1.16373949,62.1147917 C0.756195145,62.1147917 0.425807258,61.7847478 0.425807258,61.3754934 C0.425807258,60.9682193 0.756195145,60.6368553 1.16373949,60.6368553 L22.878335,60.6368553 L22.878335,50.5936206 L16.9590502,47.172386 C16.4952017,47.6254755 15.9247846,47.9703296 15.2890719,48.1639965 C14.8667933,48.3066582 14.4144287,48.384 13.944,48.384 C11.6244041,48.384 9.744,46.5035959 9.744,44.184 C9.744,41.8644041 11.6244041,39.984 13.944,39.984 C15.579666,39.984 16.996949,40.919009 17.6905193,42.2836972 C18.0100771,42.8667474 18.1948724,43.5335003 18.1948724,44.2442368 C18.1948724,44.5927632 18.146732,44.9287478 18.0649594,45.2515307 L22.878335,48.0344605 L22.8789899,42.5140282 Z M35.9267339,45.4371261 C36.1555813,45.0743387 36.288,44.6446334 36.288,44.184 C36.288,42.8850263 35.2349737,41.832 33.936,41.832 C33.0340232,41.832 32.2506322,42.3397257 31.8560365,43.0849675 L31.921467,43.1227478 C31.7302245,43.4527917 31.6194357,43.8356425 31.6194357,44.2442368 C31.6194357,44.6541513 31.7315434,45.0383224 31.9234453,45.3696864 C32.3131843,46.0416557 33.0366085,46.4944759 33.8675242,46.4944759 C34.6971209,46.4944759 35.4212045,46.0416557 35.8102841,45.3696864 L35.9267339,45.4371261 Z M14.6702049,46.4217482 C15.6137795,46.1157509 16.296,45.229546 16.296,44.184 C16.296,42.8850263 15.2429737,41.832 13.944,41.832 C12.6450263,41.832 11.592,42.8850263 11.592,44.184 C11.592,44.6619316 11.7345509,45.1065687 11.979454,45.4777125 L12.1615016,45.3723268 C12.5505811,46.0429759 13.2733458,46.4944759 14.1022831,46.4944759 C14.2985392,46.4944759 14.4888534,46.4692079 14.6702049,46.4217482 Z M26.0215117,39.7143164 C26.2461939,39.3538155 26.376,38.9280667 26.376,38.472 C26.376,37.1730263 25.3229737,36.12 24.024,36.12 C22.7250263,36.12 21.672,37.1730263 21.672,38.472 C21.672,38.9140727 21.7939624,39.3276597 22.0060748,39.6809483 L22.0401653,39.6612478 C22.4292449,40.332557 23.153988,40.7866974 23.9849036,40.7866974 C24.8171382,40.7866974 25.5412218,40.332557 25.9296419,39.6612478 L26.0215117,39.7143164 Z M4.2,17.808 C5.49897373,17.808 6.552,16.7549737 6.552,15.456 C6.552,14.1570263 5.49897373,13.104 4.2,13.104 C2.90102627,13.104 1.848,14.1570263 1.848,15.456 C1.848,16.7549737 2.90102627,17.808 4.2,17.808 Z M4.2,29.4 C5.49897373,29.4 6.552,28.3469737 6.552,27.048 C6.552,25.7490263 5.49897373,24.696 4.2,24.696 C2.90102627,24.696 1.848,25.7490263 1.848,27.048 C1.848,28.3469737 2.90102627,29.4 4.2,29.4 Z M14.112,12.264 C15.4109737,12.264 16.464,11.2109737 16.464,9.912 C16.464,8.61302627 15.4109737,7.56 14.112,7.56 C12.8130263,7.56 11.76,8.61302627 11.76,9.912 C11.76,11.2109737 12.8130263,12.264 14.112,12.264 Z M24.024,6.552 C25.3229737,6.552 26.376,5.49897373 26.376,4.2 C26.376,2.90102627 25.3229737,1.848 24.024,1.848 C22.7250263,1.848 21.672,2.90102627 21.672,4.2 C21.672,5.49897373 22.7250263,6.552 24.024,6.552 Z M24.024,17.808 C25.3229737,17.808 26.376,16.7549737 26.376,15.456 C26.376,14.1570263 25.3229737,13.104 24.024,13.104 C22.7250263,13.104 21.672,14.1570263 21.672,15.456 C21.672,16.7549737 22.7250263,17.808 24.024,17.808 Z M14.112,23.688 C15.4109737,23.688 16.464,22.6349737 16.464,21.336 C16.464,20.0370263 15.4109737,18.984 14.112,18.984 C12.8130263,18.984 11.76,20.0370263 11.76,21.336 C11.76,22.6349737 12.8130263,23.688 14.112,23.688 Z M33.768,12.096 C35.0669737,12.096 36.12,11.0429737 36.12,9.744 C36.12,8.44502627 35.0669737,7.392 33.768,7.392 C32.4690263,7.392 31.416,8.44502627 31.416,9.744 C31.416,11.0429737 32.4690263,12.096 33.768,12.096 Z M43.68,17.976 C44.9789737,17.976 46.032,16.9229737 46.032,15.624 C46.032,14.3250263 44.9789737,13.272 43.68,13.272 C42.3810263,13.272 41.328,14.3250263 41.328,15.624 C41.328,16.9229737 42.3810263,17.976 43.68,17.976 Z M43.68,29.232 C44.9789737,29.232 46.032,28.1789737 46.032,26.88 C46.032,25.5810263 44.9789737,24.528 43.68,24.528 C42.3810263,24.528 41.328,25.5810263 41.328,26.88 C41.328,28.1789737 42.3810263,29.232 43.68,29.232 Z M33.768,23.688 C35.0669737,23.688 36.12,22.6349737 36.12,21.336 C36.12,20.0370263 35.0669737,18.984 33.768,18.984 C32.4690263,18.984 31.416,20.0370263 31.416,21.336 C31.416,22.6349737 32.4690263,23.688 33.768,23.688 Z M33.768,34.944 C35.0669737,34.944 36.12,33.8909737 36.12,32.592 C36.12,31.2930263 35.0669737,30.24 33.768,30.24 C32.4690263,30.24 31.416,31.2930263 31.416,32.592 C31.416,33.8909737 32.4690263,34.944 33.768,34.944 Z M43.68,40.824 C44.9789737,40.824 46.032,39.7709737 46.032,38.472 C46.032,37.1730263 44.9789737,36.12 43.68,36.12 C42.3810263,36.12 41.328,37.1730263 41.328,38.472 C41.328,39.7709737 42.3810263,40.824 43.68,40.824 Z M14.112,35.112 C15.4109737,35.112 16.464,34.0589737 16.464,32.76 C16.464,31.4610263 15.4109737,30.408 14.112,30.408 C12.8130263,30.408 11.76,31.4610263 11.76,32.76 C11.76,34.0589737 12.8130263,35.112 14.112,35.112 Z M4.2,40.824 C5.49897373,40.824 6.552,39.7709737 6.552,38.472 C6.552,37.1730263 5.49897373,36.12 4.2,36.12 C2.90102627,36.12 1.848,37.1730263 1.848,38.472 C1.848,39.7709737 2.90102627,40.824 4.2,40.824 Z" id="Oval-1" fill="#03E21C" sketch:type="MSShapeGroup"></path>
    </g>
</svg>