<svg xmlns="http://www.w3.org/2000/svg"><symbol id="icon-arrow-right" viewBox="0 0 16 10"><path d="M10.532.286L9.356 1.467l2.725 2.713L.744 4.19l.001 1.667 11.307-.011-2.68 2.691 1.182 1.176 4.703-4.725L10.532.286z"/></symbol><symbol id="pic-knd" viewBox="0 0 35 34"><g fill="none" fill-rule="evenodd"><path d="M.708 25.664L27.801 3.599c.8.602 1.55 1.268 2.238 1.992L6.323 32.493a18.073 18.073 0 0 1-5.615-6.83z" fill-opacity=".5" fill="#ACACAC" fill-rule="nonzero"/><path d="M11.928.724l22.731 20.78a17.944 17.944 0 0 1-4.234 8.486L7.745 2.558c1.297-.779 2.7-1.399 4.183-1.834z" fill-opacity=".5" fill="#898989" fill-rule="nonzero"/><path d="M22.216 11.67a1.21 1.21 0 1 1-2.42 0 1.21 1.21 0 0 1 2.42 0z" fill="#7A7A7A" fill-rule="nonzero"/><path d="M17.187 2.818A14.97 14.97 0 0 1 27.816 7.22a14.954 14.954 0 0 1 4.404 10.624 14.954 14.954 0 0 1-4.404 10.624 14.97 14.97 0 0 1-10.628 4.403 14.97 14.97 0 0 1-10.629-4.403 14.954 14.954 0 0 1-4.404-10.624A14.954 14.954 0 0 1 6.559 7.22a14.97 14.97 0 0 1 10.628-4.403" stroke="#979797"/></g></symbol><symbol id="icon-bell" viewBox="0 0 12 16"><path d="M10.5 8.885V6.5a4.5 4.5 0 0 0-3.75-4.433V1.25a.75.75 0 0 0-1.5 0v.817A4.5 4.5 0 0 0 1.5 6.5v2.385A2.25 2.25 0 0 0 0 11v1.5a.75.75 0 0 0 .75.75h2.355a3 3 0 0 0 5.79 0h2.355a.75.75 0 0 0 .75-.75V11a2.25 2.25 0 0 0-1.5-2.115zM3 6.5a3 3 0 1 1 6 0v2.25H3V6.5zM6 14a1.5 1.5 0 0 1-1.29-.75h2.58A1.5 1.5 0 0 1 6 14zm4.5-2.25h-9V11a.75.75 0 0 1 .75-.75h7.5a.75.75 0 0 1 .75.75v.75z"/></symbol><symbol id="icon-calendar" viewBox="0 0 16 18"><path d="M8 14.25a.75.75 0 1 0 0-1.5.75.75 0 0 0 0 1.5zm3.75 0a.75.75 0 1 0 0-1.5.75.75 0 0 0 0 1.5zm0-3a.75.75 0 1 0 0-1.5.75.75 0 0 0 0 1.5zm-3.75 0a.75.75 0 1 0 0-1.5.75.75 0 0 0 0 1.5zm5.25-9h-.75V1.5a.75.75 0 1 0-1.5 0v.75H5V1.5a.75.75 0 0 0-1.5 0v.75h-.75A2.25 2.25 0 0 0 .5 4.5V15a2.25 2.25 0 0 0 2.25 2.25h10.5A2.25 2.25 0 0 0 15.5 15V4.5a2.25 2.25 0 0 0-2.25-2.25zM14 15a.75.75 0 0 1-.75.75H2.75A.75.75 0 0 1 2 15V8.25h12V15zm0-8.25H2V4.5a.75.75 0 0 1 .75-.75h.75v.75a.75.75 0 0 0 1.5 0v-.75h6v.75a.75.75 0 1 0 1.5 0v-.75h.75a.75.75 0 0 1 .75.75v2.25zm-9.75 4.5a.75.75 0 1 0 0-1.5.75.75 0 0 0 0 1.5zm0 3a.75.75 0 1 0 0-1.5.75.75 0 0 0 0 1.5z"/></symbol><symbol id="icon-close" viewBox="0 0 14 14"><path d="M14 1.41L12.59 0 7 5.59 1.41 0 0 1.41 5.59 7 0 12.59 1.41 14 7 8.41 12.59 14 14 12.59 8.41 7 14 1.41z"/></symbol><symbol id="icon-down" viewBox="0 0 12 8"><path d="M1.41.58L6 5.17 10.59.58 12 2 6 8 0 2 1.41.58z"/></symbol><symbol id="icon-facebook" viewBox="0 0 15 32"><path d="M14.66 10.216H9.667V6.94c0-1.23.815-1.516 1.39-1.516h3.523V.019L9.727 0C4.341 0 3.115 4.032 3.115 6.612v3.604H0v5.57h3.115V31.55h6.552V15.786h4.421l.572-5.57z"/></symbol><symbol id="icon-grid" viewBox="0 0 16 16"><path clip-rule="evenodd" d="M0 4h4V0H0v4zm6 12h4v-4H6v4zm-6 0h4v-4H0v4zm0-6h4V6H0v4zm6 0h4V6H6v4zm6-10v4h4V0h-4zM6 4h4V0H6v4zm6 6h4V6h-4v4zm0 6h4v-4h-4v4z"/></symbol><symbol id="icon-instagram" viewBox="0 0 20 20"><path d="M5.8 0h8.4C17.4 0 20 2.6 20 5.8v8.4a5.8 5.8 0 0 1-5.8 5.8H5.8C2.6 20 0 17.4 0 14.2V5.8A5.8 5.8 0 0 1 5.8 0zm-.2 2A3.6 3.6 0 0 0 2 5.6v8.8C2 16.39 3.61 18 5.6 18h8.8a3.6 3.6 0 0 0 3.6-3.6V5.6C18 3.61 16.39 2 14.4 2H5.6zm9.65 1.5a1.25 1.25 0 1 1 0 2.5 1.25 1.25 0 0 1 0-2.5zM10 5a5 5 0 1 1 0 10 5 5 0 0 1 0-10zm0 2a3 3 0 1 0 0 6 3 3 0 0 0 0-6z"/></symbol><symbol id="icon-list" viewBox="0 0 16 16"><path clip-rule="evenodd" d="M0 4h16V0H0v4zm0 6h16V6H0v4zm0 6h16v-4H0v4z"/></symbol><symbol id="icon-logo" viewBox="0 0 72 72"><path d="M48 24V0H24v24H0v24h24v24h24V48h24V24H48z"/></symbol><symbol id="icon-mail" viewBox="0 0 20 20"><path d="M2 8l8 5 8-5-8-5-8 5zm18 0v10a2 2 0 0 1-2 2H2a2 2 0 0 1-2-2V8c0-.73.39-1.36.97-1.71L10 .64l9.03 5.65c.58.35.97.98.97 1.71z"/></symbol><symbol id="icon-marker-outline" viewBox="0 0 14 16"><path d="M13.345 6.26a6.376 6.376 0 0 0-9.87-4.74 6.42 6.42 0 0 0-2.82 4.703A6.345 6.345 0 0 0 2.5 11.345l3.975 3.983a.75.75 0 0 0 1.065 0l3.96-3.982a6.346 6.346 0 0 0 1.845-5.123v.037zm-2.895 4.028L7 13.738l-3.45-3.45a4.868 4.868 0 0 1-1.403-3.915A4.927 4.927 0 0 1 4.315 2.75a4.853 4.853 0 0 1 5.37 0 4.928 4.928 0 0 1 2.167 3.608 4.867 4.867 0 0 1-1.402 3.93z"/></symbol><symbol id="icon-marker" viewBox="0 0 14 20"><path d="M7 9.5a2.5 2.5 0 1 1 0-5 2.5 2.5 0 0 1 0 5zM7 0a7 7 0 0 0-7 7c0 5.25 7 13 7 13s7-7.75 7-13a7 7 0 0 0-7-7z"/></symbol><symbol id="icon-menu" viewBox="0 0 32 22"><path d="M0 0h32v3.556H0V0zm0 8.889h32v3.555H0V8.89zm0 8.889h32v3.555H0v-3.555z"/></symbol><symbol id="icon-mic" viewBox="0 0 10 18"><path clip-rule="evenodd" d="M2.75 3a2.25 2.25 0 0 1 4.5 0v6a2.25 2.25 0 0 1-4.5 0V3zm3 0v6a.75.75 0 0 1-1.5 0V3a.75.75 0 0 1 1.5 0z"/><path d="M9.5 9c0 2.23-1.622 4.08-3.75 4.438v2.312h3v1.5h-7.5v-1.5h3v-2.312A4.501 4.501 0 0 1 .5 9V6.75H2V9a3 3 0 1 0 6 0V6.75h1.5V9z"/></symbol><symbol id="icon-next" viewBox="0 0 15 24"><path d="M3 0L.17 2.83 9.34 12 .17 21.17 3 24l12-12L3 0z"/></symbol><symbol id="icon-ok" viewBox="0 0 19 32"><path d="M9.25 4.83a3.416 3.416 0 0 1 3.413 3.414c0 1.88-1.53 3.41-3.413 3.41a3.417 3.417 0 0 1-3.413-3.41A3.418 3.418 0 0 1 9.25 4.83zm0 11.654c4.547 0 8.243-3.696 8.243-8.24C17.493 3.698 13.797 0 9.25 0 4.705 0 1.008 3.698 1.008 8.244c0 4.544 3.697 8.24 8.242 8.24zm3.335 6.724a15.434 15.434 0 0 0 4.786-1.983 2.415 2.415 0 0 0 .757-3.33 2.413 2.413 0 0 0-3.33-.76 10.465 10.465 0 0 1-11.097 0 2.412 2.412 0 0 0-3.33.76 2.414 2.414 0 0 0 .757 3.33c1.49.935 3.108 1.6 4.786 1.983l-4.608 4.608a2.415 2.415 0 0 0 3.417 3.414l4.526-4.528 4.53 4.528c.942.943 2.47.943 3.414 0a2.413 2.413 0 0 0 0-3.414l-4.608-4.608z"/></symbol><symbol id="icon-prev" viewBox="0 0 15 25"><path d="M14.83 21.67L5.66 12.5l9.17-9.17L12 .5l-12 12 12 12 2.83-2.83z"/></symbol><symbol id="icon-search" viewBox="0 0 18 18"><path d="M11 0a6.5 6.5 0 0 0-6.5 6.5c0 1.61.59 3.09 1.56 4.23l-.27.27H5l-5 5 1.5 1.5 5-5v-.79l.27-.27C7.91 12.41 9.39 13 11 13a6.5 6.5 0 1 0 0-13zm0 2c2.5 0 4.5 2 4.5 4.5S13.5 11 11 11 6.5 9 6.5 6.5 8.5 2 11 2z"/></symbol><symbol id="icon-telegram" viewBox="0 0 32 27"><path d="M29.84.177L1.494 11.11c-1.935.777-1.923 1.856-.353 2.337l7.07 2.206 2.705 8.294c.329.907.166 1.267 1.12 1.267.735 0 1.061-.335 1.471-.735.26-.255 1.808-1.76 3.535-3.438l7.353 5.433c1.353.746 2.33.36 2.667-1.257L31.89 2.47c.494-1.981-.756-2.88-2.05-2.293zM9.32 15.147L25.255 5.092c.795-.482 1.525-.223.926.309l-13.644 12.31-.532 5.667-2.685-8.233z"/></symbol><symbol id="icon-twitter" viewBox="0 0 32 26"><path d="M31.528 3.033a12.87 12.87 0 0 1-3.715 1.018A6.48 6.48 0 0 0 30.657.472a12.948 12.948 0 0 1-4.107 1.57 6.468 6.468 0 0 0-11.021 5.9A18.366 18.366 0 0 1 2.194 1.184a6.435 6.435 0 0 0-.875 3.252A6.465 6.465 0 0 0 4.197 9.82a6.45 6.45 0 0 1-2.93-.81v.082a6.473 6.473 0 0 0 5.189 6.343 6.503 6.503 0 0 1-2.922.11 6.475 6.475 0 0 0 6.042 4.492 12.976 12.976 0 0 1-8.033 2.77c-.522 0-1.037-.031-1.543-.091a18.304 18.304 0 0 0 9.916 2.906c11.898 0 18.403-9.856 18.403-18.404 0-.28-.005-.56-.018-.838a13.1 13.1 0 0 0 3.227-3.347z"/></symbol><symbol id="icon-up" viewBox="0 0 12 8"><path d="M1.41 8L6 3.41 10.59 8 12 6.58l-6-6-6 6L1.41 8z"/></symbol><symbol id="icon-viber" viewBox="0 0 31 31"><g><path d="M28.046 22.425c-.943-.759-1.951-1.44-2.943-2.136-1.978-1.39-3.788-1.498-5.264.738-.829 1.255-1.99 1.31-3.203.76-3.345-1.518-5.928-3.855-7.44-7.255-.67-1.504-.661-2.852.905-3.916.829-.563 1.664-1.229 1.597-2.458-.087-1.603-3.98-6.96-5.516-7.526C5.546.398 4.912.413 4.266.631.66 1.843-.831 4.807.598 8.317c4.265 10.47 11.771 17.76 22.103 22.208.59.254 1.244.355 1.575.446 2.352.024 5.108-2.243 5.904-4.492.766-2.164-.854-3.023-2.134-4.054zM16.46 1.706c7.554 1.161 11.038 4.753 12 12.36.089.703-.173 1.76.83 1.78 1.047.02.795-1.021.804-1.725C30.182 6.956 23.934.314 16.679.07c-.547.079-1.68-.378-1.75.85-.048.827.906.69 1.532.787z"/><path d="M17.938 3.792c-.726-.088-1.685-.43-1.855.578-.177 1.058.892.95 1.579 1.104 4.665 1.043 6.289 2.741 7.057 7.369.112.674-.11 1.724 1.036 1.55.85-.13.543-1.03.614-1.555.037-4.443-3.77-8.487-8.43-9.046z"/><path d="M18.367 7.425c-.485.012-.961.064-1.14.582-.267.775.296.96.87 1.052 1.913.307 2.92 1.436 3.111 3.344.052.518.38.938.881.878.693-.082.756-.7.735-1.285.034-2.144-2.39-4.623-4.457-4.571z"/></g></symbol><symbol id="icon-vk" viewBox="0 0 32 21"><path d="M.005 1.527c-.219-1.336 6.241-.509 6.241-.509s3.75 9.417 5.228 9.417c1.478 0 .766-7.985.766-7.985s-1.833-.478-1.833-1.21C10.407.51 12.24 0 12.24 0h5.393c.646 0 .903 1.05.903 1.75v8.558h1.478s1.316-2.115 2.354-4.263c1.038-2.149 2.3-5.027 2.3-5.027h6.267s1.15.032 1.013.986c-.186 1.299-4.356 7.466-5.228 9.576-.657 1.59 2.76 3.744 4.215 6.045.945 1.493 1.013 3.245 1.013 3.245h-7.445l-3.723-4.327s-.766-.318-1.368.127c-.603.446-.63 1.337-.63 1.337v2.863h-5.83s-4.461-1.527-8.239-8.208C.936 5.982.224 2.863.005 1.527z"/></symbol><symbol id="icon-whatsup" viewBox="0 0 32 32"><path d="M16.172 0C7.579 0 .614 6.965.614 15.558c0 2.939.815 5.688 2.232 8.033L.038 31.938l8.614-2.758a15.49 15.49 0 0 0 7.52 1.935c8.592 0 15.557-6.965 15.557-15.557C31.73 6.965 24.764 0 16.172 0zm0 28.637c-2.657 0-5.131-.797-7.197-2.163l-5.026 1.61 1.633-4.858a13.009 13.009 0 0 1-2.49-7.668c0-7.213 5.867-13.08 13.08-13.08 7.212 0 13.08 5.867 13.08 13.08 0 7.212-5.868 13.08-13.08 13.08zm-3.65-19.514c-.251-.608-.444-.628-.834-.647a8.936 8.936 0 0 0-.436-.012c-.502 0-1.022.147-1.335.468-.382.39-1.335 1.304-1.335 3.18 0 1.877 1.367 3.69 1.557 3.944.19.255 2.665 4.161 6.515 5.757 3.005 1.244 3.897 1.133 4.583.983.997-.217 2.25-.952 2.568-1.842.317-.89.317-1.654.222-1.813-.095-.159-.35-.254-.73-.445-.382-.19-2.258-1.113-2.607-1.24-.35-.128-.673-.089-.942.283-.37.514-.728 1.041-1.023 1.354-.232.246-.606.28-.927.144-.422-.18-1.61-.594-3.067-1.893-1.133-1.01-1.899-2.259-2.121-2.64-.223-.382-.02-.61.152-.817.195-.237.376-.407.566-.63.19-.222.297-.341.425-.596.127-.254.041-.517-.054-.708-.096-.19-.86-2.066-1.176-2.83z"/></symbol><symbol id="icon-youtube" viewBox="0 0 24 24"><path d="M10 16.5v-9l6 4.5m4-7.6c-.6-.2-4.3-.4-8-.4s-7.4.19-8 .38C2.44 4.9 2 8.4 2 12c0 3.59.44 7.1 2 7.61.6.2 4.3.39 8 .39s7.4-.19 8-.39c1.56-.51 2-4.02 2-7.61 0-3.6-.44-7.09-2-7.6z"/></symbol></svg>