<svg xmlns="http://www.w3.org/2000/svg" xmlns:xlink="http://www.w3.org/1999/xlink"><defs><circle id="a" cx="18" cy="19" r="18"/></defs><symbol id="pic-knd" viewBox="0 0 38 37"><g fill="none" fill-rule="evenodd"><mask id="b" fill="#fff"><use xlink:href="#a"/></mask><g mask="url(#b)" fill-rule="nonzero"><path fill-opacity=".5" fill="#ACACAC" d="M0 28.055L33.22 1h2.749L3.35 38H0z"/><path fill-opacity=".5" fill="#898989" d="M6.63 1h5.505L35.97 22.786v13.7z"/><path d="M23.216 12.67a1.21 1.21 0 1 1-2.42 0 1.21 1.21 0 0 1 2.42 0z" fill="#7A7A7A"/><path d="M18.187 3.818A14.97 14.97 0 0 1 28.816 8.22a14.954 14.954 0 0 1 4.404 10.624 14.954 14.954 0 0 1-4.404 10.624 14.97 14.97 0 0 1-10.628 4.403 14.97 14.97 0 0 1-10.629-4.403 14.954 14.954 0 0 1-4.404-10.624A14.954 14.954 0 0 1 7.559 8.22a14.97 14.97 0 0 1 10.628-4.403" stroke="#979797"/></g></g></symbol><symbol id="icon-add-cal" viewBox="0 0 18 20"><path d="M16 18V6H2v12h14zM13 0h2v2h1a2 2 0 0 1 2 2v14a2 2 0 0 1-2 2H2a2 2 0 0 1-2-2V4c0-1.11.89-2 2-2h1V0h2v2h8V0zM8 8h2v3h3v2h-3v3H8v-3H5v-2h3V8z"/></symbol><symbol id="pic-logo-small" viewBox="0 0 72 72"><path d="M48 24V0H24v24H0v24h24v24h24V48h24V24H48z" fill="#D82332" fill-rule="evenodd"/></symbol><symbol id="icon-close" viewBox="0 0 14 14"><path d="M14 1.41L12.59 0 7 5.59 1.41 0 0 1.41 5.59 7 0 12.59 1.41 14 7 8.41 12.59 14 14 12.59 8.41 7 14 1.41z"/></symbol><symbol id="icon-down" viewBox="0 0 12 8"><path d="M1.41.58L6 5.17 10.59.58 12 2 6 8 0 2 1.41.58z"/></symbol><symbol id="pic-logo" viewBox="0 0 1075 1075"><g fill="#D82332" fill-rule="evenodd"><path d="M648 431V215H432v216H216v216h216v216h216V647h216V431zM109.817 435.756l21.927 4.262c4.277.832 7.02 1.093 8.23.783 1.21-.31 2.276-1.07 3.198-2.283.922-1.213 1.73-3.608 2.426-7.185l2.157.42-7.81 40.181-2.158-.42c.71-3.654.852-6.199.425-7.633-.427-1.435-1.134-2.52-2.12-3.257-.987-.737-3.62-1.52-7.896-2.352l-51.32-9.976c-4.277-.83-7.02-1.092-8.23-.782-1.21.31-2.274 1.06-3.192 2.254-.918 1.193-1.728 3.598-2.431 7.214l-2.158-.42 6.7-34.466c2.206-11.353 5.811-19.105 10.814-23.256 5.004-4.152 10.538-5.638 16.603-4.46 5.132.998 9.215 3.446 12.25 7.345 3.035 3.898 4.67 8.775 4.903 14.63.2 3.953-.573 10.42-2.318 19.401zm-38.724-7.527l34.175 6.643c.327-1.268.555-2.232.683-2.893.922-4.744.223-8.672-2.097-11.786-2.32-3.114-6.434-5.245-12.344-6.394-5.87-1.141-10.416-.693-13.637 1.344-3.22 2.037-5.325 5.602-6.315 10.695l-.465 2.391zM125.017 742.82l-20.407 9.086c-3.98 1.772-6.377 3.132-7.191 4.08-.814.947-1.25 2.182-1.31 3.704-.059 1.523.652 3.948 2.134 7.277l-2.008.894-16.649-37.395 2.008-.894c1.515 3.401 2.858 5.567 4.031 6.497 1.173.93 2.375 1.414 3.605 1.452 1.23.037 3.836-.83 7.816-2.602l47.761-21.265c3.98-1.772 6.377-3.132 7.19-4.08.815-.947 1.255-2.173 1.323-3.677.067-1.504-.648-3.938-2.147-7.303l2.008-.894 14.282 32.075c4.704 10.566 6.197 18.984 4.48 25.254-1.717 6.27-5.398 10.663-11.042 13.176-4.777 2.126-9.526 2.463-14.248 1.01-4.722-1.452-8.858-4.51-12.408-9.173-2.431-3.123-5.507-8.863-9.228-17.221zm36.037-16.044l-31.804 14.16c.46 1.226.826 2.147 1.1 2.762 1.965 4.414 4.79 7.231 8.477 8.451 3.687 1.22 8.28.606 13.78-1.842 5.463-2.433 8.93-5.407 10.4-8.923 1.469-3.516 1.149-7.643-.962-12.383l-.99-2.225zM822.716 906.703l13.753 17.603c2.682 3.433 4.581 5.43 5.697 5.99 1.117.56 2.42.685 3.912.375 1.491-.311 3.673-1.588 6.544-3.831l1.353 1.732-32.256 25.2-1.353-1.731c2.934-2.292 4.71-4.12 5.329-5.483.619-1.363.797-2.646.536-3.85-.262-1.202-1.733-3.52-4.416-6.954l-32.187-41.198c-2.682-3.433-4.582-5.43-5.698-5.99-1.116-.56-2.412-.691-3.888-.392-1.476.298-3.665 1.581-6.567 3.849l-1.354-1.732 27.669-21.617c9.113-7.12 16.92-10.606 23.42-10.457 6.499.15 11.65 2.658 15.455 7.527 3.219 4.12 4.694 8.646 4.427 13.58-.267 4.933-2.233 9.686-5.898 14.258-2.443 3.115-7.268 7.488-14.478 13.121zm-24.287-31.086l21.434 27.435c1.079-.743 1.883-1.321 2.414-1.736 3.808-2.975 5.857-6.398 6.15-10.27.291-3.872-1.416-8.18-5.122-12.924-3.682-4.713-7.407-7.357-11.173-7.933-3.767-.575-7.695.734-11.783 3.929l-1.92 1.5zM111.526 297.403c5.135-12.168 13.155-20.26 24.062-24.275 10.906-4.016 21.934-3.424 33.083 1.775 9.525 4.441 16.606 11.136 21.242 20.085 6.156 11.86 6.092 24.527-.192 38.002-6.3 13.512-15.75 21.825-28.349 24.94-9.956 2.458-19.899 1.372-29.83-3.259-11.149-5.199-18.674-13.326-22.575-24.381-3.902-11.056-3.049-22.018 2.559-32.887zm3.854.988c-3.202 6.867-2.13 13.726 3.214 20.578 4.399 5.602 11.988 10.917 22.769 15.944 12.81 5.973 23.33 8.137 31.558 6.49 5.746-1.14 9.936-4.535 12.57-10.184 1.773-3.802 2.33-7.407 1.672-10.815-.847-4.351-3.443-8.64-7.786-12.868-4.344-4.228-10.687-8.287-19.03-12.177-9.932-4.631-17.792-7.173-23.581-7.625-5.79-.452-10.366.279-13.731 2.193-3.365 1.914-5.916 4.736-7.655 8.464zM233.79 150.843l18.579 22.143-1.837 1.541c-6.232-4.62-12.523-6.887-18.875-6.802-6.351.084-11.914 2.13-16.688 6.136-3.989 3.347-6.686 7.563-8.091 12.65-1.406 5.086-1.323 10.128.248 15.125 2 6.403 5.439 12.51 10.314 18.32 4.797 5.717 9.887 10.316 15.272 13.8 5.385 3.483 10.624 5.134 15.718 4.954 5.095-.18 10.091-2.325 14.991-6.437 4.02-3.373 6.965-7.342 8.834-11.908 1.87-4.566 2.851-10.555 2.947-17.967l4.625 5.512c-.444 6.742-1.9 12.58-4.37 17.515-2.469 4.935-6.294 9.577-11.476 13.925-6.816 5.72-14.016 9.433-21.601 11.141-7.585 1.708-14.963 1.208-22.132-1.5-7.17-2.708-13.18-6.951-18.029-12.73-5.112-6.093-8.368-13.21-9.765-21.35-1.398-8.14-.653-15.99 2.235-23.552 2.888-7.561 7.378-13.898 13.471-19.01 4.492-3.77 10.051-6.775 16.68-9.018 3.837-1.294 6.15-2.27 6.934-2.93 1.005-.843 1.567-1.943 1.686-3.3.119-1.358-.384-2.93-1.508-4.716l1.837-1.542zM306.084 892.979l-18.038 21.497-1.783-1.497c3.366-6.737 4.473-13.134 3.321-19.192-1.151-6.059-4.044-11.033-8.68-14.922-3.872-3.249-8.358-5.117-13.458-5.603-5.1-.486-9.906.443-14.42 2.787-5.784 2.993-11.043 7.31-15.776 12.95-4.657 5.55-8.196 11.192-10.618 16.928-2.423 5.735-3.119 11.023-2.088 15.863 1.031 4.84 3.925 9.256 8.682 13.247 3.903 3.275 8.194 5.421 12.874 6.439 4.68 1.017 10.572.946 17.676-.212l-4.49 5.351c-6.522.712-12.35.304-17.484-1.225-5.134-1.528-10.217-4.403-15.248-8.625-6.617-5.552-11.381-11.81-14.293-18.774-2.912-6.964-3.678-14.102-2.297-21.413 1.38-7.311 4.424-13.772 9.132-19.382 4.963-5.916 11.219-10.228 18.766-12.937 7.546-2.708 15.178-3.32 22.894-1.833 7.716 1.486 14.532 4.711 20.447 9.675 4.36 3.659 8.171 8.467 11.433 14.426 1.885 3.452 3.208 5.497 3.97 6.137.976.819 2.123 1.17 3.44 1.055 1.318-.115 2.736-.861 4.255-2.237l1.783 1.497zM927.933 683l25.428 12.402-1.03 2.11c-7.41-1.65-13.938-1.173-19.583 1.431-5.646 2.604-9.805 6.647-12.48 12.13-2.233 4.58-2.966 9.424-2.198 14.531.768 5.108 2.85 9.583 6.243 13.426 4.338 4.929 9.843 9.02 16.516 12.274 6.564 3.202 12.947 5.288 19.148 6.259 6.201.97 11.543.362 16.027-1.827 4.483-2.19 8.096-6.097 10.84-11.723 2.252-4.617 3.305-9.338 3.159-14.165-.147-4.826-1.653-10.572-4.518-17.238l6.33 3.087c2.286 6.205 3.308 12.006 3.065 17.401-.243 5.395-1.815 11.069-4.718 17.02-3.817 7.826-8.777 14.013-14.879 18.56-6.102 4.547-12.897 7.037-20.386 7.47-7.488.432-14.55-.97-21.187-4.206-6.997-3.413-12.74-8.48-17.23-15.202-4.491-6.722-6.95-14.038-7.378-21.948-.428-7.91 1.064-15.364 4.477-22.361 2.516-5.158 6.29-10.059 11.323-14.703 2.917-2.685 4.595-4.478 5.035-5.38.563-1.154.627-2.361.193-3.622-.434-1.261-1.51-2.466-3.226-3.616l1.03-2.11z"/><text transform="rotate(23 663.527 243.34)" font-family="TimesNewRomanPS-BoldMT, Times New Roman" font-size="130" font-weight="bold" letter-spacing="16.714"><tspan x="629.721" y="154.962">&#x421;</tspan></text><path d="M350.294 76.896l13.274 26.054-2.161 1.101c-5.091-5.97-10.776-9.638-17.056-11-6.28-1.362-12.229-.612-17.846 2.25-4.693 2.392-8.311 5.934-10.854 10.628-2.543 4.694-3.608 9.682-3.197 14.966.515 6.766 2.514 13.568 5.997 20.404 3.427 6.726 7.398 12.418 11.913 17.077 4.515 4.659 9.304 7.479 14.366 8.46 5.062.982 10.476.005 16.24-2.933 4.73-2.41 8.537-5.652 11.418-9.727 2.881-4.075 5.212-9.755 6.993-17.04l3.305 6.486c-1.972 6.544-4.737 11.968-8.293 16.27-3.557 4.303-8.384 8.007-14.481 11.114-8.02 4.086-15.962 6.108-23.827 6.066-7.865-.042-15.023-2.214-21.474-6.515-6.45-4.3-11.408-9.85-14.873-16.65-3.653-7.17-5.242-14.925-4.767-23.267.475-8.341 2.995-15.91 7.563-22.705 4.567-6.796 10.435-12.02 17.604-15.674 5.285-2.692 11.449-4.39 18.492-5.093 4.078-.402 6.579-.838 7.502-1.309 1.183-.602 1.987-1.559 2.413-2.87.426-1.31.288-2.974-.413-4.991l2.162-1.102zM473.72 64.916c-.726-4.326-1.71-7.167-2.955-8.524-1.244-1.357-3.875-1.718-7.892-1.082l-2.658.421-.346-2.185 42.946-6.802.346 2.185-2.776.44c-3.702.586-6.041 1.684-7.018 3.292-.977 1.608-1.085 4.814-.324 9.619l8.346 52.693c.78 4.923 1.891 7.987 3.333 9.191 1.443 1.205 3.995 1.517 7.658.937l2.776-.44.346 2.186-42.946 6.802-.346-2.185 2.658-.421c3.741-.593 6.076-1.72 7.004-3.38.928-1.661 1.014-4.874.26-9.64l-6.887-43.478-21.22 48.778c.605 3.82 1.513 6.492 2.723 8.016s3.903 1.955 8.077 1.294l2.777-.44.346 2.186-42.946 6.802-.347-2.186 2.659-.42c3.741-.593 6.085-1.721 7.033-3.385.948-1.664 1.044-4.879.29-9.644l-8.347-52.694c-.76-4.804-1.726-7.84-2.896-9.109-1.17-1.268-3.861-1.568-8.075-.9l-2.658.42-.347-2.185 42.947-6.803.346 2.186-2.776.44c-3.624.574-5.922 1.735-6.897 3.484-.974 1.75-1.103 4.888-.386 9.417l6.952 43.892 21.22-48.778zM606.472 41.824c-8.24-1.011-14.074-2.84-17.502-5.484-3.43-2.645-4.946-5.575-4.551-8.79.202-1.648.953-2.943 2.251-3.885 1.3-.942 2.793-1.31 4.48-1.102 3.256.4 5.49 2.816 6.7 7.248.683 2.41 1.701 4.167 3.055 5.271 1.353 1.105 3.296 1.812 5.828 2.123 2.974.365 5.222.172 6.742-.58 1.52-.751 3.036-2.299 4.548-4.643 2.378-3.747 5.134-5.428 8.269-5.043 1.688.207 3.058.926 4.11 2.157 1.053 1.23 1.463 2.79 1.232 4.68-.385 3.135-2.615 5.513-6.69 7.134-4.075 1.621-10.232 1.926-18.472.914zm11.962 23.194c.503-4.426.337-7.475-.498-9.149-.835-1.673-3.302-2.761-7.402-3.265l-2.713-.333.274-2.23 43.83 5.381-.274 2.23-2.834-.347c-3.778-.464-6.368-.048-7.772 1.249-1.404 1.296-2.406 4.396-3.008 9.3l-6.604 53.778c-.616 5.024-.39 8.326.681 9.905 1.071 1.58 3.475 2.6 7.213 3.059l2.834.347-.274 2.231-43.83-5.381.274-2.231 2.713.333c3.818.469 6.413.022 7.783-1.34 1.371-1.36 2.355-4.473 2.952-9.337l5.448-44.373-34.37 41.679c-.478 3.899-.34 6.761.415 8.588.755 1.827 3.262 3.001 7.523 3.524l2.833.348-.274 2.231-43.83-5.382.274-2.23 2.713.333c3.818.469 6.423.024 7.814-1.336 1.39-1.359 2.385-4.47 2.982-9.333l6.603-53.778c.602-4.904.51-8.138-.277-9.704-.787-1.565-3.331-2.612-7.632-3.14l-2.713-.333.274-2.23 43.83 5.381-.274 2.23-2.833-.347c-3.698-.454-6.267.036-7.708 1.47-1.441 1.435-2.445 4.464-3.013 9.086l-5.5 44.795 34.37-41.679zM950.659 304.703c3.778-2.228 6.078-4.166 6.899-5.814.821-1.648.215-4.233-1.819-7.755l-1.345-2.331 1.916-1.107 21.74 37.657-1.916 1.106-1.405-2.434c-1.874-3.246-3.737-5.037-5.588-5.372-1.851-.336-4.883.713-9.096 3.145l-46.203 26.675c-4.316 2.492-6.778 4.627-7.386 6.405-.608 1.779.015 4.274 1.87 7.485l1.405 2.434-1.917 1.107-21.74-37.656 1.916-1.107 1.346 2.33c1.894 3.281 3.782 5.057 5.665 5.328 1.883.271 4.914-.8 9.092-3.212l38.123-22.01-53.142-2.33c-3.35 1.934-5.52 3.739-6.508 5.415-.99 1.676-.427 4.344 1.686 8.004l1.405 2.435-1.916 1.106L862 286.551l1.916-1.106 1.346 2.33c1.894 3.28 3.788 5.065 5.68 5.354 1.894.288 4.93-.774 9.108-3.186l46.202-26.676c4.213-2.432 6.702-4.421 7.467-5.968.764-1.546.08-4.167-2.053-7.862l-1.346-2.33 1.917-1.107 21.74 37.656-1.916 1.107-1.406-2.435c-1.834-3.177-3.742-4.906-5.724-5.19-1.982-.282-4.958.722-8.93 3.015l-38.485 22.22 53.143 2.33zM1017.031 418.131c-2.148-8.019-2.639-14.113-1.471-18.282 1.167-4.17 3.316-6.674 6.445-7.513 1.603-.43 3.085-.219 4.445.633 1.36.851 2.26 2.098 2.7 3.741.85 3.168-.554 6.144-4.21 8.926-1.978 1.536-3.226 3.139-3.743 4.807-.517 1.67-.446 3.736.215 6.2.775 2.894 1.796 4.906 3.063 6.034 1.266 1.128 3.27 1.953 6.009 2.477 4.365.8 6.956 2.727 7.774 5.778.44 1.642.286 3.182-.46 4.62-.747 1.436-2.04 2.4-3.879 2.893-3.05.818-6.09-.359-9.12-3.53-3.03-3.17-5.62-8.765-7.768-16.784zm-17.024 19.78c4.292-1.192 7.058-2.489 8.296-3.89 1.239-1.4 1.324-4.096.255-8.086l-.708-2.64 2.171-.582 11.43 42.655-2.171.582-.74-2.758c-.984-3.677-2.34-5.923-4.069-6.739-1.728-.815-4.977-.584-9.75.695l-52.335 14.023c-4.89 1.31-7.866 2.758-8.93 4.342-1.063 1.585-1.108 4.196-.133 7.834l.739 2.757-2.17.582-11.43-42.655 2.17-.581.708 2.64c.996 3.716 2.382 5.954 4.158 6.715 1.776.76 5.03.507 9.763-.761l43.183-11.57-51.52-16.255c-3.793 1.016-6.396 2.217-7.807 3.601-1.41 1.384-1.56 4.15-.45 8.296l.74 2.757-2.171.582-11.43-42.655 2.171-.581.708 2.64c.995 3.716 2.384 5.964 4.165 6.744 1.781.78 5.038.537 9.771-.731l52.336-14.024c4.772-1.278 7.736-2.576 8.893-3.892 1.156-1.316 1.174-4.066.052-8.252l-.707-2.64 2.17-.582 11.43 42.655-2.17.582-.74-2.758c-.964-3.598-2.381-5.797-4.251-6.596-1.87-.798-5.054-.595-9.552.61l-43.594 11.681 51.52 16.255zM592.236 951.592c-8.22 1.155-14.33.9-18.326-.767-3.996-1.667-6.22-4.105-6.67-7.313-.232-1.644.158-3.09 1.169-4.335 1.01-1.246 2.358-1.988 4.042-2.225 3.248-.456 6.03 1.3 8.347 5.268 1.283 2.15 2.722 3.584 4.315 4.3 1.593.717 3.653.898 6.18.543 2.967-.417 5.088-1.185 6.361-2.305 1.274-1.12 2.338-3.007 3.192-5.662 1.326-4.235 3.554-6.572 6.682-7.012 1.684-.237 3.194.103 4.529 1.02 1.335.916 2.135 2.317 2.4 4.201.44 3.128-1.1 6.003-4.616 8.623-3.516 2.62-9.385 4.509-17.605 5.664zm17.557 19.308c-.66-4.406-1.61-7.308-2.85-8.709-1.239-1.4-3.904-1.812-7.994-1.237l-2.707.38-.312-2.226 43.73-6.145.312 2.225-2.827.397c-3.77.53-6.164 1.603-7.185 3.218-1.02 1.616-1.186 4.87-.498 9.762l7.54 53.654c.705 5.013 1.778 8.144 3.222 9.393 1.443 1.248 4.03 1.61 7.758 1.087l2.828-.398.312 2.226-43.73 6.146-.312-2.226 2.707-.38c3.81-.536 6.2-1.638 7.171-3.308.972-1.67 1.117-4.931.435-9.784l-6.222-44.27-22.412 49.153c.547 3.89 1.421 6.62 2.623 8.188 1.202 1.57 3.928 2.055 8.18 1.458l2.826-.397.313 2.225-43.73 6.146-.312-2.226 2.706-.38c3.81-.535 6.21-1.64 7.202-3.312.992-1.673 1.147-4.936.465-9.788l-7.54-53.654c-.688-4.893-1.615-7.993-2.78-9.301-1.165-1.309-3.893-1.661-8.184-1.058l-2.707.38-.313-2.225 43.73-6.146.313 2.225-2.827.398c-3.69.518-6.045 1.657-7.065 3.415-1.02 1.76-1.207 4.944-.559 9.556l6.281 44.692 22.412-49.154zM832.21 144.67l30.991 28.898-1.514 1.624-1.01-.941c-2.926-2.73-5.378-4.017-7.354-3.863-1.977.154-4.356 1.724-7.14 4.709l-16.578 17.777c4.097 3.82 6.89 6.165 8.378 7.033 1.488.868 3.38 1.128 5.675.779 2.295-.35 5.7-1.976 10.213-4.88 5.289-3.383 9.505-5.69 12.647-6.917 3.142-1.228 6.264-1.613 9.366-1.156 3.101.458 6.072 2.01 8.91 4.658 2.81 2.62 4.32 5.518 4.53 8.696.21 3.177-.777 5.937-2.96 8.278-1.692 1.814-3.6 2.716-5.724 2.705-2.123-.01-4.034-.807-5.731-2.39-3.336-3.11-3.335-6.72.004-10.829 1.684-2.04 1.911-3.634.682-4.78-1.317-1.228-3.14-1.532-5.467-.913-2.328.619-5.835 2.355-10.52 5.208-4.574 2.793-8.12 4.778-10.642 5.956-2.52 1.178-5.084 1.756-7.69 1.734 1.437 2.215 2.305 4.173 2.605 5.875.3 1.703.294 3.543-.02 5.522-.313 1.978-1.429 6.695-3.348 14.152l-4.012 16.447c-.565 2.482-.558 4.719.022 6.708.579 1.99 1.79 3.845 3.634 5.564l-1.515 1.624-19.928-18.584 9.038-34.245c.997-3.886 1.418-6.406 1.265-7.561-.154-1.156-1.2-2.719-3.137-4.69l-18.788 20.149c-2.674 2.868-3.787 5.25-3.339 7.144.448 1.896 2.268 4.33 5.457 7.305l-1.514 1.624-30.99-28.899 1.514-1.624c3.479 3.135 6.195 4.724 8.15 4.77 1.955.044 4.393-1.499 7.313-4.63l37.126-39.813c3.247-3.483 5.006-6.22 5.276-8.21.27-1.992-1.101-4.393-4.116-7.204l-1.273-1.187 1.515-1.624zM130.384 596.15l6.629 41.852-2.193.348-.216-1.364c-.626-3.952-1.765-6.476-3.417-7.571-1.653-1.096-4.494-1.324-8.525-.686l-24.009 3.803c.876 5.533 1.634 9.1 2.272 10.7.638 1.6 1.97 2.97 3.993 4.107 2.023 1.138 5.707 1.952 11.051 2.443 6.252.59 10.993 1.368 14.225 2.335 3.232.967 5.93 2.585 8.092 4.856 2.162 2.27 3.547 5.322 4.154 9.156.601 3.794.006 7.007-1.785 9.64-1.79 2.634-4.267 4.201-7.428 4.702-2.45.388-4.51-.076-6.176-1.392-1.667-1.316-2.682-3.12-3.045-5.412-.713-4.506 1.51-7.35 6.67-8.531 2.584-.571 3.744-1.687 3.48-3.347-.28-1.778-1.53-3.14-3.745-4.085-2.216-.946-6.048-1.737-11.497-2.373-5.323-.615-9.34-1.234-12.052-1.858-2.712-.624-5.088-1.747-7.127-3.368-.232 2.63-.754 4.707-1.565 6.233-.812 1.526-1.95 2.973-3.415 4.34-1.465 1.365-5.249 4.395-11.352 9.09l-13.287 10.49c-1.973 1.608-3.344 3.375-4.113 5.3-.769 1.924-.956 4.131-.562 6.621l-2.193.348-4.263-26.914 28.207-21.421c3.177-2.448 5.06-4.175 5.651-5.18.59-1.005.729-2.88.416-5.626l-27.21 4.31c-3.873.613-6.216 1.805-7.03 3.575-.814 1.77-.88 4.808-.197 9.115l-2.193.348L50 608.882l2.193-.348c.812 4.612 1.974 7.537 3.487 8.776 1.513 1.24 4.383 1.524 8.612.854l53.768-8.516c4.702-.745 7.773-1.819 9.212-3.221 1.439-1.403 1.836-4.14 1.191-8.21l-.272-1.72 2.193-.347zM675.466 942.897l37.06-20.543 1.077 1.942-1.207.67c-3.5 1.94-5.482 3.873-5.946 5.8-.465 1.927.293 4.676 2.271 8.245l11.785 21.26c4.9-2.715 7.992-4.647 9.278-5.794 1.285-1.147 2.116-2.866 2.494-5.157.377-2.29-.118-6.03-1.485-11.22-1.584-6.076-2.474-10.798-2.671-14.166-.197-3.368.402-6.456 1.796-9.264 1.394-2.809 3.788-5.154 7.183-7.036 3.36-1.862 6.583-2.402 9.67-1.62 3.087.782 5.406 2.573 6.958 5.373 1.203 2.17 1.47 4.263.804 6.28-.666 2.016-2.014 3.586-4.044 4.712-3.99 2.211-7.422 1.094-10.298-3.35-1.42-2.233-2.865-2.942-4.335-2.127-1.575.873-2.428 2.512-2.558 4.918-.13 2.406.437 6.277 1.703 11.614 1.242 5.213 2.034 9.2 2.375 11.962.342 2.761.1 5.378-.727 7.849 2.55-.682 4.681-.902 6.393-.662 1.712.241 3.46.816 5.245 1.725 1.785.91 5.926 3.429 12.424 7.558l14.403 8.898c2.186 1.304 4.315 1.988 6.387 2.053 2.071.064 4.21-.515 6.414-1.737l1.077 1.942-23.833 13.21-29.776-19.178c-3.387-2.149-5.654-3.328-6.8-3.54-1.147-.21-2.956.3-5.43 1.534l13.357 24.095c1.901 3.43 3.822 5.224 5.763 5.384 1.941.159 4.82-.819 8.634-2.933l1.076 1.942-37.06 20.543-1.077-1.942c4.056-2.34 6.407-4.432 7.054-6.278.647-1.845-.068-4.64-2.143-8.385l-26.392-47.612c-2.309-4.164-4.368-6.683-6.178-7.555-1.81-.872-4.518-.31-8.122 1.689l-1.523.843-1.076-1.942zM168.11 839.309l-16.961-24.224-8.694 1.791c-2.887.614-5.054 1.429-6.504 2.444-1.922 1.346-2.795 3.113-2.62 5.301.099 1.288 1.264 3.813 3.497 7.576l-1.872 1.31-15.97-22.808 1.871-1.31c2.094 2.201 4.53 3.51 7.31 3.926 2.778.416 7.594-.042 14.449-1.375l71.893-13.787.673.96-38.92 64.107c-3.675 6.09-5.672 10.378-5.992 12.863-.242 1.878.284 3.921 1.579 6.13l-1.871 1.31-23.23-33.175 1.871-1.31.956 1.365c1.865 2.663 3.546 4.275 5.044 4.834 1.058.364 2.094.192 3.105-.516a7.566 7.566 0 0 0 1.659-1.614c.256-.28 1.166-1.67 2.73-4.173l5.997-9.625zm2.539-4.34l16.464-26.753-30.983 6.018 14.519 20.735zM333.026 956.217l-11.214 22.993c-1.852 3.796-2.799 6.27-2.842 7.424-.043 1.154.373 2.385 1.249 3.693.875 1.308 2.353 2.47 4.433 3.484l2.464 1.201-.988 2.026-38.814-18.931.987-2.026 2.464 1.202c2.153 1.05 4.074 1.512 5.762 1.387 1.198-.048 2.355-.568 3.471-1.56.829-.68 2.15-2.881 3.967-6.604l23.817-48.833c1.851-3.796 2.808-6.266 2.869-7.41.061-1.146-.346-2.372-1.221-3.68-.876-1.308-2.354-2.47-4.434-3.484l-2.464-1.201.988-2.026 38.815 18.931-.988 2.026-2.464-1.202c-2.153-1.05-4.073-1.512-5.761-1.387-1.198.048-2.374.56-3.526 1.533-.83.68-2.151 2.882-3.967 6.604L335.376 951.4l26.223 12.79 10.253-21.023c1.851-3.795 2.808-6.266 2.87-7.41.06-1.145-.356-2.376-1.25-3.693-.893-1.317-2.38-2.483-4.46-3.497l-2.41-1.175.988-2.026 38.76 18.905-.988 2.025-2.409-1.174c-2.19-1.069-4.11-1.53-5.761-1.387-1.198.048-2.374.559-3.526 1.533-.829.68-2.151 2.881-3.967 6.604l-23.817 48.833c-1.852 3.795-2.808 6.266-2.87 7.41-.06 1.145.356 2.376 1.25 3.693.893 1.317 2.38 2.483 4.46 3.497l2.41 1.175-.989 2.026-38.76-18.905.989-2.025 2.408 1.175c2.19 1.068 4.11 1.53 5.762 1.386 1.198-.048 2.373-.559 3.526-1.533.829-.68 2.151-2.881 3.967-6.604l11.214-22.993-26.223-12.79zM443.263 990.526l10.78 1.515c11.644 1.636 19.808 4.872 24.492 9.706 4.684 4.835 6.547 10.665 5.587 17.49-.654 4.658-2.553 8.485-5.697 11.482-3.144 2.998-6.85 5.036-11.116 6.115-4.267 1.08-10.274 1.074-18.023-.015l-43.784-6.153.313-2.229c5.07.631 8.407.414 10.01-.65 1.603-1.065 2.704-3.725 3.302-7.98l7.626-54.264c.813-5.782.717-9.398-.287-10.85-1.004-1.45-4.05-2.575-9.137-3.372l.313-2.228 42.037 5.908-.313 2.228c-3.86-.501-6.47-.5-7.831.005-1.36.505-2.383 1.221-3.066 2.149-.683.927-1.304 3.379-1.862 7.354l-3.344 23.789zm-.745 5.3l-3.461 24.632c-.548 3.894-.39 6.71.47 8.449.861 1.738 2.757 2.813 5.688 3.225 4.698.66 8.464-.428 11.299-3.264 2.835-2.836 4.585-6.623 5.25-11.36.644-4.578.1-8.574-1.63-11.99-1.731-3.417-3.875-5.714-6.432-6.893-2.558-1.178-6.285-2.111-11.184-2.8zm79.893 48.998l-.313 2.228-42.64-5.992.314-2.229 2.65.373c2.57.36 4.556.21 5.96-.453 1.402-.662 2.378-1.559 2.926-2.69.548-1.13 1.087-3.583 1.617-7.357l7.55-53.721c.536-3.814.721-6.296.555-7.445-.166-1.15-.878-2.273-2.136-3.371-1.258-1.098-3.132-1.822-5.621-2.172l-2.65-.373.313-2.228 42.64 5.993-.314 2.228-2.65-.373c-2.57-.36-4.556-.21-5.959.453-1.403.662-2.379 1.559-2.927 2.69-.548 1.13-1.087 3.583-1.617 7.357l-7.55 53.721c-.536 3.815-.721 6.296-.555 7.446.166 1.149.878 2.273 2.136 3.37 1.258 1.099 3.132 1.823 5.621 2.172l2.65.373zM860.458 811.233l26.62 20.799 1.018-1.303c3.24-4.147 4.287-8.17 3.14-12.07-1.148-3.9-4.06-8.09-8.738-12.574l1.431-1.832 34.241 26.751-1.432 1.833c-4.03-2.528-7.72-4.103-11.065-4.724-3.347-.62-6.07-.431-8.171.568-2.101.999-4.37 3.058-6.806 6.176l18.422 14.394c3.601 2.813 5.923 4.38 6.965 4.703 1.042.323 2.147.267 3.315-.167 1.167-.434 2.48-1.583 3.936-3.448l3.052-3.906c4.773-6.109 7.183-12.11 7.23-18 .046-5.893-2.196-11.903-6.727-18.032l1.394-1.784 18.487 19.18-44.159 56.522-1.784-1.394 1.695-2.17c1.482-1.897 2.338-3.688 2.567-5.373.203-1.188-.066-2.433-.808-3.738-.495-.956-2.382-2.715-5.662-5.278l-43.018-33.609c-2.958-2.31-4.837-3.65-5.638-4.016-1.376-.558-2.709-.641-3.998-.25-1.855.518-3.611 1.838-5.269 3.96l-1.695 2.17-1.785-1.394 42.765-54.737 19.34 15.11-1.433 1.832c-5.454-2.76-9.87-4.1-13.246-4.02-3.377.08-6.753 1.287-10.129 3.62-1.985 1.348-4.912 4.498-8.78 9.45l-5.275 6.751zM948.331 590.007l21.442 4.168-.409 2.103c-5.189.285-9.012.977-11.469 2.076-2.457 1.098-4.585 2.847-6.385 5.246-.99 1.344-1.843 3.866-2.562 7.566l-1.147 5.901 61.112 11.879c4.05.787 6.626 1.056 7.726.804 1.1-.25 2.156-.955 3.169-2.112s1.74-2.865 2.178-5.124l.511-2.63 2.162.42-8.063 41.482-2.162-.42.511-2.63c.447-2.297.398-4.227-.148-5.788-.348-1.119-1.128-2.099-2.338-2.94-.852-.61-3.264-1.302-7.237-2.074l-61.112-11.879-1.113 5.726c-1.037 5.336-.661 9.43 1.128 12.285 2.497 4.002 6.579 7.018 12.247 9.05l-.431 2.22-21.442-4.168 13.832-71.161z"/><path d="M537.5 1075c296.853 0 537.5-240.647 537.5-537.5S834.353 0 537.5 0 0 240.647 0 537.5 240.647 1075 537.5 1075zm.5-10c291.606 0 528-236.394 528-528S829.606 9 538 9 10 245.394 10 537s236.394 528 528 528z"/></g></symbol><symbol id="icon-facebook" viewBox="0 0 15 32"><path d="M14.66 10.216H9.667V6.94c0-1.23.815-1.516 1.39-1.516h3.523V.019L9.727 0C4.341 0 3.115 4.032 3.115 6.612v3.604H0v5.57h3.115V31.55h6.552V15.786h4.421l.572-5.57z"/></symbol><symbol id="pic-te-st" viewBox="0 0 99 40"><g fill="#000" fill-rule="evenodd"><path d="M10.895 20.245a2 2 0 0 1-1.4-2.394l-1.394-.805c-.359.343-.845.554-1.381.554a1.994 1.994 0 0 1-1.42-.592l-1.369.79A2.003 2.003 0 0 1 2 20.32a2 2 0 1 1 1.347-3.479l1.418-.818a2 2 0 0 1 3.33-1.875l2.785-1.607V9.28a1.998 1.998 0 0 1-.828-.481l-1.392.87a2 2 0 1 1-3.885.027l-1.451-.838a1.996 1.996 0 0 1-.764.422v1.678a2 2 0 1 1-1.12 0V9.281A2 2 0 1 1 3.428 5.96l1.333-.833a2 2 0 1 1 .528.99l-1.331.833a2.009 2.009 0 0 1-.035.962l1.406.811c.36-.348.85-.563 1.391-.563.53 0 1.013.207 1.371.544l1.404-.877a2.005 2.005 0 0 1 1.465-2.409V3.942A2 2 0 1 1 12 3.921v1.518a2 2 0 0 1 0 3.842v3.306l2.653 1.532c.256-.26.582-.451.947-.541v-1.476a2 2 0 1 1 1.85-3.399l1.389-.868a2.01 2.01 0 0 1 .022-.888l-1.434-.828a2 2 0 1 1 .584-.956l1.42.82a2 2 0 1 1 1.93 3.378l-.001 1.518a2 2 0 1 1-1.04-.021V9.382a1.998 1.998 0 0 1-.959-.553l-1.342.84a2.004 2.004 0 0 1-1.379 2.412v1.518a2 2 0 0 1 1.366 2.462l1.41.815a2 2 0 1 1-.56.97l-1.444-.834a2 2 0 0 1-3.29-1.906l-2.722-1.572-2.74 1.581a2.004 2.004 0 0 1 .003.962l1.39.802a2 2 0 1 1 1.896 3.375v2.62l2.279-1.317a2.003 2.003 0 0 1 1.932-2.517 2 2 0 1 1-1.4 3.428l-2.811 1.624v4.783h10.34a.352.352 0 0 1 0 .703H11.985c.182 1.334 1.447 1.512 3.42 1.674 1.924.157 4.103.336 4.69 2.502a.264.264 0 0 1-.255.334.263.263 0 0 1-.254-.196c-.442-1.632-2.03-1.917-3.685-2.068.045.05.087.101.126.155.316.427.81.626 1.334.836.656.264 1.334.537 1.641 1.286a.264.264 0 1 1-.487.2c-.223-.543-.745-.753-1.35-.996a7.767 7.767 0 0 1-.682-.301c.065.246.117.496.166.74.088.44.171.858.331 1.208a.264.264 0 0 1-.48.22c-.185-.406-.278-.873-.368-1.324-.216-1.08-.403-2.012-1.693-2.154l-.01-.002c-.915-.103-1.768-.285-2.327-.776.262.613.652 1.061 1.035 1.499.158.181.318.364.467.558l.009.007c.157.204.34.377.535.562.26.245.532.504.754.852.005.007.01.012.014.02.293.466 1.156 1.418 1.703 1.727a.264.264 0 0 1-.258.46c-.308-.174-.677-.497-1.015-.844.032.325.032.694-.014 1.127a.263.263 0 0 1-.262.236l-.028-.001a.264.264 0 0 1-.234-.29c.128-1.21-.109-1.851-.471-2.324.16.822.056 1.91-.553 3.493a.264.264 0 1 1-.492-.19c1.18-3.065.378-3.983-.551-5.045-.368-.422-.761-.873-1.05-1.477.083 1.033.216 1.881.332 2.616.35 2.212.56 3.548-1.174 5.988a.262.262 0 0 1-.367.062.264.264 0 0 1-.062-.368c1.274-1.793 1.422-2.909 1.26-4.363-.107.186-.233.341-.357.494-.329.407-.64.793-.575 1.874a.264.264 0 0 1-.247.28h-.016a.264.264 0 0 1-.263-.248c-.078-1.286.331-1.791.692-2.238.36-.445.67-.829.483-2.083a28.944 28.944 0 0 1-.222-1.844c-.283.577-.751 1.206-1.528 1.862-.928.782-.676 1.636-.385 2.623.19.647.388 1.316.265 2.011a.263.263 0 1 1-.519-.091c.1-.574-.078-1.182-.251-1.77a9.547 9.547 0 0 1-.216-.822l-.067.31c-.195.912-.396 1.856-1.619 2.658a.264.264 0 0 1-.288-.441c1.04-.683 1.203-1.444 1.391-2.327.082-.383.17-.79.343-1.202l-.223.132c-.772.458-1.198.709-1.369 1.68a.263.263 0 1 1-.519-.09c.213-1.212.803-1.56 1.62-2.044.43-.255.92-.543 1.496-1.03.911-.769 1.354-1.481 1.57-2.108-.07.086-.144.169-.226.246-.784.735-2.06 1.051-3.796.945-.77.142-.857.562-.975 1.488-.107.842-.24 1.89-1.16 2.98a.261.261 0 0 1-.371.031.264.264 0 0 1-.032-.371c.82-.972.942-1.934 1.04-2.706.069-.537.136-1.055.44-1.43a5.778 5.778 0 0 0-.783.103c-.674.28-.703.634-.754 1.273-.035.428-.078.96-.364 1.55a.263.263 0 0 1-.352.121.264.264 0 0 1-.122-.353c.243-.5.28-.956.312-1.36.023-.282.046-.558.135-.813-1.014.587-1.173 1.451-1.183 1.509a.264.264 0 0 1-.52-.087c.13-.775.845-1.924 2.656-2.331l.007-.004a.26.26 0 0 1 .095-.02 7.292 7.292 0 0 1 1.929-.109c1.58.104 2.768-.173 3.437-.8.372-.35.529-.748.586-1.09H.555a.351.351 0 0 1 0-.704h10.34v-4.783l-2.82-1.629c-.22.216-.492.38-.794.472a2 2 0 1 1 1.144-2.8 1.936 1.936 0 0 1 .177 1.413l2.292 1.326v-2.63zm6.213 1.392a1.12 1.12 0 0 0-1.938-1.12l.03.018a1.062 1.062 0 0 0 .002 1.07 1.07 1.07 0 0 0 1.85 0l.056.032zm-10.122.469a1.12 1.12 0 1 0-1.281-.45l.086-.05a1.068 1.068 0 0 0 1.195.5zm5.405-3.194a1.12 1.12 0 1 0-1.912-.016l.016-.01a1.07 1.07 0 0 0 1.852 0l.044.026zM2 8.48a1.12 1.12 0 1 0 0-2.24 1.12 1.12 0 0 0 0 2.24zM2 14a1.12 1.12 0 1 0 0-2.24A1.12 1.12 0 0 0 2 14zm4.72-8.16a1.12 1.12 0 1 0 0-2.24 1.12 1.12 0 0 0 0 2.24zm4.72-2.72a1.12 1.12 0 1 0 0-2.24 1.12 1.12 0 0 0 0 2.24zm0 5.36a1.12 1.12 0 1 0 0-2.24 1.12 1.12 0 0 0 0 2.24zm-4.72 2.8a1.12 1.12 0 1 0 0-2.24 1.12 1.12 0 0 0 0 2.24zm9.36-5.52a1.12 1.12 0 1 0 0-2.24 1.12 1.12 0 0 0 0 2.24zm4.72 2.8a1.12 1.12 0 1 0 0-2.24 1.12 1.12 0 0 0 0 2.24zm0 5.36a1.12 1.12 0 1 0 0-2.24 1.12 1.12 0 0 0 0 2.24zm-4.72-2.64a1.12 1.12 0 1 0 0-2.24 1.12 1.12 0 0 0 0 2.24zm0 5.36a1.12 1.12 0 1 0 0-2.24 1.12 1.12 0 0 0 0 2.24zm4.72 2.8a1.12 1.12 0 1 0 0-2.24 1.12 1.12 0 0 0 0 2.24zM6.72 16.72a1.12 1.12 0 1 0 0-2.24 1.12 1.12 0 0 0 0 2.24zM2 19.44a1.12 1.12 0 1 0 0-2.24 1.12 1.12 0 0 0 0 2.24zM36.18 4.56v-.68H31.3v.68h2.06V11h.76V4.56h2.06zM41.93 11v-.68h-3.66V7.75h3.12v-.68h-3.12V4.56h3.66v-.68h-4.42V11h4.42zm6.47 0V3.88h-4.89V11h.76V4.56h3.37V11h.76zm6.78 0V3.88h-3.92v2.89c0 2.96-.63 3.55-1.51 3.55h-.19V11h.36C51.28 11 52 10 52 7V4.56h2.42V11h.76zm7.16 0V3.88h-.72L58 9.68v-5.8h-.76V11h.72l3.62-5.81V11h.76zm7.8 1.72v-2.4h-.85V3.88h-.76v6.44h-3.37V3.88h-.76V11h4.99v1.72h.75zm6.4-1.72l-2.61-7.12h-.64L70.67 11h.81l.57-1.61h3.11l.57 1.61h.81zm-1.6-2.27h-2.66l1.34-3.76 1.32 3.76zM36.72 20.04h-.76c-.19.87-.82 1.44-1.71 1.44-.47 0-.92-.18-1.23-.5-.45-.46-.5-.95-.5-2.44s.05-1.98.5-2.44c.31-.32.76-.5 1.23-.5.89 0 1.5.57 1.69 1.44h.78c-.24-1.34-1.19-2.12-2.47-2.12-.7 0-1.34.26-1.82.74-.67.67-.67 1.37-.67 2.88 0 1.51 0 2.21.67 2.88.48.48 1.12.74 1.82.74 1.27 0 2.24-.78 2.47-2.12zm6.19-1.99c0-.87-.05-1.77-.67-2.39-.48-.48-1.12-.74-1.82-.74s-1.34.26-1.82.74c-.61.61-.67 1.48-.67 2.33v.55c0 1.42.02 2.23.67 2.88.48.48 1.11.74 1.82.74s1.34-.26 1.82-.74c.65-.65.67-1.46.67-2.88v-.49zm-.76.84c0 .82-.01 1.59-.5 2.08-.33.33-.76.51-1.23.51s-.9-.18-1.23-.51c-.46-.46-.5-1.16-.5-1.93v-.71c0-.98 0-1.72.5-2.22.33-.33.77-.51 1.23-.51.46 0 .9.18 1.23.51.47.47.5 1.21.5 2.05v.73zm8.29 4.93v-2.4h-.85v-6.44h-.76v6.44h-3.37v-6.44h-.76v7.12h4.99v1.72h.75zm6.54-1.72v-7.12h-.72l-3.62 5.8v-5.8h-.76v7.12h.72l3.62-5.81v5.81h.76zm7.02 0l-2.61-7.12h-.64l-2.62 7.12h.81l.57-1.61h3.11l.57 1.61H64zm-1.6-2.27h-2.66l1.34-3.76 1.32 3.76zm7.46 2.27v-7.12h-3.92v2.89c0 2.96-.63 3.55-1.51 3.55h-.19v.68h.36c1.36 0 2.08-1 2.08-4v-2.44h2.42v6.44h.76zm6.93-2.09c0-1.26-.87-2.1-2.2-2.1h-1.91v-2.93h-.76v7.12h2.67c1.32 0 2.2-.84 2.2-2.09zm-.77 0c0 .89-.55 1.41-1.5 1.41h-1.84v-2.83h1.84c.95 0 1.5.52 1.5 1.42zm7.1 2.09v-7.12h-.76v3.19h-3.38v-3.19h-.76v7.12h.76v-3.25h3.38v3.25h.76zm8.64 0v-7.12H91v7.12h.76zm-1.71-2.09c0-1.26-.87-2.1-2.2-2.1h-1.91v-2.93h-.76v7.12h2.67c1.32 0 2.2-.84 2.2-2.09zm-.77 0c0 .89-.55 1.41-1.5 1.41h-1.84v-2.83h1.84c.95 0 1.5.52 1.5 1.42zm8.87 2.09l-2.2-3.65L98 14.98h-.88l-1.58 2.81-1.58-2.81h-.88l2.04 3.47-2.18 3.65h.86l1.74-2.99 1.73 2.99h.88zM36.18 27.56v-.68H31.3v.68h2.06V34h.76v-6.44h2.06zM41.93 34v-.68h-3.66v-2.57h3.12v-.68h-3.12v-2.51h3.66v-.68h-4.42V34h4.42zm5.91 0l-2.2-3.65 2.05-3.47h-.88l-1.58 2.81-1.58-2.81h-.88l2.04 3.47L42.63 34h.86l1.74-2.99L46.96 34h.88zm6.08 0v-7.12h-.76v3.19h-3.38v-3.19h-.76V34h.76v-3.25h3.38V34h.76zm6.77-4.05c0-.87-.05-1.77-.67-2.39-.48-.48-1.12-.74-1.82-.74s-1.34.26-1.82.74c-.61.61-.67 1.48-.67 2.33v.55c0 1.42.02 2.23.67 2.88.48.48 1.11.74 1.82.74s1.34-.26 1.82-.74c.65-.65.67-1.46.67-2.88v-.49zm-.76.84c0 .82-.01 1.59-.5 2.08-.33.33-.76.51-1.23.51s-.9-.18-1.23-.51c-.46-.46-.5-1.16-.5-1.93v-.71c0-.98 0-1.72.5-2.22.33-.33.77-.51 1.23-.51.46 0 .9.18 1.23.51.47.47.5 1.21.5 2.05v.73zM66.99 34v-7.12h-3.92v2.89c0 2.96-.63 3.55-1.51 3.55h-.19V34h.36c1.36 0 2.08-1 2.08-4v-2.44h2.42V34h.76zm6.77-4.05c0-.87-.05-1.77-.67-2.39-.48-.48-1.12-.74-1.82-.74s-1.34.26-1.82.74c-.61.61-.67 1.48-.67 2.33v.55c0 1.42.02 2.23.67 2.88.48.48 1.11.74 1.82.74s1.34-.26 1.82-.74c.65-.65.67-1.46.67-2.88v-.49zm-.76.84c0 .82-.01 1.59-.5 2.08-.33.33-.76.51-1.23.51s-.9-.18-1.23-.51c-.46-.46-.5-1.16-.5-1.93v-.71c0-.98 0-1.72.5-2.22.33-.33.77-.51 1.23-.51.46 0 .9.18 1.23.51.47.47.5 1.21.5 2.05v.73zm6.9-3.23v-.68h-4.28V34h.76v-6.44h3.52zM86.34 34v-7.12h-.72L82 32.68v-5.8h-.76V34h.72l3.62-5.81V34h.76zm7.16 0v-7.12h-.72l-3.62 5.8v-5.8h-.76V34h.72l3.62-5.81V34h.76zm-1.09-8.83h-.64c-.04.49-.33.74-.82.74-.49 0-.78-.25-.82-.74h-.64c.06.89.63 1.26 1.46 1.26s1.4-.37 1.46-1.26z"/></g></symbol><symbol id="icon-instagram" viewBox="0 0 20 20"><path d="M5.8 0h8.4C17.4 0 20 2.6 20 5.8v8.4a5.8 5.8 0 0 1-5.8 5.8H5.8C2.6 20 0 17.4 0 14.2V5.8A5.8 5.8 0 0 1 5.8 0zm-.2 2A3.6 3.6 0 0 0 2 5.6v8.8C2 16.39 3.61 18 5.6 18h8.8a3.6 3.6 0 0 0 3.6-3.6V5.6C18 3.61 16.39 2 14.4 2H5.6zm9.65 1.5a1.25 1.25 0 1 1 0 2.5 1.25 1.25 0 0 1 0-2.5zM10 5a5 5 0 1 1 0 10 5 5 0 0 1 0-10zm0 2a3 3 0 1 0 0 6 3 3 0 0 0 0-6z"/></symbol><symbol id="icon-logo" viewBox="0 0 72 72"><path d="M48 24V0H24v24H0v24h24v24h24V48h24V24H48z"/></symbol><symbol id="icon-mail" viewBox="0 0 20 20"><path d="M2 8l8 5 8-5-8-5-8 5zm18 0v10a2 2 0 0 1-2 2H2a2 2 0 0 1-2-2V8c0-.73.39-1.36.97-1.71L10 .64l9.03 5.65c.58.35.97.98.97 1.71z"/></symbol><symbol id="icon-marker" viewBox="0 0 14 20"><path d="M7 9.5a2.5 2.5 0 1 1 0-5 2.5 2.5 0 0 1 0 5zM7 0a7 7 0 0 0-7 7c0 5.25 7 13 7 13s7-7.75 7-13a7 7 0 0 0-7-7z"/></symbol><symbol id="icon-menu" viewBox="0 0 32 22"><path d="M0 0h32v3.556H0V0zm0 8.889h32v3.555H0V8.89zm0 8.889h32v3.555H0v-3.555z"/></symbol><symbol id="icon-next" viewBox="0 0 15 24"><path d="M3 0L.17 2.83 9.34 12 .17 21.17 3 24l12-12L3 0z"/></symbol><symbol id="icon-ok" viewBox="0 0 19 32"><path d="M9.25 4.83a3.416 3.416 0 0 1 3.413 3.414c0 1.88-1.53 3.41-3.413 3.41a3.417 3.417 0 0 1-3.413-3.41A3.418 3.418 0 0 1 9.25 4.83zm0 11.654c4.547 0 8.243-3.696 8.243-8.24C17.493 3.698 13.797 0 9.25 0 4.705 0 1.008 3.698 1.008 8.244c0 4.544 3.697 8.24 8.242 8.24zm3.335 6.724a15.434 15.434 0 0 0 4.786-1.983 2.415 2.415 0 0 0 .757-3.33 2.413 2.413 0 0 0-3.33-.76 10.465 10.465 0 0 1-11.097 0 2.412 2.412 0 0 0-3.33.76 2.414 2.414 0 0 0 .757 3.33c1.49.935 3.108 1.6 4.786 1.983l-4.608 4.608a2.415 2.415 0 0 0 3.417 3.414l4.526-4.528 4.53 4.528c.942.943 2.47.943 3.414 0a2.413 2.413 0 0 0 0-3.414l-4.608-4.608z"/></symbol><symbol id="icon-prev" viewBox="0 0 15 25"><path d="M14.83 21.67L5.66 12.5l9.17-9.17L12 .5l-12 12 12 12 2.83-2.83z"/></symbol><symbol id="icon-search" viewBox="0 0 18 18"><path d="M11 0a6.5 6.5 0 0 0-6.5 6.5c0 1.61.59 3.09 1.56 4.23l-.27.27H5l-5 5 1.5 1.5 5-5v-.79l.27-.27C7.91 12.41 9.39 13 11 13a6.5 6.5 0 1 0 0-13zm0 2c2.5 0 4.5 2 4.5 4.5S13.5 11 11 11 6.5 9 6.5 6.5 8.5 2 11 2z"/></symbol><symbol id="icon-te-st" viewBox="0 0 99 40"><g><path d="M10.895 20.245a2 2 0 0 1-1.4-2.394l-1.394-.805c-.359.343-.845.554-1.381.554a1.994 1.994 0 0 1-1.42-.592l-1.369.79A2.003 2.003 0 0 1 2 20.32a2 2 0 1 1 1.347-3.479l1.418-.818a2 2 0 0 1 3.33-1.875l2.785-1.607V9.28a1.998 1.998 0 0 1-.828-.481l-1.392.87a2 2 0 1 1-3.885.027l-1.451-.838a1.996 1.996 0 0 1-.764.422v1.678a2 2 0 1 1-1.12 0V9.281A2 2 0 1 1 3.428 5.96l1.333-.833a2 2 0 1 1 .528.99l-1.331.833a2.009 2.009 0 0 1-.035.962l1.406.811c.36-.348.85-.563 1.391-.563.53 0 1.013.207 1.371.544l1.404-.877a2.005 2.005 0 0 1 1.465-2.409V3.942A2 2 0 1 1 12 3.921v1.518a2 2 0 0 1 0 3.842v3.306l2.653 1.532c.256-.26.582-.451.947-.541v-1.476a2 2 0 1 1 1.85-3.399l1.389-.868a2.01 2.01 0 0 1 .022-.888l-1.434-.828a2 2 0 1 1 .584-.956l1.42.82a2 2 0 1 1 1.93 3.378l-.001 1.518a2 2 0 1 1-1.04-.021V9.382a1.998 1.998 0 0 1-.959-.553l-1.342.84a2.004 2.004 0 0 1-1.379 2.412v1.518a2 2 0 0 1 1.366 2.462l1.41.815a2 2 0 1 1-.56.97l-1.444-.834a2 2 0 0 1-3.29-1.906l-2.722-1.572-2.74 1.581a2.004 2.004 0 0 1 .003.962l1.39.802a2 2 0 1 1 1.896 3.375v2.62l2.279-1.317a2.003 2.003 0 0 1 1.932-2.517 2 2 0 1 1-1.4 3.428l-2.811 1.624v4.783h10.34a.352.352 0 0 1 0 .703H11.985c.182 1.334 1.447 1.512 3.42 1.674 1.924.157 4.103.336 4.69 2.502a.264.264 0 0 1-.255.334.263.263 0 0 1-.254-.196c-.442-1.632-2.03-1.917-3.685-2.068.045.05.087.101.126.155.316.427.81.626 1.334.836.656.264 1.334.537 1.641 1.286a.264.264 0 1 1-.487.2c-.223-.543-.745-.753-1.35-.996a7.767 7.767 0 0 1-.682-.301c.065.246.117.496.166.74.088.44.171.858.331 1.208a.264.264 0 0 1-.48.22c-.185-.406-.278-.873-.368-1.324-.216-1.08-.403-2.012-1.693-2.154l-.01-.002c-.915-.103-1.768-.285-2.327-.776.262.613.652 1.061 1.035 1.499.158.181.318.364.467.558l.009.007c.157.204.34.377.535.562.26.245.532.504.754.852.005.007.01.012.014.02.293.466 1.156 1.418 1.703 1.727a.264.264 0 0 1-.258.46c-.308-.174-.677-.497-1.015-.844.032.325.032.694-.014 1.127a.263.263 0 0 1-.262.236l-.028-.001a.264.264 0 0 1-.234-.29c.128-1.21-.109-1.851-.471-2.324.16.822.056 1.91-.553 3.493a.264.264 0 1 1-.492-.19c1.18-3.065.378-3.983-.551-5.045-.368-.422-.761-.873-1.05-1.477.083 1.033.216 1.881.332 2.616.35 2.212.56 3.548-1.174 5.988a.262.262 0 0 1-.367.062.264.264 0 0 1-.062-.368c1.274-1.793 1.422-2.909 1.26-4.363-.107.186-.233.341-.357.494-.329.407-.64.793-.575 1.874a.264.264 0 0 1-.247.28h-.016a.264.264 0 0 1-.263-.248c-.078-1.286.331-1.791.692-2.238.36-.445.67-.829.483-2.083a28.944 28.944 0 0 1-.222-1.844c-.283.577-.751 1.206-1.528 1.862-.928.782-.676 1.636-.385 2.623.19.647.388 1.316.265 2.011a.263.263 0 1 1-.519-.091c.1-.574-.078-1.182-.251-1.77a9.547 9.547 0 0 1-.216-.822l-.067.31c-.195.912-.396 1.856-1.619 2.658a.264.264 0 0 1-.288-.441c1.04-.683 1.203-1.444 1.391-2.327.082-.383.17-.79.343-1.202l-.223.132c-.772.458-1.198.709-1.369 1.68a.263.263 0 1 1-.519-.09c.213-1.212.803-1.56 1.62-2.044.43-.255.92-.543 1.496-1.03.911-.769 1.354-1.481 1.57-2.108-.07.086-.144.169-.226.246-.784.735-2.06 1.051-3.796.945-.77.142-.857.562-.975 1.488-.107.842-.24 1.89-1.16 2.98a.261.261 0 0 1-.371.031.264.264 0 0 1-.032-.371c.82-.972.942-1.934 1.04-2.706.069-.537.136-1.055.44-1.43a5.778 5.778 0 0 0-.783.103c-.674.28-.703.634-.754 1.273-.035.428-.078.96-.364 1.55a.263.263 0 0 1-.352.121.264.264 0 0 1-.122-.353c.243-.5.28-.956.312-1.36.023-.282.046-.558.135-.813-1.014.587-1.173 1.451-1.183 1.509a.264.264 0 0 1-.52-.087c.13-.775.845-1.924 2.656-2.331l.007-.004a.26.26 0 0 1 .095-.02 7.292 7.292 0 0 1 1.929-.109c1.58.104 2.768-.173 3.437-.8.372-.35.529-.748.586-1.09H.555a.351.351 0 0 1 0-.704h10.34v-4.783l-2.82-1.629c-.22.216-.492.38-.794.472a2 2 0 1 1 1.144-2.8 1.936 1.936 0 0 1 .177 1.413l2.292 1.326v-2.63zm6.213 1.392a1.12 1.12 0 0 0-1.938-1.12l.03.018a1.062 1.062 0 0 0 .002 1.07 1.07 1.07 0 0 0 1.85 0l.056.032zm-10.122.469a1.12 1.12 0 1 0-1.281-.45l.086-.05a1.068 1.068 0 0 0 1.195.5zm5.405-3.194a1.12 1.12 0 1 0-1.912-.016l.016-.01a1.07 1.07 0 0 0 1.852 0l.044.026zM2 8.48a1.12 1.12 0 1 0 0-2.24 1.12 1.12 0 0 0 0 2.24zM2 14a1.12 1.12 0 1 0 0-2.24A1.12 1.12 0 0 0 2 14zm4.72-8.16a1.12 1.12 0 1 0 0-2.24 1.12 1.12 0 0 0 0 2.24zm4.72-2.72a1.12 1.12 0 1 0 0-2.24 1.12 1.12 0 0 0 0 2.24zm0 5.36a1.12 1.12 0 1 0 0-2.24 1.12 1.12 0 0 0 0 2.24zm-4.72 2.8a1.12 1.12 0 1 0 0-2.24 1.12 1.12 0 0 0 0 2.24zm9.36-5.52a1.12 1.12 0 1 0 0-2.24 1.12 1.12 0 0 0 0 2.24zm4.72 2.8a1.12 1.12 0 1 0 0-2.24 1.12 1.12 0 0 0 0 2.24zm0 5.36a1.12 1.12 0 1 0 0-2.24 1.12 1.12 0 0 0 0 2.24zm-4.72-2.64a1.12 1.12 0 1 0 0-2.24 1.12 1.12 0 0 0 0 2.24zm0 5.36a1.12 1.12 0 1 0 0-2.24 1.12 1.12 0 0 0 0 2.24zm4.72 2.8a1.12 1.12 0 1 0 0-2.24 1.12 1.12 0 0 0 0 2.24zM6.72 16.72a1.12 1.12 0 1 0 0-2.24 1.12 1.12 0 0 0 0 2.24zM2 19.44a1.12 1.12 0 1 0 0-2.24 1.12 1.12 0 0 0 0 2.24zM36.18 4.56v-.68H31.3v.68h2.06V11h.76V4.56h2.06zM41.93 11v-.68h-3.66V7.75h3.12v-.68h-3.12V4.56h3.66v-.68h-4.42V11h4.42zm6.47 0V3.88h-4.89V11h.76V4.56h3.37V11h.76zm6.78 0V3.88h-3.92v2.89c0 2.96-.63 3.55-1.51 3.55h-.19V11h.36C51.28 11 52 10 52 7V4.56h2.42V11h.76zm7.16 0V3.88h-.72L58 9.68v-5.8h-.76V11h.72l3.62-5.81V11h.76zm7.8 1.72v-2.4h-.85V3.88h-.76v6.44h-3.37V3.88h-.76V11h4.99v1.72h.75zm6.4-1.72l-2.61-7.12h-.64L70.67 11h.81l.57-1.61h3.11l.57 1.61h.81zm-1.6-2.27h-2.66l1.34-3.76 1.32 3.76zM36.72 20.04h-.76c-.19.87-.82 1.44-1.71 1.44-.47 0-.92-.18-1.23-.5-.45-.46-.5-.95-.5-2.44s.05-1.98.5-2.44c.31-.32.76-.5 1.23-.5.89 0 1.5.57 1.69 1.44h.78c-.24-1.34-1.19-2.12-2.47-2.12-.7 0-1.34.26-1.82.74-.67.67-.67 1.37-.67 2.88 0 1.51 0 2.21.67 2.88.48.48 1.12.74 1.82.74 1.27 0 2.24-.78 2.47-2.12zm6.19-1.99c0-.87-.05-1.77-.67-2.39-.48-.48-1.12-.74-1.82-.74s-1.34.26-1.82.74c-.61.61-.67 1.48-.67 2.33v.55c0 1.42.02 2.23.67 2.88.48.48 1.11.74 1.82.74s1.34-.26 1.82-.74c.65-.65.67-1.46.67-2.88v-.49zm-.76.84c0 .82-.01 1.59-.5 2.08-.33.33-.76.51-1.23.51s-.9-.18-1.23-.51c-.46-.46-.5-1.16-.5-1.93v-.71c0-.98 0-1.72.5-2.22.33-.33.77-.51 1.23-.51.46 0 .9.18 1.23.51.47.47.5 1.21.5 2.05v.73zm8.29 4.93v-2.4h-.85v-6.44h-.76v6.44h-3.37v-6.44h-.76v7.12h4.99v1.72h.75zm6.54-1.72v-7.12h-.72l-3.62 5.8v-5.8h-.76v7.12h.72l3.62-5.81v5.81h.76zm7.02 0l-2.61-7.12h-.64l-2.62 7.12h.81l.57-1.61h3.11l.57 1.61H64zm-1.6-2.27h-2.66l1.34-3.76 1.32 3.76zm7.46 2.27v-7.12h-3.92v2.89c0 2.96-.63 3.55-1.51 3.55h-.19v.68h.36c1.36 0 2.08-1 2.08-4v-2.44h2.42v6.44h.76zm6.93-2.09c0-1.26-.87-2.1-2.2-2.1h-1.91v-2.93h-.76v7.12h2.67c1.32 0 2.2-.84 2.2-2.09zm-.77 0c0 .89-.55 1.41-1.5 1.41h-1.84v-2.83h1.84c.95 0 1.5.52 1.5 1.42zm7.1 2.09v-7.12h-.76v3.19h-3.38v-3.19h-.76v7.12h.76v-3.25h3.38v3.25h.76zm8.64 0v-7.12H91v7.12h.76zm-1.71-2.09c0-1.26-.87-2.1-2.2-2.1h-1.91v-2.93h-.76v7.12h2.67c1.32 0 2.2-.84 2.2-2.09zm-.77 0c0 .89-.55 1.41-1.5 1.41h-1.84v-2.83h1.84c.95 0 1.5.52 1.5 1.42zm8.87 2.09l-2.2-3.65L98 14.98h-.88l-1.58 2.81-1.58-2.81h-.88l2.04 3.47-2.18 3.65h.86l1.74-2.99 1.73 2.99h.88zM36.18 27.56v-.68H31.3v.68h2.06V34h.76v-6.44h2.06zM41.93 34v-.68h-3.66v-2.57h3.12v-.68h-3.12v-2.51h3.66v-.68h-4.42V34h4.42zm5.91 0l-2.2-3.65 2.05-3.47h-.88l-1.58 2.81-1.58-2.81h-.88l2.04 3.47L42.63 34h.86l1.74-2.99L46.96 34h.88zm6.08 0v-7.12h-.76v3.19h-3.38v-3.19h-.76V34h.76v-3.25h3.38V34h.76zm6.77-4.05c0-.87-.05-1.77-.67-2.39-.48-.48-1.12-.74-1.82-.74s-1.34.26-1.82.74c-.61.61-.67 1.48-.67 2.33v.55c0 1.42.02 2.23.67 2.88.48.48 1.11.74 1.82.74s1.34-.26 1.82-.74c.65-.65.67-1.46.67-2.88v-.49zm-.76.84c0 .82-.01 1.59-.5 2.08-.33.33-.76.51-1.23.51s-.9-.18-1.23-.51c-.46-.46-.5-1.16-.5-1.93v-.71c0-.98 0-1.72.5-2.22.33-.33.77-.51 1.23-.51.46 0 .9.18 1.23.51.47.47.5 1.21.5 2.05v.73zM66.99 34v-7.12h-3.92v2.89c0 2.96-.63 3.55-1.51 3.55h-.19V34h.36c1.36 0 2.08-1 2.08-4v-2.44h2.42V34h.76zm6.77-4.05c0-.87-.05-1.77-.67-2.39-.48-.48-1.12-.74-1.82-.74s-1.34.26-1.82.74c-.61.61-.67 1.48-.67 2.33v.55c0 1.42.02 2.23.67 2.88.48.48 1.11.74 1.82.74s1.34-.26 1.82-.74c.65-.65.67-1.46.67-2.88v-.49zm-.76.84c0 .82-.01 1.59-.5 2.08-.33.33-.76.51-1.23.51s-.9-.18-1.23-.51c-.46-.46-.5-1.16-.5-1.93v-.71c0-.98 0-1.72.5-2.22.33-.33.77-.51 1.23-.51.46 0 .9.18 1.23.51.47.47.5 1.21.5 2.05v.73zm6.9-3.23v-.68h-4.28V34h.76v-6.44h3.52zM86.34 34v-7.12h-.72L82 32.68v-5.8h-.76V34h.72l3.62-5.81V34h.76zm7.16 0v-7.12h-.72l-3.62 5.8v-5.8h-.76V34h.72l3.62-5.81V34h.76zm-1.09-8.83h-.64c-.04.49-.33.74-.82.74-.49 0-.78-.25-.82-.74h-.64c.06.89.63 1.26 1.46 1.26s1.4-.37 1.46-1.26z"/></g></symbol><symbol id="icon-telegram" viewBox="0 0 32 27"><path d="M29.84.177L1.494 11.11c-1.935.777-1.923 1.856-.353 2.337l7.07 2.206 2.705 8.294c.329.907.166 1.267 1.12 1.267.735 0 1.061-.335 1.471-.735.26-.255 1.808-1.76 3.535-3.438l7.353 5.433c1.353.746 2.33.36 2.667-1.257L31.89 2.47c.494-1.981-.756-2.88-2.05-2.293zM9.32 15.147L25.255 5.092c.795-.482 1.525-.223.926.309l-13.644 12.31-.532 5.667-2.685-8.233z"/></symbol><symbol id="icon-twitter" viewBox="0 0 32 26"><path d="M31.528 3.033a12.87 12.87 0 0 1-3.715 1.018A6.48 6.48 0 0 0 30.657.472a12.948 12.948 0 0 1-4.107 1.57 6.468 6.468 0 0 0-11.021 5.9A18.366 18.366 0 0 1 2.194 1.184a6.435 6.435 0 0 0-.875 3.252A6.465 6.465 0 0 0 4.197 9.82a6.45 6.45 0 0 1-2.93-.81v.082a6.473 6.473 0 0 0 5.189 6.343 6.503 6.503 0 0 1-2.922.11 6.475 6.475 0 0 0 6.042 4.492 12.976 12.976 0 0 1-8.033 2.77c-.522 0-1.037-.031-1.543-.091a18.304 18.304 0 0 0 9.916 2.906c11.898 0 18.403-9.856 18.403-18.404 0-.28-.005-.56-.018-.838a13.1 13.1 0 0 0 3.227-3.347z"/></symbol><symbol id="icon-up" viewBox="0 0 12 8"><path d="M1.41 8L6 3.41 10.59 8 12 6.58l-6-6-6 6L1.41 8z"/></symbol><symbol id="icon-viber" viewBox="0 0 31 31"><g><path d="M28.046 22.425c-.943-.759-1.951-1.44-2.943-2.136-1.978-1.39-3.788-1.498-5.264.738-.829 1.255-1.99 1.31-3.203.76-3.345-1.518-5.928-3.855-7.44-7.255-.67-1.504-.661-2.852.905-3.916.829-.563 1.664-1.229 1.597-2.458-.087-1.603-3.98-6.96-5.516-7.526C5.546.398 4.912.413 4.266.631.66 1.843-.831 4.807.598 8.317c4.265 10.47 11.771 17.76 22.103 22.208.59.254 1.244.355 1.575.446 2.352.024 5.108-2.243 5.904-4.492.766-2.164-.854-3.023-2.134-4.054zM16.46 1.706c7.554 1.161 11.038 4.753 12 12.36.089.703-.173 1.76.83 1.78 1.047.02.795-1.021.804-1.725C30.182 6.956 23.934.314 16.679.07c-.547.079-1.68-.378-1.75.85-.048.827.906.69 1.532.787z"/><path d="M17.938 3.792c-.726-.088-1.685-.43-1.855.578-.177 1.058.892.95 1.579 1.104 4.665 1.043 6.289 2.741 7.057 7.369.112.674-.11 1.724 1.036 1.55.85-.13.543-1.03.614-1.555.037-4.443-3.77-8.487-8.43-9.046z"/><path d="M18.367 7.425c-.485.012-.961.064-1.14.582-.267.775.296.96.87 1.052 1.913.307 2.92 1.436 3.111 3.344.052.518.38.938.881.878.693-.082.756-.7.735-1.285.034-2.144-2.39-4.623-4.457-4.571z"/></g></symbol><symbol id="icon-vk" viewBox="0 0 32 21"><path d="M.005 1.527c-.219-1.336 6.241-.509 6.241-.509s3.75 9.417 5.228 9.417c1.478 0 .766-7.985.766-7.985s-1.833-.478-1.833-1.21C10.407.51 12.24 0 12.24 0h5.393c.646 0 .903 1.05.903 1.75v8.558h1.478s1.316-2.115 2.354-4.263c1.038-2.149 2.3-5.027 2.3-5.027h6.267s1.15.032 1.013.986c-.186 1.299-4.356 7.466-5.228 9.576-.657 1.59 2.76 3.744 4.215 6.045.945 1.493 1.013 3.245 1.013 3.245h-7.445l-3.723-4.327s-.766-.318-1.368.127c-.603.446-.63 1.337-.63 1.337v2.863h-5.83s-4.461-1.527-8.239-8.208C.936 5.982.224 2.863.005 1.527z"/></symbol><symbol id="icon-whatsup" viewBox="0 0 32 32"><path d="M16.172 0C7.579 0 .614 6.965.614 15.558c0 2.939.815 5.688 2.232 8.033L.038 31.938l8.614-2.758a15.49 15.49 0 0 0 7.52 1.935c8.592 0 15.557-6.965 15.557-15.557C31.73 6.965 24.764 0 16.172 0zm0 28.637c-2.657 0-5.131-.797-7.197-2.163l-5.026 1.61 1.633-4.858a13.009 13.009 0 0 1-2.49-7.668c0-7.213 5.867-13.08 13.08-13.08 7.212 0 13.08 5.867 13.08 13.08 0 7.212-5.868 13.08-13.08 13.08zm-3.65-19.514c-.251-.608-.444-.628-.834-.647a8.936 8.936 0 0 0-.436-.012c-.502 0-1.022.147-1.335.468-.382.39-1.335 1.304-1.335 3.18 0 1.877 1.367 3.69 1.557 3.944.19.255 2.665 4.161 6.515 5.757 3.005 1.244 3.897 1.133 4.583.983.997-.217 2.25-.952 2.568-1.842.317-.89.317-1.654.222-1.813-.095-.159-.35-.254-.73-.445-.382-.19-2.258-1.113-2.607-1.24-.35-.128-.673-.089-.942.283-.37.514-.728 1.041-1.023 1.354-.232.246-.606.28-.927.144-.422-.18-1.61-.594-3.067-1.893-1.133-1.01-1.899-2.259-2.121-2.64-.223-.382-.02-.61.152-.817.195-.237.376-.407.566-.63.19-.222.297-.341.425-.596.127-.254.041-.517-.054-.708-.096-.19-.86-2.066-1.176-2.83z"/></symbol><symbol id="icon-youtube" viewBox="0 0 24 24"><path d="M10 16.5v-9l6 4.5m4-7.6c-.6-.2-4.3-.4-8-.4s-7.4.19-8 .38C2.44 4.9 2 8.4 2 12c0 3.59.44 7.1 2 7.61.6.2 4.3.39 8 .39s7.4-.19 8-.39c1.56-.51 2-4.02 2-7.61 0-3.6-.44-7.09-2-7.6z"/></symbol></svg>