<?xml version="1.0" encoding="UTF-8"?>
<svg width="1049px" height="220px" viewBox="0 0 1049 220" version="1.1" xmlns="http://www.w3.org/2000/svg" xmlns:xlink="http://www.w3.org/1999/xlink">
    <!-- Generator: Sketch 45.2 (43514) - http://www.bohemiancoding.com/sketch -->
    <title>Group</title>
    <desc>Created with Sketch.</desc>
    <defs>
        <polygon id="path-1" points="213.018133 109.607588 213.018133 0 0 0 0 109.607588 0 219.215176 213.018133 219.215176"></polygon>
        <polygon id="path-3" points="213.018133 109.607588 213.018133 0 0 0 0 109.607588 0 219.215176 213.018133 219.215176"></polygon>
        <polygon id="path-5" points="213.018133 109.607588 213.018133 0 0 0 0 109.607588 0 219.215176 213.018133 219.215176"></polygon>
        <polygon id="path-7" points="213.018133 109.607588 213.018133 0 0 0 0 109.607588 0 219.215176 213.018133 219.215176"></polygon>
    </defs>
    <g id="Page-1" stroke="none" stroke-width="1" fill="none" fill-rule="evenodd">
        <g id="Group">
            <path d="M337.04,139 L345.412,139 L345.412,116.368 L355.808,105.236 L380.28,139 L389.848,139 L361.144,99.532 L384.512,74.6 L379.912,74.6 L345.412,110.848 L345.412,74.6 L337.04,74.6 L337.04,139 Z M457.436,120.048 L425.696,120.048 L417.6,139 L413.368,139 L440.6,74.6 L445.2,74.6 L475.192,139 L466.268,139 L457.436,120.048 Z M455.504,115.908 L441.06,84.904 L440.692,84.904 L427.444,115.908 L455.504,115.908 Z M558.88,74.6 L558.88,123.82 L558.512,123.82 L507.452,73.496 L506.992,73.496 L506.992,139 L511.224,139 L511.224,89.78 L511.592,89.78 L562.652,140.104 L563.112,140.104 L563.112,74.6 L558.88,74.6 Z M604.112,139 L604.112,74.6 L625.272,74.6 C630.362692,74.6 635.023979,75.4126585 639.256,77.038 C643.488021,78.6633415 647.121985,80.9019857 650.158,83.754 C653.194015,86.6060143 655.555325,89.994647 657.242,93.92 C658.928675,97.845353 659.772,102.077311 659.772,106.616 C659.772,111.33869 658.898009,115.67798 657.15,119.634 C655.401991,123.59002 653.010015,127.009319 649.974,129.892 C646.937985,132.774681 643.39602,135.013325 639.348,136.608 C635.29998,138.202675 630.976023,139 626.376,139 L604.112,139 Z M612.484,134.952 L622.604,134.952 C627.633358,134.952 631.911316,134.108675 635.438,132.422 C638.964684,130.735325 641.862655,128.54268 644.132,125.844 C646.401345,123.14532 648.057328,120.124683 649.1,116.782 C650.142672,113.439317 650.664,110.112017 650.664,106.8 C650.664,103.119982 650.050673,99.578017 648.824,96.174 C647.597327,92.769983 645.803345,89.7646797 643.442,87.158 C641.080655,84.5513203 638.152017,82.481341 634.656,80.948 C631.159983,79.414659 627.142689,78.648 622.604,78.648 L612.484,78.648 L612.484,134.952 Z M695.252,74.6 L695.252,139 L703.624,139 L703.624,74.6 L695.252,74.6 Z M799.272,74.6 L799.272,123.82 L798.904,123.82 L747.844,73.496 L747.384,73.496 L747.384,139 L751.616,139 L751.616,89.78 L751.984,89.78 L803.044,140.104 L803.504,140.104 L803.504,74.6 L799.272,74.6 Z M835.948,122.716 C836.070667,125.353347 836.76066,127.745323 838.018,129.892 C839.27534,132.038677 840.992656,133.863326 843.17,135.366 C845.347344,136.868674 847.907985,138.033996 850.852,138.862 C853.796015,139.690004 857.015983,140.104 860.512,140.104 C864.069351,140.104 867.273986,139.674671 870.126,138.816 C872.978014,137.957329 875.41599,136.730675 877.44,135.136 C879.46401,133.541325 881.027994,131.609345 882.132,129.34 C883.236006,127.070655 883.788,124.556014 883.788,121.796 C883.788,117.993314 882.837343,114.880679 880.936,112.458 C879.034657,110.035321 876.658014,108.011341 873.806,106.386 C870.953986,104.760659 867.856683,103.396006 864.514,102.292 C861.171317,101.187994 858.074014,100.022673 855.222,98.796 C852.369986,97.5693272 849.993343,96.1586746 848.092,94.564 C846.190657,92.9693254 845.24,90.8533465 845.24,88.216 C845.24,86.7439926 845.561997,85.3640064 846.206,84.076 C846.850003,82.7879936 847.80066,81.6686714 849.058,80.718 C850.31534,79.7673286 851.863991,79.0006696 853.704,78.418 C855.544009,77.8353304 857.659988,77.544 860.052,77.544 C864.038687,77.544 867.427319,78.3873249 870.218,80.074 C873.008681,81.7606751 874.649331,84.4133152 875.14,88.032 L881.396,88.032 C881.027998,85.7626553 880.200006,83.7233424 878.912,81.914 C877.623994,80.1046576 875.998676,78.5713396 874.036,77.314 C872.073324,76.0566604 869.850012,75.1060032 867.366,74.462 C864.881988,73.8179968 862.29068,73.496 859.592,73.496 C856.770653,73.496 854.087346,73.8639963 851.542,74.6 C848.996654,75.3360037 846.75801,76.4093263 844.826,77.82 C842.89399,79.2306737 841.360672,81.0093226 840.226,83.156 C839.091328,85.3026774 838.524,87.7559862 838.524,90.516 C838.524,94.1346848 839.443991,97.047989 841.284,99.256 C843.124009,101.464011 845.439319,103.303993 848.23,104.776 C851.020681,106.248007 854.041317,107.505328 857.292,108.548 C860.542683,109.590672 863.563319,110.771327 866.354,112.09 C869.144681,113.408673 871.459991,115.018657 873.3,116.92 C875.140009,118.821343 876.06,121.366651 876.06,124.556 C876.06,128.542687 874.603348,131.455991 871.69,133.296 C868.776652,135.136009 864.897358,136.056 860.052,136.056 C856.187981,136.056 853.090678,135.550005 850.76,134.538 C848.429322,133.525995 846.650673,132.314674 845.424,130.904 C844.197327,129.493326 843.369335,128.036674 842.94,126.534 C842.510665,125.031326 842.265334,123.758672 842.204,122.716 L835.948,122.716 Z M919.084,139 L927.456,139 L927.456,116.368 L937.852,105.236 L962.324,139 L971.892,139 L943.188,99.532 L966.556,74.6 L961.956,74.6 L927.456,110.848 L927.456,74.6 L919.084,74.6 L919.084,139 Z M995.412,74.6 L1017.676,114.62 L1017.676,139 L1026.048,139 L1026.048,113.792 L1048.68,74.6 L1043.712,74.6 L1024.024,108.548 L1023.656,108.548 L1004.888,74.6 L995.412,74.6 Z" id="KANDINSKY" fill="#000000"></path>
            <g id="kandinsky" transform="translate(0.000000, 0.784639)">
                <g id="Fill-1-Clipped">
                    <mask id="mask-2" fill="white">
                        <use xlink:href="#path-1"></use>
                    </mask>
                    <g id="path-1"></g>
                    <polygon id="Fill-1" fill-opacity="0.5" fill="#C4A472" fill-rule="nonzero" mask="url(#mask-2)" points="0 160.295266 196.738386 -0.000184991866 213.018133 -0.000184991866 19.8403776 219.215176 0 219.215176"></polygon>
                </g>
                <g id="Fill-4-Clipped">
                    <mask id="mask-4" fill="white">
                        <use xlink:href="#path-3"></use>
                    </mask>
                    <g id="path-1"></g>
                    <polygon id="Fill-4" fill-opacity="0.5" fill="#678B81" fill-rule="nonzero" mask="url(#mask-4)" points="39.2644772 0 71.8692935 0 213.018087 129.078074 213.018087 210.243255"></polygon>
                </g>
                <g id="Fill-6-Clipped">
                    <mask id="mask-6" fill="white">
                        <use xlink:href="#path-5"></use>
                    </mask>
                    <g id="path-1"></g>
                    <path d="M130.326677,61.9722749 C134.285965,61.9722749 137.495112,65.1814213 137.495112,69.1407097 C137.495112,73.0999981 134.285965,76.3091445 130.326677,76.3091445 C126.367388,76.3091445 123.158242,73.0999981 123.158242,69.1407097 C123.158242,65.1814213 126.367388,61.9722749 130.326677,61.9722749" id="Fill-6" fill="#000000" fill-rule="nonzero" mask="url(#mask-6)"></path>
                </g>
                <g id="Fill-8-Clipped">
                    <mask id="mask-8" fill="white">
                        <use xlink:href="#path-7"></use>
                    </mask>
                    <g id="path-1"></g>
                    <path d="M107.711236,9.29588749 C54.4798269,9.29588749 11.2842263,52.4452401 11.2842263,105.722897 C11.2842263,158.954307 54.4335789,202.149907 107.711236,202.149907 C160.988893,202.149907 204.138246,159.000555 204.138246,105.722897 C204.138246,52.4452401 160.943108,9.29588749 107.711236,9.29588749 M107.711236,16.6955621 C119.735707,16.6955621 131.390195,19.0542084 142.350963,23.679005 C152.94221,28.1650578 162.468828,34.5935251 170.655181,42.7794151 C178.841071,50.9653052 185.269076,60.4923863 189.755129,71.0831706 C194.379925,82.0439386 196.738571,93.6984261 196.738571,105.722897 C196.738571,117.747369 194.379925,129.401856 189.755129,140.362624 C185.269076,150.953409 178.841071,160.48049 170.655181,168.66638 C162.468828,176.85227 152.94221,183.280737 142.350963,187.76679 C131.390195,192.391586 119.735707,194.750233 107.711236,194.750233 C95.6867649,194.750233 84.0322774,192.391586 73.0719719,187.76679 C62.4807251,183.280737 52.9541065,176.85227 44.767754,168.66638 C36.5818639,160.48049 30.1533966,150.953409 25.6678063,140.362624 C21.0430097,129.401856 18.6839009,117.747369 18.6839009,105.722897 C18.6839009,93.6984261 21.0430097,82.0439386 25.6678063,71.0831706 C30.1533966,60.4923863 36.5818639,50.9653052 44.767754,42.7794151 C52.9541065,34.5935251 62.4807251,28.1650578 73.0719719,23.679005 C84.0322774,19.0542084 95.6867649,16.6955621 107.711236,16.6955621" id="Fill-8" fill="#000000" fill-rule="nonzero" mask="url(#mask-8)"></path>
                </g>
            </g>
        </g>
    </g>
</svg>