<?xml version="1.0" encoding="UTF-8" standalone="no"?>
<svg width="150px" height="75px" viewBox="0 0 150 75" version="1.1" xmlns="http://www.w3.org/2000/svg" xmlns:xlink="http://www.w3.org/1999/xlink" xmlns:sketch="http://www.bohemiancoding.com/sketch/ns">
    <!-- Generator: Sketch 3.4 (15575) - http://www.bohemiancoding.com/sketch -->
    <title>Group + Теплица</title>
    <desc>Created with Sketch.</desc>
    <defs>
        <path id="path-1" d="M5.72137707,13.926028 C5.72137707,14.292023 5.62128094,14.6338542 5.45111752,14.9297149 L10.8015501,18.0215186 C11.1483538,17.4203673 11.794857,17.016653 12.5373348,17.016653 C13.2804013,17.016653 13.9263158,17.4203673 14.2737082,18.0203399 L19.6247296,14.9261787 C19.4533886,14.6314967 19.3544701,14.2884868 19.3544701,13.9224918 C19.3544701,13.5570861 19.4533886,13.2146656 19.6247296,12.9199836 L18.2004206,12.096642 C17.8883562,12.634142 17.7070055,13.2570998 17.7070055,13.9224918 C17.7070055,14.2342654 17.7505768,14.5360197 17.8241769,14.8248081 L15.0862533,16.4084293 C14.4273852,15.7654331 13.5288753,15.367023 12.5373348,15.367023 C11.5469719,15.367023 10.6490507,15.7654331 9.99077145,16.4072505 L7.25167027,14.8236294 C7.32468157,14.5360197 7.36825282,14.2354441 7.36825282,13.926028 C7.36825282,13.6113076 7.32468157,13.3101425 7.24990387,13.0184073 L9.98723864,11.4371436 C10.6455179,12.0819079 11.5452055,12.4809073 12.5373348,12.4809073 C13.8874549,12.4809073 15.0656453,11.7418448 15.6980173,10.650932 L14.2737082,9.82759046 C13.9263158,10.427563 13.2804013,10.8318668 12.5373348,10.8318668 C11.7954458,10.8318668 11.1489426,10.427563 10.8015501,9.82759046 L5.44993992,12.9217516 C5.62128094,13.2164337 5.72137707,13.5594435 5.72137707,13.926028"></path>
        <path d="M18.1998318,5.55057566 L19.6229632,4.7272341 C19.9697669,5.32838542 20.6180365,5.73327851 21.3605143,5.73327851 C22.1041697,5.73327851 22.7524393,5.32838542 23.099243,4.72605537 L24.5223744,5.54939693 C24.050745,6.36389803 23.2741168,6.98096217 22.3491108,7.2426398 L22.3491108,10.4057566 C23.2729392,10.6656661 24.0483898,11.2827303 24.5211968,12.0954633 L23.0968878,12.9182155 C22.7500841,12.3188322 22.1035809,11.9145285 21.3605143,11.9145285 C20.6186253,11.9145285 19.9715333,12.3188322 19.6247296,12.9199836 L18.2004206,12.096642 C18.6732276,11.2827303 19.4480894,10.6656661 20.3725066,10.4057566 L20.3725066,7.2426398 C19.4475006,6.98096217 18.67205,6.36389803 18.1998318,5.55057566 L18.1998318,5.55057566 Z M27.0247777,6.99510691 C26.7121245,7.53378564 26.5307739,8.15733279 26.5307739,8.82390351 C26.5307739,9.48811678 26.7115357,10.1110746 27.0224225,10.6485746 L28.4473204,9.82582237 C28.2765681,9.53114035 28.1776496,9.18871985 28.1776496,8.82390351 C28.1776496,8.45672971 28.2777457,8.11489857 28.4490868,7.8178591 L27.0247777,6.99510691 L27.0247777,6.99510691 Z M14.5439678,8.82390351 C14.5439678,9.18989857 14.4444605,9.53172971 14.2737082,9.82759046 L15.6980173,10.6497533 C16.0094929,10.1122533 16.1914323,9.4892955 16.1914323,8.82390351 C16.1914323,8.15733279 16.0094929,7.53496436 15.6980173,6.99628564 L14.2731194,7.82021656 C14.4444605,8.1160773 14.5439678,8.45790844 14.5439678,8.82390351 L14.5439678,8.82390351 Z" id="path-3"></path>
        <path d="M26.5307739,19.0181332 C26.5307739,18.35392 26.7115357,17.7321409 27.0224225,17.1946409 L28.4461428,18.0179825 C28.2765681,18.3126645 28.1776496,18.6533169 28.1776496,19.0181332 C28.1776496,19.385307 28.2777457,19.7283169 28.4490868,20.0241776 L27.0253665,20.8475192 C26.7127133,20.3100192 26.5307739,19.6858827 26.5307739,19.0181332 L26.5307739,19.0181332 Z M21.3605143,15.9310444 C20.6186253,15.9310444 19.9715333,15.5267407 19.6247296,14.9261787 L14.2737082,18.0203399 C14.4444605,18.3162007 14.5439678,18.6580318 14.5439678,19.0240269 C14.5439678,19.3900219 14.4450493,19.7330318 14.2737082,20.0277138 L15.6980173,20.850466 C16.0100817,20.312966 16.1914323,19.6905976 16.1914323,19.0240269 C16.1914323,18.7122533 16.1484499,18.4116776 16.074261,18.1217105 L18.8127734,16.5386787 C19.2437755,16.9588953 19.777229,17.2718476 20.3725066,17.4398163 L20.3730954,23.550932 L20.371329,23.550932 L21.3605143,24.1232045 L22.3502884,23.550932 L22.3496996,23.5503427 L22.3491108,17.4398163 C23.273528,17.1799068 24.0489786,16.5628427 24.5217856,15.7489309 L23.0968878,14.9261787 C22.7500841,15.5267407 22.1035809,15.9310444 21.3605143,15.9310444 L21.3605143,15.9310444 Z" id="path-5"></path>
        <path id="path-7" d="M0.552295121,22.2991228 L1.97601538,23.121875 C2.32340783,22.521313 2.97108868,22.1146519 3.71415525,22.1146519 C4.45722182,22.1146519 5.10490267,22.521313 5.45170632,23.121875 L6.87542658,22.2991228 C6.40320836,21.4840323 5.62775775,20.8669682 4.70216294,20.6052906 L4.70216294,17.4433525 C5.29861812,17.2753838 5.83442682,16.9612527 6.26601778,16.5386787 L9.00158616,18.1217105 C8.92798606,18.4104989 8.8844148,18.7122533 8.8844148,19.0240269 C8.8844148,19.6905976 9.06576544,20.312966 9.37782985,20.8516447 L10.8015501,20.0277138 C10.6307979,19.7330318 10.5312906,19.3912007 10.5312906,19.0240269 C10.5312906,18.6592105 10.6307979,18.3173794 10.8015501,18.0215186 L5.45111752,14.9297149 C5.10372507,15.5290981 4.45663302,15.9345806 3.71415525,15.9345806 C2.97226628,15.9345806 2.32517424,15.5290981 1.97778178,14.9297149 L0.554061524,15.7524671 C1.02627974,16.5663788 1.80173035,17.1822643 2.72614756,17.4433525 L2.72614756,20.6052906 C1.80055275,20.8669682 1.02451334,21.4852111 0.552295121,22.2991228"></path>
        <path d="M7.36825282,24.1232045 C7.36825282,24.7897752 7.18631339,25.4139117 6.87366018,25.9525905 L5.44935112,25.1292489 C5.62128094,24.8333882 5.72137707,24.4903783 5.72137707,24.1232045 C5.72137707,23.7583882 5.62186974,23.416557 5.45170632,23.121875 L6.87542658,22.2991228 C7.18690219,22.8366228 7.36825282,23.4578125 7.36825282,24.1232045 L7.36825282,24.1232045 Z M12.5373348,27.2138295 C13.2809901,27.2138295 13.9280822,27.619312 14.2748858,28.2198739 L21.3605143,24.1232045 L20.371329,23.550932 L15.0862533,26.6073739 C14.4273852,25.9637884 13.5288753,25.5659677 12.5373348,25.5659677 C11.1866258,25.5659677 10.0078467,26.3044408 9.37547465,27.3983004 L10.8003725,28.2210526 C11.1471762,27.6204907 11.7942682,27.2138295 12.5373348,27.2138295 L12.5373348,27.2138295 Z M12.5373348,22.6822094 C13.8874549,22.6822094 15.0656453,21.9431469 15.6980173,20.850466 L14.2737082,20.0277138 C13.9269046,20.6288651 13.2804013,21.0325795 12.5373348,21.0325795 C11.7954458,21.0325795 11.1489426,20.6288651 10.8015501,20.0277138 L9.37782985,20.8516447 C10.0102019,21.9431469 11.1883922,22.6822094 12.5373348,22.6822094 L12.5373348,22.6822094 Z" id="path-9"></path>
        <path id="path-11" d="M39.9966474,20.6035225 L39.9966474,17.4398163 C40.9216534,17.1787281 41.6971041,16.5616639 42.1693223,15.7465735 L40.745602,14.9238213 C40.3982096,15.525562 39.7517063,15.9310444 39.0080509,15.9310444 C38.2649844,15.9310444 37.6173035,15.525562 37.2704999,14.9238213 L31.9218337,18.0168037 C32.0919971,18.3114857 32.1909156,18.6533169 32.1909156,19.0181332 C32.1909156,19.385307 32.0908195,19.7283169 31.9194785,20.0241776 L33.3431988,20.8475192 C33.655852,20.3088405 33.8383802,19.6858827 33.8383802,19.0181332 C33.8383802,18.7063596 33.7948089,18.405784 33.7212088,18.1169956 L36.4567772,16.5363213 C36.8877794,16.9577166 37.4235881,17.2718476 38.0194545,17.4398163 L38.0194545,20.6035225 C37.0950373,20.863432 36.3201754,21.4804962 35.8473684,22.2944079 L37.2716775,23.1171601 C37.6184811,22.5165981 38.2655732,22.1111157 39.0080509,22.1111157 C39.7499399,22.1111157 40.3964432,22.5165981 40.7438356,23.1159814 L42.1675559,22.2932292 C41.6953377,21.4804962 40.9204758,20.863432 39.9966474,20.6035225"></path>
        <path d="M37.2716775,25.124534 L35.8479572,25.9478755 C35.5358928,25.4091968 35.3539534,24.786239 35.3539534,24.120847 C35.3539534,23.4542763 35.535304,22.8319079 35.8473684,22.2944079 L37.2716775,23.1171601 C37.1009253,23.4130208 37.0014179,23.754852 37.0014179,24.120847 C37.0014179,24.4868421 37.1009253,24.8286732 37.2716775,25.124534 L37.2716775,25.124534 Z M27.6365417,26.602659 L22.3502884,23.550932 L21.3605143,24.1232045 L28.4473204,28.2181058 C28.7929464,27.6169545 29.4412161,27.2108827 30.1842826,27.2108827 C30.9273492,27.2108827 31.57503,27.6169545 31.9218337,28.2181058 L33.345554,27.3947643 C32.8727469,26.5796738 32.0978851,25.9626096 31.1722903,25.7015214 L31.1722903,22.5360471 C32.0967075,22.2761376 32.8709805,21.6602522 33.3431988,20.8475192 L31.9194785,20.0241776 C31.572086,20.6229715 30.9255828,21.0266859 30.1842826,21.0266859 C29.4429825,21.0266859 28.797068,20.6229715 28.4496756,20.0241776 L27.0259553,20.8475192 C27.4981735,21.6602522 28.2730353,22.2761376 29.1962749,22.5360471 L29.1962749,25.7015214 C28.6009974,25.8694901 28.0675439,26.1824424 27.6365417,26.602659 L27.6365417,26.602659 Z" id="path-13"></path>
        <path d="M10.8027277,30.2290159 L5.45288392,33.3219984 C5.10666907,32.7196683 4.45839942,32.3124178 3.71415525,32.3124178 C2.96991108,32.3124178 2.32164143,32.7196683 1.97483778,33.3219984 L0.550528719,32.4986568 C1.18290075,31.4042078 2.36285749,30.6639666 3.71415525,30.6639666 C4.70510695,30.6639666 5.60420572,31.0623766 6.26307378,31.7053728 L9.00099736,30.1241091 C8.92739726,29.8353207 8.8844148,29.5335663 8.8844148,29.2229715 C8.8844148,28.5575795 9.06517664,27.9358004 9.37547465,27.3983004 L10.8003725,28.2210526 C10.6302091,28.5157346 10.5312906,28.8563871 10.5312906,29.2229715 C10.5312906,29.5901453 10.6313867,29.9319764 10.8027277,30.2290159 L10.8027277,30.2290159 Z M3.71415525,27.7802083 C5.06309781,27.7802083 6.24069935,27.0435033 6.87366018,25.9525905 L5.44935112,25.1280702 C5.10195866,25.7280428 4.45604422,26.1317571 3.71415525,26.1317571 C2.97285508,26.1317571 2.32694064,25.7280428 1.97954819,25.1292489 L0.555239125,25.9525905 C1.18878875,27.0435033 2.36580149,27.7802083 3.71415525,27.7802083 L3.71415525,27.7802083 Z" id="path-15"></path>
        <path d="M42.1681447,32.4939419 L40.7438356,33.3172834 C40.3964432,32.7173109 39.7499399,32.3124178 39.0074621,32.3124178 C38.2649844,32.3124178 37.6184811,32.7173109 37.2716775,33.3184622 L31.9194785,30.2254797 C32.0908195,29.929619 32.1909156,29.5866091 32.1909156,29.2194353 C32.1909156,28.854619 32.0919971,28.5127878 31.9212449,28.2181058 L33.345554,27.3947643 C33.6570296,27.9310855 33.8383802,28.5540433 33.8383802,29.2194353 C33.8383802,29.5300302 33.7948089,29.8306058 33.7212088,30.1193942 L36.4614876,31.7036047 C37.1203557,31.0623766 38.0176881,30.6639666 39.0074621,30.6639666 C40.3569935,30.6639666 41.5351839,31.4018503 42.1681447,32.4939419 L42.1681447,32.4939419 Z M39.0080509,27.7766721 C40.3575823,27.7766721 41.5357727,27.0387884 42.1681447,25.9478755 L40.7438356,25.124534 C40.397032,25.7233279 39.7505287,26.1288103 39.0080509,26.1288103 C38.2655732,26.1288103 37.6190699,25.7233279 37.2716775,25.124534 L35.8479572,25.9478755 C36.4803292,27.0399671 37.6585196,27.7766721 39.0080509,27.7766721 L39.0080509,27.7766721 Z" id="path-16"></path>
        <path id="path-18" d="M21.3611031,30.6675027 C20.371329,30.6675027 19.472819,31.0647341 18.813951,31.7065515 L16.074261,30.1241091 C16.1484499,29.8353207 16.1914323,29.5335663 16.1914323,29.2229715 C16.1914323,28.9106086 16.1484499,28.6094435 16.074261,28.3200658 L21.3611031,25.2642133 L26.6479452,28.3165296 C26.5743451,28.6059073 26.5307739,28.9070724 26.5307739,29.2194353 C26.5307739,29.8865954 26.7127133,30.5095532 27.0253665,31.0482319 L28.4490868,30.2254797 C28.2777457,29.929619 28.1776496,29.5866091 28.1776496,29.2194353 C28.1776496,28.854619 28.2765681,28.5133772 28.4473204,28.2181058 L21.3605143,24.1232045 L14.2748858,28.2198739 C14.4450493,28.5157346 14.5439678,28.8563871 14.5439678,29.2229715 C14.5439678,29.5889666 14.4444605,29.9319764 14.2725306,30.2278372 L19.6247296,33.3208196 C19.9721221,32.720847 20.6192141,32.3159539 21.3611031,32.3159539 C22.1035809,32.3159539 22.7500841,32.7196683 23.0968878,33.3208196 L24.5217856,32.4962993 C23.888236,31.4053865 22.7106345,30.6675027 21.3611031,30.6675027"></path>
        <path d="M33.345554,37.5948876 L31.9212449,38.4188185 C31.5744412,37.8170779 30.9273492,37.4115954 30.1848714,37.4115954 C29.4412161,37.4115954 28.7929464,37.8182566 28.4473204,38.4188185 L27.0224225,37.5960663 C27.6547945,36.5022067 28.8335737,35.7631442 30.1848714,35.7631442 C31.5349916,35.7631442 32.7131819,36.501028 33.345554,37.5948876 L33.345554,37.5948876 Z M37.0014179,34.3209704 C37.0014179,33.9549753 37.1003365,33.6131442 37.2716775,33.3184622 L31.9194785,30.2254797 C31.572086,30.8236842 30.9255828,31.2279879 30.1842826,31.2279879 C29.4429825,31.2279879 28.797068,30.8236842 28.4490868,30.2254797 L27.0253665,31.0482319 C27.6589161,32.1397341 28.8359289,32.8764391 30.1842826,32.8764391 C31.1758231,32.8764391 32.0755107,32.4780291 32.7349676,31.8332648 L35.4717135,33.4162966 C35.3975246,33.7062637 35.3539534,34.0080181 35.3539534,34.3209704 C35.3539534,34.9875411 35.5358928,35.6099095 35.8479572,36.1485883 L37.2716775,35.3246573 C37.1009253,35.0287966 37.0014179,34.6869655 37.0014179,34.3209704 L37.0014179,34.3209704 Z M23.3677361,34.3245066 C23.3677361,34.6905016 23.2688176,35.0323328 23.0968878,35.3281935 L24.5217856,36.1509457 C24.8344388,35.6134457 25.0152007,34.9910773 25.0152007,34.3245066 C25.0152007,33.6579359 24.83385,33.0349781 24.5217856,32.4962993 L23.0968878,33.3208196 C23.2688176,33.6155016 23.3677361,33.9585115 23.3677361,34.3245066 L23.3677361,34.3245066 Z" id="path-20"></path>
        <path id="path-22" d="M12.5373348,35.7631442 C11.186037,35.7631442 10.0060803,36.5033854 9.37429704,37.5984238 L10.7986061,38.421176 C11.1454098,37.8182566 11.7930906,37.4115954 12.5373348,37.4115954 C13.2815789,37.4115954 13.9298486,37.8182566 14.2760634,38.4199973 L15.7003725,37.5972451 C15.0680005,36.5022067 13.8886325,35.7631442 12.5373348,35.7631442"></path>
        <path id="path-24" d="M6.87189378,36.1521245 C7.18513578,35.612267 7.36825282,34.9887198 7.36825282,34.3209704 C7.36825282,34.0091968 7.32468157,33.7086212 7.25108147,33.4198328 L9.98900505,31.8379797 C10.6478731,32.4815652 11.5463831,32.8799753 12.5373348,32.8799753 C13.5294641,32.8799753 14.427974,32.4815652 15.0868421,31.8379797 L17.8247657,33.4198328 C17.7511656,33.7097999 17.7070055,34.0115543 17.7070055,34.3245066 C17.7070055,34.9910773 17.888945,35.6134457 18.2010094,36.1509457 L19.6247296,35.3281935 C19.4545662,35.0323328 19.3544701,34.6905016 19.3544701,34.3245066 C19.3544701,33.9585115 19.4545662,33.6166804 19.6247296,33.3208196 L14.2725306,30.2278372 C13.9251382,30.8272204 13.2798125,31.2303454 12.5373348,31.2303454 C11.7960346,31.2303454 11.150709,30.8272204 10.8027277,30.2290159 L5.45288392,33.3219984 C5.62245854,33.6166804 5.72137707,33.9573328 5.72137707,34.3209704 C5.72137707,34.6881442 5.62010334,35.0323328 5.44817352,35.3293723 L6.87189378,36.1521245"></path>
        <path d="M27.0224225,10.6485746 L28.4473204,9.82582237 C28.7935352,10.4263843 29.4412161,10.8318668 30.1848714,10.8318668 C30.9273492,10.8318668 31.57503,10.4263843 31.9224225,9.82582237 L37.2728551,12.9176261 C37.1009253,13.2134868 37.0014179,13.5564967 37.0014179,13.9224918 C37.0014179,14.2884868 37.1003365,14.6291393 37.2704999,14.9238213 L31.9218337,18.0168037 C31.57503,17.4156524 30.9273492,17.0095806 30.1842826,17.0095806 C29.4406273,17.0095806 28.7929464,17.4156524 28.4461428,18.0168037 L27.0224225,17.1946409 C27.6547945,16.1001919 28.8335737,15.3611294 30.1842826,15.3611294 C31.1752343,15.3611294 32.0749219,15.7595395 32.73379,16.403125 L35.4705359,14.8212719 C35.3969358,14.5336623 35.3539534,14.2330866 35.3539534,13.9224918 C35.3539534,13.6101288 35.3975246,13.3077851 35.4717135,13.0184073 L32.7355564,11.4371436 C32.0766883,12.0819079 31.1764119,12.4809073 30.1848714,12.4809073 C28.8341625,12.4809073 27.6553833,11.7418448 27.0224225,10.6485746 L27.0224225,10.6485746 Z M23.3671473,13.9224918 C23.3671473,14.2884868 23.2682288,14.630318 23.0968878,14.9261787 L24.5217856,15.7489309 C24.83385,15.2114309 25.0140231,14.5890625 25.0140231,13.9224918 C25.0140231,13.2570998 24.83385,12.634142 24.5211968,12.0954633 L23.0968878,12.9182155 C23.2682288,13.2146656 23.3671473,13.5564967 23.3671473,13.9224918 L23.3671473,13.9224918 Z" id="path-26"></path>
        <path d="M9.37724105,6.99746436 C10.0096131,5.90478344 11.1878034,5.16572094 12.5373348,5.16572094 C13.8868661,5.16572094 15.0650565,5.90478344 15.6980173,6.99628564 L14.2737082,7.82021656 C13.9263158,7.21965461 13.2804013,6.81535088 12.5373348,6.81535088 C11.7954458,6.81535088 11.1483538,7.22024397 10.8015501,7.82021656 L9.37724105,6.99746436 L9.37724105,6.99746436 Z M18.2015982,1.89651864 C17.888945,2.43519737 17.7064167,3.05815515 17.7064167,3.72590461 C17.7064167,4.39011787 17.8877674,5.01248629 18.1998318,5.55057566 L19.623552,4.7272341 C19.4527998,4.43137336 19.3538813,4.09072094 19.3538813,3.72590461 C19.3538813,3.35873081 19.4545662,3.01572094 19.6259072,2.7198602 L18.2015982,1.89651864 L18.2015982,1.89651864 Z" id="path-28"></path>
        <path id="path-30" d="M1.97778178,12.9217516 C2.32458544,12.3223684 2.97167748,11.916886 3.71415525,11.916886 C4.45663302,11.916886 5.10313627,12.3223684 5.45052872,12.9217516 L10.8021389,9.82759046 C10.6307979,9.53172971 10.5312906,9.18989857 10.5312906,8.82390351 C10.5312906,8.45790844 10.6307979,8.1160773 10.8015501,7.82021656 L9.37724105,6.99746436 C9.06576544,7.53614309 8.8844148,8.15851151 8.8844148,8.82390351 C8.8844148,9.13508772 8.92739726,9.43389529 9.00040856,9.72327303 L6.25954098,11.3068942 C5.60067292,10.6656661 4.70334054,10.2684348 3.71415525,10.2684348 C2.36462389,10.2684348 1.18643355,11.0063185 0.553472723,12.0989995 L1.97778178,12.9217516"></path>
        <path id="path-32" d="M39.0080509,10.2654879 C38.0176881,10.2654879 37.1197669,10.6621299 36.4608988,11.3057155 L33.7212088,9.72327303 C33.7953977,9.43389529 33.8383802,9.13508772 33.8383802,8.82390351 C33.8383802,8.15615406 33.655852,7.53378564 33.3431988,6.99510691 L31.9194785,7.8178591 C32.0908195,8.11371985 32.1909156,8.45672971 32.1909156,8.82390351 C32.1909156,9.18871985 32.0919971,9.52996162 31.9224225,9.82582237 L37.2728551,12.9176261 C37.6208363,12.3176535 38.266162,11.9133498 39.0080509,11.9133498 C39.7493511,11.9133498 40.3952656,12.3176535 40.742658,12.9164474 L42.1663783,12.0931058 C41.5334174,11.002193 40.3564047,10.2654879 39.0080509,10.2654879"></path>
        <path d="M33.3431988,6.99510691 L31.9194785,7.8178591 C31.572086,7.21965461 30.9255828,6.81535088 30.1848714,6.81535088 C29.4429825,6.81535088 28.797068,7.21965461 28.4490868,7.8178591 L27.0247777,6.99510691 C27.6583273,5.90360471 28.8359289,5.16572094 30.1848714,5.16572094 C31.5332252,5.16572094 32.7102379,5.90360471 33.3431988,6.99510691 L33.3431988,6.99510691 Z M23.3671473,3.72590461 C23.3671473,4.08954221 23.2688176,4.43137336 23.099243,4.72605537 L24.5223744,5.54939693 C24.8344388,5.01189693 25.0140231,4.39011787 25.0140231,3.72590461 C25.0140231,3.05815515 24.8326724,2.43401864 24.5200192,1.89533991 L23.0957102,2.7198602 C23.26764,3.01572094 23.3671473,3.35873081 23.3671473,3.72590461 L23.3671473,3.72590461 Z" id="path-34"></path>
        <path d="M31.9194785,40.4250137 C32.0908195,40.129153 32.1909156,39.7861431 32.1909156,39.420148 C32.1909156,39.0553317 32.0919971,38.7135005 31.9212449,38.4188185 L33.345554,37.5948876 C33.6564408,38.1323876 33.8383802,38.754756 33.8383802,39.420148 C33.8383802,40.0867188 33.655852,40.7108553 33.3431988,41.249534 L31.9194785,40.4250137 L31.9194785,40.4250137 Z M42.1681447,36.1479989 L40.7438356,35.3246573 C40.3964432,35.9246299 39.7499399,36.329523 39.0074621,36.329523 C38.2649844,36.329523 37.6190699,35.9246299 37.2716775,35.3246573 L35.8479572,36.1485883 C36.4803292,37.2400905 37.6585196,37.9779742 39.0074621,37.9779742 C40.3575823,37.9779742 41.5357727,37.2400905 42.1681447,36.1479989 L42.1681447,36.1479989 Z" id="path-36"></path>
        <path d="M0.556416727,36.1521245 L1.98072579,35.3293723 C2.32870704,35.9269874 2.97344388,36.329523 3.71415525,36.329523 C4.45427782,36.329523 5.10019226,35.9269874 5.44817352,35.3293723 L6.87189378,36.1521245 C6.23893295,37.2424479 5.06250901,37.9779742 3.71415525,37.9779742 C2.36697909,37.9779742 1.18996635,37.2424479 0.556416727,36.1521245 L0.556416727,36.1521245 Z M10.5312906,39.420148 C10.5312906,39.0553317 10.6296203,38.715858 10.7986061,38.421176 L9.37429704,37.5984238 C9.06399904,38.1359238 8.8844148,38.7559348 8.8844148,39.420148 C8.8844148,40.0878975 9.06635424,40.712034 9.38018505,41.2518914 L10.8044941,40.4273712 C10.6319755,40.1315104 10.5312906,39.7873218 10.5312906,39.420148 L10.5312906,39.420148 Z" id="path-38"></path>
        <path id="path-40" d="M1.70752223,34.3209704 C1.70752223,33.9573328 1.80526316,33.6166804 1.97483778,33.3219984 L0.550528719,32.4986568 C0.240819515,33.0361568 0.0606464792,33.6567571 0.0606464792,34.3209704 C0.0606464792,34.9887198 0.243174718,35.6134457 0.556416727,36.1521245 L1.98072579,35.3293723 C1.80820716,35.0323328 1.70752223,34.6893229 1.70752223,34.3209704"></path>
    </defs>
    <g id="Page-1" stroke="none" stroke-width="1" fill="none" fill-rule="evenodd" sketch:type="MSPage">
        <g id="Artboard-5" sketch:type="MSArtboardGroup" transform="translate(-5.000000, -4.000000)">
            <g id="Group-+-Теплица" sketch:type="MSLayerGroup" transform="translate(5.000000, 4.000000)">
                <g id="Group">
                    <mask id="mask-2" sketch:name="Clip 2" fill="white">
                        <use xlink:href="#path-1"></use>
                    </mask>
                    <use id="Clip-2" fill="#F38D06" sketch:type="MSShapeGroup" xlink:href="#path-1"></use>
                    <mask id="mask-4" sketch:name="Clip 5" fill="white">
                        <use xlink:href="#path-3"></use>
                    </mask>
                    <use id="Clip-5" fill="#DEDE02" sketch:type="MSShapeGroup" xlink:href="#path-3"></use>
                    <mask id="mask-6" sketch:name="Clip 8" fill="white">
                        <use xlink:href="#path-5"></use>
                    </mask>
                    <use id="Clip-8" fill="#DB9906" sketch:type="MSShapeGroup" xlink:href="#path-5"></use>
                    <mask id="mask-8" sketch:name="Clip 11" fill="white">
                        <use xlink:href="#path-7"></use>
                    </mask>
                    <use id="Clip-11" fill="#E6201E" sketch:type="MSShapeGroup" xlink:href="#path-7"></use>
                    <mask id="mask-10" sketch:name="Clip 14" fill="white">
                        <use xlink:href="#path-9"></use>
                    </mask>
                    <use id="Clip-14" fill="#BE0C39" sketch:type="MSShapeGroup" xlink:href="#path-9"></use>
                    <path d="M1.70752223,24.1232045 C1.70752223,23.7583882 1.80585196,23.416557 1.97601538,23.121875 L0.552295121,22.2991228 C0.241408315,22.8366228 0.0606464792,23.4578125 0.0606464792,24.1232045 C0.0606464792,24.7897752 0.242585917,25.4139117 0.555239125,25.9537692 L1.97954819,25.1292489 C1.80761836,24.8333882 1.70752223,24.4903783 1.70752223,24.1232045" id="Fill-16" fill="#B70E0B" sketch:type="MSShapeGroup"></path>
                    <mask id="mask-12" sketch:name="Clip 19" fill="white">
                        <use xlink:href="#path-11"></use>
                    </mask>
                    <use id="Clip-19" fill="#A9CA0F" sketch:type="MSShapeGroup" xlink:href="#path-11"></use>
                    <path d="M41.0140952,24.120847 C41.0140952,24.4868421 40.9145878,24.8286732 40.7438356,25.124534 L42.1681447,25.9478755 C42.4802091,25.4091968 42.6615597,24.786239 42.6615597,24.120847 C42.6615597,23.4542763 42.4802091,22.8307292 42.1675559,22.2932292 L40.7438356,23.1159814 C40.9145878,23.4118421 41.0140952,23.7536732 41.0140952,24.120847" id="Fill-21" fill="#00A8B0" sketch:type="MSShapeGroup"></path>
                    <mask id="mask-14" sketch:name="Clip 23" fill="white">
                        <use xlink:href="#path-13"></use>
                    </mask>
                    <use id="Clip-23" fill="#419F62" sketch:type="MSShapeGroup" xlink:href="#path-13"></use>
                    <g id="Fill-17">
                        <use fill="#E6005B" fill-rule="evenodd" sketch:type="MSShapeGroup" xlink:href="#path-15"></use>
                        <use fill="none" xlink:href="#path-15"></use>
                    </g>
                    <mask id="mask-17" sketch:name="Clip 26" fill="white">
                        <use xlink:href="#path-16"></use>
                    </mask>
                    <use id="Clip-26" fill="#168B8F" sketch:type="MSShapeGroup" xlink:href="#path-16"></use>
                    <mask id="mask-19" sketch:name="Clip 29" fill="white">
                        <use xlink:href="#path-18"></use>
                    </mask>
                    <use id="Clip-29" fill="#AF0E79" sketch:type="MSShapeGroup" xlink:href="#path-18"></use>
                    <mask id="mask-21" sketch:name="Clip 32" fill="white">
                        <use xlink:href="#path-20"></use>
                    </mask>
                    <use id="Clip-32" fill="#1269B6" sketch:type="MSShapeGroup" xlink:href="#path-20"></use>
                    <mask id="mask-23" sketch:name="Clip 35" fill="white">
                        <use xlink:href="#path-22"></use>
                    </mask>
                    <use id="Clip-35" fill="#702282" sketch:type="MSShapeGroup" xlink:href="#path-22"></use>
                    <mask id="mask-25" sketch:name="Clip 38" fill="white">
                        <use xlink:href="#path-24"></use>
                    </mask>
                    <use id="Clip-38" fill="#7F1F82" sketch:type="MSShapeGroup" xlink:href="#path-24"></use>
                    <mask id="mask-27" sketch:name="Clip 41" fill="white">
                        <use xlink:href="#path-26"></use>
                    </mask>
                    <use id="Clip-41" fill="#6EB62A" sketch:type="MSShapeGroup" xlink:href="#path-26"></use>
                    <mask id="mask-29" sketch:name="Clip 44" fill="white">
                        <use xlink:href="#path-28"></use>
                    </mask>
                    <use id="Clip-44" fill="#FFD102" sketch:type="MSShapeGroup" xlink:href="#path-28"></use>
                    <path d="M19.6259072,2.7198602 C19.9738885,2.11988761 20.6192141,1.71617325 21.3605143,1.71617325 C22.1018145,1.71617325 22.7483177,2.11988761 23.0957102,2.7198602 L24.5200192,1.89533991 C23.8864696,0.804427083 22.7094569,0.0677220395 21.3605143,0.0677220395 C20.0121605,0.0677220395 18.834559,0.804427083 18.2015982,1.89651864 L19.6259072,2.7198602" id="Fill-46" fill="#DEDC00" sketch:type="MSShapeGroup"></path>
                    <mask id="mask-31" sketch:name="Clip 48" fill="white">
                        <use xlink:href="#path-30"></use>
                    </mask>
                    <use id="Clip-48" fill="#F7AB02" sketch:type="MSShapeGroup" xlink:href="#path-30"></use>
                    <path d="M1.70752223,13.926028 C1.70752223,13.5594435 1.80702956,13.2176124 1.97778178,12.9217516 L0.553472723,12.0989995 C0.241997116,12.6376782 0.0606464792,13.260636 0.0606464792,13.926028 C0.0606464792,14.5920093 0.241997116,15.2149671 0.554061524,15.7536458 L1.97778178,14.9297149 C1.80702956,14.6338542 1.70752223,14.292023 1.70752223,13.926028" id="Fill-50" fill="#ED6607" sketch:type="MSShapeGroup"></path>
                    <mask id="mask-33" sketch:name="Clip 52" fill="white">
                        <use xlink:href="#path-32"></use>
                    </mask>
                    <use id="Clip-52" fill="#DCDD02" sketch:type="MSShapeGroup" xlink:href="#path-32"></use>
                    <path d="M41.0140952,13.9224918 C41.0140952,14.2884868 40.9151766,14.6291393 40.745602,14.9238213 L42.1693223,15.7465735 C42.4802091,15.2102522 42.6615597,14.5878838 42.6615597,13.9224918 C42.6615597,13.2559211 42.4790315,12.6317845 42.1663783,12.0931058 L40.7420692,12.9164474 C40.913999,13.2134868 41.0140952,13.555318 41.0140952,13.9224918" id="Fill-54" fill="#76B82A" sketch:type="MSShapeGroup"></path>
                    <mask id="mask-35" sketch:name="Clip 56" fill="white">
                        <use xlink:href="#path-34"></use>
                    </mask>
                    <use id="Clip-56" fill="#B8CF09" sketch:type="MSShapeGroup" xlink:href="#path-34"></use>
                    <mask id="mask-37" sketch:name="Clip 59" fill="white">
                        <use xlink:href="#path-36"></use>
                    </mask>
                    <use id="Clip-59" fill="#0E70BC" sketch:type="MSShapeGroup" xlink:href="#path-36"></use>
                    <mask id="mask-39" sketch:name="Clip 63" fill="white">
                        <use xlink:href="#path-38"></use>
                    </mask>
                    <use id="Clip-63" fill="#B80D79" sketch:type="MSShapeGroup" xlink:href="#path-38"></use>
                    <path d="M41.0140952,34.3209704 C41.0140952,34.6869655 40.9145878,35.0287966 40.7438356,35.3246573 L42.1681447,36.1479989 C42.4802091,35.6099095 42.6615597,34.9863624 42.6615597,34.3209704 C42.6615597,33.6555784 42.4802091,33.0314419 42.1675559,32.4939419 L40.7432468,33.3172834 C40.9145878,33.6131442 41.0140952,33.9549753 41.0140952,34.3209704" id="Path" fill="#0090D7" sketch:type="MSShapeGroup"></path>
                    <mask id="mask-41" sketch:name="Clip 66" fill="white">
                        <use xlink:href="#path-40"></use>
                    </mask>
                    <use id="Clip-66" fill="#C52987" sketch:type="MSShapeGroup" xlink:href="#path-40"></use>
                    <path d="M41.7371425,54.0564145 L22.3496996,54.0564145 L22.3496996,45.0892407 L27.6353641,42.0357456 C28.294821,42.6793311 29.1933309,43.0771519 30.1848714,43.0771519 C31.5332252,43.0771519 32.7108267,42.3404468 33.3431988,41.249534 L31.9194785,40.4250137 C31.572086,41.0249863 30.9255828,41.42929 30.1848714,41.42929 C29.4429825,41.42929 28.797068,41.0249863 28.4490868,40.4250137 C28.2777457,40.129153 28.1776496,39.7861431 28.1776496,39.420148 C28.1776496,39.0553317 28.2765681,38.7135005 28.4473204,38.4188185 L27.0224225,37.5960663 C26.7115357,38.1335663 26.5307739,38.754756 26.5307739,39.420148 C26.5307739,39.732511 26.5743451,40.0324973 26.6479452,40.321875 L22.3496996,42.805455 L22.3496996,37.8412418 C23.2741168,37.5807429 24.0495674,36.9636787 24.5217856,36.1509457 L23.0974766,35.3281935 C22.7506729,35.9275768 22.1041697,36.3330592 21.3611031,36.3330592 C20.6192141,36.3330592 19.9721221,35.9275768 19.6247296,35.3281935 L18.2010094,36.1509457 C18.6738164,36.9636787 19.4486782,37.5807429 20.3736842,37.8412418 L20.3730954,42.8042763 L16.0754386,40.3195175 C16.1484499,40.0313185 16.1914323,39.7313322 16.1914323,39.420148 C16.1914323,38.7559348 16.0106705,38.1347451 15.7003725,37.5972451 L14.2760634,38.4199973 C14.4456381,38.7146793 14.5439678,39.0553317 14.5439678,39.420148 C14.5439678,39.7873218 14.4438717,40.1315104 14.271353,40.4273712 C13.9239606,41.026165 13.2780461,41.42929 12.5373348,41.42929 C11.7972122,41.42929 11.1518866,41.026165 10.8044941,40.4273712 L9.38018505,41.2518914 C10.0131459,42.3404468 11.1901586,43.0771519 12.5373348,43.0771519 C13.5294641,43.0771519 14.4291516,42.6781524 15.0880197,42.0345669 L20.3730954,45.0892407 L20.3730954,54.0564145 L0.985063687,54.0564145 C0.621184811,54.0564145 0.326195626,54.3522752 0.326195626,54.7159128 C0.326195626,55.0813185 0.621184811,55.3760005 0.985063687,55.3760005 L20.3371786,55.3760005 C20.2288392,56.0189967 19.9362052,56.7657209 19.2378875,57.419915 C17.9843307,58.5962856 15.7568974,59.1155154 12.7934631,58.9210252 C11.3921173,58.8308525 10.1956741,58.9186678 9.17704879,59.1267133 C9.11757991,59.127892 9.05811103,59.1385005 8.99923095,59.1626645 C8.99393175,59.1650219 8.99039894,59.1673794 8.98509974,59.1697368 C5.5906633,59.934142 4.24819755,62.0876782 4.00561163,63.5410499 C3.96086277,63.8109786 4.14280221,64.0649945 4.41129536,64.1097862 C4.438969,64.1145011 4.46664263,64.1168586 4.49372747,64.1168586 C4.73042538,64.1168586 4.94062725,63.9453536 4.98066571,63.7037144 C4.99832973,63.5952714 5.29802932,61.9745203 7.1986782,60.8753564 C7.03204758,61.3533306 6.98847633,61.8702029 6.94608267,62.398273 C6.88484739,63.1556058 6.8159577,64.0119518 6.36081471,64.9490406 C6.24128815,65.1953947 6.34315068,65.4912555 6.58868061,65.6108964 C6.6587479,65.6444901 6.73234799,65.660403 6.80477049,65.660403 C6.98788753,65.660403 7.16393896,65.5578536 7.24872627,65.3822231 C7.78630137,64.2777549 7.86578947,63.2799616 7.93114636,62.4778372 C8.02770969,61.2796601 8.08246816,60.6154468 9.34485701,60.0903235 C9.78881279,59.9995614 10.2775174,59.934142 10.8150925,59.8993695 C10.2439558,60.6013021 10.1179524,61.5719846 9.98959385,62.5780291 C9.80471041,64.0272752 9.57566691,65.8307292 8.0388969,67.651864 C7.86284547,67.8604989 7.8893415,68.1722725 8.09777698,68.3484923 C8.1902187,68.4268777 8.30326845,68.4657758 8.41631819,68.4657758 C8.55704158,68.4657758 8.69599856,68.40625 8.79373949,68.2895559 C10.5189257,66.2462308 10.7691661,64.2812911 10.9699471,62.7023849 C11.1907474,60.9661184 11.3532564,60.1787281 12.7981735,59.9117462 C16.0512978,60.1121299 18.4447729,59.5192297 19.9138308,58.1412966 C20.0680966,57.996313 20.2064648,57.8401316 20.3383562,57.6786458 C19.9332612,58.8550164 19.1030522,60.1905154 17.3961187,61.6315104 C17.3961187,61.6315104 17.3955299,61.6326891 17.3949411,61.6326891 C16.3139029,62.5444353 15.3977289,63.0854715 14.5898943,63.5634457 C13.0584235,64.4692982 11.9520668,65.1240817 11.5522711,67.394312 C11.505167,67.6636513 11.6853401,67.9200247 11.9538332,67.9671738 C11.9832733,67.9730674 12.0109469,67.9754249 12.0397981,67.9754249 C12.2753184,67.9754249 12.4837539,67.8062774 12.5255588,67.5658169 C12.8458664,65.7435033 13.6442802,65.2726014 15.0927301,64.4150768 C15.2252103,64.3366913 15.3671113,64.2530016 15.5107787,64.1663651 C15.1857606,64.9378427 15.0208964,65.7022478 14.8672194,66.4212719 C14.513939,68.0756168 14.209529,69.5030565 12.2582432,70.7831552 C12.0303773,70.9328536 11.966198,71.2387336 12.1157534,71.4679962 C12.2105503,71.6129797 12.3689378,71.6913651 12.5296804,71.6913651 C12.6221221,71.6913651 12.716919,71.6648438 12.7999399,71.6106223 C15.0915525,70.1071546 15.4689738,68.3378838 15.8340303,66.6287281 C15.8758351,66.4318805 15.9170512,66.2385691 15.9612112,66.0452577 C16.0660178,66.5697917 16.2173396,67.0866639 16.3645398,67.5864446 C16.6895578,68.6891447 17.0251742,69.8301535 16.8361692,70.9051535 C16.7890651,71.1744929 16.9680606,71.4308662 17.2371425,71.4780154 C17.2659938,71.4827303 17.294845,71.4850877 17.3236962,71.4850877 C17.5586277,71.4850877 17.767652,71.317119 17.8094569,71.0766584 C18.0390892,69.7723958 17.6693223,68.5188185 17.3119202,67.305318 C16.7666907,65.4547149 16.2950613,63.8545916 18.0332012,62.3876645 L18.03379,62.3876645 C19.4904831,61.1576617 20.3689738,59.9777549 20.9000721,58.8956826 C21.0113554,60.1905154 21.1614996,61.3303454 21.3151766,62.3546601 C21.6649243,64.7050439 21.0831891,65.4258361 20.4090123,66.2603755 C19.733069,67.0972725 18.9664504,68.0443805 19.112473,70.4560581 C19.1283706,70.7183251 19.3462269,70.9210663 19.605888,70.9210663 C19.6158976,70.9210663 19.6259072,70.9210663 19.6359168,70.9198876 C19.9085316,70.9039748 20.1157895,70.6688185 20.0993031,70.395943 C19.9762437,68.3679413 20.5597453,67.6459704 21.1773973,66.8815652 C21.4093848,66.5951343 21.6449051,66.3039885 21.8462749,65.9562637 C22.1495073,68.6820724 21.8721822,70.7749041 19.4834174,74.1360471 C19.32503,74.3582374 19.3768445,74.6664748 19.5994112,74.8256031 C19.6865537,74.8880757 19.786061,74.9163651 19.8855684,74.9163651 C20.0398342,74.9163651 20.1923336,74.8450521 20.2883081,74.7094984 C23.5396659,70.1348547 23.1451694,67.6300576 22.4898342,63.4827029 C22.2725667,62.1047697 22.0217376,60.5152549 21.8657054,58.5780154 C22.4079909,59.7095943 23.1445806,60.5565104 23.8346551,61.3462582 C25.5769166,63.338898 27.0813026,65.0586623 24.8691781,70.8073191 C24.7708484,71.0625137 24.8980293,71.3483553 25.1529801,71.4473684 C25.2106825,71.4691749 25.2707402,71.4803728 25.3302091,71.4803728 C25.5286349,71.4803728 25.7158736,71.3595532 25.7918289,71.1627056 C26.9335136,68.1940789 27.1278178,66.15429 26.8275294,64.6131031 C27.5070055,65.4995066 27.9515501,66.7012198 27.7107306,68.9702714 C27.6818794,69.2413788 27.8791276,69.4859649 28.149976,69.5142544 C28.16764,69.5154331 28.1847152,69.5166118 28.2023792,69.5166118 C28.4520308,69.5166118 28.6657654,69.3291941 28.6928503,69.0745888 C28.779404,68.2618558 28.779404,67.5705318 28.7199351,66.9611294 C29.3534847,67.6117873 30.0447368,68.2170641 30.6223504,68.5429825 C30.6988945,68.5854167 30.7819154,68.6060444 30.8643475,68.6060444 C31.0368661,68.6060444 31.2046744,68.5152823 31.2953497,68.354386 C31.4290075,68.1156935 31.3448089,67.8139391 31.1069334,67.6807429 C30.0806537,67.1019874 28.4626292,65.3162144 27.9138669,64.4415981 C27.9056236,64.4280428 27.8962028,64.4174342 27.886782,64.4056469 C27.4704999,63.7532209 26.9600096,63.2664063 26.4730714,62.8072917 C26.1086037,62.461335 25.7647441,62.1371848 25.4697549,61.7546875 C25.4650445,61.7493832 25.4591565,61.7446683 25.454446,61.7399534 C25.1735881,61.3774945 24.8750661,61.0344846 24.5783105,60.6944216 C23.8599736,59.8740269 23.128683,59.0335938 22.6364456,57.8837445 C23.6862773,58.8037418 25.2854602,59.1455729 27.0018145,59.3388843 C27.0071137,59.340063 27.0118241,59.3412418 27.0183009,59.3418311 C29.438272,59.6094024 29.7880197,61.3574561 30.1931146,63.3813322 C30.3621005,64.2264803 30.5369743,65.1022752 30.8849555,65.8631442 C30.9679764,66.0440789 31.1469719,66.1519326 31.3347993,66.1519326 C31.403689,66.1519326 31.4731675,66.1371985 31.539702,66.1071409 C31.7881759,65.9933936 31.8971041,65.6998904 31.7834655,65.4511787 C31.4843547,64.7952166 31.3277337,64.0131305 31.1622807,63.1868421 C31.0710166,62.7289063 30.9738645,62.2591831 30.8508051,61.7983004 C31.2664984,62.0140077 31.7010334,62.1914062 32.1302692,62.3640899 C33.2642994,62.8196683 34.2434751,63.2133635 34.6609349,64.2306058 C34.7392454,64.4233279 34.92354,64.5382538 35.1184331,64.5382538 C35.1802571,64.5382538 35.2438476,64.5264666 35.3050829,64.5017133 C35.5582672,64.3979852 35.6789714,64.1086075 35.5753425,63.8557703 C34.9994953,62.4513158 33.7282745,61.9391584 32.4982696,61.4452714 C31.5167388,61.0503975 30.5893776,60.67733 29.997044,59.8763843 C29.9234439,59.7761924 29.8439558,59.6795367 29.7603461,59.5864172 C32.8621485,59.869312 35.8408916,60.4044545 36.6693343,63.4644326 C36.7288032,63.6854441 36.9278178,63.8304276 37.1456741,63.8304276 C37.1886566,63.8304276 37.231639,63.824534 37.2757991,63.8133361 C37.5384042,63.7414337 37.6944364,63.4703262 37.6226027,63.2051124 C36.5239005,59.1443942 32.4370344,58.8090461 28.8312185,58.5131853 C25.1311944,58.2108416 22.7583273,57.8754934 22.4174117,55.3760005 L41.7371425,55.3760005 C42.1010214,55.3760005 42.3960106,55.0813185 42.3960106,54.7159128 C42.3960106,54.3522752 42.1010214,54.0564145 41.7371425,54.0564145" id="Fill-68" fill="#213A8F" sketch:type="MSShapeGroup"></path>
                </g>
                <path d="M66.252,12.984 L66.252,12.032 L59.42,12.032 L59.42,12.984 L62.304,12.984 L62.304,22 L63.368,22 L63.368,12.984 L66.252,12.984 Z M73.8645,22 L73.8645,21.048 L68.7405,21.048 L68.7405,17.45 L73.1085,17.45 L73.1085,16.498 L68.7405,16.498 L68.7405,12.984 L73.8645,12.984 L73.8645,12.032 L67.6765,12.032 L67.6765,22 L73.8645,22 Z M82.485,22 L82.485,12.032 L75.639,12.032 L75.639,22 L76.703,22 L76.703,12.984 L81.421,12.984 L81.421,22 L82.485,22 Z M91.5395,22 L91.5395,12.032 L86.0515,12.032 L86.0515,16.078 C86.0515,20.222 85.1695,21.048 83.9375,21.048 L83.6715,21.048 L83.6715,22 L84.1755,22 C86.0795,22 87.0875,20.6 87.0875,16.4 L87.0875,12.984 L90.4755,12.984 L90.4755,22 L91.5395,22 Z M101.126,22 L101.126,12.032 L100.118,12.032 L95.05,20.152 L95.05,12.032 L93.986,12.032 L93.986,22 L94.994,22 L100.062,13.866 L100.062,22 L101.126,22 Z M111.6085,24.408 L111.6085,21.048 L110.4185,21.048 L110.4185,12.032 L109.3545,12.032 L109.3545,21.048 L104.6365,21.048 L104.6365,12.032 L103.5725,12.032 L103.5725,22 L110.5585,22 L110.5585,24.408 L111.6085,24.408 Z M120.131,22 L116.477,12.032 L115.581,12.032 L111.913,22 L113.047,22 L113.845,19.746 L118.199,19.746 L118.997,22 L120.131,22 Z M117.891,18.822 L114.167,18.822 L116.043,13.558 L117.891,18.822 Z M67.008,38.116 L65.944,38.116 C65.678,39.334 64.796,40.132 63.55,40.132 C62.892,40.132 62.262,39.88 61.828,39.432 C61.198,38.788 61.128,38.102 61.128,36.016 C61.128,33.93 61.198,33.244 61.828,32.6 C62.262,32.152 62.892,31.9 63.55,31.9 C64.796,31.9 65.65,32.698 65.916,33.916 L67.008,33.916 C66.672,32.04 65.342,30.948 63.55,30.948 C62.57,30.948 61.674,31.312 61.002,31.984 C60.064,32.922 60.064,33.902 60.064,36.016 C60.064,38.13 60.064,39.11 61.002,40.048 C61.674,40.72 62.57,41.084 63.55,41.084 C65.328,41.084 66.686,39.992 67.008,38.116 L67.008,38.116 Z M75.2365,35.33 C75.2365,34.112 75.1665,32.852 74.2985,31.984 C73.6265,31.312 72.7305,30.948 71.7505,30.948 C70.7705,30.948 69.8745,31.312 69.2025,31.984 C68.3485,32.838 68.2645,34.056 68.2645,35.246 L68.2645,36.016 C68.2645,38.004 68.2925,39.138 69.2025,40.048 C69.8745,40.72 70.7565,41.084 71.7505,41.084 C72.7445,41.084 73.6265,40.72 74.2985,40.048 C75.2085,39.138 75.2365,38.004 75.2365,36.016 L75.2365,35.33 Z M74.1725,36.506 C74.1725,37.654 74.1585,38.732 73.4725,39.418 C73.0105,39.88 72.4085,40.132 71.7505,40.132 C71.0925,40.132 70.4905,39.88 70.0285,39.418 C69.3845,38.774 69.3285,37.794 69.3285,36.716 L69.3285,35.722 C69.3285,34.35 69.3285,33.314 70.0285,32.614 C70.4905,32.152 71.1065,31.9 71.7505,31.9 C72.3945,31.9 73.0105,32.152 73.4725,32.614 C74.1305,33.272 74.1725,34.308 74.1725,35.484 L74.1725,36.506 Z M85.341,43.408 L85.341,40.048 L84.151,40.048 L84.151,31.032 L83.087,31.032 L83.087,40.048 L78.369,40.048 L78.369,31.032 L77.305,31.032 L77.305,41 L84.291,41 L84.291,43.408 L85.341,43.408 Z M94.0595,41 L94.0595,31.032 L93.0515,31.032 L87.9835,39.152 L87.9835,31.032 L86.9195,31.032 L86.9195,41 L87.9275,41 L92.9955,32.866 L92.9955,41 L94.0595,41 Z M103.45,41 L99.796,31.032 L98.9,31.032 L95.232,41 L96.366,41 L97.164,38.746 L101.518,38.746 L102.316,41 L103.45,41 Z M101.21,37.822 L97.486,37.822 L99.362,32.558 L101.21,37.822 Z M111.2165,41 L111.2165,31.032 L105.7285,31.032 L105.7285,35.078 C105.7285,39.222 104.8465,40.048 103.6145,40.048 L103.3485,40.048 L103.3485,41 L103.8525,41 C105.7565,41 106.7645,39.6 106.7645,35.4 L106.7645,31.984 L110.1525,31.984 L110.1525,41 L111.2165,41 Z M120.481,38.074 C120.481,36.31 119.263,35.134 117.401,35.134 L114.727,35.134 L114.727,31.032 L113.663,31.032 L113.663,41 L117.401,41 C119.249,41 120.481,39.824 120.481,38.074 L120.481,38.074 Z M119.403,38.074 C119.403,39.32 118.633,40.048 117.303,40.048 L114.727,40.048 L114.727,36.086 L117.303,36.086 C118.633,36.086 119.403,36.814 119.403,38.074 L119.403,38.074 Z M128.9055,41 L128.9055,31.032 L127.8415,31.032 L127.8415,35.498 L123.1095,35.498 L123.1095,31.032 L122.0455,31.032 L122.0455,41 L123.1095,41 L123.1095,36.45 L127.8415,36.45 L127.8415,41 L128.9055,41 Z M140.564,41 L140.564,31.032 L139.5,31.032 L139.5,41 L140.564,41 Z M138.17,38.074 C138.17,36.31 136.952,35.134 135.09,35.134 L132.416,35.134 L132.416,31.032 L131.352,31.032 L131.352,41 L135.09,41 C136.938,41 138.17,39.824 138.17,38.074 L138.17,38.074 Z M137.092,38.074 C137.092,39.32 136.322,40.048 134.992,40.048 L132.416,40.048 L132.416,36.086 L134.992,36.086 C136.322,36.086 137.092,36.814 137.092,38.074 L137.092,38.074 Z M149.0725,41 L145.9925,35.89 L148.8625,31.032 L147.6305,31.032 L145.4185,34.966 L143.2065,31.032 L141.9745,31.032 L144.8305,35.89 L141.7785,41 L142.9825,41 L145.4185,36.814 L147.8405,41 L149.0725,41 Z M66.252,50.984 L66.252,50.032 L59.42,50.032 L59.42,50.984 L62.304,50.984 L62.304,60 L63.368,60 L63.368,50.984 L66.252,50.984 Z M73.8645,60 L73.8645,59.048 L68.7405,59.048 L68.7405,55.45 L73.1085,55.45 L73.1085,54.498 L68.7405,54.498 L68.7405,50.984 L73.8645,50.984 L73.8645,50.032 L67.6765,50.032 L67.6765,60 L73.8645,60 Z M81.701,60 L78.621,54.89 L81.491,50.032 L80.259,50.032 L78.047,53.966 L75.835,50.032 L74.603,50.032 L77.459,54.89 L74.407,60 L75.611,60 L78.047,55.814 L80.469,60 L81.701,60 Z M89.7755,60 L89.7755,50.032 L88.7115,50.032 L88.7115,54.498 L83.9795,54.498 L83.9795,50.032 L82.9155,50.032 L82.9155,60 L83.9795,60 L83.9795,55.45 L88.7115,55.45 L88.7115,60 L89.7755,60 Z M98.816,54.33 C98.816,53.112 98.746,51.852 97.878,50.984 C97.206,50.312 96.31,49.948 95.33,49.948 C94.35,49.948 93.454,50.312 92.782,50.984 C91.928,51.838 91.844,53.056 91.844,54.246 L91.844,55.016 C91.844,57.004 91.872,58.138 92.782,59.048 C93.454,59.72 94.336,60.084 95.33,60.084 C96.324,60.084 97.206,59.72 97.878,59.048 C98.788,58.138 98.816,57.004 98.816,55.016 L98.816,54.33 Z M97.752,55.506 C97.752,56.654 97.738,57.732 97.052,58.418 C96.59,58.88 95.988,59.132 95.33,59.132 C94.672,59.132 94.07,58.88 93.608,58.418 C92.964,57.774 92.908,56.794 92.908,55.716 L92.908,54.722 C92.908,53.35 92.908,52.314 93.608,51.614 C94.07,51.152 94.686,50.9 95.33,50.9 C95.974,50.9 96.59,51.152 97.052,51.614 C97.71,52.272 97.752,53.308 97.752,54.484 L97.752,55.506 Z M107.1985,60 L107.1985,50.032 L101.7105,50.032 L101.7105,54.078 C101.7105,58.222 100.8285,59.048 99.5965,59.048 L99.3305,59.048 L99.3305,60 L99.8345,60 C101.7385,60 102.7465,58.6 102.7465,54.4 L102.7465,50.984 L106.1345,50.984 L106.1345,60 L107.1985,60 Z M116.239,54.33 C116.239,53.112 116.169,51.852 115.301,50.984 C114.629,50.312 113.733,49.948 112.753,49.948 C111.773,49.948 110.877,50.312 110.205,50.984 C109.351,51.838 109.267,53.056 109.267,54.246 L109.267,55.016 C109.267,57.004 109.295,58.138 110.205,59.048 C110.877,59.72 111.759,60.084 112.753,60.084 C113.747,60.084 114.629,59.72 115.301,59.048 C116.211,58.138 116.239,57.004 116.239,55.016 L116.239,54.33 Z M115.175,55.506 C115.175,56.654 115.161,57.732 114.475,58.418 C114.013,58.88 113.411,59.132 112.753,59.132 C112.095,59.132 111.493,58.88 111.031,58.418 C110.387,57.774 110.331,56.794 110.331,55.716 L110.331,54.722 C110.331,53.35 110.331,52.314 111.031,51.614 C111.493,51.152 112.109,50.9 112.753,50.9 C113.397,50.9 114.013,51.152 114.475,51.614 C115.133,52.272 115.175,53.308 115.175,54.484 L115.175,55.506 Z M124.3975,50.984 L124.3975,50.032 L118.4055,50.032 L118.4055,60 L119.4695,60 L119.4695,50.984 L124.3975,50.984 Z M132.976,60 L132.976,50.032 L131.968,50.032 L126.9,58.152 L126.9,50.032 L125.836,50.032 L125.836,60 L126.844,60 L131.912,51.866 L131.912,60 L132.976,60 Z M142.5625,60 L142.5625,50.032 L141.5545,50.032 L136.4865,58.152 L136.4865,50.032 L135.4225,50.032 L135.4225,60 L136.4305,60 L141.4985,51.866 L141.4985,60 L142.5625,60 Z M141.0365,47.638 L140.1405,47.638 C140.0845,48.324 139.6785,48.674 138.9925,48.674 C138.3065,48.674 137.9005,48.324 137.8445,47.638 L136.9485,47.638 C137.0325,48.884 137.8305,49.402 138.9925,49.402 C140.1545,49.402 140.9525,48.884 141.0365,47.638 L141.0365,47.638 Z" id="Теплица" fill="#444444" sketch:type="MSShapeGroup"></path>
            </g>
        </g>
    </g>
</svg>