<svg xmlns="http://www.w3.org/2000/svg"><symbol id="icon-add-cal" viewBox="0 0 18 20"><path d="M16 18V6H2v12h14zM13 0h2v2h1a2 2 0 0 1 2 2v14a2 2 0 0 1-2 2H2a2 2 0 0 1-2-2V4c0-1.11.89-2 2-2h1V0h2v2h8V0zM8 8h2v3h3v2h-3v3H8v-3H5v-2h3V8z"/></symbol><symbol id="pic-logo-small" viewBox="0 0 72 72"><path d="M48 24V0H24v24H0v24h24v24h24V48h24V24H48z" fill="#D82332" fill-rule="evenodd"/></symbol><symbol id="icon-close" viewBox="0 0 14 14"><path d="M14 1.41L12.59 0 7 5.59 1.41 0 0 1.41 5.59 7 0 12.59 1.41 14 7 8.41 12.59 14 14 12.59 8.41 7 14 1.41z"/></symbol><symbol id="pic-logo" viewBox="0 0 1075 1075"><g fill="#D82332" fill-rule="evenodd"><path d="M648 431V215H432v216H216v216h216v216h216V647h216V431zM109.817 435.756l21.927 4.262c4.277.832 7.02 1.093 8.23.783 1.21-.308 2.276-1.07 3.198-2.282.922-1.213 1.73-3.608 2.426-7.185l2.157.42-7.81 40.18-2.158-.418c.71-3.655.852-6.2.425-7.634-.427-1.434-1.134-2.52-2.12-3.256-.987-.737-3.62-1.52-7.896-2.352l-51.32-9.976c-4.277-.83-7.02-1.092-8.23-.782-1.21.31-2.274 1.06-3.192 2.254-.918 1.193-1.728 3.598-2.43 7.214l-2.16-.42 6.7-34.466c2.207-11.353 5.812-19.105 10.815-23.256 5.003-4.152 10.537-5.638 16.602-4.46 5.132.998 9.215 3.446 12.25 7.345 3.035 3.898 4.67 8.775 4.903 14.63.2 3.953-.573 10.42-2.318 19.4zm-38.724-7.527l34.175 6.642c.327-1.268.555-2.232.683-2.893.923-4.745.224-8.673-2.096-11.787-2.32-3.114-6.434-5.245-12.344-6.394-5.87-1.142-10.416-.694-13.637 1.343-3.22 2.037-5.325 5.602-6.315 10.695l-.465 2.39zM125.017 742.82l-20.407 9.086c-3.98 1.772-6.377 3.132-7.19 4.08-.815.947-1.25 2.182-1.31 3.704-.06 1.523.65 3.948 2.133 7.277l-2.008.894-16.65-37.394 2.01-.894c1.514 3.4 2.857 5.567 4.03 6.497 1.173.93 2.375 1.413 3.605 1.45 1.23.038 3.836-.83 7.816-2.6l47.76-21.266c3.98-1.772 6.378-3.132 7.192-4.08.814-.947 1.254-2.173 1.322-3.677.067-1.504-.648-3.938-2.147-7.303l2.008-.894 14.283 32.075c4.704 10.566 6.197 18.984 4.48 25.254-1.717 6.27-5.398 10.662-11.042 13.175-4.776 2.126-9.525 2.463-14.247 1.01-4.722-1.452-8.858-4.51-12.408-9.173-2.43-3.123-5.507-8.863-9.228-17.22zm36.037-16.044l-31.804 14.16c.46 1.226.826 2.147 1.1 2.762 1.965 4.414 4.79 7.23 8.477 8.45 3.687 1.22 8.28.607 13.78-1.84 5.463-2.434 8.93-5.408 10.4-8.924 1.47-3.516 1.15-7.643-.962-12.383l-.99-2.224zM822.716 906.703l13.753 17.603c2.68 3.433 4.58 5.43 5.696 5.99 1.117.56 2.42.685 3.912.375 1.49-.31 3.673-1.587 6.544-3.83l1.353 1.732-32.256 25.2-1.354-1.73c2.934-2.293 4.71-4.12 5.33-5.484.618-1.363.796-2.646.535-3.85-.26-1.202-1.732-3.52-4.415-6.954l-32.187-41.198c-2.682-3.433-4.582-5.43-5.698-5.99-1.116-.56-2.412-.69-3.888-.392-1.476.298-3.665 1.58-6.567 3.85l-1.354-1.733 27.67-21.616c9.113-7.12 16.92-10.606 23.42-10.457 6.5.15 11.65 2.658 15.455 7.527 3.22 4.12 4.694 8.646 4.427 13.58-.267 4.933-2.233 9.686-5.898 14.258-2.443 3.115-7.268 7.488-14.478 13.12zm-24.287-31.086l21.433 27.435c1.08-.743 1.883-1.32 2.414-1.736 3.808-2.975 5.857-6.398 6.15-10.27.29-3.872-1.416-8.18-5.122-12.924-3.682-4.713-7.407-7.357-11.173-7.933-3.767-.576-7.695.733-11.783 3.928l-1.92 1.5zM111.526 297.403c5.135-12.168 13.155-20.26 24.062-24.275 10.906-4.016 21.934-3.424 33.083 1.775 9.526 4.44 16.607 11.136 21.243 20.085 6.156 11.86 6.092 24.527-.192 38.002-6.3 13.512-15.75 21.825-28.348 24.94-9.956 2.458-19.9 1.372-29.83-3.26-11.15-5.198-18.674-13.325-22.575-24.38-3.902-11.056-3.05-22.018 2.56-32.887zm3.854.988c-3.202 6.868-2.13 13.727 3.214 20.58 4.4 5.6 11.988 10.916 22.77 15.943 12.81 5.973 23.33 8.137 31.557 6.49 5.747-1.14 9.937-4.535 12.57-10.184 1.774-3.803 2.33-7.408 1.673-10.816-.847-4.35-3.443-8.64-7.786-12.868-4.344-4.228-10.687-8.287-19.03-12.177-9.932-4.632-17.792-7.174-23.58-7.626-5.79-.452-10.367.28-13.732 2.193-3.365 1.914-5.916 4.736-7.655 8.464zM233.79 150.843l18.58 22.143-1.838 1.54c-6.232-4.618-12.523-6.886-18.875-6.8-6.35.083-11.914 2.13-16.688 6.135-3.99 3.348-6.687 7.564-8.092 12.65-1.406 5.087-1.323 10.13.248 15.126 2 6.403 5.44 12.51 10.314 18.32 4.797 5.717 9.887 10.316 15.272 13.8 5.385 3.483 10.624 5.134 15.718 4.954 5.095-.18 10.09-2.325 14.99-6.437 4.02-3.373 6.966-7.342 8.835-11.908 1.87-4.566 2.85-10.555 2.947-17.967l4.625 5.512c-.444 6.742-1.9 12.58-4.37 17.515-2.47 4.935-6.294 9.577-11.476 13.925-6.815 5.72-14.015 9.433-21.6 11.14-7.585 1.71-14.963 1.21-22.132-1.5-7.17-2.707-13.18-6.95-18.03-12.73-5.11-6.092-8.367-13.21-9.764-21.35-1.398-8.14-.653-15.99 2.235-23.55 2.887-7.562 7.377-13.9 13.47-19.012 4.492-3.77 10.05-6.774 16.68-9.017 3.837-1.293 6.15-2.27 6.934-2.93 1.005-.842 1.567-1.942 1.686-3.3.12-1.357-.384-2.93-1.508-4.715l1.837-1.542zM306.084 892.98l-18.038 21.496-1.783-1.497c3.366-6.738 4.473-13.135 3.32-19.193-1.15-6.06-4.043-11.033-8.678-14.922-3.873-3.25-8.36-5.117-13.46-5.603-5.1-.486-9.905.443-14.418 2.787-5.785 2.992-11.044 7.308-15.777 12.95-4.657 5.55-8.196 11.19-10.618 16.927-2.423 5.735-3.12 11.023-2.088 15.863 1.03 4.84 3.925 9.256 8.682 13.247 3.903 3.275 8.194 5.42 12.874 6.44 4.68 1.016 10.572.945 17.676-.213l-4.49 5.35c-6.522.713-12.35.305-17.484-1.224-5.134-1.528-10.217-4.403-15.248-8.625-6.617-5.552-11.38-11.81-14.293-18.774-2.91-6.963-3.677-14.1-2.296-21.412 1.38-7.31 4.424-13.772 9.132-19.382 4.963-5.916 11.22-10.228 18.766-12.937 7.546-2.71 15.178-3.32 22.894-1.834 7.716 1.486 14.532 4.71 20.447 9.675 4.36 3.66 8.17 8.468 11.433 14.427 1.885 3.452 3.208 5.497 3.97 6.137.976.82 2.123 1.17 3.44 1.055 1.318-.116 2.736-.862 4.255-2.238l1.784 1.497zM927.933 683l25.428 12.402-1.028 2.11c-7.41-1.65-13.94-1.173-19.584 1.43-5.646 2.605-9.805 6.648-12.48 12.13-2.233 4.58-2.966 9.425-2.198 14.532.768 5.108 2.85 9.583 6.243 13.426 4.338 4.93 9.843 9.02 16.516 12.274 6.563 3.202 12.946 5.288 19.147 6.26 6.2.97 11.543.36 16.027-1.828 4.483-2.19 8.096-6.097 10.84-11.723 2.252-4.617 3.305-9.338 3.16-14.165-.148-4.826-1.654-10.572-4.52-17.238l6.33 3.087c2.287 6.205 3.31 12.006 3.066 17.4-.243 5.396-1.815 11.07-4.718 17.02-3.817 7.827-8.777 14.014-14.88 18.56-6.1 4.548-12.896 7.038-20.385 7.47-7.488.433-14.55-.97-21.187-4.205-6.997-3.413-12.74-8.48-17.23-15.202-4.49-6.722-6.95-14.038-7.378-21.948-.428-7.91 1.064-15.364 4.477-22.36 2.515-5.16 6.29-10.06 11.322-14.704 2.917-2.685 4.595-4.478 5.035-5.38.563-1.154.627-2.36.193-3.622-.434-1.26-1.51-2.466-3.226-3.616l1.03-2.11z"/><text transform="rotate(23 663.527 243.34)" font-family="TimesNewRomanPS-BoldMT, Times New Roman" font-size="130" font-weight="bold" letter-spacing="16.714"><tspan x="629.721" y="154.962">&#x421;</tspan></text><path d="M350.294 76.896l13.274 26.054-2.16 1.1c-5.092-5.97-10.777-9.637-17.057-11-6.28-1.36-12.228-.61-17.845 2.25-4.693 2.393-8.31 5.935-10.854 10.63-2.542 4.693-3.607 9.68-3.196 14.965.515 6.766 2.514 13.568 5.997 20.404 3.428 6.725 7.4 12.417 11.914 17.076 4.515 4.66 9.304 7.48 14.366 8.46 5.062.982 10.476.005 16.24-2.933 4.73-2.41 8.537-5.652 11.418-9.727 2.88-4.075 5.212-9.755 6.993-17.04l3.306 6.486c-1.972 6.544-4.737 11.968-8.293 16.27-3.557 4.303-8.384 8.007-14.48 11.114-8.02 4.086-15.963 6.108-23.828 6.066-7.865-.042-15.023-2.214-21.474-6.515-6.45-4.3-11.407-9.85-14.872-16.65-3.653-7.17-5.242-14.925-4.767-23.267.476-8.34 2.996-15.91 7.564-22.705 4.567-6.796 10.435-12.02 17.604-15.674 5.285-2.69 11.45-4.39 18.492-5.092 4.078-.402 6.58-.838 7.502-1.31 1.183-.6 1.987-1.558 2.413-2.87.426-1.31.288-2.973-.413-4.99l2.162-1.102zM473.72 64.916c-.726-4.326-1.71-7.167-2.955-8.524-1.244-1.357-3.875-1.718-7.892-1.082l-2.658.42-.346-2.184 42.945-6.802.346 2.185-2.775.44c-3.702.585-6.04 1.683-7.018 3.29-.977 1.61-1.085 4.815-.324 9.62l8.346 52.693c.78 4.923 1.89 7.987 3.332 9.19 1.443 1.206 3.995 1.518 7.658.938l2.776-.438.346 2.185-42.946 6.802-.346-2.186 2.658-.42c3.74-.594 6.076-1.72 7.004-3.382.928-1.66 1.014-4.873.26-9.64l-6.887-43.477-21.22 48.778c.605 3.82 1.513 6.492 2.723 8.016 1.21 1.523 3.903 1.954 8.077 1.293l2.777-.44.346 2.186-42.946 6.8-.347-2.185 2.66-.42c3.74-.593 6.084-1.72 7.032-3.385.948-1.664 1.044-4.88.29-9.644l-8.347-52.694c-.76-4.804-1.726-7.84-2.896-9.11-1.17-1.267-3.86-1.567-8.075-.9l-2.66.42-.346-2.184 42.947-6.803.347 2.186-2.776.44c-3.623.575-5.92 1.736-6.896 3.485-.974 1.75-1.103 4.888-.386 9.417l6.952 43.892 21.22-48.778zM606.472 41.824c-8.24-1.01-14.074-2.84-17.502-5.484-3.43-2.645-4.946-5.575-4.55-8.79.2-1.648.952-2.943 2.25-3.885 1.3-.942 2.793-1.31 4.48-1.102 3.256.4 5.49 2.816 6.7 7.248.683 2.41 1.7 4.168 3.055 5.272 1.353 1.105 3.296 1.812 5.828 2.123 2.974.365 5.222.172 6.742-.58 1.52-.75 3.036-2.3 4.548-4.643 2.378-3.747 5.134-5.428 8.27-5.043 1.687.206 3.057.925 4.11 2.156 1.052 1.23 1.462 2.79 1.23 4.68-.384 3.135-2.614 5.513-6.69 7.134-4.074 1.62-10.23 1.926-18.47.914zm11.962 23.194c.503-4.426.337-7.475-.498-9.15-.835-1.672-3.302-2.76-7.402-3.264l-2.713-.333.275-2.23 43.83 5.382-.274 2.23-2.833-.347c-3.778-.464-6.368-.048-7.772 1.25-1.404 1.295-2.406 4.395-3.008 9.3l-6.604 53.777c-.616 5.024-.39 8.326.68 9.905 1.072 1.58 3.476 2.6 7.214 3.06l2.834.346-.273 2.23-43.83-5.38.274-2.23 2.714.332c3.818.47 6.413.022 7.783-1.34 1.37-1.36 2.355-4.473 2.952-9.337l5.447-44.373-34.37 41.68c-.478 3.898-.34 6.76.415 8.587s3.262 3 7.523 3.524l2.833.348-.274 2.23-43.83-5.38.274-2.23 2.713.332c3.82.47 6.424.024 7.815-1.336 1.39-1.36 2.385-4.47 2.982-9.333l6.603-53.778c.602-4.905.51-8.14-.277-9.705-.787-1.565-3.33-2.612-7.632-3.14l-2.712-.333.274-2.23 43.83 5.38-.274 2.232-2.833-.348c-3.698-.454-6.267.036-7.708 1.47-1.44 1.435-2.445 4.464-3.013 9.086l-5.5 44.795 34.37-41.68zM950.66 304.703c3.777-2.228 6.077-4.166 6.898-5.814.82-1.65.215-4.234-1.82-7.756l-1.344-2.33 1.916-1.108 21.74 37.657-1.916 1.106-1.405-2.435c-1.875-3.246-3.738-5.037-5.59-5.372-1.85-.336-4.882.713-9.095 3.145l-46.203 26.675c-4.316 2.492-6.778 4.627-7.386 6.405-.608 1.78.015 4.274 1.87 7.485l1.405 2.434-1.916 1.107-21.74-37.656 1.916-1.107 1.346 2.332c1.894 3.28 3.782 5.056 5.665 5.327 1.884.27 4.915-.8 9.093-3.213l38.123-22.01-53.142-2.33c-3.35 1.934-5.52 3.74-6.508 5.415-.99 1.676-.427 4.344 1.686 8.004l1.405 2.435-1.916 1.107L862 286.55l1.916-1.105 1.346 2.33c1.894 3.28 3.788 5.065 5.68 5.354 1.894.287 4.93-.775 9.108-3.187l46.202-26.676c4.213-2.432 6.702-4.42 7.467-5.968.763-1.547.08-4.168-2.054-7.863l-1.346-2.33 1.917-1.107 21.74 37.656-1.916 1.107-1.405-2.435c-1.834-3.177-3.742-4.906-5.724-5.19-1.98-.282-4.957.722-8.93 3.015l-38.484 22.22 53.143 2.33zM1017.03 418.13c-2.147-8.018-2.638-14.112-1.47-18.28 1.167-4.17 3.316-6.675 6.445-7.514 1.603-.43 3.085-.22 4.445.633 1.36.85 2.26 2.097 2.7 3.74.85 3.168-.554 6.144-4.21 8.926-1.978 1.536-3.226 3.14-3.743 4.807-.517 1.67-.446 3.736.215 6.2.775 2.894 1.796 4.906 3.063 6.034 1.266 1.128 3.27 1.953 6.01 2.477 4.364.8 6.955 2.727 7.773 5.778.44 1.642.286 3.182-.46 4.62-.747 1.436-2.04 2.4-3.88 2.893-3.05.818-6.09-.36-9.12-3.53-3.03-3.17-5.618-8.765-7.767-16.784zm-17.023 19.78c4.292-1.19 7.058-2.488 8.296-3.89 1.24-1.4 1.324-4.095.255-8.085l-.708-2.64 2.17-.582 11.43 42.655-2.17.582-.74-2.758c-.984-3.677-2.34-5.923-4.07-6.74-1.727-.814-4.976-.583-9.748.696l-52.336 14.023c-4.89 1.31-7.866 2.76-8.93 4.343-1.063 1.585-1.108 4.196-.133 7.834l.74 2.757-2.172.582-11.428-42.655 2.17-.58.708 2.64c.996 3.716 2.382 5.954 4.158 6.715 1.776.76 5.03.507 9.763-.76l43.184-11.572-51.52-16.254c-3.793 1.015-6.396 2.216-7.807 3.6-1.41 1.384-1.56 4.15-.45 8.296l.74 2.757-2.17.582-11.43-42.655 2.17-.58.708 2.64c.995 3.715 2.384 5.963 4.165 6.743 1.78.78 5.038.537 9.77-.73l52.337-14.025c4.772-1.278 7.736-2.576 8.893-3.892 1.156-1.316 1.174-4.066.052-8.252l-.707-2.64 2.17-.582 11.43 42.655-2.17.582-.74-2.76c-.964-3.597-2.38-5.796-4.25-6.595-1.87-.798-5.055-.595-9.553.61l-43.594 11.68 51.52 16.256zM592.236 951.592c-8.22 1.155-14.33.9-18.326-.767-3.996-1.667-6.22-4.105-6.67-7.313-.232-1.644.158-3.09 1.17-4.335 1.01-1.246 2.357-1.988 4.04-2.225 3.25-.456 6.032 1.3 8.348 5.268 1.283 2.15 2.722 3.584 4.315 4.3 1.593.717 3.653.898 6.18.543 2.967-.417 5.088-1.185 6.36-2.305 1.275-1.12 2.34-3.007 3.193-5.662 1.326-4.235 3.554-6.572 6.682-7.012 1.684-.237 3.194.103 4.53 1.02 1.334.916 2.134 2.317 2.4 4.2.438 3.13-1.1 6.004-4.617 8.624-3.515 2.62-9.384 4.51-17.604 5.664zm17.557 19.308c-.66-4.406-1.61-7.308-2.85-8.71-1.24-1.4-3.904-1.81-7.994-1.236l-2.708.38-.312-2.226 43.73-6.145.312 2.225-2.827.397c-3.77.53-6.164 1.603-7.185 3.218-1.02 1.616-1.186 4.87-.498 9.762l7.54 53.654c.705 5.012 1.778 8.143 3.222 9.392 1.443 1.248 4.03 1.61 7.758 1.087l2.828-.4.312 2.227-43.73 6.146-.312-2.226 2.707-.38c3.81-.536 6.2-1.638 7.17-3.308.973-1.67 1.118-4.932.436-9.785l-6.222-44.27-22.41 49.153c.546 3.89 1.42 6.62 2.622 8.188 1.202 1.57 3.928 2.055 8.18 1.458l2.826-.397.313 2.225-43.73 6.146-.31-2.226 2.705-.38c3.81-.535 6.21-1.64 7.202-3.312.992-1.673 1.147-4.936.465-9.788l-7.54-53.654c-.688-4.893-1.615-7.993-2.78-9.3-1.165-1.31-3.893-1.662-8.184-1.06l-2.707.38-.312-2.224 43.73-6.146.313 2.225-2.826.398c-3.69.52-6.045 1.658-7.065 3.416-1.022 1.76-1.208 4.944-.56 9.556l6.28 44.692 22.413-49.154zM832.21 144.67l30.99 28.898-1.513 1.624-1.01-.94c-2.926-2.73-5.378-4.018-7.354-3.864-1.977.154-4.356 1.724-7.14 4.71l-16.578 17.776c4.097 3.82 6.89 6.165 8.378 7.033 1.488.868 3.38 1.128 5.675.78 2.295-.35 5.7-1.977 10.213-4.88 5.29-3.384 9.506-5.69 12.648-6.918 3.142-1.23 6.264-1.614 9.366-1.157 3.1.458 6.072 2.01 8.91 4.658 2.81 2.62 4.32 5.52 4.53 8.697.21 3.177-.777 5.937-2.96 8.278-1.692 1.814-3.6 2.716-5.724 2.705-2.123-.01-4.034-.807-5.73-2.39-3.337-3.11-3.336-6.72.003-10.83 1.684-2.04 1.91-3.633.682-4.78-1.317-1.227-3.14-1.53-5.467-.912-2.328.62-5.835 2.355-10.52 5.208-4.574 2.793-8.12 4.778-10.642 5.956-2.52 1.178-5.084 1.756-7.69 1.734 1.437 2.215 2.305 4.173 2.605 5.875.3 1.704.295 3.544-.018 5.523-.314 1.978-1.43 6.695-3.35 14.152l-4.01 16.447c-.566 2.482-.56 4.72.02 6.708.58 1.99 1.79 3.845 3.635 5.564l-1.515 1.624-19.928-18.584 9.038-34.245c.997-3.887 1.418-6.407 1.265-7.562-.154-1.156-1.2-2.72-3.137-4.69l-18.788 20.15c-2.674 2.867-3.787 5.248-3.34 7.143.45 1.897 2.27 4.332 5.458 7.306l-1.514 1.624-30.99-28.9 1.514-1.623c3.48 3.135 6.195 4.724 8.15 4.77 1.955.044 4.393-1.5 7.313-4.63l37.126-39.813c3.246-3.483 5.005-6.22 5.275-8.21.27-1.992-1.1-4.393-4.116-7.204l-1.274-1.187 1.515-1.624zM130.384 596.15l6.63 41.852-2.194.348-.216-1.364c-.626-3.952-1.765-6.476-3.417-7.57-1.653-1.097-4.494-1.325-8.525-.687l-24.01 3.802c.877 5.533 1.635 9.1 2.273 10.7.638 1.6 1.97 2.97 3.993 4.107 2.023 1.137 5.707 1.95 11.05 2.442 6.253.59 10.994 1.368 14.226 2.335 3.232.967 5.93 2.585 8.092 4.856 2.162 2.27 3.547 5.322 4.154 9.156.6 3.793.006 7.006-1.785 9.64-1.79 2.633-4.267 4.2-7.428 4.7-2.45.39-4.51-.075-6.176-1.39-1.666-1.317-2.68-3.12-3.044-5.413-.713-4.506 1.51-7.35 6.67-8.53 2.584-.572 3.744-1.688 3.48-3.348-.28-1.78-1.53-3.14-3.745-4.086-2.215-.946-6.047-1.737-11.496-2.373-5.323-.614-9.34-1.233-12.052-1.857-2.712-.624-5.088-1.747-7.127-3.368-.232 2.63-.754 4.707-1.565 6.233-.812 1.526-1.95 2.973-3.415 4.34-1.465 1.365-5.25 4.395-11.352 9.09l-13.287 10.49c-1.973 1.608-3.344 3.375-4.113 5.3-.77 1.924-.956 4.13-.562 6.62l-2.192.35-4.263-26.915 28.207-21.42c3.177-2.45 5.06-4.176 5.65-5.18.59-1.006.73-2.88.417-5.627l-27.21 4.31c-3.874.613-6.217 1.805-7.03 3.575-.815 1.77-.88 4.81-.198 9.116l-2.193.348L50 608.882l2.193-.348c.812 4.612 1.974 7.537 3.487 8.776 1.513 1.24 4.383 1.524 8.612.854l53.768-8.516c4.702-.745 7.773-1.82 9.212-3.22 1.44-1.404 1.836-4.14 1.19-8.21l-.27-1.72 2.192-.348zM675.466 942.897l37.06-20.543 1.077 1.942-1.207.67c-3.5 1.94-5.482 3.873-5.946 5.8-.465 1.927.293 4.676 2.27 8.245l11.786 21.262c4.9-2.716 7.992-4.648 9.278-5.795 1.285-1.147 2.116-2.866 2.494-5.157.377-2.29-.118-6.03-1.485-11.22-1.584-6.076-2.474-10.798-2.67-14.166-.198-3.368.4-6.456 1.795-9.264 1.394-2.81 3.788-5.154 7.183-7.036 3.36-1.862 6.584-2.402 9.67-1.62 3.088.782 5.407 2.573 6.96 5.373 1.202 2.17 1.47 4.263.803 6.28-.666 2.016-2.014 3.586-4.044 4.712-3.99 2.21-7.423 1.093-10.3-3.352-1.42-2.232-2.864-2.94-4.334-2.126-1.575.873-2.428 2.512-2.558 4.918-.13 2.406.437 6.277 1.703 11.614 1.243 5.213 2.035 9.2 2.376 11.962.342 2.76.1 5.378-.727 7.85 2.55-.683 4.68-.903 6.392-.663 1.712.24 3.46.816 5.245 1.725 1.785.91 5.926 3.43 12.424 7.558l14.404 8.898c2.186 1.304 4.315 1.988 6.387 2.053 2.072.064 4.21-.515 6.415-1.737l1.077 1.942-23.833 13.21-29.777-19.178c-3.387-2.15-5.654-3.328-6.8-3.54-1.147-.21-2.956.3-5.43 1.534l13.357 24.095c1.9 3.43 3.822 5.224 5.763 5.384 1.94.16 4.82-.82 8.634-2.933l1.076 1.942-37.06 20.543-1.077-1.943c4.056-2.34 6.407-4.432 7.054-6.278.647-1.846-.068-4.64-2.143-8.386l-26.392-47.612c-2.31-4.164-4.368-6.683-6.178-7.555-1.81-.872-4.518-.31-8.122 1.69l-1.523.842-1.076-1.943zM168.11 839.31l-16.96-24.225-8.695 1.79c-2.887.615-5.054 1.43-6.504 2.445-1.92 1.346-2.794 3.113-2.618 5.3.098 1.29 1.263 3.814 3.496 7.577l-1.872 1.31-15.97-22.808 1.87-1.31c2.095 2.2 4.532 3.51 7.31 3.925 2.78.416 7.595-.042 14.45-1.375l71.893-13.787.672.96-38.92 64.107c-3.675 6.09-5.672 10.378-5.992 12.863-.242 1.878.284 3.92 1.58 6.13l-1.872 1.31-23.23-33.175 1.87-1.31.957 1.365c1.865 2.663 3.546 4.275 5.044 4.834 1.057.364 2.093.192 3.104-.516a7.566 7.566 0 0 0 1.66-1.613c.255-.28 1.165-1.67 2.73-4.173l5.996-9.625zm2.54-4.34l16.463-26.754-30.983 6.018 14.52 20.735zM333.026 956.217l-11.214 22.993c-1.852 3.796-2.8 6.27-2.842 7.424-.043 1.154.373 2.385 1.25 3.693.874 1.308 2.352 2.47 4.432 3.484l2.464 1.202-.988 2.026-38.814-18.93.987-2.027 2.465 1.203c2.153 1.05 4.074 1.512 5.762 1.387 1.198-.048 2.355-.568 3.47-1.56.83-.68 2.152-2.88 3.968-6.604l23.817-48.833c1.85-3.796 2.808-6.266 2.87-7.41.06-1.146-.347-2.372-1.222-3.68-.876-1.308-2.354-2.47-4.434-3.484l-2.464-1.202.988-2.026 38.815 18.93-.988 2.027-2.464-1.203c-2.153-1.05-4.073-1.512-5.76-1.387-1.2.048-2.375.56-3.527 1.533-.83.68-2.15 2.882-3.967 6.604L335.375 951.4l26.223 12.79 10.252-21.023c1.85-3.795 2.808-6.266 2.87-7.41.06-1.145-.356-2.376-1.25-3.693-.893-1.317-2.38-2.483-4.46-3.497l-2.41-1.175.988-2.026 38.76 18.905-.988 2.026-2.41-1.174c-2.188-1.07-4.11-1.53-5.76-1.387-1.198.048-2.374.56-3.526 1.533-.83.68-2.15 2.88-3.967 6.604l-23.818 48.833c-1.852 3.795-2.808 6.266-2.87 7.41-.06 1.145.356 2.376 1.25 3.693.893 1.317 2.38 2.483 4.46 3.497l2.41 1.175-.99 2.026-38.758-18.905.988-2.024 2.408 1.175c2.19 1.07 4.11 1.53 5.762 1.387 1.198-.048 2.373-.56 3.526-1.533.83-.68 2.15-2.88 3.967-6.604l11.214-22.993-26.224-12.79zM443.263 990.526l10.78 1.515c11.644 1.637 19.808 4.873 24.492 9.707 4.684 4.835 6.547 10.665 5.587 17.49-.654 4.658-2.553 8.485-5.697 11.482s-6.85 5.035-11.116 6.114c-4.268 1.08-10.275 1.074-18.024-.015l-43.784-6.154.313-2.23c5.07.632 8.407.415 10.01-.65 1.603-1.064 2.704-3.724 3.302-7.98l7.626-54.263c.813-5.782.717-9.398-.287-10.85-1.004-1.45-4.05-2.575-9.137-3.372l.312-2.227L459.68 955l-.314 2.23c-3.86-.502-6.47-.5-7.83.004-1.362.505-2.384 1.22-3.067 2.15-.684.926-1.305 3.378-1.863 7.353l-3.344 23.79zm-.745 5.3l-3.46 24.632c-.55 3.894-.392 6.71.47 8.45.86 1.737 2.756 2.812 5.687 3.224 4.698.66 8.464-.428 11.3-3.264 2.834-2.836 4.584-6.623 5.25-11.36.643-4.578.1-8.574-1.632-11.99-1.73-3.417-3.874-5.714-6.43-6.893-2.56-1.178-6.286-2.11-11.185-2.8zm79.893 48.998l-.312 2.228-42.64-5.992.314-2.23 2.65.374c2.57.36 4.556.21 5.96-.453 1.402-.66 2.378-1.558 2.926-2.69.548-1.13 1.087-3.582 1.617-7.356l7.55-53.72c.536-3.815.72-6.297.555-7.446-.166-1.15-.878-2.273-2.136-3.37-1.258-1.1-3.132-1.823-5.62-2.173l-2.65-.373.312-2.228 42.64 5.993-.314 2.228-2.65-.373c-2.57-.36-4.556-.21-5.96.453-1.402.662-2.378 1.56-2.926 2.69s-1.087 3.583-1.617 7.357l-7.55 53.72c-.537 3.816-.722 6.297-.556 7.447.166 1.148.878 2.272 2.136 3.37 1.258 1.098 3.132 1.822 5.62 2.17l2.65.374zM860.458 811.233l26.62 20.8 1.018-1.304c3.24-4.148 4.287-8.17 3.14-12.07-1.148-3.9-4.06-8.092-8.738-12.575l1.43-1.832 34.242 26.75-1.432 1.834c-4.03-2.528-7.72-4.103-11.065-4.724-3.347-.62-6.07-.43-8.17.568-2.102 1-4.37 3.06-6.807 6.177l18.422 14.394c3.6 2.814 5.923 4.382 6.965 4.704 1.042.323 2.147.267 3.315-.167 1.167-.434 2.48-1.583 3.936-3.448l3.052-3.907c4.773-6.11 7.183-12.11 7.23-18 .046-5.893-2.196-11.903-6.727-18.032l1.393-1.783 18.487 19.18-44.16 56.522-1.783-1.395 1.695-2.17c1.482-1.897 2.338-3.688 2.567-5.373.202-1.188-.067-2.433-.81-3.738-.494-.956-2.38-2.715-5.66-5.278l-43.02-33.61c-2.957-2.31-4.836-3.65-5.637-4.015-1.376-.557-2.71-.64-3.998-.25-1.855.52-3.61 1.84-5.27 3.96l-1.694 2.17-1.784-1.393 42.765-54.737 19.34 15.11-1.432 1.832c-5.454-2.76-9.87-4.1-13.246-4.02-3.377.08-6.753 1.287-10.13 3.62-1.984 1.348-4.91 4.498-8.78 9.45l-5.274 6.75zM948.33 590.007l21.443 4.168-.41 2.103c-5.188.285-9.01.977-11.468 2.076-2.457 1.098-4.585 2.847-6.385 5.246-.99 1.344-1.843 3.866-2.562 7.566l-1.147 5.9 61.113 11.88c4.05.787 6.626 1.056 7.726.804 1.098-.25 2.155-.955 3.168-2.112 1.013-1.157 1.74-2.865 2.178-5.124l.51-2.63 2.163.42-8.064 41.482-2.162-.42.51-2.63c.448-2.297.4-4.227-.147-5.788-.348-1.12-1.128-2.1-2.338-2.94-.853-.61-3.265-1.302-7.238-2.074l-61.112-11.88-1.113 5.727c-1.037 5.337-.66 9.432 1.128 12.286 2.497 4.002 6.58 7.018 12.247 9.05l-.43 2.22-21.443-4.168 13.83-71.16z"/><path d="M537.5 1075c296.853 0 537.5-240.647 537.5-537.5S834.353 0 537.5 0 0 240.647 0 537.5 240.647 1075 537.5 1075zm.5-10c291.606 0 528-236.394 528-528S829.606 9 538 9 10 245.394 10 537s236.394 528 528 528z"/></g></symbol><symbol id="icon-down" viewBox="0 0 12 8"><path d="M1.41.58L6 5.17 10.59.58 12 2 6 8 0 2 1.41.58z"/></symbol><symbol id="icon-facebook" viewBox="0 0 15 32"><path d="M14.66 10.216H9.667V6.94c0-1.228.815-1.515 1.39-1.515h3.523V.02L9.727 0C4.34 0 3.115 4.032 3.115 6.612v3.604H0v5.57h3.115V31.55h6.552V15.785h4.42l.573-5.57z"/></symbol><symbol id="pic-te-st" viewBox="0 0 99 40"><g fill="#000" fill-rule="evenodd"><path d="M10.895 20.245a2 2 0 0 1-1.4-2.394L8.1 17.047a1.994 1.994 0 0 1-2.802-.04l-1.367.79A2.003 2.003 0 0 1 2 20.32a2 2 0 1 1 1.347-3.48l1.418-.817a2 2 0 0 1 3.33-1.875l2.785-1.607V9.28a1.998 1.998 0 0 1-.828-.48l-1.392.87a2 2 0 1 1-3.885.027l-1.45-.838a1.996 1.996 0 0 1-.765.42v1.68a2 2 0 1 1-1.12 0V9.28a2 2 0 1 1 1.988-3.32l1.333-.833a2 2 0 1 1 .528.99l-1.33.833a2.01 2.01 0 0 1-.035.962l1.406.81c.36-.347.85-.562 1.39-.562.53 0 1.013.207 1.37.544l1.405-.877a2.005 2.005 0 0 1 1.465-2.41V3.943a2 2 0 1 1 1.04-.02v1.517a2 2 0 0 1 0 3.84v3.307l2.653 1.532c.256-.26.582-.452.947-.542v-1.476a2 2 0 1 1 1.85-3.4l1.39-.867a2.01 2.01 0 0 1 .02-.888l-1.433-.828a2 2 0 1 1 .584-.956l1.42.818a2 2 0 1 1 1.93 3.378v1.52a2 2 0 1 1-1.04-.022V9.382c-.37-.09-.7-.286-.96-.553l-1.34.838a2.004 2.004 0 0 1-1.38 2.413v1.52a2 2 0 0 1 1.366 2.46l1.41.816a2 2 0 1 1-.56.97l-1.444-.834a2 2 0 0 1-3.29-1.906L11.4 13.534l-2.74 1.58a2.004 2.004 0 0 1 .003.963l1.39.802a2 2 0 1 1 1.896 3.375v2.62l2.278-1.318a2.003 2.003 0 0 1 1.932-2.517 2 2 0 1 1-1.4 3.428l-2.81 1.624v4.783h10.34a.352.352 0 0 1 0 .703H11.984c.182 1.334 1.447 1.512 3.42 1.674 1.924.157 4.103.336 4.69 2.502a.264.264 0 0 1-.255.334.263.263 0 0 1-.254-.196c-.442-1.632-2.03-1.917-3.685-2.068.046.05.088.1.127.155.316.426.81.625 1.334.835.657.264 1.335.537 1.642 1.286a.264.264 0 0 1-.487.2c-.223-.542-.745-.752-1.35-.995a7.767 7.767 0 0 1-.682-.3c.065.245.117.495.166.74.087.44.17.857.33 1.207a.264.264 0 0 1-.48.22c-.185-.406-.278-.873-.368-1.324-.216-1.08-.403-2.012-1.693-2.154-.005 0-.007 0-.01-.002-.916-.103-1.77-.285-2.328-.776.262.613.652 1.06 1.035 1.5.158.18.318.363.467.557l.01.007c.156.204.34.377.534.562.26.245.532.504.754.852.005.007.01.012.014.02.293.466 1.156 1.418 1.703 1.727a.264.264 0 0 1-.26.46c-.307-.173-.676-.496-1.014-.843.032.325.032.694-.014 1.127a.263.263 0 0 1-.262.236h-.028a.264.264 0 0 1-.234-.29c.128-1.21-.11-1.852-.47-2.325.16.822.055 1.91-.554 3.493a.264.264 0 0 1-.492-.19c1.18-3.065.378-3.983-.55-5.045-.37-.422-.762-.873-1.05-1.477.082 1.033.215 1.88.33 2.616.35 2.212.56 3.548-1.173 5.988a.262.262 0 0 1-.368.062.264.264 0 0 1-.062-.368c1.274-1.793 1.422-2.91 1.26-4.363a3.82 3.82 0 0 1-.357.495c-.33.407-.64.793-.575 1.874a.264.264 0 0 1-.247.28h-.015a.264.264 0 0 1-.263-.25c-.078-1.285.33-1.79.692-2.237.36-.445.67-.83.483-2.083a28.944 28.944 0 0 1-.222-1.844c-.283.577-.75 1.206-1.528 1.862-.928.782-.676 1.636-.385 2.623.19.648.388 1.317.265 2.012a.263.263 0 0 1-.52-.09c.102-.575-.077-1.183-.25-1.77a9.547 9.547 0 0 1-.216-.823l-.066.31c-.195.91-.396 1.855-1.62 2.657a.264.264 0 0 1-.287-.44c1.04-.684 1.203-1.445 1.39-2.328.083-.384.17-.792.344-1.203-.075.046-.15.09-.222.132-.772.457-1.198.708-1.37 1.68a.263.263 0 1 1-.518-.092c.213-1.21.803-1.56 1.62-2.043.43-.255.92-.543 1.496-1.03.91-.77 1.354-1.48 1.57-2.108-.07.086-.144.17-.226.246-.784.735-2.06 1.05-3.796.945-.77.142-.857.562-.975 1.488-.108.842-.24 1.89-1.16 2.98a.26.26 0 0 1-.372.03.264.264 0 0 1-.032-.37c.82-.972.942-1.934 1.04-2.706.07-.537.136-1.055.44-1.43-.286.02-.547.054-.783.103-.674.28-.703.634-.754 1.273-.036.428-.08.96-.365 1.55a.263.263 0 0 1-.352.12.264.264 0 0 1-.122-.352c.244-.5.28-.956.313-1.36.023-.282.046-.558.135-.813-1.014.588-1.173 1.452-1.183 1.51a.264.264 0 1 1-.52-.087c.13-.775.845-1.924 2.656-2.33l.008-.005a.26.26 0 0 1 .095-.02 7.292 7.292 0 0 1 1.93-.11c1.58.105 2.767-.172 3.436-.8.37-.348.528-.747.585-1.09H.555a.35.35 0 0 1 0-.703h10.34v-4.783l-2.82-1.63c-.22.217-.492.38-.794.473a2 2 0 1 1 1.144-2.8 1.936 1.936 0 0 1 .178 1.413l2.292 1.326v-2.63zm6.213 1.392a1.12 1.12 0 1 0-1.938-1.12l.03.018a1.062 1.062 0 0 0 .002 1.07 1.07 1.07 0 0 0 1.85 0l.056.032zm-10.122.47a1.12 1.12 0 1 0-1.28-.45l.085-.05a1.068 1.068 0 0 0 1.196.5zm5.405-3.195a1.12 1.12 0 1 0-1.912-.016l.017-.01a1.07 1.07 0 0 0 1.852 0l.044.026zM2 8.48a1.12 1.12 0 1 0 0-2.24 1.12 1.12 0 0 0 0 2.24zM2 14a1.12 1.12 0 1 0 0-2.24A1.12 1.12 0 0 0 2 14zm4.72-8.16a1.12 1.12 0 1 0 0-2.24 1.12 1.12 0 0 0 0 2.24zm4.72-2.72a1.12 1.12 0 1 0 0-2.24 1.12 1.12 0 0 0 0 2.24zm0 5.36a1.12 1.12 0 1 0 0-2.24 1.12 1.12 0 0 0 0 2.24zm-4.72 2.8a1.12 1.12 0 1 0 0-2.24 1.12 1.12 0 0 0 0 2.24zm9.36-5.52a1.12 1.12 0 1 0 0-2.24 1.12 1.12 0 0 0 0 2.24zm4.72 2.8a1.12 1.12 0 1 0 0-2.24 1.12 1.12 0 0 0 0 2.24zm0 5.36a1.12 1.12 0 1 0 0-2.24 1.12 1.12 0 0 0 0 2.24zm-4.72-2.64a1.12 1.12 0 1 0 0-2.24 1.12 1.12 0 0 0 0 2.24zm0 5.36a1.12 1.12 0 1 0 0-2.24 1.12 1.12 0 0 0 0 2.24zm4.72 2.8a1.12 1.12 0 1 0 0-2.24 1.12 1.12 0 0 0 0 2.24zM6.72 16.72a1.12 1.12 0 1 0 0-2.24 1.12 1.12 0 0 0 0 2.24zM2 19.44a1.12 1.12 0 1 0 0-2.24 1.12 1.12 0 0 0 0 2.24zM36.18 4.56v-.68H31.3v.68h2.06V11h.76V4.56h2.06zM41.93 11v-.68h-3.66V7.75h3.12v-.68h-3.12V4.56h3.66v-.68h-4.42V11h4.42zm6.47 0V3.88h-4.89V11h.76V4.56h3.37V11h.76zm6.78 0V3.88h-3.92v2.89c0 2.96-.63 3.55-1.51 3.55h-.19V11h.36C51.28 11 52 10 52 7V4.56h2.42V11h.76zm7.16 0V3.88h-.72L58 9.68v-5.8h-.76V11h.72l3.62-5.81V11h.76zm7.8 1.72v-2.4h-.85V3.88h-.76v6.44h-3.37V3.88h-.76V11h4.99v1.72h.75zm6.4-1.72l-2.61-7.12h-.64L70.67 11h.81l.57-1.61h3.11l.57 1.61h.81zm-1.6-2.27h-2.66l1.34-3.76 1.32 3.76zM36.72 20.04h-.76c-.19.87-.82 1.44-1.71 1.44-.47 0-.92-.18-1.23-.5-.45-.46-.5-.95-.5-2.44s.05-1.98.5-2.44c.31-.32.76-.5 1.23-.5.89 0 1.5.57 1.69 1.44h.78c-.24-1.34-1.19-2.12-2.47-2.12-.7 0-1.34.26-1.82.74-.67.67-.67 1.37-.67 2.88 0 1.51 0 2.21.67 2.88.48.48 1.12.74 1.82.74 1.27 0 2.24-.78 2.47-2.12zm6.19-1.99c0-.87-.05-1.77-.67-2.39-.48-.48-1.12-.74-1.82-.74s-1.34.26-1.82.74c-.61.61-.67 1.48-.67 2.33v.55c0 1.42.02 2.23.67 2.88.48.48 1.11.74 1.82.74s1.34-.26 1.82-.74c.65-.65.67-1.46.67-2.88v-.49zm-.76.84c0 .82-.01 1.59-.5 2.08-.33.33-.76.51-1.23.51s-.9-.18-1.23-.51c-.46-.46-.5-1.16-.5-1.93v-.71c0-.98 0-1.72.5-2.22.33-.33.77-.51 1.23-.51.46 0 .9.18 1.23.51.47.47.5 1.21.5 2.05v.73zm8.29 4.93v-2.4h-.85v-6.44h-.76v6.44h-3.37v-6.44h-.76v7.12h4.99v1.72h.75zm6.54-1.72v-7.12h-.72l-3.62 5.8v-5.8h-.76v7.12h.72l3.62-5.81v5.81h.76zm7.02 0l-2.61-7.12h-.64l-2.62 7.12h.81l.57-1.61h3.11l.57 1.61H64zm-1.6-2.27h-2.66l1.34-3.76 1.32 3.76zm7.46 2.27v-7.12h-3.92v2.89c0 2.96-.63 3.55-1.51 3.55h-.19v.68h.36c1.36 0 2.08-1 2.08-4v-2.44h2.42v6.44h.76zm6.93-2.09c0-1.26-.87-2.1-2.2-2.1h-1.91v-2.93h-.76v7.12h2.67c1.32 0 2.2-.84 2.2-2.09zm-.77 0c0 .89-.55 1.41-1.5 1.41h-1.84v-2.83h1.84c.95 0 1.5.52 1.5 1.42zm7.1 2.09v-7.12h-.76v3.19h-3.38v-3.19h-.76v7.12h.76v-3.25h3.38v3.25h.76zm8.64 0v-7.12H91v7.12h.76zm-1.71-2.09c0-1.26-.87-2.1-2.2-2.1h-1.91v-2.93h-.76v7.12h2.67c1.32 0 2.2-.84 2.2-2.09zm-.77 0c0 .89-.55 1.41-1.5 1.41h-1.84v-2.83h1.84c.95 0 1.5.52 1.5 1.42zm8.87 2.09l-2.2-3.65L98 14.98h-.88l-1.58 2.81-1.58-2.81h-.88l2.04 3.47-2.18 3.65h.86l1.74-2.99 1.73 2.99h.88zM36.18 27.56v-.68H31.3v.68h2.06V34h.76v-6.44h2.06zM41.93 34v-.68h-3.66v-2.57h3.12v-.68h-3.12v-2.51h3.66v-.68h-4.42V34h4.42zm5.91 0l-2.2-3.65 2.05-3.47h-.88l-1.58 2.81-1.58-2.81h-.88l2.04 3.47L42.63 34h.86l1.74-2.99L46.96 34h.88zm6.08 0v-7.12h-.76v3.19h-3.38v-3.19h-.76V34h.76v-3.25h3.38V34h.76zm6.77-4.05c0-.87-.05-1.77-.67-2.39-.48-.48-1.12-.74-1.82-.74s-1.34.26-1.82.74c-.61.61-.67 1.48-.67 2.33v.55c0 1.42.02 2.23.67 2.88.48.48 1.11.74 1.82.74s1.34-.26 1.82-.74c.65-.65.67-1.46.67-2.88v-.49zm-.76.84c0 .82-.01 1.59-.5 2.08-.33.33-.76.51-1.23.51s-.9-.18-1.23-.51c-.46-.46-.5-1.16-.5-1.93v-.71c0-.98 0-1.72.5-2.22.33-.33.77-.51 1.23-.51.46 0 .9.18 1.23.51.47.47.5 1.21.5 2.05v.73zM66.99 34v-7.12h-3.92v2.89c0 2.96-.63 3.55-1.51 3.55h-.19V34h.36c1.36 0 2.08-1 2.08-4v-2.44h2.42V34h.76zm6.77-4.05c0-.87-.05-1.77-.67-2.39-.48-.48-1.12-.74-1.82-.74s-1.34.26-1.82.74c-.61.61-.67 1.48-.67 2.33v.55c0 1.42.02 2.23.67 2.88.48.48 1.11.74 1.82.74s1.34-.26 1.82-.74c.65-.65.67-1.46.67-2.88v-.49zm-.76.84c0 .82-.01 1.59-.5 2.08-.33.33-.76.51-1.23.51s-.9-.18-1.23-.51c-.46-.46-.5-1.16-.5-1.93v-.71c0-.98 0-1.72.5-2.22.33-.33.77-.51 1.23-.51.46 0 .9.18 1.23.51.47.47.5 1.21.5 2.05v.73zm6.9-3.23v-.68h-4.28V34h.76v-6.44h3.52zM86.34 34v-7.12h-.72L82 32.68v-5.8h-.76V34h.72l3.62-5.81V34h.76zm7.16 0v-7.12h-.72l-3.62 5.8v-5.8h-.76V34h.72l3.62-5.81V34h.76zm-1.09-8.83h-.64c-.04.49-.33.74-.82.74-.49 0-.78-.25-.82-.74h-.64c.06.89.63 1.26 1.46 1.26s1.4-.37 1.46-1.26z"/></g></symbol><symbol id="icon-instagram" viewBox="0 0 20 20"><path d="M5.8 0h8.4C17.4 0 20 2.6 20 5.8v8.4a5.8 5.8 0 0 1-5.8 5.8H5.8C2.6 20 0 17.4 0 14.2V5.8A5.8 5.8 0 0 1 5.8 0zm-.2 2A3.6 3.6 0 0 0 2 5.6v8.8C2 16.39 3.61 18 5.6 18h8.8a3.6 3.6 0 0 0 3.6-3.6V5.6C18 3.61 16.39 2 14.4 2H5.6zm9.65 1.5a1.25 1.25 0 1 1 0 2.5 1.25 1.25 0 0 1 0-2.5zM10 5a5 5 0 1 1 0 10 5 5 0 0 1 0-10zm0 2a3 3 0 1 0 0 6 3 3 0 0 0 0-6z"/></symbol><symbol id="icon-logo" viewBox="0 0 72 72"><path d="M48 24V0H24v24H0v24h24v24h24V48h24V24H48z"/></symbol><symbol id="icon-mail" viewBox="0 0 20 20"><path d="M2 8l8 5 8-5-8-5-8 5zm18 0v10a2 2 0 0 1-2 2H2a2 2 0 0 1-2-2V8c0-.73.39-1.36.97-1.71L10 .64l9.03 5.65c.58.35.97.98.97 1.71z"/></symbol><symbol id="icon-marker" viewBox="0 0 14 20"><path d="M7 9.5a2.5 2.5 0 1 1 0-5 2.5 2.5 0 0 1 0 5zM7 0a7 7 0 0 0-7 7c0 5.25 7 13 7 13s7-7.75 7-13a7 7 0 0 0-7-7z"/></symbol><symbol id="icon-menu" viewBox="0 0 24 21"><path d="M23.244 16.01H.75c-.413 0-.75.36-.75.8v3.42c0 .424.337.77.75.77h22.494a.76.76 0 0 0 .75-.77v-3.42c0-.44-.336-.8-.75-.8zm0-8H.75c-.413 0-.75.36-.75.8v3.42c0 .425.337.77.75.77h22.494a.76.76 0 0 0 .75-.77V8.81c0-.44-.336-.8-.75-.8zm0-8H.75C.337.01 0 .37 0 .81v3.42c0 .423.337.77.75.77h22.494a.76.76 0 0 0 .75-.77V.81c0-.44-.336-.8-.75-.8z"/></symbol><symbol id="icon-next" viewBox="0 0 15 24"><path d="M3 0L.17 2.83 9.34 12 .17 21.17 3 24l12-12L3 0z"/></symbol><symbol id="icon-ok" viewBox="0 0 19 32"><path d="M9.25 4.83a3.416 3.416 0 0 1 3.413 3.414c0 1.88-1.53 3.41-3.413 3.41a3.417 3.417 0 0 1-3.413-3.41A3.418 3.418 0 0 1 9.25 4.83zm0 11.654c4.547 0 8.243-3.696 8.243-8.24C17.493 3.698 13.797 0 9.25 0 4.705 0 1.008 3.698 1.008 8.244c0 4.544 3.697 8.24 8.242 8.24zm3.335 6.724a15.434 15.434 0 0 0 4.786-1.983 2.415 2.415 0 0 0 .758-3.33 2.413 2.413 0 0 0-3.33-.76 10.465 10.465 0 0 1-11.097 0 2.412 2.412 0 0 0-3.328.76 2.414 2.414 0 0 0 .756 3.33c1.49.935 3.108 1.6 4.786 1.983l-4.608 4.608a2.415 2.415 0 0 0 3.417 3.414l4.526-4.528 4.53 4.528c.94.943 2.47.943 3.413 0a2.413 2.413 0 0 0 0-3.414l-4.608-4.608z"/></symbol><symbol id="icon-prev" viewBox="0 0 15 25"><path d="M14.83 21.67L5.66 12.5l9.17-9.17L12 .5l-12 12 12 12 2.83-2.83z"/></symbol><symbol id="icon-search" viewBox="0 0 18 18"><path d="M11 0a6.5 6.5 0 0 0-6.5 6.5c0 1.61.59 3.09 1.56 4.23l-.27.27H5l-5 5 1.5 1.5 5-5v-.79l.27-.27C7.91 12.41 9.39 13 11 13a6.5 6.5 0 0 0 0-13zm0 2c2.5 0 4.5 2 4.5 4.5S13.5 11 11 11 6.5 9 6.5 6.5 8.5 2 11 2z"/></symbol><symbol id="icon-te-st" viewBox="0 0 99 40"><g><path d="M10.895 20.245a2 2 0 0 1-1.4-2.394L8.1 17.047a1.994 1.994 0 0 1-2.802-.04l-1.367.79A2.003 2.003 0 0 1 2 20.32a2 2 0 1 1 1.347-3.48l1.418-.817a2 2 0 0 1 3.33-1.875l2.785-1.607V9.28a1.998 1.998 0 0 1-.828-.48l-1.392.87a2 2 0 1 1-3.885.027l-1.45-.838a1.996 1.996 0 0 1-.765.42v1.68a2 2 0 1 1-1.12 0V9.28a2 2 0 1 1 1.988-3.32l1.333-.833a2 2 0 1 1 .528.99l-1.33.833a2.01 2.01 0 0 1-.035.962l1.406.81c.36-.347.85-.562 1.39-.562.53 0 1.013.207 1.37.544l1.405-.877a2.005 2.005 0 0 1 1.465-2.41V3.943a2 2 0 1 1 1.04-.02v1.517a2 2 0 0 1 0 3.84v3.307l2.653 1.532c.256-.26.582-.452.947-.542v-1.476a2 2 0 1 1 1.85-3.4l1.39-.867a2.01 2.01 0 0 1 .02-.888l-1.433-.828a2 2 0 1 1 .584-.956l1.42.818a2 2 0 1 1 1.93 3.378v1.52a2 2 0 1 1-1.04-.022V9.382c-.37-.09-.7-.286-.96-.553l-1.34.838a2.004 2.004 0 0 1-1.38 2.413v1.52a2 2 0 0 1 1.366 2.46l1.41.816a2 2 0 1 1-.56.97l-1.444-.834a2 2 0 0 1-3.29-1.906L11.4 13.534l-2.74 1.58a2.004 2.004 0 0 1 .003.963l1.39.802a2 2 0 1 1 1.896 3.375v2.62l2.278-1.318a2.003 2.003 0 0 1 1.932-2.517 2 2 0 1 1-1.4 3.428l-2.81 1.624v4.783h10.34a.352.352 0 0 1 0 .703H11.984c.182 1.334 1.447 1.512 3.42 1.674 1.924.157 4.103.336 4.69 2.502a.264.264 0 0 1-.255.334.263.263 0 0 1-.254-.196c-.442-1.632-2.03-1.917-3.685-2.068.046.05.088.1.127.155.316.426.81.625 1.334.835.657.264 1.335.537 1.642 1.286a.264.264 0 0 1-.487.2c-.223-.542-.745-.752-1.35-.995a7.767 7.767 0 0 1-.682-.3c.065.245.117.495.166.74.087.44.17.857.33 1.207a.264.264 0 0 1-.48.22c-.185-.406-.278-.873-.368-1.324-.216-1.08-.403-2.012-1.693-2.154-.005 0-.007 0-.01-.002-.916-.103-1.77-.285-2.328-.776.262.613.652 1.06 1.035 1.5.158.18.318.363.467.557l.01.007c.156.204.34.377.534.562.26.245.532.504.754.852.005.007.01.012.014.02.293.466 1.156 1.418 1.703 1.727a.264.264 0 0 1-.26.46c-.307-.173-.676-.496-1.014-.843.032.325.032.694-.014 1.127a.263.263 0 0 1-.262.236h-.028a.264.264 0 0 1-.234-.29c.128-1.21-.11-1.852-.47-2.325.16.822.055 1.91-.554 3.493a.264.264 0 0 1-.492-.19c1.18-3.065.378-3.983-.55-5.045-.37-.422-.762-.873-1.05-1.477.082 1.033.215 1.88.33 2.616.35 2.212.56 3.548-1.173 5.988a.262.262 0 0 1-.368.062.264.264 0 0 1-.062-.368c1.274-1.793 1.422-2.91 1.26-4.363a3.82 3.82 0 0 1-.357.495c-.33.407-.64.793-.575 1.874a.264.264 0 0 1-.247.28h-.015a.264.264 0 0 1-.263-.25c-.078-1.285.33-1.79.692-2.237.36-.445.67-.83.483-2.083a28.944 28.944 0 0 1-.222-1.844c-.283.577-.75 1.206-1.528 1.862-.928.782-.676 1.636-.385 2.623.19.648.388 1.317.265 2.012a.263.263 0 0 1-.52-.09c.102-.575-.077-1.183-.25-1.77a9.547 9.547 0 0 1-.216-.823l-.066.31c-.195.91-.396 1.855-1.62 2.657a.264.264 0 0 1-.287-.44c1.04-.684 1.203-1.445 1.39-2.328.083-.384.17-.792.344-1.203-.075.046-.15.09-.222.132-.772.457-1.198.708-1.37 1.68a.263.263 0 1 1-.518-.092c.213-1.21.803-1.56 1.62-2.043.43-.255.92-.543 1.496-1.03.91-.77 1.354-1.48 1.57-2.108-.07.086-.144.17-.226.246-.784.735-2.06 1.05-3.796.945-.77.142-.857.562-.975 1.488-.108.842-.24 1.89-1.16 2.98a.26.26 0 0 1-.372.03.264.264 0 0 1-.032-.37c.82-.972.942-1.934 1.04-2.706.07-.537.136-1.055.44-1.43-.286.02-.547.054-.783.103-.674.28-.703.634-.754 1.273-.036.428-.08.96-.365 1.55a.263.263 0 0 1-.352.12.264.264 0 0 1-.122-.352c.244-.5.28-.956.313-1.36.023-.282.046-.558.135-.813-1.014.588-1.173 1.452-1.183 1.51a.264.264 0 1 1-.52-.087c.13-.775.845-1.924 2.656-2.33l.008-.005a.26.26 0 0 1 .095-.02 7.292 7.292 0 0 1 1.93-.11c1.58.105 2.767-.172 3.436-.8.37-.348.528-.747.585-1.09H.555a.35.35 0 0 1 0-.703h10.34v-4.783l-2.82-1.63c-.22.217-.492.38-.794.473a2 2 0 1 1 1.144-2.8 1.936 1.936 0 0 1 .178 1.413l2.292 1.326v-2.63zm6.213 1.392a1.12 1.12 0 1 0-1.938-1.12l.03.018a1.062 1.062 0 0 0 .002 1.07 1.07 1.07 0 0 0 1.85 0l.056.032zm-10.122.47a1.12 1.12 0 1 0-1.28-.45l.085-.05a1.068 1.068 0 0 0 1.196.5zm5.405-3.195a1.12 1.12 0 1 0-1.912-.016l.017-.01a1.07 1.07 0 0 0 1.852 0l.044.026zM2 8.48a1.12 1.12 0 1 0 0-2.24 1.12 1.12 0 0 0 0 2.24zM2 14a1.12 1.12 0 1 0 0-2.24A1.12 1.12 0 0 0 2 14zm4.72-8.16a1.12 1.12 0 1 0 0-2.24 1.12 1.12 0 0 0 0 2.24zm4.72-2.72a1.12 1.12 0 1 0 0-2.24 1.12 1.12 0 0 0 0 2.24zm0 5.36a1.12 1.12 0 1 0 0-2.24 1.12 1.12 0 0 0 0 2.24zm-4.72 2.8a1.12 1.12 0 1 0 0-2.24 1.12 1.12 0 0 0 0 2.24zm9.36-5.52a1.12 1.12 0 1 0 0-2.24 1.12 1.12 0 0 0 0 2.24zm4.72 2.8a1.12 1.12 0 1 0 0-2.24 1.12 1.12 0 0 0 0 2.24zm0 5.36a1.12 1.12 0 1 0 0-2.24 1.12 1.12 0 0 0 0 2.24zm-4.72-2.64a1.12 1.12 0 1 0 0-2.24 1.12 1.12 0 0 0 0 2.24zm0 5.36a1.12 1.12 0 1 0 0-2.24 1.12 1.12 0 0 0 0 2.24zm4.72 2.8a1.12 1.12 0 1 0 0-2.24 1.12 1.12 0 0 0 0 2.24zM6.72 16.72a1.12 1.12 0 1 0 0-2.24 1.12 1.12 0 0 0 0 2.24zM2 19.44a1.12 1.12 0 1 0 0-2.24 1.12 1.12 0 0 0 0 2.24zM36.18 4.56v-.68H31.3v.68h2.06V11h.76V4.56h2.06zM41.93 11v-.68h-3.66V7.75h3.12v-.68h-3.12V4.56h3.66v-.68h-4.42V11h4.42zm6.47 0V3.88h-4.89V11h.76V4.56h3.37V11h.76zm6.78 0V3.88h-3.92v2.89c0 2.96-.63 3.55-1.51 3.55h-.19V11h.36C51.28 11 52 10 52 7V4.56h2.42V11h.76zm7.16 0V3.88h-.72L58 9.68v-5.8h-.76V11h.72l3.62-5.81V11h.76zm7.8 1.72v-2.4h-.85V3.88h-.76v6.44h-3.37V3.88h-.76V11h4.99v1.72h.75zm6.4-1.72l-2.61-7.12h-.64L70.67 11h.81l.57-1.61h3.11l.57 1.61h.81zm-1.6-2.27h-2.66l1.34-3.76 1.32 3.76zM36.72 20.04h-.76c-.19.87-.82 1.44-1.71 1.44-.47 0-.92-.18-1.23-.5-.45-.46-.5-.95-.5-2.44s.05-1.98.5-2.44c.31-.32.76-.5 1.23-.5.89 0 1.5.57 1.69 1.44h.78c-.24-1.34-1.19-2.12-2.47-2.12-.7 0-1.34.26-1.82.74-.67.67-.67 1.37-.67 2.88 0 1.51 0 2.21.67 2.88.48.48 1.12.74 1.82.74 1.27 0 2.24-.78 2.47-2.12zm6.19-1.99c0-.87-.05-1.77-.67-2.39-.48-.48-1.12-.74-1.82-.74s-1.34.26-1.82.74c-.61.61-.67 1.48-.67 2.33v.55c0 1.42.02 2.23.67 2.88.48.48 1.11.74 1.82.74s1.34-.26 1.82-.74c.65-.65.67-1.46.67-2.88v-.49zm-.76.84c0 .82-.01 1.59-.5 2.08-.33.33-.76.51-1.23.51s-.9-.18-1.23-.51c-.46-.46-.5-1.16-.5-1.93v-.71c0-.98 0-1.72.5-2.22.33-.33.77-.51 1.23-.51.46 0 .9.18 1.23.51.47.47.5 1.21.5 2.05v.73zm8.29 4.93v-2.4h-.85v-6.44h-.76v6.44h-3.37v-6.44h-.76v7.12h4.99v1.72h.75zm6.54-1.72v-7.12h-.72l-3.62 5.8v-5.8h-.76v7.12h.72l3.62-5.81v5.81h.76zm7.02 0l-2.61-7.12h-.64l-2.62 7.12h.81l.57-1.61h3.11l.57 1.61H64zm-1.6-2.27h-2.66l1.34-3.76 1.32 3.76zm7.46 2.27v-7.12h-3.92v2.89c0 2.96-.63 3.55-1.51 3.55h-.19v.68h.36c1.36 0 2.08-1 2.08-4v-2.44h2.42v6.44h.76zm6.93-2.09c0-1.26-.87-2.1-2.2-2.1h-1.91v-2.93h-.76v7.12h2.67c1.32 0 2.2-.84 2.2-2.09zm-.77 0c0 .89-.55 1.41-1.5 1.41h-1.84v-2.83h1.84c.95 0 1.5.52 1.5 1.42zm7.1 2.09v-7.12h-.76v3.19h-3.38v-3.19h-.76v7.12h.76v-3.25h3.38v3.25h.76zm8.64 0v-7.12H91v7.12h.76zm-1.71-2.09c0-1.26-.87-2.1-2.2-2.1h-1.91v-2.93h-.76v7.12h2.67c1.32 0 2.2-.84 2.2-2.09zm-.77 0c0 .89-.55 1.41-1.5 1.41h-1.84v-2.83h1.84c.95 0 1.5.52 1.5 1.42zm8.87 2.09l-2.2-3.65L98 14.98h-.88l-1.58 2.81-1.58-2.81h-.88l2.04 3.47-2.18 3.65h.86l1.74-2.99 1.73 2.99h.88zM36.18 27.56v-.68H31.3v.68h2.06V34h.76v-6.44h2.06zM41.93 34v-.68h-3.66v-2.57h3.12v-.68h-3.12v-2.51h3.66v-.68h-4.42V34h4.42zm5.91 0l-2.2-3.65 2.05-3.47h-.88l-1.58 2.81-1.58-2.81h-.88l2.04 3.47L42.63 34h.86l1.74-2.99L46.96 34h.88zm6.08 0v-7.12h-.76v3.19h-3.38v-3.19h-.76V34h.76v-3.25h3.38V34h.76zm6.77-4.05c0-.87-.05-1.77-.67-2.39-.48-.48-1.12-.74-1.82-.74s-1.34.26-1.82.74c-.61.61-.67 1.48-.67 2.33v.55c0 1.42.02 2.23.67 2.88.48.48 1.11.74 1.82.74s1.34-.26 1.82-.74c.65-.65.67-1.46.67-2.88v-.49zm-.76.84c0 .82-.01 1.59-.5 2.08-.33.33-.76.51-1.23.51s-.9-.18-1.23-.51c-.46-.46-.5-1.16-.5-1.93v-.71c0-.98 0-1.72.5-2.22.33-.33.77-.51 1.23-.51.46 0 .9.18 1.23.51.47.47.5 1.21.5 2.05v.73zM66.99 34v-7.12h-3.92v2.89c0 2.96-.63 3.55-1.51 3.55h-.19V34h.36c1.36 0 2.08-1 2.08-4v-2.44h2.42V34h.76zm6.77-4.05c0-.87-.05-1.77-.67-2.39-.48-.48-1.12-.74-1.82-.74s-1.34.26-1.82.74c-.61.61-.67 1.48-.67 2.33v.55c0 1.42.02 2.23.67 2.88.48.48 1.11.74 1.82.74s1.34-.26 1.82-.74c.65-.65.67-1.46.67-2.88v-.49zm-.76.84c0 .82-.01 1.59-.5 2.08-.33.33-.76.51-1.23.51s-.9-.18-1.23-.51c-.46-.46-.5-1.16-.5-1.93v-.71c0-.98 0-1.72.5-2.22.33-.33.77-.51 1.23-.51.46 0 .9.18 1.23.51.47.47.5 1.21.5 2.05v.73zm6.9-3.23v-.68h-4.28V34h.76v-6.44h3.52zM86.34 34v-7.12h-.72L82 32.68v-5.8h-.76V34h.72l3.62-5.81V34h.76zm7.16 0v-7.12h-.72l-3.62 5.8v-5.8h-.76V34h.72l3.62-5.81V34h.76zm-1.09-8.83h-.64c-.04.49-.33.74-.82.74-.49 0-.78-.25-.82-.74h-.64c.06.89.63 1.26 1.46 1.26s1.4-.37 1.46-1.26z"/></g></symbol><symbol id="icon-telegram" viewBox="0 0 32 27"><path d="M29.84.177L1.494 11.11c-1.935.777-1.923 1.856-.353 2.337l7.07 2.206 2.706 8.294c.33.907.166 1.267 1.12 1.267.735 0 1.06-.335 1.47-.735l3.536-3.44 7.353 5.434c1.353.746 2.33.36 2.667-1.257L31.89 2.47c.494-1.98-.756-2.88-2.05-2.293zM9.32 15.147L25.255 5.092c.795-.482 1.525-.223.926.31l-13.643 12.31-.532 5.666-2.685-8.234z"/></symbol><symbol id="icon-twitter" viewBox="0 0 32 26"><path d="M31.528 3.033a12.87 12.87 0 0 1-3.715 1.018A6.48 6.48 0 0 0 30.657.473a12.948 12.948 0 0 1-4.107 1.57 6.468 6.468 0 0 0-11.02 5.9A18.366 18.366 0 0 1 2.193 1.184a6.435 6.435 0 0 0-.875 3.252A6.465 6.465 0 0 0 4.197 9.82a6.45 6.45 0 0 1-2.93-.81v.082a6.473 6.473 0 0 0 5.19 6.343 6.503 6.503 0 0 1-2.923.11 6.475 6.475 0 0 0 6.042 4.492 12.976 12.976 0 0 1-8.033 2.77c-.522 0-1.037-.03-1.543-.09a18.304 18.304 0 0 0 9.916 2.905c11.898 0 18.403-9.856 18.403-18.404 0-.28-.006-.56-.02-.838a13.1 13.1 0 0 0 3.228-3.347z"/></symbol><symbol id="icon-up" viewBox="0 0 12 8"><path d="M1.41 8L6 3.41 10.59 8 12 6.58l-6-6-6 6L1.41 8z"/></symbol><symbol id="icon-viber" viewBox="0 0 31 31"><g><path d="M28.046 22.425c-.943-.76-1.95-1.44-2.943-2.136-1.978-1.39-3.788-1.5-5.264.737-.83 1.255-1.99 1.31-3.204.76-3.345-1.518-5.928-3.855-7.44-7.255-.67-1.504-.66-2.852.905-3.916.83-.563 1.665-1.23 1.598-2.458-.087-1.603-3.98-6.96-5.516-7.526-.636-.234-1.27-.22-1.916 0C.66 1.84-.83 4.806.598 8.316c4.265 10.47 11.77 17.76 22.103 22.208.59.254 1.245.355 1.576.446 2.352.025 5.108-2.242 5.904-4.49.766-2.165-.854-3.024-2.134-4.055zM16.46 1.706c7.554 1.16 11.038 4.753 12 12.36.09.703-.173 1.76.83 1.78 1.047.02.795-1.02.804-1.725C30.182 6.957 23.934.315 16.68.07 16.13.147 15-.31 14.927.917c-.047.828.907.692 1.533.788z"/><path d="M17.938 3.792c-.726-.088-1.685-.43-1.855.578-.177 1.058.892.95 1.58 1.104 4.664 1.043 6.288 2.74 7.056 7.37.11.673-.112 1.723 1.035 1.55.85-.13.543-1.03.614-1.556.036-4.443-3.77-8.487-8.432-9.046z"/><path d="M18.367 7.425c-.485.012-.96.064-1.14.582-.267.775.296.96.87 1.052 1.913.306 2.92 1.435 3.11 3.343.053.518.382.938.882.878.692-.08.755-.698.734-1.284.034-2.144-2.39-4.623-4.457-4.57z"/></g></symbol><symbol id="icon-vk" viewBox="0 0 32 21"><path d="M.005 1.527c-.22-1.336 6.24-.51 6.24-.51s3.75 9.418 5.23 9.418c1.477 0 .765-7.985.765-7.985s-1.833-.478-1.833-1.21C10.407.51 12.24 0 12.24 0h5.393c.646 0 .903 1.05.903 1.75v8.558h1.478s1.316-2.115 2.354-4.263c1.038-2.15 2.3-5.027 2.3-5.027h6.267s1.15.032 1.013.986c-.186 1.3-4.356 7.466-5.228 9.576-.657 1.59 2.76 3.744 4.215 6.045.945 1.493 1.013 3.245 1.013 3.245h-7.445l-3.723-4.327s-.766-.318-1.368.127c-.603.446-.63 1.337-.63 1.337v2.863h-5.83s-4.46-1.527-8.24-8.208C.937 5.982.225 2.862.006 1.527z"/></symbol><symbol id="icon-whatsup" viewBox="0 0 32 32"><path d="M16.172 0C7.58 0 .614 6.965.614 15.558c0 2.94.815 5.688 2.232 8.033L.038 31.94l8.614-2.758a15.49 15.49 0 0 0 7.52 1.935c8.592 0 15.557-6.965 15.557-15.557C31.73 6.965 24.763 0 16.17 0zm0 28.637c-2.657 0-5.13-.797-7.197-2.163l-5.026 1.61 1.632-4.858a13.01 13.01 0 0 1-2.49-7.668c0-7.213 5.867-13.08 13.08-13.08 7.212 0 13.08 5.867 13.08 13.08 0 7.212-5.868 13.08-13.08 13.08zm-3.65-19.514c-.25-.608-.444-.628-.834-.647a8.936 8.936 0 0 0-.436-.012c-.502 0-1.022.147-1.335.468-.382.39-1.335 1.304-1.335 3.18 0 1.877 1.367 3.69 1.557 3.944.19.255 2.664 4.16 6.514 5.757 3.005 1.244 3.897 1.133 4.583.983.997-.217 2.25-.952 2.568-1.842.317-.89.317-1.654.222-1.813-.095-.158-.35-.253-.73-.444-.382-.19-2.258-1.113-2.607-1.24-.35-.128-.673-.09-.942.283-.37.513-.728 1.04-1.023 1.353-.232.246-.606.28-.927.144-.422-.18-1.61-.594-3.067-1.893-1.132-1.01-1.898-2.26-2.12-2.64-.223-.382-.02-.61.152-.817.195-.237.376-.407.566-.63.19-.222.297-.34.425-.596.127-.253.04-.516-.054-.707-.097-.19-.86-2.066-1.177-2.83z"/></symbol><symbol id="icon-youtube" viewBox="0 0 24 24"><path d="M10 16.5v-9l6 4.5m4-7.6c-.6-.2-4.3-.4-8-.4s-7.4.19-8 .38C2.44 4.9 2 8.4 2 12c0 3.59.44 7.1 2 7.61.6.2 4.3.39 8 .39s7.4-.19 8-.39c1.56-.51 2-4.02 2-7.61 0-3.6-.44-7.09-2-7.6z"/></symbol></svg>