<?xml version="1.0" encoding="UTF-8" standalone="no"?>
<svg width="31px" height="31px" viewBox="0 0 31 31" version="1.1" xmlns="http://www.w3.org/2000/svg" xmlns:xlink="http://www.w3.org/1999/xlink" xmlns:sketch="http://www.bohemiancoding.com/sketch/ns">
    <!-- Generator: Sketch 3.3.3 (12072) - http://www.bohemiancoding.com/sketch -->
    <title>g15</title>
    <desc>Created with Sketch.</desc>
    <defs></defs>
    <g id="Page-1" stroke="none" stroke-width="1" fill="none" fill-rule="evenodd" sketch:type="MSPage">
        <g id="g15" sketch:type="MSLayerGroup" fill="#000000">
            <path d="M28.0456345,22.4253904 C27.1026948,21.6662774 26.094961,20.9848723 25.1030607,20.2887566 C23.1247626,18.8993327 21.315356,18.7914173 19.8391281,21.0267583 C19.0101677,22.2817653 17.8497129,22.3366775 16.6363672,21.7860959 C13.2912164,20.2694419 10.7082107,17.9323619 9.1951501,14.5324112 C8.52587289,13.0282219 8.53463189,11.679561 10.1006956,10.6156797 C10.9297684,10.0530826 11.7651296,9.38728656 11.6983142,8.15788273 C11.6110611,6.55487399 7.71892223,1.19773669 6.18194285,0.632332204 C5.54590491,0.398309772 4.91256206,0.413469575 4.26551923,0.630984666 C0.661416566,1.8429828 -0.831318648,4.80700491 0.59830687,8.31655533 C4.86326462,18.7871501 12.3690513,26.0764323 22.7010742,30.5254413 C23.2900606,30.7787785 23.9445149,30.8800684 24.275897,30.9709149 C26.6281368,30.9946091 29.3837398,28.7282748 30.1795732,26.4791216 C30.9457609,24.3153125 29.3264694,23.4563693 28.0456345,22.4253904 L28.0456345,22.4253904 Z" id="path17-6" sketch:type="MSShapeGroup"></path>
            <path d="M16.4608504,1.70575851 C24.01425,2.86733626 27.497748,6.4589742 28.4596656,14.0667245 C28.5488277,14.7694656 28.2870684,15.8268338 29.2896367,15.8463731 C30.3374598,15.8663615 30.085021,14.8246024 30.09378,14.1211875 C30.1823806,6.95610343 23.9348576,0.313751763 16.6792638,0.0688367326 C16.1318265,0.14755541 14.9991085,-0.308698496 14.9284751,0.918234849 C14.8814236,1.74551088 15.8350313,1.60952184 16.4608504,1.70575851 L16.4608504,1.70575851 Z" id="path19-1" sketch:type="MSShapeGroup"></path>
            <path d="M17.9383135,3.79174733 C17.2117659,3.70426965 16.2526558,3.36188271 16.082866,4.37006572 C15.9056647,5.42810763 16.9745992,5.32064148 17.6615067,5.4743731 C22.3266833,6.51703063 23.951028,8.2150408 24.7191247,12.8425986 C24.8313072,13.5172659 24.608402,14.5673349 25.7549322,14.3932779 C26.6046672,14.2639143 26.2977654,13.3637589 26.3688481,12.8379945 C26.4064668,8.395274 22.5994474,4.35142478 17.9383135,3.79174733 L17.9383135,3.79174733 Z" id="path21-2" sketch:type="MSShapeGroup"></path>
            <path d="M18.3667183,7.42470976 C17.8817169,7.43672531 17.4056991,7.489167 17.2274872,8.00740765 C16.9597763,8.78201741 17.5229349,8.96674241 18.0962,9.05882417 C20.0099286,9.36606283 21.0171009,10.4945136 21.2082267,12.402852 C21.2598824,12.9208681 21.5885693,13.3405139 22.0889551,13.2814468 C22.7822634,13.1987978 22.8449239,12.5816254 22.8237002,11.9955586 C22.8579501,9.8515134 20.4346276,7.37339102 18.3667183,7.42470976 L18.3667183,7.42470976 Z" id="path23" sketch:type="MSShapeGroup"></path>
        </g>
    </g>
</svg>