<svg width="14" height="16" viewBox="0 0 14 16" xmlns="http://www.w3.org/2000/svg">
<path d="M13.3448 6.26049C13.2453 5.16145 12.8623 4.10704 12.2332 3.20042C11.604 2.2938 10.7503 1.56603 9.75552 1.0883C8.76075 0.610568 7.65901 0.399245 6.55808 0.475002C5.45715 0.55076 4.39474 0.911003 3.47479 1.52049C2.68669 2.04747 2.02508 2.74246 1.5375 3.55553C1.04991 4.3686 0.74846 5.27957 0.654789 6.22299C0.5629 7.16023 0.680794 8.10618 0.999916 8.99219C1.31904 9.87821 1.83139 10.6821 2.49979 11.3455L6.47479 15.328C6.54451 15.3983 6.62746 15.4541 6.71886 15.4922C6.81025 15.5302 6.90828 15.5498 7.00729 15.5498C7.1063 15.5498 7.20433 15.5302 7.29572 15.4922C7.38712 15.4541 7.47007 15.3983 7.53979 15.328L11.4998 11.3455C12.1682 10.6821 12.6805 9.87821 12.9997 8.99219C13.3188 8.10618 13.4367 7.16023 13.3448 6.22299V6.26049ZM10.4498 10.288L6.99979 13.738L3.54979 10.288C3.04136 9.77953 2.65189 9.16474 2.40939 8.48781C2.16689 7.81088 2.07738 7.08864 2.14729 6.37299C2.21765 5.64632 2.44861 4.94436 2.82347 4.31787C3.19832 3.69138 3.70771 3.15602 4.31479 2.75049C5.1105 2.22192 6.04452 1.93996 6.99979 1.93996C7.95506 1.93996 8.88908 2.22192 9.68479 2.75049C10.29 3.15445 10.7983 3.68745 11.1731 4.31119C11.5478 4.93494 11.7798 5.63394 11.8523 6.35799C11.9245 7.07606 11.8361 7.8012 11.5935 8.4809C11.351 9.1606 10.9603 9.77786 10.4498 10.288Z"/>
</svg>
