<?xml version="1.0" encoding="UTF-8"?>
<svg width="12" height="16" viewBox="0 0 12 16" xmlns="http://www.w3.org/2000/svg">
<path d="M10.5 8.885V6.5C10.4989 5.43734 10.1218 4.40935 9.43546 3.59808C8.7491 2.78681 7.79779 2.24461 6.75 2.0675V1.25C6.75 1.05109 6.67098 0.860322 6.53033 0.71967C6.38968 0.579018 6.19891 0.5 6 0.5C5.80109 0.5 5.61032 0.579018 5.46967 0.71967C5.32902 0.860322 5.25 1.05109 5.25 1.25V2.0675C4.2022 2.24461 3.25089 2.78681 2.56454 3.59808C1.87818 4.40935 1.50108 5.43734 1.5 6.5V8.885C1.06234 9.03973 0.683249 9.32605 0.414704 9.7047C0.146159 10.0833 0.00130463 10.5358 0 11V12.5C0 12.6989 0.0790178 12.8897 0.21967 13.0303C0.360322 13.171 0.551088 13.25 0.75 13.25H3.105C3.27771 13.8855 3.65475 14.4466 4.17795 14.8465C4.70114 15.2465 5.34142 15.4632 6 15.4632C6.65858 15.4632 7.29886 15.2465 7.82205 14.8465C8.34525 14.4466 8.72229 13.8855 8.895 13.25H11.25C11.4489 13.25 11.6397 13.171 11.7803 13.0303C11.921 12.8897 12 12.6989 12 12.5V11C11.9987 10.5358 11.8538 10.0833 11.5853 9.7047C11.3167 9.32605 10.9377 9.03973 10.5 8.885ZM3 6.5C3 5.70435 3.31607 4.94129 3.87868 4.37868C4.44129 3.81607 5.20435 3.5 6 3.5C6.79565 3.5 7.55871 3.81607 8.12132 4.37868C8.68393 4.94129 9 5.70435 9 6.5V8.75H3V6.5ZM6 14C5.73823 13.9984 5.48143 13.9284 5.25512 13.7968C5.02882 13.6652 4.84088 13.4767 4.71 13.25H7.29C7.15912 13.4767 6.97118 13.6652 6.74488 13.7968C6.51857 13.9284 6.26177 13.9984 6 14ZM10.5 11.75H1.5V11C1.5 10.8011 1.57902 10.6103 1.71967 10.4697C1.86032 10.329 2.05109 10.25 2.25 10.25H9.75C9.94891 10.25 10.1397 10.329 10.2803 10.4697C10.421 10.6103 10.5 10.8011 10.5 11V11.75Z"/>
</svg>
