<svg width="10" height="18" viewBox="0 0 10 18" xmlns="http://www.w3.org/2000/svg">
<path fill-rule="evenodd" clip-rule="evenodd" d="M2.75 3C2.75 1.75736 3.75736 0.75 5 0.75C6.24264 0.75 7.25 1.75736 7.25 3V9C7.25 10.2426 6.24264 11.25 5 11.25C3.75736 11.25 2.75 10.2426 2.75 9V3ZM5.75 3V9C5.75 9.41421 5.41421 9.75 5 9.75C4.58579 9.75 4.25 9.41421 4.25 9V3C4.25 2.58579 4.58579 2.25 5 2.25C5.41421 2.25 5.75 2.58579 5.75 3Z"/>
<path d="M9.5 9C9.5 11.2297 7.87828 13.0807 5.75 13.4378V15.75H8.75V17.25H1.25V15.75H4.25V13.4378C2.12171 13.0807 0.5 11.2297 0.5 9V6.75H2V9C2 10.6569 3.34315 12 5 12C6.65685 12 8 10.6569 8 9V6.75H9.5V9Z"/>
</svg>
