<?xml version="1.0" encoding="UTF-8" standalone="no"?>
<svg width="32px" height="27px" viewBox="0 0 32 27" version="1.1" xmlns="http://www.w3.org/2000/svg" xmlns:xlink="http://www.w3.org/1999/xlink" xmlns:sketch="http://www.bohemiancoding.com/sketch/ns">
    <!-- Generator: Sketch 3.3.3 (12072) - http://www.bohemiancoding.com/sketch -->
    <title>path9</title>
    <desc>Created with Sketch.</desc>
    <defs></defs>
    <g id="Page-1" stroke="none" stroke-width="1" fill="none" fill-rule="evenodd" sketch:type="MSPage">
        <path d="M29.8395284,0.177464413 L1.4938725,11.1104417 C-0.440764139,11.8866545 -0.429290764,12.9657099 1.14124074,13.446869 L8.21073295,15.6534015 L10.9156866,23.9465813 C11.2445295,24.8542678 11.0824241,25.2142694 12.0355851,25.2142694 C12.7711661,25.2142694 13.0974833,24.8789005 13.5071685,24.4786884 C13.7676949,24.2237412 15.3145406,22.719841 17.0417047,21.0405748 L24.3953027,26.4737471 C25.7484637,27.2202744 26.7255191,26.8335367 27.0624675,25.2170062 L31.8895339,2.46999728 C32.3837459,0.48862376 31.1341629,-0.410115792 29.8395284,0.177464413 L29.8395284,0.177464413 Z M9.32020973,15.1464533 L25.2548843,5.09316247 C26.0503594,4.61074055 26.7797293,4.87010971 26.1808853,5.40168979 L12.5366383,17.7122492 L12.0053749,23.3785801 L9.32020973,15.1464533 L9.32020973,15.1464533 Z" id="path9" fill="#000000" sketch:type="MSShapeGroup"></path>
    </g>
</svg>