<svg width="16" height="18" viewBox="0 0 16 18" xmlns="http://www.w3.org/2000/svg">
<path d="M8 14.25C8.14834 14.25 8.29334 14.206 8.41668 14.1236C8.54002 14.0412 8.63615 13.9241 8.69291 13.787C8.74968 13.65 8.76453 13.4992 8.73559 13.3537C8.70665 13.2082 8.63522 13.0746 8.53033 12.9697C8.42544 12.8648 8.2918 12.7934 8.14632 12.7644C8.00083 12.7355 7.85003 12.7503 7.71299 12.8071C7.57594 12.8639 7.45881 12.96 7.3764 13.0833C7.29399 13.2067 7.25 13.3517 7.25 13.5C7.25 13.6989 7.32902 13.8897 7.46967 14.0303C7.61032 14.171 7.80109 14.25 8 14.25ZM11.75 14.25C11.8983 14.25 12.0433 14.206 12.1667 14.1236C12.29 14.0412 12.3861 13.9241 12.4429 13.787C12.4997 13.65 12.5145 13.4992 12.4856 13.3537C12.4567 13.2082 12.3852 13.0746 12.2803 12.9697C12.1754 12.8648 12.0418 12.7934 11.8963 12.7644C11.7508 12.7355 11.6 12.7503 11.463 12.8071C11.3259 12.8639 11.2088 12.96 11.1264 13.0833C11.044 13.2067 11 13.3517 11 13.5C11 13.6989 11.079 13.8897 11.2197 14.0303C11.3603 14.171 11.5511 14.25 11.75 14.25ZM11.75 11.25C11.8983 11.25 12.0433 11.206 12.1667 11.1236C12.29 11.0412 12.3861 10.9241 12.4429 10.787C12.4997 10.65 12.5145 10.4992 12.4856 10.3537C12.4567 10.2082 12.3852 10.0746 12.2803 9.96967C12.1754 9.86478 12.0418 9.79335 11.8963 9.76441C11.7508 9.73547 11.6 9.75032 11.463 9.80709C11.3259 9.86386 11.2088 9.95998 11.1264 10.0833C11.044 10.2067 11 10.3517 11 10.5C11 10.6989 11.079 10.8897 11.2197 11.0303C11.3603 11.171 11.5511 11.25 11.75 11.25ZM8 11.25C8.14834 11.25 8.29334 11.206 8.41668 11.1236C8.54002 11.0412 8.63615 10.9241 8.69291 10.787C8.74968 10.65 8.76453 10.4992 8.73559 10.3537C8.70665 10.2082 8.63522 10.0746 8.53033 9.96967C8.42544 9.86478 8.2918 9.79335 8.14632 9.76441C8.00083 9.73547 7.85003 9.75032 7.71299 9.80709C7.57594 9.86386 7.45881 9.95998 7.3764 10.0833C7.29399 10.2067 7.25 10.3517 7.25 10.5C7.25 10.6989 7.32902 10.8897 7.46967 11.0303C7.61032 11.171 7.80109 11.25 8 11.25ZM13.25 2.25H12.5V1.5C12.5 1.30109 12.421 1.11032 12.2803 0.96967C12.1397 0.829018 11.9489 0.75 11.75 0.75C11.5511 0.75 11.3603 0.829018 11.2197 0.96967C11.079 1.11032 11 1.30109 11 1.5V2.25H5V1.5C5 1.30109 4.92098 1.11032 4.78033 0.96967C4.63968 0.829018 4.44891 0.75 4.25 0.75C4.05109 0.75 3.86032 0.829018 3.71967 0.96967C3.57902 1.11032 3.5 1.30109 3.5 1.5V2.25H2.75C2.15326 2.25 1.58097 2.48705 1.15901 2.90901C0.737053 3.33097 0.5 3.90326 0.5 4.5V15C0.5 15.5967 0.737053 16.169 1.15901 16.591C1.58097 17.0129 2.15326 17.25 2.75 17.25H13.25C13.8467 17.25 14.419 17.0129 14.841 16.591C15.2629 16.169 15.5 15.5967 15.5 15V4.5C15.5 3.90326 15.2629 3.33097 14.841 2.90901C14.419 2.48705 13.8467 2.25 13.25 2.25ZM14 15C14 15.1989 13.921 15.3897 13.7803 15.5303C13.6397 15.671 13.4489 15.75 13.25 15.75H2.75C2.55109 15.75 2.36032 15.671 2.21967 15.5303C2.07902 15.3897 2 15.1989 2 15V8.25H14V15ZM14 6.75H2V4.5C2 4.30109 2.07902 4.11032 2.21967 3.96967C2.36032 3.82902 2.55109 3.75 2.75 3.75H3.5V4.5C3.5 4.69891 3.57902 4.88968 3.71967 5.03033C3.86032 5.17098 4.05109 5.25 4.25 5.25C4.44891 5.25 4.63968 5.17098 4.78033 5.03033C4.92098 4.88968 5 4.69891 5 4.5V3.75H11V4.5C11 4.69891 11.079 4.88968 11.2197 5.03033C11.3603 5.17098 11.5511 5.25 11.75 5.25C11.9489 5.25 12.1397 5.17098 12.2803 5.03033C12.421 4.88968 12.5 4.69891 12.5 4.5V3.75H13.25C13.4489 3.75 13.6397 3.82902 13.7803 3.96967C13.921 4.11032 14 4.30109 14 4.5V6.75ZM4.25 11.25C4.39834 11.25 4.54334 11.206 4.66668 11.1236C4.79002 11.0412 4.88614 10.9241 4.94291 10.787C4.99968 10.65 5.01453 10.4992 4.98559 10.3537C4.95665 10.2082 4.88522 10.0746 4.78033 9.96967C4.67544 9.86478 4.5418 9.79335 4.39632 9.76441C4.25083 9.73547 4.10003 9.75032 3.96299 9.80709C3.82594 9.86386 3.70881 9.95998 3.6264 10.0833C3.54399 10.2067 3.5 10.3517 3.5 10.5C3.5 10.6989 3.57902 10.8897 3.71967 11.0303C3.86032 11.171 4.05109 11.25 4.25 11.25ZM4.25 14.25C4.39834 14.25 4.54334 14.206 4.66668 14.1236C4.79002 14.0412 4.88614 13.9241 4.94291 13.787C4.99968 13.65 5.01453 13.4992 4.98559 13.3537C4.95665 13.2082 4.88522 13.0746 4.78033 12.9697C4.67544 12.8648 4.5418 12.7934 4.39632 12.7644C4.25083 12.7355 4.10003 12.7503 3.96299 12.8071C3.82594 12.8639 3.70881 12.96 3.6264 13.0833C3.54399 13.2067 3.5 13.3517 3.5 13.5C3.5 13.6989 3.57902 13.8897 3.71967 14.0303C3.86032 14.171 4.05109 14.25 4.25 14.25Z"/>
</svg>
