<?xml version="1.0" encoding="UTF-8"?>
<svg width="38px" height="37px" viewBox="0 0 38 37" version="1.1" xmlns="http://www.w3.org/2000/svg" xmlns:xlink="http://www.w3.org/1999/xlink">
    <!-- Generator: Sketch 46.2 (44496) - http://www.bohemiancoding.com/sketch -->
    <title>Artboard</title>
    <desc>Created with Sketch.</desc>
    <defs>
        <circle id="path-1" cx="18" cy="19" r="18"></circle>
    </defs>
    <g id="Page-1" stroke="none" stroke-width="1" fill="none" fill-rule="evenodd">
        <g id="Artboard">
            <mask id="mask-2" fill="white">
                <use xlink:href="#path-1"></use>
            </mask>
            <g id="Mask"></g>
            <g id="kandinsky-(1)" mask="url(#mask-2)" fill-rule="nonzero">
                <g transform="translate(0.000000, 1.000000)">
                    <polygon id="Fill-1" stroke="none" fill-opacity="0.5" fill="#ACACAC" points="0 27.055243 33.2198785 -3.12236287e-05 35.9687636 -3.12236287e-05 3.35010846 36.9999688 0 36.9999688"></polygon>
                    <polygon id="Fill-4" stroke="none" fill-opacity="0.5" fill="#898989" points="6.62992711 0 12.1353501 0 35.9687557 21.7862869 35.9687557 35.485654"></polygon>
                    <path d="M23.2164703,11.6698312 C23.2164703,12.3380949 22.6745961,12.8797468 22.0060581,12.8797468 C21.3375202,12.8797468 20.795646,12.3380949 20.795646,11.6698312 C20.795646,11.0015675 21.3375202,10.4599156 22.0060581,10.4599156 C22.6745961,10.4599156 23.2164703,11.0015675 23.2164703,11.6698312 Z" id="Fill-6" stroke="none" fill="#7A7A7A"></path>
                    <path d="M18.1873718,2.8179403 C20.2177406,2.8179403 22.1856364,3.21604156 24.0363957,3.99663228 C25.8247601,4.75380527 27.4333588,5.83882637 28.8156495,7.22047194 C30.197862,8.60211751 31.2832503,10.2101344 32.0407341,11.9976871 C32.8216451,13.8476871 33.2199098,15.8147757 33.2199098,17.8443116 C33.2199098,19.8738475 32.8216451,21.8409361 32.0407341,23.6909361 C31.2832503,25.4784888 30.197862,27.0865057 28.8156495,28.4681513 C27.4333588,29.8497968 25.8247601,30.9348179 24.0363957,31.6919909 C22.1856364,32.4725816 20.2177406,32.8706829 18.1873718,32.8706829 C16.157003,32.8706829 14.1891072,32.4725816 12.338426,31.6919909 C10.5500616,30.9348179 8.94146291,29.8497968 7.55917223,28.4681513 C6.17695965,27.0865057 5.09149328,25.4784888 4.33408764,23.6909361 C3.55317657,21.8409361 3.15483384,19.8738475 3.15483384,17.8443116 C3.15483384,15.8147757 3.55317657,13.8476871 4.33408764,11.9976871 C5.09149328,10.2101344 6.17695965,8.60211751 7.55917223,7.22047194 C8.94146291,5.83882637 10.5500616,4.75380527 12.338426,3.99663228 C14.1891072,3.21604156 16.157003,2.8179403 18.1873718,2.8179403" id="Fill-8" stroke="#979797" stroke-width="1" fill="none"></path>
                </g>
            </g>
        </g>
    </g>
</svg>