<?xml version="1.0" encoding="UTF-8"?>
<svg width="35px" height="34px" viewBox="0 0 35 34" version="1.1" xmlns="http://www.w3.org/2000/svg" xmlns:xlink="http://www.w3.org/1999/xlink">
    <!-- Generator: Sketch 45.2 (43514) - http://www.bohemiancoding.com/sketch -->
    <title>Group 2</title>
    <desc>Created with Sketch.</desc>
    <defs></defs>
    <g id="Page-1" stroke="none" stroke-width="1" fill="none" fill-rule="evenodd">
        <g id="Group-2">
            <path d="M0.708357219,25.6639052 L27.8006195,3.59914705 C28.6013217,4.20063152 29.35023,4.86733902 30.0394565,5.59138147 L6.32329074,32.4931078 C3.92949034,30.7267098 1.98896533,28.3814284 0.708357219,25.6639052 Z" id="Combined-Shape" fill-opacity="0.5" fill="#ACACAC" fill-rule="nonzero"></path>
            <path d="M11.9279227,0.724496316 L34.6592702,21.503384 C34.0240068,24.7237169 32.5298327,27.6355447 30.4253106,29.9903044 L7.74510934,2.55833747 C9.04210747,1.77931465 10.4453402,1.15907271 11.9279227,0.724496316 Z" id="Combined-Shape" fill-opacity="0.5" fill="#898989" fill-rule="nonzero"></path>
            <path d="M22.2164703,11.6698312 C22.2164703,12.3380949 21.6745961,12.8797468 21.0060581,12.8797468 C20.3375202,12.8797468 19.795646,12.3380949 19.795646,11.6698312 C19.795646,11.0015675 20.3375202,10.4599156 21.0060581,10.4599156 C21.6745961,10.4599156 22.2164703,11.0015675 22.2164703,11.6698312 Z" id="Fill-6" fill="#7A7A7A" fill-rule="nonzero"></path>
            <path d="M17.1873718,2.8179403 C19.2177406,2.8179403 21.1856364,3.21604156 23.0363957,3.99663228 C24.8247601,4.75380527 26.4333588,5.83882637 27.8156495,7.22047194 C29.197862,8.60211751 30.2832503,10.2101344 31.0407341,11.9976871 C31.8216451,13.8476871 32.2199098,15.8147757 32.2199098,17.8443116 C32.2199098,19.8738475 31.8216451,21.8409361 31.0407341,23.6909361 C30.2832503,25.4784888 29.197862,27.0865057 27.8156495,28.4681513 C26.4333588,29.8497968 24.8247601,30.9348179 23.0363957,31.6919909 C21.1856364,32.4725816 19.2177406,32.8706829 17.1873718,32.8706829 C15.157003,32.8706829 13.1891072,32.4725816 11.338426,31.6919909 C9.5500616,30.9348179 7.94146291,29.8497968 6.55917223,28.4681513 C5.17695965,27.0865057 4.09149328,25.4784888 3.33408764,23.6909361 C2.55317657,21.8409361 2.15483384,19.8738475 2.15483384,17.8443116 C2.15483384,15.8147757 2.55317657,13.8476871 3.33408764,11.9976871 C4.09149328,10.2101344 5.17695965,8.60211751 6.55917223,7.22047194 C7.94146291,5.83882637 9.5500616,4.75380527 11.338426,3.99663228 C13.1891072,3.21604156 15.157003,2.8179403 17.1873718,2.8179403" id="Fill-8" stroke="#979797"></path>
        </g>
    </g>
</svg>