<?xml version="1.0" encoding="UTF-8" standalone="no"?>
<svg width="1075px" height="1075px" viewBox="0 0 1075 1075" version="1.1" xmlns="http://www.w3.org/2000/svg" xmlns:xlink="http://www.w3.org/1999/xlink">
    <!-- Generator: Sketch 3.8.3 (29802) - http://www.bohemiancoding.com/sketch -->
    <title>Group 2</title>
    <desc>Created with Sketch.</desc>
    <defs></defs>
    <g id="Page-1" stroke="none" stroke-width="1" fill="none" fill-rule="evenodd">
        <g id="Group-2" fill="#D82332">
            <g id="Group" transform="translate(50.000000, 19.000000)">
                <polygon id="Combined-Shape" points="598 412 598 196 382 196 382 412 166 412 166 628 382 628 382 844 598 844 598 628 814 628 814 412"></polygon>
                <path d="M52.839211,415.89631 L52.839211,438.234508 C52.839211,442.591271 53.1065538,445.33401 53.6412474,446.462807 C54.1759409,447.591605 55.1264931,448.492649 56.4929323,449.165967 C57.8593715,449.839285 60.3644724,450.175939 64.0083102,450.175939 L64.0083102,452.374113 L23.0747497,452.374113 L23.0747497,450.175939 C26.7978014,450.175939 29.3227055,449.829383 30.6495378,449.136262 C31.97637,448.443141 32.907119,447.542097 33.4418126,446.433102 C33.9765062,445.324108 34.2438489,442.591271 34.2438489,438.234508 L34.2438489,385.953618 C34.2438489,381.596856 33.9765062,378.854117 33.4418126,377.725319 C32.907119,376.596521 31.9664684,375.695477 30.6198327,375.022159 C29.273197,374.348842 26.7581945,374.012188 23.0747497,374.012188 L23.0747497,371.814014 L58.1861202,371.814014 C69.7513446,371.814014 78.0488726,373.873543 83.0789531,377.992665 C88.1090335,382.111786 90.6240361,387.26061 90.6240361,393.439291 C90.6240361,398.667406 89.0001762,403.142923 85.7524077,406.865974 C82.5046392,410.589026 78.0291229,413.123832 72.3257245,414.470467 C68.483852,415.421034 61.9884125,415.89631 52.839211,415.89631 L52.839211,415.89631 Z M52.839211,376.448002 L52.839211,411.262322 C54.1462398,411.341536 55.1363982,411.381142 55.8097161,411.381142 C60.6417619,411.381142 64.3647578,409.945412 66.9788153,407.07391 C69.5928729,404.202407 70.8998821,399.756595 70.8998821,393.736342 C70.8998821,387.755695 69.5928729,383.379194 66.9788153,380.606709 C64.3647578,377.834224 60.4635334,376.448002 55.2750252,376.448002 L52.839211,376.448002 Z" id="Р" transform="translate(56.849393, 412.094063) rotate(281.000000) translate(-56.849393, -412.094063) "></path>
                <path d="M76.111034,729.739806 L76.111034,752.078005 C76.111034,756.434768 76.3783768,759.177506 76.9130704,760.306304 C77.447764,761.435102 78.3983161,762.336146 79.7647553,763.009464 C81.1311945,763.682782 83.6362954,764.019435 87.2801332,764.019435 L87.2801332,766.217609 L46.3465727,766.217609 L46.3465727,764.019435 C50.0696244,764.019435 52.5945285,763.67288 53.9213608,762.979759 C55.248193,762.286637 56.178942,761.385593 56.7136356,760.276599 C57.2483292,759.167605 57.515672,756.434768 57.515672,752.078005 L57.515672,699.797115 C57.515672,695.440352 57.2483292,692.697613 56.7136356,691.568816 C56.178942,690.440018 55.2382914,689.538974 53.8916557,688.865656 C52.54502,688.192338 50.0300175,687.855684 46.3465727,687.855684 L46.3465727,685.65751 L81.4579432,685.65751 C93.0231676,685.65751 101.320696,687.71704 106.350776,691.836161 C111.380857,695.955282 113.895859,701.104106 113.895859,707.282788 C113.895859,712.510903 112.271999,716.986419 109.024231,720.709471 C105.776462,724.432523 101.300946,726.967328 95.5975476,728.313964 C91.7556751,729.26453 85.2602355,729.739806 76.111034,729.739806 L76.111034,729.739806 Z M76.111034,690.291498 L76.111034,725.105818 C77.4180628,725.185032 78.4082213,725.224639 79.0815391,725.224639 C83.9135849,725.224639 87.6365808,723.788909 90.2506384,720.917406 C92.8646959,718.045904 94.1717051,713.600092 94.1717051,707.579838 C94.1717051,701.599191 92.8646959,697.222691 90.2506384,694.450206 C87.6365808,691.67772 83.7353564,690.291498 78.5468482,690.291498 L76.111034,690.291498 Z" id="Р" transform="translate(80.121216, 725.937560) rotate(426.000000) translate(-80.121216, -725.937560) "></path>
                <path d="M769.524859,886.04029 L769.524859,908.378489 C769.524859,912.735252 769.792202,915.477991 770.326896,916.606788 C770.861589,917.735586 771.812141,918.63663 773.178581,919.309948 C774.54502,919.983266 777.050121,920.31992 780.693958,920.31992 L780.693958,922.518093 L739.760398,922.518093 L739.760398,920.31992 C743.48345,920.31992 746.008354,919.973364 747.335186,919.280243 C748.662018,918.587121 749.592767,917.686077 750.127461,916.577083 C750.662154,915.468089 750.929497,912.735252 750.929497,908.378489 L750.929497,856.097599 C750.929497,851.740836 750.662154,848.998097 750.127461,847.8693 C749.592767,846.740502 748.652117,845.839458 747.305481,845.16614 C745.958845,844.492822 743.443843,844.156168 739.760398,844.156168 L739.760398,841.957995 L774.871768,841.957995 C786.436993,841.957995 794.734521,844.017524 799.764601,848.136645 C804.794682,852.255766 807.309684,857.40459 807.309684,863.583272 C807.309684,868.811387 805.685824,873.286903 802.438056,877.009955 C799.190287,880.733007 794.714771,883.267812 789.011373,884.614448 C785.1695,885.565014 778.674061,886.04029 769.524859,886.04029 L769.524859,886.04029 Z M769.524859,846.591983 L769.524859,881.406302 C770.831888,881.485516 771.822046,881.525123 772.495364,881.525123 C777.32741,881.525123 781.050406,880.089393 783.664464,877.21789 C786.278521,874.346388 787.58553,869.900576 787.58553,863.880322 C787.58553,857.899675 786.278521,853.523175 783.664464,850.75069 C781.050406,847.978204 777.149182,846.591983 771.960673,846.591983 L769.524859,846.591983 Z" id="Р" transform="translate(773.535041, 882.238044) rotate(682.000000) translate(-773.535041, -882.238044) "></path>
                <path d="M100.119637,253.115772 C113.317637,252.626957 124.040851,256.476316 132.289601,264.663964 C140.538351,272.851612 144.662664,283.096202 144.662664,295.398042 C144.662664,305.90756 141.58725,315.154168 135.436331,323.138144 C127.289417,333.729131 115.782074,339.024546 100.913957,339.024546 C86.0051054,339.024546 74.4773957,333.973535 66.3304822,323.871362 C59.8944206,315.887387 56.676438,306.416742 56.676438,295.459143 C56.676438,283.157304 60.861852,272.90253 69.2328057,264.694515 C77.6037593,256.4865 87.8992668,252.626957 100.119637,253.115772 L100.119637,253.115772 Z M100.852856,257.026271 C93.276226,257.026271 87.5123712,260.895997 83.5611181,268.635565 C80.3430873,274.990157 78.734096,284.114564 78.734096,296.009057 C78.734096,310.143952 81.2188674,320.592212 86.1884846,327.35415 C89.6509229,332.07936 94.4982637,334.44193 100.730653,334.44193 C104.926313,334.44193 108.429433,333.423581 111.240118,331.386852 C114.82476,328.77984 117.615036,324.614793 119.61103,318.891586 C121.607024,313.168379 122.605006,305.703882 122.605006,296.49787 C122.605006,285.540271 121.586657,277.342562 119.549929,271.904498 C117.5132,266.466433 114.916411,262.627257 111.759482,260.386856 C108.602553,258.146455 104.967047,257.026271 100.852856,257.026271 L100.852856,257.026271 Z" id="О" transform="translate(100.669551, 296.049504) rotate(-65.000000) translate(-100.669551, -296.049504) "></path>
                <path d="M221.068784,147.060473 L221.068784,175.965574 L218.670276,175.965574 C216.866261,168.42151 213.504282,162.640547 208.584241,158.622513 C203.664199,154.604479 198.088235,152.595492 191.856182,152.595492 C186.649138,152.595492 181.872669,154.091982 177.526632,157.085008 C173.180595,160.078033 170.003115,163.993508 167.994098,168.831549 C165.411076,175.022602 164.119585,181.910557 164.119585,189.495622 C164.119585,196.957685 165.062578,203.753391 166.948594,209.882943 C168.83461,216.012495 171.786591,220.645465 175.804626,223.781992 C179.82266,226.918519 185.029626,228.486758 191.42568,228.486758 C196.673725,228.486758 201.480944,227.338766 205.847481,225.042746 C210.214018,222.746727 214.816238,218.790253 219.654279,213.173205 L219.654279,220.36873 C214.98024,225.247771 210.111521,228.783999 205.047978,230.977517 C199.984435,233.171036 194.070223,234.267779 187.305166,234.267779 C178.40809,234.267779 170.505391,232.48429 163.596833,228.91726 C156.688274,225.35023 151.358308,220.225263 147.606777,213.542206 C143.855245,206.859149 141.979507,199.745695 141.979507,192.201631 C141.979507,184.247563 144.060243,176.703612 148.221779,169.569552 C152.383314,162.435491 158.000278,156.900527 165.072838,152.964493 C172.145398,149.02846 179.658599,147.060473 187.612667,147.060473 C193.475717,147.060473 199.666677,148.331464 206.185732,150.873486 C209.957764,152.349499 212.356249,153.087494 213.381257,153.087494 C214.693269,153.087494 215.831011,152.605747 216.794519,151.642239 C217.758028,150.678731 218.383273,149.15149 218.670276,147.060473 L221.068784,147.060473 Z" id="С" transform="translate(181.524146, 190.664126) rotate(-40.000000) translate(-181.524146, -190.664126) "></path>
                <path d="M237.855825,839.397671 L237.855825,867.459647 L235.527278,867.459647 C233.775884,860.135634 230.51197,854.523295 225.735439,850.622461 C220.958909,846.721628 215.545589,844.771241 209.495317,844.771241 C204.440155,844.771241 199.803009,846.22408 195.583741,849.129803 C191.364472,852.035526 188.279676,855.836791 186.329259,860.533713 C183.82158,866.54418 182.56776,873.231223 182.56776,880.595041 C182.56776,887.839446 183.483248,894.43693 185.314251,900.387691 C187.145255,906.338452 190.01113,910.836284 193.911963,913.881322 C197.812797,916.92636 202.867882,918.448857 209.077372,918.448857 C214.172338,918.448857 218.839337,917.334349 223.078508,915.105302 C227.317678,912.876254 231.785658,909.035185 236.482579,903.581979 L236.482579,910.567621 C231.944875,915.304347 227.218171,918.737427 222.302325,920.866963 C217.386479,922.9965 211.644777,924.061252 205.077048,924.061252 C196.439488,924.061252 188.767301,922.329786 182.060256,918.866801 C175.353211,915.403816 170.178714,910.428338 166.536609,903.940217 C162.894505,897.452097 161.07348,890.546133 161.07348,883.22212 C161.07348,875.500062 163.093524,868.176158 167.133673,861.250189 C171.173821,854.324219 176.626945,848.950703 183.493208,845.129479 C190.359471,841.308254 197.653522,839.397671 205.37558,839.397671 C211.067612,839.397671 217.077989,840.631589 223.406892,843.099463 C227.068899,844.532422 229.397423,845.248891 230.392533,845.248891 C231.666275,845.248891 232.770831,844.781196 233.706235,843.845792 C234.641639,842.910389 235.248647,841.427696 235.527278,839.397671 L237.855825,839.397671 Z" id="С" transform="translate(199.464652, 881.729461) rotate(40.000000) translate(-199.464652, -881.729461) "></path>
                <path d="M938.028172,674.818428 L938.028172,703.109025 L935.680654,703.109025 C933.914991,695.725343 930.624487,690.06728 925.809042,686.134667 C920.993597,682.202053 915.536174,680.235776 909.436611,680.235776 C904.340265,680.235776 899.665341,681.700452 895.411698,684.629848 C891.158055,687.559243 888.048126,691.391477 886.08182,696.126665 C883.553711,702.1861 882.289676,708.927621 882.289676,716.351432 C882.289676,723.654857 883.212622,730.306091 885.058543,736.305332 C886.904463,742.304574 889.793687,746.83905 893.7263,749.908896 C897.658914,752.978742 902.755183,754.513642 909.015261,754.513642 C914.151736,754.513642 918.856756,753.390055 923.130464,751.142848 C927.404171,748.89564 931.908551,745.023278 936.643739,739.525645 L936.643739,746.568198 C932.069066,751.343514 927.303853,754.804563 922.347958,756.951449 C917.392063,759.098335 911.603583,760.171762 904.982347,760.171762 C896.274417,760.171762 888.539725,758.426189 881.778037,754.934992 C875.01635,751.443794 869.799696,746.427781 866.12792,739.886802 C862.456143,733.345822 860.620282,726.383596 860.620282,718.999914 C860.620282,711.214945 862.656783,703.831373 866.729847,696.848978 C870.802911,689.866583 876.300462,684.449289 883.222664,680.596933 C890.144866,676.744577 897.498341,674.818428 905.28331,674.818428 C911.021716,674.818428 917.081059,676.062399 923.461524,678.550379 C927.153365,679.995012 929.500859,680.717318 930.504077,680.717318 C931.788196,680.717318 932.901751,680.245813 933.844775,679.302788 C934.7878,678.359764 935.399753,676.864992 935.680654,674.818428 L938.028172,674.818428 Z" id="С" transform="translate(899.324227, 717.495095) rotate(296.000000) translate(-899.324227, -717.495095) "></path>
                <text id="С" transform="translate(685.220661, 110.961927) rotate(23.000000) translate(-685.220661, -110.961927) " font-family="TimesNewRomanPS-BoldMT, Times New Roman" font-size="130" font-weight="bold" letter-spacing="16.7142849">
                    <tspan x="629.720661" y="154.961927">С</tspan>
                </text>
                <path d="M324.678949,71.2499669 L324.678949,100.490367 L322.252618,100.490367 C320.427676,92.8587917 317.026699,87.0107702 312.049585,82.9461269 C307.072471,78.8814836 301.431826,76.8491924 295.127481,76.8491924 C289.860035,76.8491924 285.028159,78.363042 280.631708,81.3907865 C276.235257,84.418531 273.020919,88.379425 270.988598,93.2735873 C268.375613,99.5364561 267.06914,106.504311 267.06914,114.177363 C267.06914,121.725986 268.023072,128.600522 269.930966,134.801177 C271.83886,141.001831 274.825084,145.688544 278.889727,148.861454 C282.95437,152.034364 288.221737,153.620796 294.691986,153.620796 C300.000908,153.620796 304.86389,152.459487 309.281079,150.136833 C313.698268,147.81418 318.353874,143.811811 323.248036,138.129605 L323.248036,145.408598 C318.519777,150.344237 313.594582,153.921484 308.472302,156.140447 C303.350022,158.359411 297.367205,159.468876 290.523673,159.468876 C281.523392,159.468876 273.529022,157.664699 266.540324,154.056291 C259.551626,150.447883 254.159833,145.263467 250.364784,138.502887 C246.569734,131.742307 244.672238,124.546337 244.672238,116.914762 C244.672238,108.868427 246.777111,101.236966 250.98692,94.0201507 C255.196729,86.803335 260.878849,81.2041655 268.033451,77.2224741 C275.188052,73.2407827 282.788407,71.2499669 290.834741,71.2499669 C296.765803,71.2499669 303.028577,72.5357021 309.623254,75.1072111 C313.439041,76.6003454 315.865348,77.3469013 316.902247,77.3469013 C318.229477,77.3469013 319.380418,76.8595662 320.355103,75.8848813 C321.329788,74.9101965 321.962286,73.3652404 322.252618,71.2499669 L324.678949,71.2499669 Z" id="С" transform="translate(284.675593, 115.359421) rotate(-27.000000) translate(-284.675593, -115.359421) "></path>
                <path d="M428.143021,47.8087187 C428.103148,43.4226407 427.574833,40.4620824 426.55806,38.9269551 C425.541288,37.3918278 422.999394,36.6242756 418.932304,36.6242756 L416.24086,36.6242756 L416.24086,34.411311 L459.722625,34.411311 L459.722625,36.6242756 L456.911562,36.6242756 C453.163459,36.6242756 450.681375,37.3419867 449.465235,38.7774304 C448.249095,40.2128742 447.641034,43.3628284 447.641034,48.2273877 L447.641034,101.577779 C447.641034,106.561959 448.259063,109.761754 449.49514,111.177261 C450.731216,112.592768 453.203332,113.300511 456.911562,113.300511 L459.722625,113.300511 L459.722625,115.513476 L416.24086,115.513476 L416.24086,113.300511 L418.932304,113.300511 C422.72028,113.300511 425.202364,112.552895 426.378631,111.057641 C427.554897,109.562387 428.143021,106.402465 428.143021,101.577779 L428.143021,57.5577252 L399.55391,102.415117 C399.55391,106.28284 400.032384,109.063971 400.989347,110.758592 C401.946309,112.453213 404.538044,113.300511 408.764628,113.300511 L411.575691,113.300511 L411.575691,115.513476 L368.093926,115.513476 L368.093926,113.300511 L370.78537,113.300511 C374.573346,113.300511 377.065398,112.552895 378.261602,111.057641 C379.457805,109.562387 380.055897,106.402465 380.055897,101.577779 L380.055897,48.2273877 C380.055897,43.3628284 379.577423,40.2128742 378.620461,38.7774304 C377.663498,37.3419867 375.051827,36.6242756 370.78537,36.6242756 L368.093926,36.6242756 L368.093926,34.411311 L411.575691,34.411311 L411.575691,36.6242756 L408.764628,36.6242756 C405.096272,36.6242756 402.644092,37.4117642 401.408016,38.9867649 C400.171939,40.5617657 399.55391,43.6419425 399.55391,48.2273877 L399.55391,92.6661106 L428.143021,47.8087187 Z" id="И" transform="translate(413.908276, 74.962393) rotate(-9.000000) translate(-413.908276, -74.962393) "></path>
                <path d="M552.017603,22.5815579 C543.716171,22.5815579 537.702785,21.4780914 533.977264,19.2711253 C530.251743,17.0641593 528.389011,14.3409255 528.389011,11.1013422 C528.389011,9.44105583 528.976176,8.06425361 530.150525,6.97089427 C531.324874,5.87753493 532.762418,5.33086346 534.463199,5.33086346 C537.743277,5.33086346 540.253916,7.45680807 541.995192,11.7087611 C542.967067,14.0169641 544.192016,15.6367314 545.670076,16.5681116 C547.148136,17.4994918 549.162722,17.9651749 551.713893,17.9651749 C554.710508,17.9651749 556.917441,17.4994918 558.334758,16.5681116 C559.752076,15.6367314 561.068137,13.9157287 562.282981,11.4050516 C564.186236,7.3960674 566.717122,5.39160534 569.875716,5.39160534 C571.576497,5.39160534 573.024164,5.93827681 574.218761,7.03163615 C575.413357,8.12499549 576.010646,9.62328026 576.010646,11.5265354 C576.010646,14.6851291 574.087172,17.317251 570.240167,19.4229801 C566.393162,21.5287092 560.319035,22.5815579 552.017603,22.5815579 L552.017603,22.5815579 Z M566.717138,44.144926 C566.676643,39.690499 566.140095,36.6838059 565.107478,35.1247565 C564.074861,33.5657071 561.493357,32.7861941 557.362888,32.7861941 L554.629504,32.7861941 L554.629504,30.5387444 L598.788852,30.5387444 L598.788852,32.7861941 L595.933983,32.7861941 C592.127473,32.7861941 589.60671,33.5150894 588.371619,34.9729018 C587.136528,36.4307143 586.518992,39.6297547 586.518992,44.5701191 L586.518992,98.7518778 C586.518992,103.813727 587.146651,107.063385 588.40199,108.50095 C589.657328,109.938515 592.167968,110.657287 595.933983,110.657287 L598.788852,110.657287 L598.788852,112.904736 L554.629504,112.904736 L554.629504,110.657287 L557.362888,110.657287 C561.209893,110.657287 563.730656,109.898021 564.925253,108.379466 C566.119849,106.860911 566.717138,103.651747 566.717138,98.7518778 L566.717138,54.0458527 L537.682519,99.6022641 C537.682519,103.530259 538.168449,106.354728 539.140324,108.075757 C540.112199,109.796785 542.744321,110.657287 547.036768,110.657287 L549.891637,110.657287 L549.891637,112.904736 L505.732289,112.904736 L505.732289,110.657287 L508.465673,110.657287 C512.312679,110.657287 514.843565,109.898021 516.058409,108.379466 C517.273252,106.860911 517.880665,103.651747 517.880665,98.7518778 L517.880665,44.5701191 C517.880665,39.6297547 517.394735,36.4307143 516.42286,34.9729018 C515.450985,33.5150894 512.798616,32.7861941 508.465673,32.7861941 L505.732289,32.7861941 L505.732289,30.5387444 L549.891637,30.5387444 L549.891637,32.7861941 L547.036768,32.7861941 C543.311248,32.7861941 540.820855,33.5859542 539.565517,35.1854984 C538.310178,36.7850426 537.682519,39.9132182 537.682519,44.5701191 L537.682519,89.7013374 L566.717138,44.144926 Z" id="Й" transform="translate(552.260570, 59.117800) rotate(7.000000) translate(-552.260570, -59.117800) "></path>
                <path d="M884.260188,259.798257 C884.220314,255.412179 883.691999,252.451621 882.675227,250.916494 C881.658454,249.381366 879.116561,248.613814 875.04947,248.613814 L872.358027,248.613814 L872.358027,246.400849 L915.839792,246.400849 L915.839792,248.613814 L913.028729,248.613814 C909.280626,248.613814 906.798541,249.331525 905.582402,250.766969 C904.366262,252.202413 903.758201,255.352367 903.758201,260.216926 L903.758201,313.567318 C903.758201,318.551497 904.37623,321.751292 905.612306,323.166799 C906.848383,324.582306 909.320499,325.290049 913.028729,325.290049 L915.839792,325.290049 L915.839792,327.503014 L872.358027,327.503014 L872.358027,325.290049 L875.04947,325.290049 C878.837447,325.290049 881.319531,324.542434 882.495797,323.04718 C883.672064,321.551926 884.260188,318.392003 884.260188,313.567318 L884.260188,269.547264 L855.671077,314.404656 C855.671077,318.272379 856.149551,321.053509 857.106513,322.74813 C858.063476,324.442752 860.65521,325.290049 864.881795,325.290049 L867.692858,325.290049 L867.692858,327.503014 L824.211093,327.503014 L824.211093,325.290049 L826.902536,325.290049 C830.690513,325.290049 833.182565,324.542434 834.378768,323.04718 C835.574971,321.551926 836.173064,318.392003 836.173064,313.567318 L836.173064,260.216926 C836.173064,255.352367 835.69459,252.202413 834.737627,250.766969 C833.780665,249.331525 831.168994,248.613814 826.902536,248.613814 L824.211093,248.613814 L824.211093,246.400849 L867.692858,246.400849 L867.692858,248.613814 L864.881795,248.613814 C861.213438,248.613814 858.761259,249.401303 857.525182,250.976303 C856.289106,252.551304 855.671077,255.631481 855.671077,260.216926 L855.671077,304.655649 L884.260188,259.798257 Z" id="И" transform="translate(870.025442, 286.951932) rotate(60.000000) translate(-870.025442, -286.951932) "></path>
                <path d="M931.559884,372.285771 C923.258452,372.285771 917.245066,371.182304 913.519545,368.975338 C909.794024,366.768372 907.931292,364.045138 907.931292,360.805555 C907.931292,359.145269 908.518458,357.768467 909.692807,356.675107 C910.867156,355.581748 912.304699,355.035076 914.00548,355.035076 C917.285558,355.035076 919.796198,357.161021 921.537474,361.412974 C922.509349,363.721177 923.734298,365.340944 925.212357,366.272325 C926.690417,367.203705 928.705003,367.669388 931.256175,367.669388 C934.252789,367.669388 936.459722,367.203705 937.87704,366.272325 C939.294357,365.340944 940.610418,363.619942 941.825262,361.109265 C943.728517,357.10028 946.259404,355.095818 949.417997,355.095818 C951.118779,355.095818 952.566446,355.64249 953.761042,356.735849 C954.955638,357.829208 955.552927,359.327493 955.552927,361.230748 C955.552927,364.389342 953.629454,367.021464 949.782449,369.127193 C945.935444,371.232922 939.861316,372.285771 931.559884,372.285771 L931.559884,372.285771 Z M946.25942,393.849139 C946.218925,389.394712 945.682377,386.388019 944.64976,384.82897 C943.617142,383.26992 941.035638,382.490407 936.90517,382.490407 L934.171785,382.490407 L934.171785,380.242957 L978.331133,380.242957 L978.331133,382.490407 L975.476265,382.490407 C971.669754,382.490407 969.148991,383.219302 967.9139,384.677115 C966.678809,386.134927 966.061273,389.333968 966.061273,394.274332 L966.061273,448.456091 C966.061273,453.51794 966.688933,456.767598 967.944271,458.205163 C969.19961,459.642728 971.710249,460.3615 975.476265,460.3615 L978.331133,460.3615 L978.331133,462.608949 L934.171785,462.608949 L934.171785,460.3615 L936.90517,460.3615 C940.752175,460.3615 943.272938,459.602234 944.467534,458.083679 C945.66213,456.565124 946.25942,453.35596 946.25942,448.456091 L946.25942,403.750066 L917.2248,449.306477 C917.2248,453.234472 917.71073,456.058941 918.682605,457.77997 C919.65448,459.500998 922.286602,460.3615 926.57905,460.3615 L929.433918,460.3615 L929.433918,462.608949 L885.27457,462.608949 L885.27457,460.3615 L888.007955,460.3615 C891.85496,460.3615 894.385846,459.602234 895.60069,458.083679 C896.815534,456.565124 897.422946,453.35596 897.422946,448.456091 L897.422946,394.274332 C897.422946,389.333968 896.937016,386.134927 895.965141,384.677115 C894.993266,383.219302 892.340897,382.490407 888.007955,382.490407 L885.27457,382.490407 L885.27457,380.242957 L929.433918,380.242957 L929.433918,382.490407 L926.57905,382.490407 C922.853529,382.490407 920.363137,383.290167 919.107798,384.889711 C917.85246,386.489256 917.2248,389.617431 917.2248,394.274332 L917.2248,439.40555 L946.25942,393.849139 Z" id="Й" transform="translate(931.802852, 408.822013) rotate(75.000000) translate(-931.802852, -408.822013) "></path>
                <path d="M547.318199,932.202729 C539.016767,932.202729 533.00338,931.099262 529.27786,928.892296 C525.552339,926.68533 523.689607,923.962096 523.689607,920.722513 C523.689607,919.062227 524.276772,917.685425 525.451121,916.592065 C526.62547,915.498706 528.063014,914.952034 529.763795,914.952034 C533.043873,914.952034 535.554512,917.077979 537.295788,921.329932 C538.267663,923.638135 539.492612,925.257902 540.970672,926.189283 C542.448732,927.120663 544.463317,927.586346 547.014489,927.586346 C550.011104,927.586346 552.218037,927.120663 553.635354,926.189283 C555.052672,925.257902 556.368733,923.5369 557.583577,921.026223 C559.486832,917.017238 562.017718,915.012776 565.176312,915.012776 C566.877093,915.012776 568.32476,915.559448 569.519356,916.652807 C570.713953,917.746166 571.311242,919.244451 571.311242,921.147706 C571.311242,924.3063 569.387768,926.938422 565.540763,929.044151 C561.693758,931.14988 555.619631,932.202729 547.318199,932.202729 L547.318199,932.202729 Z M562.017734,953.766097 C561.977239,949.31167 561.440691,946.304977 560.408074,944.745928 C559.375457,943.186878 556.793953,942.407365 552.663484,942.407365 L549.9301,942.407365 L549.9301,940.159915 L594.089448,940.159915 L594.089448,942.407365 L591.234579,942.407365 C587.428069,942.407365 584.907306,943.13626 583.672215,944.594073 C582.437124,946.051885 581.819588,949.250926 581.819588,954.19129 L581.819588,1008.37305 C581.819588,1013.4349 582.447247,1016.68456 583.702586,1018.12212 C584.957924,1019.55969 587.468564,1020.27846 591.234579,1020.27846 L594.089448,1020.27846 L594.089448,1022.52591 L549.9301,1022.52591 L549.9301,1020.27846 L552.663484,1020.27846 C556.510489,1020.27846 559.031252,1019.51919 560.225849,1018.00064 C561.420445,1016.48208 562.017734,1013.27292 562.017734,1008.37305 L562.017734,963.667024 L532.983115,1009.22344 C532.983115,1013.15143 533.469045,1015.9759 534.44092,1017.69693 C535.412795,1019.41796 538.044917,1020.27846 542.337364,1020.27846 L545.192233,1020.27846 L545.192233,1022.52591 L501.032885,1022.52591 L501.032885,1020.27846 L503.766269,1020.27846 C507.613274,1020.27846 510.144161,1019.51919 511.359005,1018.00064 C512.573848,1016.48208 513.181261,1013.27292 513.181261,1008.37305 L513.181261,954.19129 C513.181261,949.250926 512.695331,946.051885 511.723456,944.594073 C510.751581,943.13626 508.099212,942.407365 503.766269,942.407365 L501.032885,942.407365 L501.032885,940.159915 L545.192233,940.159915 L545.192233,942.407365 L542.337364,942.407365 C538.611844,942.407365 536.121451,943.207125 534.866113,944.806669 C533.610774,946.406214 532.983115,949.534389 532.983115,954.19129 L532.983115,999.322508 L562.017734,953.766097 Z" id="Й" transform="translate(547.561166, 968.738971) rotate(-8.000000) translate(-547.561166, -968.738971) "></path>
                <path d="M743.410247,143.744527 L785.783953,143.744527 L785.783953,145.965245 L784.403506,145.965245 C780.402192,145.965245 777.731355,146.695474 776.390915,148.155953 C775.050474,149.616433 774.380264,152.387302 774.380264,156.468642 L774.380264,180.776505 C779.982104,180.776505 783.623245,180.586445 785.303797,180.20632 C786.984349,179.826195 788.544839,178.72585 789.985312,176.905252 C791.425785,175.084654 792.806217,171.573554 794.126651,166.371845 C795.687164,160.289848 797.197637,155.728418 798.658117,152.687419 C800.118597,149.64642 802.13923,147.235665 804.720078,145.45508 C807.300925,143.674495 810.531938,142.784216 814.413213,142.784216 C818.254474,142.784216 821.33544,143.874558 823.656202,146.055274 C825.976965,148.23599 827.137328,150.926834 827.137328,154.127885 C827.137328,156.6087 826.357084,158.569314 824.796571,160.009788 C823.236059,161.450261 821.295451,162.170486 818.974688,162.170486 C814.41319,162.170486 811.952419,159.529659 811.5923,154.247924 C811.432248,151.607056 810.511959,150.286643 808.831407,150.286643 C807.030816,150.286643 805.490333,151.306962 804.209913,153.347633 C802.929492,155.388303 801.549059,159.049451 800.068573,164.331185 C798.6281,169.492881 797.387711,173.364094 796.347369,175.944942 C795.307028,178.525789 793.826564,180.69647 791.905933,182.457048 C794.466774,183.097258 796.437392,183.937522 797.817845,184.977863 C799.198298,186.018205 800.44869,187.368628 801.569058,189.029174 C802.689426,190.689719 805.090179,194.901039 808.771388,201.66326 L817.054067,216.428036 C818.334488,218.628759 819.864967,220.25927 821.645552,221.319618 C823.426137,222.379966 825.576811,222.910133 828.097639,222.910133 L828.097639,225.130851 L800.848825,225.130851 L784.103409,193.920756 C782.182778,190.3996 780.772336,188.268932 779.87204,187.528689 C778.971745,186.788445 777.141171,186.358311 774.380264,186.238271 L774.380264,213.787182 C774.380264,217.70847 775.190518,220.209254 776.81105,221.289609 C778.431583,222.369963 781.42252,222.910133 785.783953,222.910133 L785.783953,225.130851 L743.410247,225.130851 L743.410247,222.910133 C748.091785,222.830106 751.162747,222.13989 752.623227,220.839463 C754.083707,219.539036 754.813935,216.748161 754.813935,212.466755 L754.813935,158.029147 C754.813935,153.267583 754.233754,150.06658 753.073372,148.426041 C751.912991,146.785502 749.272164,145.965245 745.15081,145.965245 L743.410247,145.965245 L743.410247,143.744527 Z" id="К" transform="translate(785.753943, 183.957533) rotate(43.000000) translate(-785.753943, -183.957533) "></path>
                <path d="M4.94672302,585.050294 L47.3204288,585.050294 L47.3204288,587.271012 L45.9399823,587.271012 C41.9386681,587.271012 39.2678309,588.001241 37.9273906,589.461721 C36.5869504,590.9222 35.9167403,593.693069 35.9167403,597.77441 L35.9167403,622.082272 C41.5185802,622.082272 45.1597215,621.892212 46.8402735,621.512087 C48.5208255,621.131963 50.0813146,620.031618 51.5217877,618.21102 C52.9622609,616.390422 54.3426936,612.879321 55.6631273,607.677613 C57.2236398,601.595615 58.7341133,597.034185 60.194593,593.993186 C61.6550727,590.952188 63.675706,588.541432 66.2565537,586.760847 C68.8374014,584.980262 72.0684142,584.089983 75.949689,584.089983 C79.7909506,584.089983 82.8719164,585.180325 85.1926786,587.361041 C87.5134409,589.541758 88.6738046,592.232601 88.6738046,595.433652 C88.6738046,597.914467 87.89356,599.875082 86.3330475,601.315555 C84.7725349,602.756028 82.8319266,603.476254 80.5111644,603.476254 C75.9496662,603.476254 73.4888948,600.835426 73.1287765,595.553691 C72.968724,592.912824 72.0484355,591.59241 70.3678835,591.59241 C68.5672921,591.59241 67.0268093,592.61273 65.7463887,594.6534 C64.4659681,596.69407 63.0855354,600.355218 61.6050492,605.636953 C60.1645761,610.798648 58.9241873,614.669861 57.8838456,617.250709 C56.8435039,619.831557 55.3630398,622.002237 53.442409,623.762815 C56.0032501,624.403026 57.9738678,625.243289 59.3543212,626.283631 C60.7347746,627.323973 61.9851665,628.674396 63.1055345,630.334941 C64.2259025,631.995487 66.626655,636.206807 70.3078641,642.969028 L78.5905431,657.733803 C79.8709637,659.934526 81.4014434,661.565037 83.1820283,662.625386 C84.9626131,663.685734 87.1132872,664.2159 89.6341152,664.2159 L89.6341152,666.436618 L62.3853016,666.436618 L45.6398852,635.226523 C43.7192544,631.705367 42.3088123,629.574699 41.4085166,628.834456 C40.5082209,628.094213 38.6776471,627.664078 35.9167403,627.544039 L35.9167403,655.092949 C35.9167403,659.014237 36.7269943,661.515021 38.3475265,662.595376 C39.9680588,663.675731 42.9589963,664.2159 47.3204288,664.2159 L47.3204288,666.436618 L4.94672302,666.436618 L4.94672302,664.2159 C9.62826067,664.135874 12.6992233,663.445657 14.159703,662.14523 C15.6201827,660.844803 16.3504116,658.053928 16.3504116,653.772522 L16.3504116,599.334914 C16.3504116,594.57335 15.7702297,591.372347 14.6098486,589.731808 C13.4494674,588.091269 10.8086397,587.271012 6.68728601,587.271012 L4.94672302,587.271012 L4.94672302,585.050294 Z" id="К" transform="translate(47.290419, 625.263301) rotate(81.000000) translate(-47.290419, -625.263301) "></path>
                <path d="M639.652155,898.326619 L682.025861,898.326619 L682.025861,900.547338 L680.645415,900.547338 C676.6441,900.547338 673.973263,901.277566 672.632823,902.738046 C671.292383,904.198526 670.622173,906.969394 670.622173,911.050735 L670.622173,935.358597 C676.224013,935.358597 679.865154,935.168538 681.545706,934.788413 C683.226258,934.408288 684.786747,933.307943 686.22722,931.487345 C687.667693,929.666747 689.048126,926.155647 690.36856,920.953938 C691.929072,914.87194 693.439546,910.310511 694.900025,907.269512 C696.360505,904.228513 698.381138,901.817757 700.961986,900.037173 C703.542834,898.256588 706.773847,897.366309 710.655121,897.366309 C714.496383,897.366309 717.577349,898.45665 719.898111,900.637367 C722.218873,902.818083 723.379237,905.508926 723.379237,908.709978 C723.379237,911.190793 722.598992,913.151407 721.03848,914.59188 C719.477967,916.032353 717.537359,916.752579 715.216597,916.752579 C710.655099,916.752579 708.194327,914.111751 707.834209,908.830017 C707.674156,906.189149 706.753868,904.868735 705.073316,904.868735 C703.272725,904.868735 701.732242,905.889055 700.451821,907.929725 C699.171401,909.970396 697.790968,913.631543 696.310482,918.913278 C694.870008,924.074973 693.62962,927.946187 692.589278,930.527034 C691.548936,933.107882 690.068472,935.278563 688.147841,937.039141 C690.708682,937.679351 692.6793,938.519614 694.059754,939.559956 C695.440207,940.600298 696.690599,941.950721 697.810967,943.611267 C698.931335,945.271812 701.332087,949.483132 705.013297,956.245353 L713.295976,971.010129 C714.576396,973.210852 716.106876,974.841363 717.887461,975.901711 C719.668045,976.962059 721.81872,977.492225 724.339548,977.492225 L724.339548,979.712944 L697.090734,979.712944 L680.345318,948.502849 C678.424687,944.981692 677.014245,942.851024 676.113949,942.110781 C675.213653,941.370538 673.383079,940.940403 670.622173,940.820364 L670.622173,968.369275 C670.622173,972.290562 671.432427,974.791346 673.052959,975.871701 C674.673491,976.952056 677.664429,977.492225 682.025861,977.492225 L682.025861,979.712944 L639.652155,979.712944 L639.652155,977.492225 C644.333693,977.412199 647.404656,976.721983 648.865135,975.421556 C650.325615,974.121128 651.055844,971.330254 651.055844,967.048847 L651.055844,912.61124 C651.055844,907.849676 650.475662,904.648672 649.315281,903.008133 C648.1549,901.367595 645.514072,900.547338 641.392718,900.547338 L639.652155,900.547338 L639.652155,898.326619 Z" id="К" transform="translate(681.995852, 938.539626) rotate(331.000000) translate(-681.995852, -938.539626) "></path>
                <path d="M136.639239,822.498171 L107.067204,822.498171 L103.548193,830.647459 C102.395763,833.363901 101.819556,835.606991 101.819556,837.376795 C101.819556,839.722813 102.766181,841.451433 104.659459,842.562705 C105.770732,843.221236 108.507712,843.715128 112.870484,844.044393 L112.870484,846.328663 L85.0270851,846.328663 L85.0270851,844.044393 C88.0316354,843.591653 90.5010918,842.346635 92.4355283,840.309303 C94.3699648,838.271971 96.7571059,834.063606 99.5970233,827.684081 L129.539481,760.884619 L130.712485,760.884619 L160.90189,829.536192 C163.782966,836.039191 166.149528,840.134373 168.001648,841.82186 C169.401028,843.097765 171.376593,843.838602 173.928403,844.044393 L173.928403,846.328663 L133.428914,846.328663 L133.428914,844.044393 L135.095813,844.044393 C138.347313,844.044393 140.63156,843.59166 141.948623,842.686179 C142.854104,842.027647 143.306838,841.081022 143.306838,839.846276 C143.306838,839.105428 143.183365,838.344012 142.936416,837.562006 C142.854099,837.191582 142.236735,835.648171 141.084305,832.931729 L136.639239,822.498171 Z M134.54018,817.929631 L122.069301,789.09844 L109.227999,817.929631 L134.54018,817.929631 Z" id="А" transform="translate(129.477744, 803.606641) rotate(55.000000) translate(-129.477744, -803.606641) "></path>
                <path d="M282.243945,943.77248 L282.243945,969.354637 C282.243945,973.577744 282.477431,976.217147 282.944409,977.272923 C283.411387,978.3287 284.325027,979.252491 285.685355,980.044324 C287.045682,980.836156 288.883113,981.232067 291.1977,981.232067 L293.938646,981.232067 L293.938646,983.485733 L250.753529,983.485733 L250.753529,981.232067 L253.494474,981.232067 C255.890276,981.232067 257.81907,980.805702 259.280915,979.952959 C260.336691,979.384464 261.148815,978.409915 261.71731,977.029284 C262.163985,976.054721 262.387319,973.49653 262.387319,969.354637 L262.387319,915.023009 C262.387319,910.799902 262.163985,908.160499 261.71731,907.104723 C261.270636,906.048946 260.367148,905.125155 259.00682,904.333322 C257.646492,903.54149 255.809062,903.145579 253.494474,903.145579 L250.753529,903.145579 L250.753529,900.891913 L293.938646,900.891913 L293.938646,903.145579 L291.1977,903.145579 C288.801899,903.145579 286.873105,903.571944 285.41126,904.424687 C284.355483,904.993182 283.523056,905.967731 282.913954,907.348362 C282.46728,908.322925 282.243945,910.881116 282.243945,915.023009 L282.243945,938.412409 L311.419786,938.412409 L311.419786,915.023009 C311.419786,910.799902 311.196452,908.160499 310.749777,907.104723 C310.303102,906.048946 309.389463,905.125155 308.008832,904.333322 C306.6282,903.54149 304.780619,903.145579 302.466031,903.145579 L299.785996,903.145579 L299.785996,900.891913 L342.910202,900.891913 L342.910202,903.145579 L340.230167,903.145579 C337.793759,903.145579 335.864965,903.571944 334.443727,904.424687 C333.38795,904.993182 332.555523,905.967731 331.946421,907.348362 C331.499746,908.322925 331.276412,910.881116 331.276412,915.023009 L331.276412,969.354637 C331.276412,973.577744 331.499746,976.217147 331.946421,977.272923 C332.393096,978.3287 333.306735,979.252491 334.687366,980.044324 C336.067998,980.836156 337.915579,981.232067 340.230167,981.232067 L342.910202,981.232067 L342.910202,983.485733 L299.785996,983.485733 L299.785996,981.232067 L302.466031,981.232067 C304.902439,981.232067 306.831233,980.805702 308.252471,979.952959 C309.308248,979.384464 310.140675,978.409915 310.749777,977.029284 C311.196452,976.054721 311.419786,973.49653 311.419786,969.354637 L311.419786,943.77248 L282.243945,943.77248 Z" id="Н" transform="translate(296.831866, 942.188823) rotate(26.000000) translate(-296.831866, -942.188823) "></path>
                <path d="M392.475039,975.255425 L403.36133,975.255425 C415.119394,975.255425 423.653998,977.323192 428.9654,981.458787 C434.276801,985.594381 436.932462,991.108425 436.932462,998.001083 C436.932462,1002.70431 435.584359,1006.75875 432.888113,1010.16454 C430.191868,1013.57032 426.806407,1016.10435 422.73163,1017.7667 C418.656852,1019.42904 412.706956,1020.2602 404.881761,1020.2602 L360.667608,1020.2602 L360.667608,1018.00996 C365.776284,1017.92887 369.050247,1017.24976 370.489596,1015.97259 C371.928946,1014.69542 372.648609,1011.90799 372.648609,1007.61021 L372.648609,952.813853 C372.648609,946.975366 372.050579,943.407456 370.8545,942.110014 C369.658421,940.812573 366.485819,940.123317 361.336598,940.042227 L361.336598,937.791988 L403.787051,937.791988 L403.787051,940.042227 C399.894726,940.082772 397.310018,940.447672 396.032849,941.136938 C394.75568,941.826204 393.84343,942.677637 393.296072,943.691263 C392.748714,944.704889 392.475039,947.218645 392.475039,951.232604 L392.475039,975.255425 Z M392.475039,980.607345 L392.475039,1005.48161 C392.475039,1009.41448 393.022389,1012.18164 394.117105,1013.78316 C395.211821,1015.38469 397.239043,1016.18545 400.198832,1016.18545 C404.942602,1016.18545 408.520649,1014.58394 410.93308,1011.38088 C413.34551,1008.17782 414.551707,1004.1842 414.551707,999.399881 C414.551707,994.777745 413.457007,990.895615 411.267575,987.753374 C409.078142,984.611133 406.635339,982.634591 403.939094,981.82369 C401.242848,981.012789 397.421535,980.607345 392.475039,980.607345 L392.475039,980.607345 Z M478.409838,1018.00996 L478.409838,1020.2602 L435.351213,1020.2602 L435.351213,1018.00996 L438.027172,1018.00996 C440.622056,1018.00996 442.568189,1017.58425 443.86563,1016.7328 C445.163072,1015.88136 446.004369,1014.85761 446.389547,1013.66153 C446.774725,1012.46545 446.967311,1009.96183 446.967311,1006.1506 L446.967311,951.901594 C446.967311,948.049815 446.805133,945.566468 446.480773,944.451479 C446.156412,943.33649 445.294843,942.322879 443.896039,941.410616 C442.497235,940.498352 440.540965,940.042227 438.027172,940.042227 L435.351213,940.042227 L435.351213,937.791988 L478.409838,937.791988 L478.409838,940.042227 L475.733879,940.042227 C473.138996,940.042227 471.192862,940.467944 469.895421,941.31939 C468.597979,942.170836 467.756682,943.194583 467.371504,944.390662 C466.986326,945.586741 466.79374,948.09036 466.79374,951.901594 L466.79374,1006.1506 C466.79374,1010.00238 466.955918,1012.48572 467.280278,1013.60071 C467.604639,1014.7157 468.466208,1015.72931 469.865012,1016.64158 C471.263816,1017.55384 473.220086,1018.00996 475.733879,1018.00996 L478.409838,1018.00996 Z" id="Ы" transform="translate(419.538723, 979.026096) rotate(8.000000) translate(-419.538723, -979.026096) "></path>
                <path d="M837.053104,773.321528 L837.053104,807.103957 L838.705506,807.103957 C843.968736,807.103957 847.783502,805.451572 850.149915,802.146753 C852.516329,798.841934 854.025916,793.966378 854.678719,787.51994 L857.004321,787.51994 L857.004321,830.971978 L854.678719,830.971978 C854.189116,826.23915 853.158926,822.363186 851.588117,819.343968 C850.017307,816.32475 848.191524,814.294969 846.110712,813.254563 C844.0299,812.214156 841.010727,811.693961 837.053104,811.693961 L837.053104,835.072381 C837.053104,839.642008 837.246902,842.436783 837.634505,843.456789 C838.022107,844.476795 838.7463,845.313187 839.807107,845.965991 C840.867913,846.618795 842.581497,846.945192 844.947911,846.945192 L849.905115,846.945192 C857.657161,846.945192 863.868904,845.150008 868.540531,841.559587 C873.212159,837.969166 876.567928,832.502016 878.60794,825.157973 L880.872342,825.157973 L877.139139,851.535196 L805.412677,851.535196 L805.412677,849.270794 L808.166679,849.270794 C810.573893,849.270794 812.511876,848.842398 813.980684,847.985593 C815.04149,847.414389 815.857483,846.435198 816.428686,845.04799 C816.877489,844.068784 817.101887,841.498408 817.101887,837.336783 L817.101887,782.746336 C817.101887,778.992714 816.999888,776.687535 816.795887,775.83073 C816.387884,774.402722 815.633091,773.301132 814.531485,772.525927 C812.981076,771.383521 810.859495,770.812326 808.166679,770.812326 L805.412677,770.812326 L805.412677,768.547924 L874.874737,768.547924 L874.874737,793.089145 L872.549135,793.089145 C871.365928,787.09151 869.703343,782.787149 867.56133,780.175934 C865.419318,777.564719 862.389946,775.647136 858.473123,774.423129 C856.188309,773.688725 851.904348,773.321528 845.621112,773.321528 L837.053104,773.321528 Z" id="Е" transform="translate(843.142509, 810.041560) rotate(-52.000000) translate(-843.142509, -810.041560) "></path>
                <path d="M967.273589,573.933966 L967.273589,595.777135 L965.130935,595.777135 C963.861207,590.737904 962.452625,587.117252 960.905145,584.915068 C959.357664,582.712885 957.234871,580.957116 954.5367,579.64771 C953.028899,578.933488 950.390286,578.576383 946.620783,578.576383 L940.609448,578.576383 L940.609448,640.832391 C940.609448,644.959005 940.837599,647.5381 941.293907,648.569753 C941.750215,649.601407 942.642979,650.50409 943.972225,651.27783 C945.30147,652.05157 947.116757,652.438435 949.418137,652.438435 L952.096455,652.438435 L952.096455,654.640607 L909.838553,654.640607 L909.838553,652.438435 L912.516871,652.438435 C914.85793,652.438435 916.742654,652.021812 918.171097,651.188553 C919.20275,650.633047 920.016157,649.680766 920.611342,648.331681 C921.047811,647.379385 921.266042,644.879647 921.266042,640.832391 L921.266042,578.576383 L915.433261,578.576383 C909.997241,578.576383 906.049242,579.727056 903.589145,582.028437 C900.137074,585.242434 897.954762,589.825288 897.042146,595.777135 L894.780455,595.777135 L894.780455,573.933966 L967.273589,573.933966 Z" id="Т" transform="translate(931.027022, 614.287286) rotate(-79.000000) translate(-931.027022, -614.287286) "></path>
            </g>
            <path d="M537.5,1075 C834.353053,1075 1075,834.353053 1075,537.5 C1075,240.646947 834.353053,0 537.5,0 C240.646947,0 0,240.646947 0,537.5 C0,834.353053 240.646947,1075 537.5,1075 Z M538,1065 C829.606348,1065 1066,828.606348 1066,537 C1066,245.393652 829.606348,9 538,9 C246.393652,9 10,245.393652 10,537 C10,828.606348 246.393652,1065 538,1065 Z" id="Combined-Shape"></path>
        </g>
    </g>
</svg>